<?xml version="1.0" encoding="UTF-8"?>
<svg width="118px" height="34px" viewBox="0 0 118 34" version="1.1" xmlns="http://www.w3.org/2000/svg" xmlns:xlink="http://www.w3.org/1999/xlink">
    <!-- Generator: Sketch 48.2 (47327) - http://www.bohemiancoding.com/sketch -->
    <title>Page 1</title>
    <desc>Created with Sketch.</desc>
    <defs>
        <polygon id="path-1" points="0 0.149076923 35.96004 0.149076923 35.96004 33.9998692 0 33.9998692"></polygon>
        <polygon id="path-3" points="0.229751351 0.149076923 35.8658595 0.149076923 35.8658595 33.9998692 0.229751351 33.9998692"></polygon>
        <polygon id="path-5" points="0.135210811 0.149076923 35.7713189 0.149076923 35.7713189 33.9998692 0.135210811 33.9998692"></polygon>
    </defs>
    <g id="About-Page-Desktop" stroke="none" stroke-width="1" fill="none" fill-rule="evenodd" transform="translate(-1102.000000, -2714.000000)">
        <g id="Page-1" transform="translate(1102.000000, 2714.000000)">
            <path d="M63.9995992,22.3554691 C63.9995992,22.3554691 64.1336289,18.9716168 59.4997996,19.0001798 L55,19.0001798 L55,25.9974206 L59.4997996,25.9974206 C59.4997996,25.9974206 63.9995992,26.2269568 63.9995992,22.3554691" id="Fill-1" fill="#000000"></path>
            <g id="Group-5">
                <mask id="mask-2" fill="white">
                    <use xlink:href="#path-1"></use>
                </mask>
                <g id="Clip-4"></g>
                <path d="M9.45094909,4.91646538 L17.9940764,4.91646538 C25.6915309,5.62490769 25.2146945,11.4277923 25.2146945,11.4277923 C25.2421855,14.96935 22.1056036,16.3041769 22.1056036,16.3041769 C27.6149127,17.6936 27.4237855,22.3797154 27.4237855,22.3797154 C27.4237855,29.2722346 19.2419673,29.2451 19.2419673,29.2451 L9.45094909,29.2451008 L9.45094909,4.91646538 Z M-3.27272727e-05,33.9998692 L35.96004,33.9998692 L35.96004,0.148946154 L-3.27272727e-05,0.148946154 L-3.27272727e-05,33.9998692 Z" id="Fill-3" fill="#000000" mask="url(#mask-2)"></path>
            </g>
            <path d="M20.9993345,11.7531429 C20.9993345,11.7531429 21.1358236,9.18171429 17.4995032,9 L14,9 L14,15 L16.9801226,15 C16.9801226,15 20.9993345,14.9479481 20.9993345,11.7531429" id="Fill-6" fill="#000000"></path>
            <path d="M22.9995992,22.3554691 C22.9995992,22.3554691 23.1336289,18.9716168 18.4997996,19.0001798 L14,19.0001798 L14,25.9974206 L18.4997996,25.9974206 C18.4997996,25.9974206 22.9995992,26.2269568 22.9995992,22.3554691" id="Fill-8" fill="#000000"></path>
            <path d="M61.9993345,11.7531429 C61.9993345,11.7531429 62.1358236,9.18171429 58.4995032,9 L55,9 L55,15 L57.9801226,15 C57.9801226,15 61.9993345,14.9479481 61.9993345,11.7531429" id="Fill-10" fill="#000000"></path>
            <g id="Group-14" transform="translate(41.000000, 0.000000)">
                <mask id="mask-4" fill="white">
                    <use xlink:href="#path-3"></use>
                </mask>
                <g id="Clip-13"></g>
                <path d="M9.58196757,4.91646538 L18.0481297,4.91646538 C25.6762378,5.62490769 25.2036973,11.4277923 25.2036973,11.4277923 C25.2306162,14.96935 22.1226162,16.3041769 22.1226162,16.3041769 C27.5819676,17.6936 27.3928865,22.3797154 27.3928865,22.3797154 C27.3928865,29.2722346 19.2847784,29.2451 19.2847784,29.2451 L9.58196757,29.2451008 L9.58196757,4.91646538 Z M0.229751351,33.9998692 L35.8658595,33.9998692 L35.8658595,0.148946154 L0.229751351,0.148946154 L0.229751351,33.9998692 Z" id="Fill-12" fill="#000000" mask="url(#mask-4)"></path>
            </g>
            <g id="Group-17" transform="translate(82.000000, 0.000000)">
                <mask id="mask-6" fill="white">
                    <use xlink:href="#path-5"></use>
                </mask>
                <g id="Clip-16"></g>
                <path d="M28.7172649,27.3110231 C28.7172649,27.3110231 21.3930486,31.69735 12.9064541,28.3189269 C12.9064541,28.3189269 5.77131892,25.6904654 5.50115676,17.0744077 C5.50115676,17.0744077 5.20342703,8.21348462 14.7171568,5.27085 C14.7171568,5.27085 17.2579135,4.29008077 21.825373,4.72619615 C21.825373,4.72619615 24.5548865,4.99852308 28.5009405,6.66027308 L28.5009405,11.1554654 C28.5009405,11.1554654 24.1494811,8.45867692 19.3387784,8.40408077 C19.3387784,8.40408077 10.3660216,8.22754231 9.96061622,17.0744077 C9.96061622,17.0744077 9.63629189,25.2131577 19.2307784,25.6764077 C19.2307784,25.6764077 23.2579135,26.1667923 28.7172649,22.6523692 L28.7172649,27.3110231 Z M0.135210811,33.9998692 L35.7713189,33.9998692 L35.7713189,0.148946154 L0.135210811,0.148946154 L0.135210811,33.9998692 Z" id="Fill-15" fill="#000000" mask="url(#mask-6)"></path>
            </g>
        </g>
    </g>
</svg>