<svg xmlns="http://www.w3.org/2000/svg" width="108" height="19">
  <g fill="none" fill-rule="evenodd">
    <g transform="translate(0 .484194)">
      <mask id="a" fill="#fff">
        <path d="M0 .12871h26.986742v18.258387H0z"/>
      </mask>
      <path fill="#000" d="M18.86271 6.225871c-.397162-1.930032-1.976-2.441806-3.743-2.606065-5.708581-.53016-6.721097 3.746678-6.721097 5.55229 0 3.089646.900355 5.644227 6.504742 5.644227 1.033355 0 3.887032-1.067065 3.887032-2.79913h8.06029c-.325451 5.138581-8.94471 6.369904-12.703645 6.369904-7.79 0-14.458387-1.453194-14.136-9.14513C.241484 3.751582 5.41684-.101128 15.711774.13913 21.451.272742 26.96284 2.066709 26.986742 6.225871H18.86271z" mask="url(#a)"/>
    </g>
    <g transform="translate(80.290323 .484194)">
      <mask id="b" fill="#fff">
        <path d="M.440057.12871h26.987362v18.258387H.440057z"/>
      </mask>
      <path fill="#000" d="M19.302958 6.225871c-.396548-1.930032-1.976613-2.441806-3.743-2.606065-5.709193-.53016-6.720484 3.746678-6.720484 5.55229 0 3.089646.899742 5.644227 6.504742 5.644227 1.032742 0 3.885807-1.067065 3.885807-2.79913h8.060903c-.323613 5.138581-8.94471 6.369904-12.704258 6.369904-7.789387 0-14.457774-1.453194-14.135387-9.14513C.681732 3.751582 5.858313-.101128 16.150797.13913 21.891248.272743 27.4037 2.06671 27.427603 6.225872h-8.124645z" mask="url(#b)"/>
    </g>
    <path fill="#000" d="M28.4259.99039h10.462871l8.928161 12.546742h.07171V.99039h6.706387v17.421774H44.570997L35.205223 5.86481h-.073549v12.547354H28.4259zm35.596868 13.770587h2.107161c3.910323 0 5.34513-.410645 5.34513-1.761484 0-1.447677-1.811743-1.931257-4.73284-1.931257h-2.719451v3.692741zm0-7.001193h2.107161c3.244097 0 4.965742-.253742 4.965742-1.605194 0-1.447064-1.432355-1.930032-4.353452-1.930032h-2.719451v3.535226zM56.664865.990268h12.70916c6.108194 0 9.701646 1.710613 9.701646 4.294613 0 1.526129-1.504064 3.410806-4.857258 3.965484v.048419c4.037806.240258 5.527774 2.799129 5.527774 4.333226 0 3.070645-3.503355 4.780032-10.334774 4.780032H56.664865V.990268z"/>
  </g>
</svg>
