<?xml version="1.0" encoding="UTF-8"?>
<svg width="144px" height="21px" viewBox="0 0 144 21" version="1.1" xmlns="http://www.w3.org/2000/svg" xmlns:xlink="http://www.w3.org/1999/xlink">
    <!-- Generator: Sketch 48.2 (47327) - http://www.bohemiancoding.com/sketch -->
    <title>Page 1</title>
    <desc>Created with Sketch.</desc>
    <defs>
        <polygon id="path-1" points="0 0 144 0 144 21 0 21"></polygon>
    </defs>
    <g id="About-Page-Desktop" stroke="none" stroke-width="1" fill="none" fill-rule="evenodd" transform="translate(-400.000000, -2720.000000)">
        <g id="Page-1" transform="translate(400.000000, 2720.000000)">
            <mask id="mask-2" fill="white">
                <use xlink:href="#path-1"></use>
            </mask>
            <g id="Clip-2"></g>
            <path d="M15.2489184,6.43250383 L13.8011619,11.0677851 L16.7933941,11.0677851 L15.2489184,6.43250383 Z M16.60084,15.6082704 L16.60084,14.9457513 C17.566011,14.9457513 17.7593864,14.6622921 17.7593864,14.3787092 C17.7593864,13.9997111 17.6627303,13.7162519 17.566011,13.4327309 C17.566011,13.4327309 17.3726989,12.6754777 17.1801448,12.1084975 L13.4159905,12.1084975 L13.0301243,13.3379968 C12.9342263,13.6223228 12.8375702,13.9057819 12.8375702,14.2839751 C12.8375702,14.6630351 13.2234365,14.9457513 13.8027412,14.9457513 L13.8027412,15.6082704 L10.0386501,15.6082704 L10.0386501,14.9457513 C11.0038843,14.9457513 11.3897506,14.6622921 11.77568,13.6223228 L14.6712561,5.10827043 C14.5746001,4.7292104 14.2845055,4.44575127 13.7060851,4.44575127 L13.7060851,3.7832321 L16.7933941,3.7832321 C17.8465664,6.81329756 18.9082039,9.84057672 19.9781804,12.8650077 C20.4608291,14.4727002 20.9434146,14.9457513 21.7152103,14.9457513 L21.7152103,15.6082704 L16.60084,15.6082704 Z M59.0661527,5.39172957 C56.5573273,5.39172957 55.6879911,7.75673723 55.6879911,10.5 C55.6879911,13.0545377 56.460608,15.6082704 59.0661527,15.6082704 C61.5757995,15.6082704 62.3476583,13.0537328 62.3476583,10.405204 C62.3484796,7.85147128 61.3832454,5.39172957 59.0661527,5.39172957 Z M59.0661527,16.7429738 C55.3987177,16.7429738 52.889071,14.1884361 52.889071,10.5 C52.889071,7.00022703 55.495437,4.25702618 59.0661527,4.25702618 C62.5410336,4.25702618 65.1465784,6.90549298 65.1465784,10.5 C65.1473365,13.9997111 62.4443144,16.7429738 59.0661527,16.7429738 Z M91.7844261,1.98675257 L91.3026618,1.98675257 L91.3026618,11.7294374 L92.1704186,11.7294374 C95.3568475,11.7294374 96.9971581,10.31047 96.9971581,6.71596297 C96.9971581,3.12151787 95.5485171,1.98675257 91.7844261,1.98675257 Z M92.7496602,13.1492717 L91.3026618,13.1492717 L91.3026618,17.215963 C91.3026618,19.2975115 91.880324,19.7705006 93.5222771,19.7705006 L93.5222771,20.5269489 L86.0907511,20.5269489 L86.0907511,19.7705006 C87.63529,19.7705006 88.2145948,19.2035205 88.2145948,17.1220338 L88.2145948,3.78403703 C88.2145948,1.70329343 87.63529,1.32503833 86.0907511,1.32503833 L86.0907511,0.663324095 L91.6885912,0.663324095 C97.093056,0.663324095 100.277021,2.27107855 100.277021,6.62203385 C100.277906,11.1625192 96.4179165,13.1492717 92.7496602,13.1492717 Z M104.718779,4.54048532 L102.015693,13.1492717 L107.613534,13.1492717 L104.718779,4.54048532 Z M116.782848,5.48652553 L116.782848,16.8377079 C116.782848,19.2966447 117.36051,19.7696957 118.904986,19.7696957 L118.904986,20.5262059 L107.517636,20.5262059 L107.517636,19.7696957 C108.386972,19.7696957 109.157946,19.4854317 109.157946,18.9184515 C109.157946,18.5394534 109.062111,17.8776772 108.867915,17.215158 L107.998642,14.4718953 L101.629764,14.4718953 C101.532287,14.8509553 100.375383,17.9716682 100.375383,18.8237174 C100.375383,19.5801657 101.244656,19.7696957 101.822318,19.7696957 L101.822318,20.5262059 L96.5137513,20.5262059 L96.5137513,19.7696957 C97.4789223,19.7696957 98.2515392,19.6749617 98.926742,17.6889521 L103.849443,2.26946869 C103.559348,1.60775445 103.17424,1.41822444 102.4991,1.32342847 L102.4991,0.661714235 L106.842496,0.661714235 L112.052701,16.8377079 C112.536171,18.5401964 113.017935,19.3922455 113.790552,19.7696957 C114.949162,19.3914406 115.239193,19.0131855 115.239193,16.8377079 L115.239193,3.21625192 C114.369857,2.0807436 114.27238,1.32429532 112.632006,1.32429532 L112.632006,0.662519165 L117.554643,0.662519165 L125.66213,14.1892411 L125.66213,3.87877108 C125.66213,1.79728447 125.180366,1.32429532 123.538413,1.32429532 L123.538413,0.662581083 L134.348101,0.662581083 L134.348101,1.32429532 C133.672961,1.32429532 133.093656,1.60855938 133.093656,2.27027362 C133.093656,2.74326277 133.286968,3.21625192 133.479522,3.78403703 L136.568537,10.3112749 L139.560769,3.97356705 C140.042597,3.1223228 140.140074,2.64927173 140.140074,2.17628258 C140.140074,1.60855938 139.752502,1.32429532 138.88563,1.32429532 L138.88563,0.662581083 L144,0.662581083 L144,1.32429532 C142.745619,1.32429532 141.972117,2.45980363 141.394455,3.7832321 L137.437052,11.7294374 L137.437052,16.9325038 C137.437052,19.2035205 138.016357,19.7705006 139.560769,19.7705006 L139.560769,20.5269489 L132.225141,20.5269489 L132.225141,19.7705006 C133.769617,19.7705006 134.348922,19.2035205 134.348922,16.9325038 L134.348922,12.4867526 L130.101424,3.68924107 C129.330386,1.98681448 129.040355,1.60855938 128.556885,1.32429532 C127.591714,1.7024885 127.302441,2.36500767 127.302441,3.87877108 L127.302441,18.4462672 C127.302441,18.4462672 127.399981,19.5817756 127.495816,20.905204 L126.241372,21 L116.782784,5.48652553 L116.782848,5.48652553 Z M12.6433736,4.35182215 L11.871578,4.35182215 C11.871578,2.6484668 11.0997191,1.98675257 9.55524339,1.98675257 L5.21184756,1.98675257 L5.21184756,9.46003066 L8.01076764,9.46003066 C9.45858731,9.46003066 9.74861873,8.70358238 9.94117281,7.4732781 L10.6163124,7.4732781 L10.6163124,12.7710785 L9.94117281,12.7710785 C9.74861873,11.3520492 9.45858731,10.784326 7.91411156,10.784326 L5.21184756,10.784326 L5.21184756,17.1228388 C5.21184756,19.4869796 5.79115232,19.7713056 7.33562807,19.7713056 L7.33562807,20.5277539 L0,20.5277539 L0,19.7713056 C1.83368591,19.7713056 2.12289607,19.2983164 2.12289607,17.1228388 L2.12289607,3.21625192 C2.12289607,1.89201852 1.54365449,1.32429532 0,1.32429532 L0,0.662519165 L10.0370076,0.662519165 C11.7740375,0.662519165 12.1599669,0.567785116 12.4499983,0 L13.1259591,0 L12.6433736,4.35182215 Z M23.6456154,21 C22.294515,21 21.2326248,20.8112749 20.4608291,20.5269489 C19.6889703,20.3382238 19.1096655,20.0540217 18.8204554,19.8652966 C18.4345259,20.2434898 18.1444945,20.7164789 18.1444945,20.7164789 L17.5652529,20.5277539 L18.0478384,16.0820645 L18.7237361,16.1767986 C19.1096655,18.2575422 20.5574852,19.7713056 23.5497174,19.7713056 C25.866052,19.7713056 27.4105278,17.880092 27.4105278,15.7985435 C27.4105278,14.096055 26.7345669,13.2440058 24.4182955,11.5415173 C23.6464367,11.06859 22.9704758,10.6903349 22.3911711,10.2172839 C20.268275,8.89385541 18.9163534,7.38009199 18.9163534,4.92035028 C18.9163534,2.08235346 21.329344,0.190334945 24.5141303,0.190334945 C26.3478162,0.190334945 27.5063626,0.758058144 27.892292,0.946783229 L28.5674316,0.190334945 L29.0500171,0.285068994 L28.5674316,4.35256516 L27.892292,4.25783111 C27.892292,2.36661753 26.7337457,1.51456835 24.8033405,1.51456835 C22.9696546,1.51456835 21.6185542,2.46060856 21.6185542,4.25783111 C21.6185542,5.86632858 22.8729985,6.90629791 24.320755,7.85308114 C25.0926138,8.32613221 25.6718554,8.70432539 26.2503389,9.08258049 C29.6285006,11.4467832 30.4003594,12.9605466 30.4003594,15.2307583 C30.4020019,18.5410013 27.7956359,20.9999381 23.6456154,20.9999381 L23.6456154,21 Z M44.1064445,4.35182215 L43.431305,4.35182215 C43.3346489,2.55453768 42.7553441,1.98675257 41.3075245,1.98675257 L38.5086675,1.98675257 L38.5086675,16.8385128 C38.5086675,19.2975115 38.991253,19.7705006 40.6323849,19.7705006 L40.6323849,20.5269489 L33.3934129,20.5269489 L33.3934129,19.7705006 C35.0346079,19.7705006 35.5171934,19.2975115 35.5171934,16.7429738 L35.5171934,1.98675257 L32.7182733,1.98675257 C30.8845874,1.98675257 30.594556,2.45974171 30.1119073,4.35182215 L29.4367677,4.35182215 L29.9194164,0.0947959665 L30.4020019,0.189530015 C30.594556,0.662519165 30.9812435,0.662519165 32.1389686,0.662519165 L41.5008998,0.662519165 C43.2387509,0.662519165 43.6246171,0.662519165 44.0105465,0.0947959665 L44.5898513,0.0947959665 L44.1064445,4.35176023 L44.1064445,4.35182215 Z M62.3484796,20.6217449 C61.9625502,20.5269489 61.5766207,20.5269489 61.1898701,20.5269489 C60.4180744,20.5269489 59.0661527,20.905204 57.425779,20.905204 C51.1520412,20.905204 46.5194352,17.215963 46.5194352,10.405266 C46.5194352,4.63528128 50.862831,0.189530015 57.521677,0.189530015 C59.0653315,0.189530015 60.8031826,0.473855997 62.2509391,1.04077427 C62.5402124,0.756510202 62.6368685,0.567785116 62.9261418,0.284325982 L63.5053834,0.284325982 C63.4087273,1.32503833 63.0227979,4.73001533 63.0227979,4.73001533 L62.4435563,4.73001533 C62.0576269,2.7440677 60.9957366,1.41902937 57.617575,1.41902937 C53.5642106,1.41902937 49.8968388,4.54048532 49.8968388,10.3112749 C49.8968388,16.8385128 53.6609298,19.6757047 57.8109503,19.6757047 C60.5139724,19.6757047 62.154283,18.1628081 63.2161732,16.2707896 L63.8921341,16.5550537 L62.3484796,20.6217449 Z M68.428842,5.67605555 C68.428842,8.51405236 68.1396319,17.3115639 68.1396319,17.3115639 C68.1396319,19.0140524 68.7181154,19.7705006 70.3592472,19.7705006 L70.3592472,20.5269489 L63.8929553,20.5269489 L63.8929553,19.7705006 C65.5332659,19.7705006 66.4017808,19.0140524 66.4017808,17.3115639 L66.9810856,2.93279278 C66.4985001,1.79728447 66.0158514,1.41902937 64.7614702,1.32503833 L64.7614702,0.663324095 L69.6832864,0.663324095 L74.8951971,14.0961169 L80.2037639,0.663324095 L84.6429946,0.663324095 L84.6429946,1.32503833 C83.3885503,1.32503833 82.7134107,1.89282345 82.7134107,3.21705685 L83.2926523,17.1228388 C83.2926523,19.2043254 83.6786448,19.7713056 85.4164959,19.7713056 L85.4164959,20.5277539 L77.9849699,20.5277539 L77.9849699,19.7713056 C79.4319051,19.7713056 80.1086872,19.2983164 80.0112099,17.1228388 C80.0112099,17.1228388 79.7211153,7.37934898 79.6252804,5.67679856 L76.055386,15.3255543 C75.519229,16.684895 75.0677251,18.074885 74.7034011,19.4877845 L73.5464973,19.5825805 C73.2564659,18.5418062 72.4846071,16.6505926 72.4846071,16.6505926 C72.4846071,16.6505926 69.489911,8.4192564 68.428842,5.67605555 Z" id="Fill-1" fill="#000000" mask="url(#mask-2)"></path>
        </g>
    </g>
</svg>