<?xml version="1.0" encoding="UTF-8"?>
<svg width="80px" height="21px" viewBox="0 0 80 21" version="1.1" xmlns="http://www.w3.org/2000/svg" xmlns:xlink="http://www.w3.org/1999/xlink">
    <!-- Generator: Sketch 48.2 (47327) - http://www.bohemiancoding.com/sketch -->
    <title>Page 1</title>
    <desc>Created with Sketch.</desc>
    <defs>
        <polygon id="path-1" points="0 0 80 0 80 21 0 21"></polygon>
    </defs>
    <g id="About-Page-Desktop" stroke="none" stroke-width="1" fill="none" fill-rule="evenodd" transform="translate(-52.000000, -2720.000000)">
        <g id="Page-1" transform="translate(52.000000, 2720.000000)">
            <mask id="mask-2" fill="white">
                <use xlink:href="#path-1"></use>
            </mask>
            <g id="Clip-2"></g>
            <path d="M50.68054,15.1477296 C50.4160886,16.8292407 49.9349786,18.1268961 49.2652909,18.9653962 C48.9405624,19.3717376 48.4013886,19.7561832 47.9797257,19.8818679 C47.7078045,19.9629627 47.1248148,19.9820826 46.6057333,19.9270478 C46.489502,19.9147639 46.3650746,19.8693411 46.3293856,19.8261738 C46.2307912,19.7069433 46.1240354,11.8730199 46.189742,9.58105971 L46.241823,7.76317612 L46.7019415,7.63003076 C47.3807935,7.433696 48.1116229,7.46416294 48.6297014,7.71060504 C49.6701122,8.20536308 50.353702,9.42747582 50.7086209,11.4277793 C50.8242644,12.0793831 50.8071115,14.3423684 50.68054,15.1477296 Z M54.9660917,10.93722 C54.3930963,8.30235065 52.7535114,6.48269735 50.5378877,6.02270909 C50.1990842,5.95240612 49.8930648,5.93790136 49.2326106,5.96101181 C48.240546,5.99574689 47.5575095,6.14481973 46.8164783,6.48835351 C46.5705631,6.60234426 46.3559449,6.69558419 46.3395182,6.69558419 C46.3229878,6.69558419 46.3255124,5.18937943 46.345086,3.34838539 C46.3726136,0.75449718 46.36504,0.000908996255 46.3112298,6.78633798e-06 C46.1241738,-0.00318564875 40.2503573,1.12100261 40.1858266,1.17235917 C40.1377225,1.21063369 40.1173535,1.33541627 40.1283161,1.52422104 C40.1474056,1.85203554 40.108535,1.82618376 40.8246323,1.98760993 C41.0400805,2.03619047 41.2923243,2.1301938 41.385178,2.19650623 C41.6241422,2.36726681 41.8228525,2.73682587 41.9605595,3.2667354 C42.069252,3.68497909 42.0838457,3.98385348 42.1339902,6.81096296 C42.1852758,9.69692428 42.1753161,12.6645009 42.0961916,18.1005239 L42.0633038,20.3583042 L42.4846554,20.4544936 C43.0937548,20.593434 44.837329,20.8845702 45.4079382,20.9426239 C46.2447971,21.0277439 48.1957272,21.0159111 48.8169996,20.9220119 C51.5141828,20.5140742 53.5472806,18.9442983 54.4949414,16.5380698 C54.7460441,15.9004156 54.9873599,14.9178049 55.0719484,14.188507 C55.1711306,13.3328996 55.1155567,11.6245652 54.9660917,10.93722 Z M28.4280266,20.404074 C28.3755651,20.3705881 28.3584122,20.2374427 28.3705161,19.9574801 L28.3877727,19.5587033 L28.5890421,19.5157789 C28.6997749,19.4921133 28.9375979,19.4450942 29.1174954,19.4113655 C29.6744099,19.306952 29.9944352,19.0037054 30.1745748,18.4095655 C30.3212733,17.9257033 30.3859077,16.3774417 30.3892622,13.2682875 C30.3934121,9.46581974 30.314426,8.56777387 29.9312532,8.05878867 C29.7235861,7.78285124 29.573879,7.70446308 29.0699446,7.60737141 C28.8212282,7.55948488 28.5595433,7.50809362 28.4884074,7.49324186 C28.3731443,7.46915979 28.3590001,7.43147518 28.3590001,7.14863237 C28.3590001,6.87363184 28.3763259,6.8239409 28.4884074,6.77768529 C28.6604893,6.70668831 34.3581777,5.56393535 34.5402193,5.56393535 L34.6822145,5.56393535 L34.6543757,6.4151357 C34.6390211,6.88327855 34.6145714,7.56500224 34.5999776,7.93001556 L34.5733838,8.59369505 L34.779806,8.22018015 C35.4405714,7.0245438 36.1816026,6.28230264 37.1669928,5.82921976 C37.7078957,5.58041803 38.0688665,5.50619391 38.7371364,5.50619391 C39.5296606,5.50619391 40.3220466,5.76564866 40.3220466,6.02524222 C40.3220466,6.19975044 38.9256449,9.90200353 38.8486299,9.93160296 C38.8110735,9.94603832 38.538426,9.84145137 38.2427467,9.699041 C37.6260738,9.40210984 37.0475798,9.25695814 36.4860312,9.25817266 C35.7866373,9.25966477 35.0054214,9.51814791 34.6970504,9.85012646 C34.5651186,9.99208572 34.5644615,10.000622 34.531712,12.1209194 C34.4992738,14.2207436 34.5689573,16.7820482 34.6866411,17.8121637 C34.7868954,18.6897363 35.0192889,19.1217561 35.4992577,19.3230183 C35.6593741,19.3900941 36.6724302,19.5293815 37.0030377,19.5297285 C37.0280754,19.5297285 37.0409746,19.7310254 37.0317757,19.9769817 L37.0149686,20.4242696 L32.7589503,20.4379762 C30.4180002,20.445645 28.469145,20.4304116 28.4280266,20.404074 Z M0.0764270492,20.4150046 C0.0286342067,20.3956071 0.00453029115,20.2518087 0.00453029115,19.9855874 C0.00453029115,19.5073467 -0.0257638695,19.5287569 0.896029342,19.3571982 C1.60310059,19.2255449 1.8560015,19.0909768 2.16821118,18.6802284 C2.77357566,17.8837853 2.90440078,16.3504101 2.90578408,10.0365716 C2.90706363,4.10707453 2.79318386,2.85973462 2.16713913,1.94329755 C1.8893389,1.53671318 1.42123187,1.31591465 0.637145681,1.22173782 L0.0332336626,1.14917932 L0.0166687049,0.676074318 L0,0.203038718 L0.189234757,0.169205846 C0.293327707,0.150641142 3.94930725,0.142764156 8.31377591,0.151716854 L16.2491515,0.168095434 L16.2862929,0.398957072 C16.3067657,0.525925767 16.3403452,1.82819638 16.3609563,3.29289948 L16.3983398,5.95598026 L15.9892303,6.08072813 C15.3733874,6.26838779 15.3770531,6.27067802 15.1000137,5.53509933 C14.4195018,3.72831987 13.639185,2.68723903 12.5713505,2.16149355 C11.8348842,1.79890926 11.4943861,1.75508268 9.41463666,1.75508268 L7.60466431,1.75508268 L7.57343642,2.05805171 C7.51488846,2.62623575 7.4225881,6.28105343 7.42321059,8.00222705 L7.42383307,9.71909782 L7.95584833,9.71604419 C8.24848439,9.71437857 8.82545674,9.69279493 9.23805906,9.66801886 C9.85825937,9.63082005 10.0425834,9.59781999 10.3020896,9.47723616 C10.9396157,9.18106841 11.3733478,8.52929114 11.6391134,7.46801468 L11.7762671,6.92009565 L12.2457228,6.90330067 L12.715144,6.88650569 L12.715144,13.8211687 L12.2455499,13.804339 L11.7759558,13.7875787 L11.6426408,13.2393127 C11.3921952,12.2091625 10.9101861,11.4717447 10.3145738,11.2073972 C10.039471,11.0853559 9.35885529,11.0159205 8.04213136,10.9757374 L7.42383307,10.9568257 L7.42383307,12.259478 C7.42383307,13.6788972 7.501678,15.5992163 7.6013444,16.6414075 C7.74029638,18.0943125 8.11036238,18.8970711 8.77479356,19.1876174 C8.90167629,19.2431033 9.30317767,19.3331161 9.66691509,19.3878039 C10.0306871,19.4424917 10.3736405,19.510678 10.4289723,19.5394446 C10.5693422,19.6121419 10.5776419,20.3646543 10.43869,20.4180929 C10.3298592,20.4600804 0.18010501,20.4569227 0.0764270492,20.4150046 Z M72.6160369,20.7618349 C71.5913611,20.6516265 69.9606292,20.2934145 69.4176513,20.0591522 L69.1524391,19.9448838 L69.1162659,18.6264428 C69.0963811,17.9013784 69.073453,16.9317803 69.0652915,16.4719656 L69.0504557,15.6358946 L69.2094309,15.5594149 C69.2968551,15.5174275 69.4732598,15.4781119 69.6014912,15.4721435 L69.834611,15.4612822 L70.033183,15.9518068 C70.8081049,17.8654635 71.7168606,18.897314 72.9038314,19.2111096 C73.356653,19.33093 74.2056849,19.331971 74.5408573,19.2131222 C75.4798725,18.8805884 75.9947695,18.1671486 75.9992652,17.1925884 C76.0045218,16.0383843 75.3722868,15.4838722 72.9836821,14.5475865 C71.5038331,13.9675349 70.9875874,13.6690769 70.3729549,13.0377729 C69.7098724,12.3567432 69.3916454,11.5816408 69.331887,10.5019384 C69.2597136,9.19734289 69.6665753,8.0975143 70.5683107,7.1603264 C71.4757176,6.21720473 72.6537317,5.70599871 74.2584922,5.55904259 C75.6715972,5.42967957 77.8407421,5.73039308 78.9772573,6.21324888 L79.1846132,6.30131845 L79.2216164,7.47641217 C79.2419508,8.12270677 79.2630115,8.9890712 79.2683372,9.40169343 L79.2781586,10.151881 L78.9996667,10.2556351 C78.5594331,10.4196291 78.530453,10.3990865 78.2855406,9.74800324 C77.5990805,7.92297138 76.8015072,7.05948709 75.5588241,6.79569479 C74.8014701,6.63489322 74.1687855,6.80773582 73.7089437,7.30103644 C73.3501861,7.68586367 73.2102313,8.02762773 73.1763405,8.60150264 C73.1395449,9.22326407 73.2503122,9.55937197 73.6289201,9.97504784 C74.0955401,10.487399 74.8600872,10.9296206 76.3831296,11.5682811 C78.2485029,12.3504277 79.1384803,13.0143848 79.6223569,13.9848504 C79.9366416,14.6151828 80.0255874,15.1185813 79.9940137,16.0875894 C79.9702556,16.8147359 79.9470509,16.9641905 79.7821967,17.4523207 C79.2446828,19.0439925 78.0313602,20.0918746 76.1568571,20.583232 C75.5219593,20.7496204 75.4312843,20.7581567 74.1687855,20.7721062 C73.4413107,20.7799832 72.7425046,20.7754722 72.6160369,20.7618349 Z M62.9190697,11.299145 L63.9196762,11.2642364 L63.8836067,10.5510048 C63.7566203,8.03605992 63.1432327,6.66161251 62.1484015,6.66275763 C61.0672181,6.66397214 60.2031775,8.05871927 59.8439703,10.3828467 C59.7997741,10.6685003 59.7632205,11.0072801 59.7626326,11.1356715 L59.7615951,11.369101 L60.8399773,11.3516467 C61.4331342,11.3418612 62.3686912,11.3183343 62.9190697,11.299145 Z M61.1132472,20.7058285 C58.2599246,20.1894868 56.2193224,18.1590981 55.5525742,15.173165 C55.4667754,14.7891706 55.4289076,14.3593369 55.4073974,13.5279852 C55.3733338,12.2127019 55.4799512,11.3963061 55.818236,10.3818404 C56.4678314,8.434108 57.6319087,7.05393503 59.3229177,6.22671263 C61.1077832,5.35361634 63.5479848,5.29643011 65.1275348,6.09068714 C66.9060026,6.98498537 67.9523961,8.7705976 68.217885,11.3638612 C68.2536432,11.7130511 68.2743234,12.1284841 68.2639487,12.2872037 L68.2450322,12.575772 L63.9890138,12.5905544 L59.7329609,12.6053367 L59.7491109,13.109915 C59.7867365,14.2787973 60.0371821,15.3127299 60.5004476,16.2115045 C60.7109851,16.6201015 60.8786058,16.8428085 61.2857787,17.2552573 C62.2055661,18.1871707 63.1206158,18.5478465 64.5640841,18.5478465 C65.6106851,18.5478465 66.3633014,18.3382909 67.1505,17.8276748 C67.370928,17.6846051 67.5943993,17.5676301 67.6468608,17.5676301 C67.7670346,17.5676301 68.0436936,17.9249052 68.0436936,18.0801894 C68.0436936,18.3345432 67.2184889,19.1545826 66.4136187,19.7000726 C65.7544441,20.1468747 64.7090189,20.5515506 63.8025111,20.7106171 C63.167717,20.8221442 61.7415398,20.8195416 61.1132472,20.7058285 Z M21.9632319,19.6146403 C22.3706469,19.4932237 22.8730942,19.0203963 23.1410384,18.5063101 C23.694149,17.4450683 23.9411709,15.8757089 23.9473265,13.383701 C23.9549692,10.2606667 23.4670465,8.27334113 22.4371834,7.23285019 C22.0047308,6.79583359 21.6980888,6.6601898 21.1451512,6.66105731 C19.9179611,6.66300053 19.1391314,7.94851086 18.8314174,10.4796955 C18.6899755,11.643234 18.6892493,14.4151004 18.8301033,15.4323768 C19.265945,18.5807077 20.3914284,20.0829566 21.9632319,19.6146403 Z M19.8767735,20.7351503 C18.4822046,20.5314591 17.2624497,19.9391236 16.3309734,19.0132827 C15.5540457,18.2410951 15.0502843,17.3918727 14.6789387,16.2283342 C14.0991652,14.4115957 14.0989923,12.0758783 14.6783854,10.2961999 C15.2399686,8.57152151 16.5043348,7.07027891 18.0517578,6.29083894 C20.1947238,5.21141417 23.2108603,5.27921872 25.1956811,6.4514323 C26.9818954,7.5063933 28.0638396,9.38094261 28.3649137,11.9419696 C28.4568337,12.723908 28.3972137,14.3755767 28.2524173,15.0573351 C27.6599174,17.8478357 25.9343952,19.7970949 23.4063199,20.5317367 C23.1338799,20.6108535 22.7114216,20.7035383 22.4675813,20.7375446 C21.9514739,20.8096173 20.3762813,20.8081252 19.8768081,20.7351503 L19.8767735,20.7351503 Z" id="Fill-1" fill="#000000" mask="url(#mask-2)"></path>
        </g>
    </g>
</svg>