<?xml version="1.0" encoding="UTF-8"?>
<svg xmlns="http://www.w3.org/2000/svg" width="94" height="22">
  <path d="M76.2.3h3.6v21.1h-3.9c-1.1-3.4-2.1-6.7-3.2-10.1-.1.1 0 .2 0 .2v9.8c-.1 0-3.3.1-3.5 0V.2h3.6c1.2 3.7 2.4 7.5 3.5 11.2.1-.1 0-.1 0-.2V.4c-.1 0-.1 0-.1-.1zM26.8 21.4V.4h4.7c.5 0 .9 0 1.4.1 1.7.4 2.9 1.5 3.5 3.1.2.5.3 1 .3 1.5v3.8c0 .7-.1 1.4-.4 2-.3.8-.8 1.6-1.5 2.1.8 2.8 1.6 5.5 2.4 8.3h-3.5c-.2 0-.2 0-.2-.2-.1-.4-.2-.9-.3-1.3-.7-2.8-1.5-5.5-2.2-8.3v-.2c.1 0 .2-.1.3-.1.4-.2.8-.4 1.1-.7.3-.4.6-.9.6-1.5V5.5c0-.2 0-.4-.1-.6-.1-.5-.4-.8-.9-.9h-1.8v17.6c-1.1-.2-2.2-.2-3.4-.2zm-4.7-10.5v6.5c0 .5-.2 1-.4 1.4-.6 1.2-1.6 2.1-2.9 2.6-2.4.8-5-.3-6.1-2.7-.3-.6-.4-1.2-.4-1.9V4.7c0-1.2.5-2.3 1.3-3.1.7-.8 1.6-1.3 2.6-1.5.3-.1.7-.1 1.2-.1 1.8.1 3.1.9 4 2.5.3.5.5 1.1.6 1.7V5c.1 2 .1 3.9.1 5.9zm-3.6-.1V4.9c0-.3-.1-.5-.2-.7-.3-.6-.8-.8-1.3-.7-.5.1-.9.4-1.1.9-.1.2-.1.4-.1.6v11.8c0 .1 0 .3.1.4.2.7.9 1 1.4 1 .6-.1 1.2-.6 1.2-1.3v-6.1zM54.6.3h3.5v16.6c.1.5.5.9 1 1 .6.1 1.1-.1 1.5-.6.2-.2.2-.5.2-.7V.3h3.6v16.5c0 1.2-.4 2.3-1.2 3.2-.8.9-1.8 1.4-2.9 1.6-1.7.3-3.5-.4-4.6-1.8-.5-.7-.9-1.5-1-2.3V.6c-.1-.1-.1-.2-.1-.3zM88 8.7h3.3v3.6h-3.2c0 .1-.1 5.1 0 5.5h5v3.6h-8.7V.3H93c0 .1.1 3.4 0 3.6h-5.1c.1.1.1 4.5.1 4.8zM3.6 21.4H0V.3h8.7v3.6H3.6v4.8h3.3v3.6H3.6v9.1zM40.6.3h9.8v3.6h-3.2v17.5h-3.6V4.3h-3.1c.1-1.6.1-2.8.1-4z"/>
</svg>
