<?xml version="1.0" encoding="UTF-8"?>
<svg width="234px" height="33px" viewBox="0 0 234 33" version="1.1" xmlns="http://www.w3.org/2000/svg" xmlns:xlink="http://www.w3.org/1999/xlink">
    <!-- Generator: Sketch 48.2 (47327) - http://www.bohemiancoding.com/sketch -->
    <title>*logo_Expensify</title>
    <desc>Created with Sketch.</desc>
    <defs></defs>
    <g id="Homepage_desktop" stroke="none" stroke-width="1" fill="none" fill-rule="evenodd" transform="translate(-1109.000000, -1917.000000)">
        <g id="#customer_metric" transform="translate(1109.000000, 1768.000000)" fill="#161513">
            <g id="Expensify" transform="translate(0.000000, 149.000000)">
                <g id="*logo_Expensify">
                    <polygon id="Shape" points="89.1523943 15.03 101.739801 15.03 101.739801 10.598125 89.1523943 10.598125 89.1523943 5.04333333 102.869496 5.04333333 102.869496 0.249791667 83.438153 0.249791667 83.438153 26.1775 103.158862 26.1775 103.158862 21.3839583 89.1523943 21.3839583"></polygon>
                    <polygon id="Shape" points="122.010012 7.404375 116.297233 7.404375 113.022139 12.3058333 109.71051 7.404375 103.816511 7.404375 109.999876 16.3016667 103.233396 26.1775 109.019248 26.1775 112.949067 20.2595833 116.880348 26.1775 122.774347 26.1775 115.823725 16.1922917"></polygon>
                    <path d="M140.131903,9.94479167 C139.427488,9.02458333 138.541853,8.288125 137.475,7.73104167 C136.405224,7.1725 135.133769,6.89395833 133.653327,6.89395833 C132.488557,6.89395833 131.420243,7.124375 130.452767,7.58375 C129.480908,8.043125 128.681499,8.7825 128.050155,9.7975 L127.977083,9.7975 L127.977083,7.4 L123.062251,7.4 L123.062251,32.7458333 L128.228451,32.7458333 L128.228451,23.85 L128.301524,23.85 C128.929944,24.7702083 129.73666,25.4658333 130.71875,25.936875 C131.702301,26.409375 132.773539,26.6470833 133.941231,26.6470833 C135.323756,26.6470833 136.529447,26.3802083 137.562687,25.8479167 C138.593004,25.315625 139.455255,24.5995833 140.143595,23.705625 C140.83778,22.8116667 141.349285,21.780625 141.691262,20.6183333 C142.030317,19.4560417 142.201306,18.2470833 142.201306,16.985625 C142.201306,15.655625 142.030317,14.3795833 141.691262,13.1575 C141.356592,11.9383333 140.836318,10.8664583 140.131903,9.94479167 L140.131903,9.94479167 Z M136.818812,19.0608333 C136.674129,19.7841667 136.427146,20.4214583 136.072015,20.966875 C135.719807,21.5122917 135.257991,21.9527083 134.68949,22.2910417 C134.119527,22.6322917 133.409266,22.8 132.560168,22.8 C131.734453,22.8 131.030037,22.6322917 130.449845,22.2910417 C129.866729,21.9527083 129.40199,21.5122917 129.049782,20.966875 C128.697575,20.4214583 128.443284,19.7870833 128.285448,19.0608333 C128.127612,18.3345833 128.051617,17.5952083 128.051617,16.845625 C128.051617,16.0727083 128.123228,15.31875 128.269372,14.5954167 C128.414055,13.8691667 128.663961,13.2289583 129.016169,12.6704167 C129.368377,12.111875 129.830193,11.66125 130.398694,11.3097917 C130.967195,10.9583333 131.678918,10.7833333 132.528016,10.7833333 C133.350808,10.7833333 134.052301,10.9583333 134.619341,11.3097917 C135.186381,11.66125 135.655504,12.120625 136.019403,12.6864583 C136.381841,13.2552083 136.641978,13.9027083 136.802736,14.631875 C136.960572,15.358125 137.036567,16.0945833 137.036567,16.845625 C137.036567,17.5966667 136.964956,18.3345833 136.818812,19.0608333 L136.818812,19.0608333 Z" id="Shape"></path>
                    <path d="M160.945771,13.8677083 C160.606716,12.53625 160.054291,11.350625 159.292879,10.309375 C158.528545,9.268125 157.55084,8.43979167 156.359764,7.82 C155.174534,7.203125 153.775933,6.89395833 152.175653,6.89395833 C150.743439,6.89395833 149.439832,7.14770833 148.264832,7.65666667 C147.086909,8.16270833 146.075591,8.85979167 145.226493,9.74354167 C144.377394,10.6272917 143.721206,11.6729167 143.260852,12.8847917 C142.799036,14.09375 142.566667,15.401875 142.566667,16.8047917 C142.566667,18.254375 142.790267,19.5872917 143.241853,20.7991667 C143.690516,22.008125 144.327705,23.049375 145.151959,23.9229167 C145.977674,24.7935417 146.983147,25.464375 148.174223,25.936875 C149.359453,26.409375 150.69375,26.6470833 152.174192,26.6470833 C154.307898,26.6470833 156.128856,26.1614583 157.63268,25.1945833 C159.136505,24.22625 160.250124,22.61625 160.977923,20.3660417 L156.431374,20.3660417 C156.263308,20.945 155.800031,21.49625 155.04885,22.0183333 C154.297668,22.5375 153.398881,22.8 152.358333,22.8 C150.902736,22.8 149.786194,22.4252083 149.010168,21.675625 C148.235603,20.9260417 147.808862,19.71125 147.738713,18.0429167 L161.312593,18.0429167 C161.406126,16.5904167 161.287749,15.200625 160.945771,13.8677083 L160.945771,13.8677083 Z M147.73579,14.7733333 C147.759173,14.4116667 147.838091,14.0004167 147.975466,13.538125 C148.106996,13.07875 148.337904,12.6441667 148.666729,12.2314583 C148.992631,11.8202083 149.431063,11.473125 149.976182,11.1960417 C150.522761,10.9175 151.208178,10.7789583 152.03097,10.7789583 C153.292195,10.7789583 154.233364,11.1172917 154.850093,11.796875 C155.469745,12.4764583 155.897948,13.4666667 156.140547,14.7733333 L147.73579,14.7733333 L147.73579,14.7733333 Z" id="Shape"></path>
                    <path d="M178.44801,9.02020833 C177.940889,8.35375 177.24232,7.83458333 176.356685,7.45979167 C175.471051,7.085 174.33551,6.89541667 172.952985,6.89541667 C171.862749,6.89541667 170.795896,7.141875 169.749502,7.640625 C168.708955,8.139375 167.856934,8.93125 167.203669,10.0191667 L167.0926,10.0191667 L167.0926,7.404375 L162.18069,7.404375 L162.18069,26.1775 L167.349813,26.1775 L167.349813,16.338125 C167.349813,14.4233333 167.665485,13.0525 168.293905,12.2154167 C168.925249,11.38125 169.943874,10.9641667 171.349782,10.9641667 C172.587624,10.9641667 173.449876,11.3447917 173.933613,12.1075 C174.421735,12.8702083 174.661412,14.0266667 174.661412,15.5739583 L174.661412,26.1760417 L179.830535,26.1760417 L179.830535,14.6289583 C179.830535,13.4652083 179.725311,12.4079167 179.520709,11.45125 C179.316107,10.4960417 178.955131,9.68520833 178.44801,9.02020833 L178.44801,9.02020833 Z" id="Shape"></path>
                    <path d="M195.877177,16.465 C195.320367,16.066875 194.684639,15.7460417 193.967071,15.5025 C193.249502,15.2589583 192.515858,15.05625 191.764677,14.885625 C191.039801,14.715 190.322233,14.5575 189.62074,14.413125 C188.916325,14.2658333 188.29375,14.1039583 187.74717,13.9202083 C187.197668,13.739375 186.759235,13.503125 186.417257,13.21 C186.078203,12.92125 185.907214,12.5464583 185.907214,12.085625 C185.907214,11.6977083 186.006592,11.3885417 186.199502,11.1566667 C186.390951,10.9291667 186.630628,10.7527083 186.911225,10.6316667 C187.187438,10.510625 187.500187,10.4304167 187.839241,10.3954167 C188.178296,10.3560417 188.493968,10.34 188.783333,10.34 C189.705504,10.34 190.507836,10.515 191.187407,10.8664583 C191.865516,11.2179167 192.241107,11.88875 192.314179,12.8833333 L197.226088,12.8833333 C197.131095,11.7195833 196.834422,10.7570833 196.333147,9.99583333 C195.839179,9.233125 195.213682,8.625 194.4625,8.15979167 C193.711318,7.70041667 192.856374,7.37520833 191.894745,7.17833333 C190.936039,6.984375 189.948103,6.88958333 188.928016,6.88958333 C187.910852,6.88958333 186.915609,6.97854167 185.945211,7.16229167 C184.973352,7.34604167 184.100871,7.658125 183.321922,8.10875 C182.547357,8.55645833 181.923321,9.16604167 181.451275,9.941875 C180.977767,10.7177083 180.741014,11.709375 180.741014,12.92125 C180.741014,13.7422917 180.906157,14.439375 181.248134,15.008125 C181.587189,15.576875 182.035852,16.0464583 182.594123,16.4241667 C183.153856,16.7989583 183.792506,17.10375 184.507152,17.33125 C185.218874,17.5616667 185.955442,17.7614583 186.709546,17.9320833 C188.549502,18.3170833 189.989024,18.705 191.022264,19.0914583 C192.052581,19.479375 192.567009,20.0597917 192.567009,20.835625 C192.567009,21.295 192.458862,21.6770833 192.241107,21.981875 C192.023352,22.2866667 191.747139,22.5272917 191.421238,22.708125 C191.095336,22.8889583 190.727052,23.023125 190.328078,23.10625 C189.929104,23.1908333 189.544745,23.2316667 189.179384,23.2316667 C188.675187,23.2316667 188.178296,23.1733333 187.704789,23.0508333 C187.231281,22.9297917 186.813308,22.7416667 186.450871,22.489375 C186.08551,22.235625 185.785914,21.9075 185.557929,21.5079167 C185.327021,21.106875 185.208644,20.6314583 185.208644,20.0729167 L180.299658,20.0729167 C180.349347,21.3314583 180.632867,22.3785417 181.153141,23.2141667 C181.676337,24.0483333 182.344216,24.7191667 183.155317,25.2310417 C183.967879,25.7370833 184.894434,26.1045833 185.940827,26.3189583 C186.984297,26.53625 188.05115,26.6470833 189.14431,26.6470833 C190.20824,26.6470833 191.260479,26.5420833 192.289335,26.3379167 C193.322575,26.13375 194.234515,25.7764583 195.035386,25.2675 C195.836256,24.7585417 196.486598,24.0877083 196.982027,23.2535417 C197.475995,22.4164583 197.728825,21.3839583 197.728825,20.14875 C197.728825,19.2752083 197.560759,18.543125 197.218781,17.9510417 C196.884111,17.361875 196.436909,16.8602083 195.877177,16.465 L195.877177,16.465 Z" id="Shape"></path>
                    <rect id="Rectangle-path" x="198.24033" y="7.404375" width="5.16912313" height="18.773125"></rect>
                    <rect id="Rectangle-path" x="198.24033" y="0.249791667" width="5.16912313" height="4.248125"></rect>
                    <path d="M228.483427,7.404375 L224.370927,20.2595833 L224.299316,20.2595833 L220.042133,7.404375 L215.893097,7.404375 L214.547108,7.404375 L212.324254,7.404375 L212.324254,6.28 C212.324254,5.50416667 212.476244,4.95583333 212.778762,4.62770833 C213.081281,4.29958333 213.588402,4.13770833 214.289894,4.13770833 C214.944621,4.13770833 215.574502,4.17416667 216.182463,4.24854167 L216.182463,0.398541667 C215.745491,0.375208333 215.299751,0.343125 214.835012,0.306666667 C214.374658,0.270208333 213.912842,0.25125 213.452488,0.25125 C211.345087,0.25125 209.76819,0.783541667 208.721797,1.848125 C207.68125,2.91270833 207.158053,4.28208333 207.158053,5.951875 L207.158053,7.404375 L204.064179,7.404375 L204.064179,10.8533333 L207.158053,10.8533333 L207.158053,26.1760417 L212.324254,26.1760417 L212.324254,10.8533333 L215.834639,10.8533333 L221.129447,25.01375 C221.277052,25.3783333 221.347201,25.76625 221.347201,26.1760417 C221.347201,26.7316667 221.184981,27.240625 220.85908,27.7029167 C220.527332,28.16375 220.02898,28.4291667 219.347948,28.5020833 C218.840827,28.5254167 218.324938,28.5152083 217.817817,28.465625 C217.310697,28.4160417 216.80796,28.3679167 216.327146,28.32125 L216.327146,32.569375 C216.857649,32.6160417 217.386692,32.66125 217.91135,32.6947917 C218.431623,32.73125 218.959204,32.7502083 219.495553,32.7502083 C221.266822,32.7502083 222.646424,32.4220833 223.643128,31.76875 C224.636909,31.1154167 225.411474,30.0245833 225.974129,28.500625 L233.830846,7.404375 L228.483427,7.404375 L228.483427,7.404375 Z" id="Shape"></path>
                    <path d="M80.5664179,23.7129167 L80.5664179,2.68666667 C80.5664179,1.35229167 79.4805659,0.265833333 78.1404229,0.265833333 L57.0722637,0.265833333 C55.7291978,0.265833333 54.6433458,1.349375 54.6433458,2.68666667 L54.6433458,23.7129167 C54.6433458,25.0502083 55.7291978,26.1308333 57.0722637,26.1308333 L78.1433458,26.1308333 C79.4805659,26.1308333 80.5693408,25.0502083 80.5693408,23.7129167 L80.5664179,23.7129167 L80.5664179,23.7129167 Z M76.8368159,5.88041667 L71.9278296,10.7760417 L74.6694963,21.7514583 L72.8558458,23.56125 L68.2698383,14.4933333 L64.6016169,18.15375 L64.9479789,20.9654167 L63.512842,22.3945833 L61.8307214,19.20375 L58.634546,17.528125 L60.06676,16.0960417 L62.8712687,16.4241667 L66.5380286,12.76375 L57.4507774,8.1875 L59.261505,6.37770833 L70.1624067,9.01583333 L75.1050062,4.088125 C76.2770833,2.92 78.0410448,4.68166667 76.8368159,5.88041667 L76.8368159,5.88041667 Z" id="Shape"></path>
                    <path d="M50.8143657,0.265833333 L29.7432836,0.265833333 C28.4031405,0.265833333 27.3172886,1.349375 27.3172886,2.68666667 L27.3172886,23.7129167 C27.3172886,25.0502083 28.4031405,26.1308333 29.7432836,26.1308333 L50.8143657,26.1308333 C52.1515858,26.1308333 53.2403607,25.0502083 53.2403607,23.7129167 L53.2403607,2.68666667 C53.2403607,1.35229167 52.1530473,0.265833333 50.8143657,0.265833333 L50.8143657,0.265833333 Z M39.5203358,9.77708333 C39.5203358,10.4639583 38.8948383,11.1989583 38.0822761,11.1989583 L38.0822761,22.7766667 C38.0822761,24.41875 35.8375,24.41875 35.8375,22.7766667 L35.8375,11.1989583 C35.0468595,11.1989583 34.3585199,10.59375 34.3585199,9.68083333 L34.3585199,3.30791667 C34.3585199,2.75666667 35.1623134,2.73333333 35.1623134,3.33125 L35.1623134,8.03875 L35.8345771,8.03875 L35.8345771,3.2875 C35.8345771,2.77854167 36.6076803,2.745 36.6076803,3.30791667 L36.6076803,8.03875 L37.3018657,8.03875 L37.3018657,3.291875 C37.3018657,2.75958333 38.0501244,2.740625 38.0501244,3.31520833 L38.0501244,8.03875 L38.735541,8.03875 L38.735541,3.291875 C38.735541,2.76541667 39.5188744,2.74645833 39.5188744,3.31520833 L39.5188744,9.77708333 L39.5203358,9.77708333 Z M45.5064055,22.769375 C45.5064055,24.3764583 43.257245,24.353125 43.257245,22.769375 L43.257245,15.63375 L42.0588619,15.63375 L42.0588619,4.78520833 C42.0617848,2.26520833 45.5064055,2.26520833 45.5064055,4.788125 L45.5064055,22.769375 L45.5064055,22.769375 Z" id="Shape"></path>
                    <ellipse id="Oval" cx="5.79608209" cy="14.5210417" rx="1.46582711" ry="1.50791667"></ellipse>
                    <ellipse id="Oval" cx="20.2716729" cy="14.5210417" rx="1.46582711" ry="1.50791667"></ellipse>
                    <path d="M18.5880908,7.78645833 C18.4258706,7.29354167 18.1774254,6.93479167 17.6074627,6.931875 L13.0346082,6.931875 L13.0316853,6.931875 L13.0287624,6.931875 L8.45883085,6.931875 C7.88594527,6.93479167 7.64188433,7.29354167 7.47820274,7.78645833 L6.16875,11.3025 L13.0258396,11.3025 L13.0316853,11.3025 L13.0346082,11.3025 L19.8931592,11.3025 L18.5880908,7.78645833 L18.5880908,7.78645833 Z" id="Shape"></path>
                    <path d="M23.4941542,0.265833333 L2.42599502,0.265833333 C1.08877488,0.265833333 0,1.349375 0,2.68666667 L0,23.7129167 C0,25.0502083 1.08585199,26.1308333 2.42599502,26.1308333 L23.4941542,26.1308333 C24.8342973,26.1308333 25.9201493,25.0502083 25.9201493,23.7129167 L25.9201493,2.68666667 C25.9201493,1.35229167 24.8342973,0.265833333 23.4941542,0.265833333 L23.4941542,0.265833333 Z M23.5935323,19.4516667 L21.9070274,19.4516667 L21.9070274,21.2658333 C21.9070274,23.5029167 18.7356965,23.4766667 18.7356965,21.2658333 L18.7356965,19.4516667 L13.0331468,19.4516667 L13.0302239,19.4516667 L7.33059701,19.4516667 L7.33059701,21.2658333 C7.33059701,23.4766667 4.15926617,23.5029167 4.15926617,21.2658333 L4.15926617,19.4516667 L2.46983831,19.4516667 L2.46983831,13.7685417 C2.46983831,12.2445833 3.68722015,11.4395833 4.3755597,11.350625 L6.11321517,6.88520833 C6.43911692,6.030625 7.14645522,5.304375 8.48075249,5.304375 L10.9374378,5.304375 L10.9374378,3.935 C10.9374378,3.69583333 11.1318097,3.501875 11.3744092,3.501875 L14.6933458,3.501875 C14.9330224,3.501875 15.1303172,3.69583333 15.1303172,3.935 L15.1303172,5.304375 L15.1361629,5.304375 L17.5884639,5.304375 C18.9242226,5.304375 19.6300995,6.03354167 19.9560012,6.88520833 L21.6936567,11.350625 C22.3790734,11.4395833 23.5993781,12.2445833 23.5964552,13.7685417 L23.5964552,19.4516667 L23.5935323,19.4516667 Z" id="Shape"></path>
                </g>
            </g>
        </g>
    </g>
</svg>