<?xml version="1.0" encoding="UTF-8"?>
<svg width="172px" height="33px" viewBox="0 0 172 33" version="1.1" xmlns="http://www.w3.org/2000/svg" xmlns:xlink="http://www.w3.org/1999/xlink">
    <!-- Generator: Sketch 48.2 (47327) - http://www.bohemiancoding.com/sketch -->
    <title>*logo_New_Relic</title>
    <desc>Created with Sketch.</desc>
    <defs></defs>
    <g id="Homepage_desktop" stroke="none" stroke-width="1" fill="none" fill-rule="evenodd" transform="translate(-1109.000000, -1768.000000)">
        <g id="#customer_metric" transform="translate(1109.000000, 1768.000000)">
            <g id="New-Relic">
                <g id="*logo_New_Relic">
                    <path d="M62.3630899,25.4141324 L57.5495522,15.2808195 C56.4003217,12.8803445 55.2212579,10.1672737 54.8165627,8.88823596 L54.7231715,8.9820147 C54.8788235,10.7911627 54.9099539,13.0665994 54.9410843,14.9682237 L55.0656059,25.4141324 L51.5569507,25.4141324 L51.5569507,3.8372093 L55.5935256,3.8372093 L60.8104613,14.3768967 C61.8040399,16.3722997 62.7353576,18.9290726 63.0155312,19.9267741 L63.1089224,19.8329954 C63.0155312,18.7415152 62.7989155,15.6546319 62.7989155,13.6904885 L62.7366547,3.8372093 L66.1207883,3.8372093 L66.1207883,25.4141324 L62.3630899,25.4141324 L62.3630899,25.4141324 Z" id="Shape" fill="#161513"></path>
                    <path d="M72.2900502,19.1431224 L72.2900502,19.3923358 C72.2900502,21.5677605 73.1080901,23.866494 76.2187429,23.866494 C77.6959419,23.866494 78.9853725,23.3382137 80.1802623,22.3128046 L81.531407,24.3947744 C79.8651266,25.7940035 77.9480505,26.4767442 75.8103795,26.4767442 C71.3157554,26.4767442 68.4860987,23.2759103 68.4860987,18.24232 C68.4860987,15.4763115 69.0835436,13.6435551 70.4662018,12.0898656 C71.7543193,10.6296312 73.3260591,9.97674419 75.3389889,9.97674419 C76.9107286,9.97674419 78.356414,10.3804179 79.7088717,11.5927369 C81.09153,12.8362077 81.7835156,14.7624191 81.7835156,18.42923 L81.7835156,19.1444204 L72.2900502,19.1444204 L72.2900502,19.1431224 Z M75.3389889,12.5558427 C73.3903993,12.5558427 72.3215637,14.0783804 72.3215637,16.6263273 L78.2001592,16.6263273 C78.1988461,14.0783804 77.0682965,12.5558427 75.3389889,12.5558427 L75.3389889,12.5558427 Z" id="Shape" fill="#161513"></path>
                    <path d="M99.5958653,26.4767442 L96.4211138,26.4767442 L94.5105984,19.0267685 C94.0175206,17.1088471 93.493545,14.6139467 93.493545,14.6139467 L93.4317493,14.6139467 C93.4317493,14.6139467 93.1845668,16.2126597 92.414696,19.1857048 L90.5350783,26.4754086 L87.3603269,26.4754086 L83.1067265,10.4562245 L86.4655774,9.97674419 L88.1610955,17.810037 C88.5923776,19.8241216 88.9618641,22.0625868 88.9618641,22.0625868 L89.0545576,22.0625868 C89.0545576,22.0625868 89.3622484,19.9523391 89.9480197,17.7138739 L91.9512286,10.2318437 L95.2804692,10.2318437 L97.0364955,17.5215475 C97.6840624,20.1433299 98.022651,22.12536 98.022651,22.12536 L98.1153445,22.12536 C98.1153445,22.12536 98.484831,19.662514 98.8865027,17.7766471 L100.489327,10.2305081 L104.002667,10.2305081 L99.5958653,26.4767442 L99.5958653,26.4767442 Z" id="Shape" fill="#161513"></path>
                    <path d="M123.462534,25.4141324 L121.615526,22.0771725 C120.137662,19.4266209 119.15242,17.9300686 117.981962,16.7448097 C117.581949,16.3397377 117.273257,16.1209206 116.596706,16.089661 L116.596706,25.4128299 L113.117489,25.4128299 L113.117489,3.8372093 L119.614172,3.8372093 C124.387324,3.8372093 126.541738,6.64405883 126.541738,10.0109758 C126.541738,13.097859 124.571253,15.9346656 121.246382,15.9346656 C122.01554,16.3397377 123.432951,18.4289194 124.540384,20.2380674 L127.681326,25.4141324 L123.462534,25.4141324 L123.462534,25.4141324 Z M118.536322,6.73653508 L116.596706,6.73653508 L116.596706,13.5654502 L118.414131,13.5654502 C120.261139,13.5654502 121.246382,13.3153736 121.893349,12.6615274 C122.478578,12.0688979 122.847722,11.1649752 122.847722,10.0422354 C122.846436,7.85927489 121.675978,6.73653508 118.536322,6.73653508 L118.536322,6.73653508 Z" id="Shape" fill="#99BAFF"></path>
                    <path d="M133.081082,19.1431224 L133.081082,19.3923358 C133.081082,21.5677605 133.899122,23.866494 137.009774,23.866494 C138.486973,23.866494 139.776404,23.3382137 140.971294,22.3128046 L142.322438,24.3947744 C140.656158,25.7940035 138.739082,26.4767442 136.601411,26.4767442 C132.106787,26.4767442 129.27713,23.2759103 129.27713,18.24232 C129.27713,15.4763115 129.874575,13.6435551 131.257233,12.0898656 C132.545351,10.6296312 134.11709,9.97674419 136.13002,9.97674419 C137.70176,9.97674419 139.147445,10.3804179 140.499903,11.5927369 C141.882561,12.8362077 142.574547,14.7624191 142.574547,18.42923 L142.574547,19.1444204 L133.081082,19.1444204 L133.081082,19.1431224 Z M136.13002,12.5558427 C134.181431,12.5558427 133.112595,14.0783804 133.112595,16.6263273 L138.991191,16.6263273 C138.991191,14.0783804 137.859328,12.5558427 136.13002,12.5558427 L136.13002,12.5558427 Z" id="Shape" fill="#161513"></path>
                    <path d="M149.123991,26.5505367 C145.741069,26.5505367 145.741069,23.4071624 145.741069,22.056063 L145.741069,8.50830383 C145.741069,6.33919178 145.649398,5.17585444 145.436771,3.85626751 L148.880807,3.06976744 C149.125264,4.04402963 149.154548,5.36492959 149.154548,7.43950406 L149.154548,20.9242382 C149.154548,23.0618377 149.246219,23.4071624 149.489402,23.7853127 C149.672745,24.0676124 150.190942,24.225175 150.58691,24.0374129 L151.135664,26.1750124 C150.525796,26.4244866 149.885371,26.5505367 149.123991,26.5505367 L149.123991,26.5505367 Z" id="Shape" fill="#161513"></path>
                    <path d="M154.532609,7.68278187 C153.309594,7.68278187 152.362332,6.64718045 152.362332,5.39134986 C152.362332,4.10405797 153.340233,3.06976744 154.593888,3.06976744 C155.786264,3.06976744 156.794804,4.07390755 156.794804,5.39134986 C156.793528,6.64718045 155.784987,7.68278187 154.532609,7.68278187 L154.532609,7.68278187 Z M152.851283,25.9159213 L152.851283,10.2875161 L156.243298,9.65960078 L156.243298,25.9159213 L152.851283,25.9159213 L152.851283,25.9159213 Z" id="Shape" fill="#161513"></path>
                    <path d="M166.55761,26.4767442 C162.384947,26.4767442 160.057399,23.4684998 160.057399,18.413302 C160.057399,12.7064474 163.382648,9.97674419 166.800089,9.97674419 C168.463345,9.97674419 169.671953,10.3796572 171.033372,11.6829706 L169.370116,13.9475749 C168.463345,13.1106559 167.676551,12.7375404 166.800089,12.7375404 C165.741769,12.7375404 164.865307,13.2959182 164.381612,14.3193949 C163.928226,15.2806858 163.746367,16.7381685 163.746367,18.6931387 C163.746367,20.8333711 164.078513,22.1975749 164.774378,22.9736035 C165.258073,23.5319813 165.984248,23.8727084 166.800089,23.8727084 C167.85841,23.8727084 168.886421,23.3454235 169.884122,22.3219468 L171.455185,24.3986977 C170.064718,25.8250875 168.613632,26.4767442 166.55761,26.4767442 L166.55761,26.4767442 Z" id="Shape" fill="#161513"></path>
                    <path d="M18.0438038,33 C9.12646448,33 1.82679785,27.9995201 0.294881339,20.839952 C-1.58265841,12.065027 5.70271554,2.97996401 16.5365746,0.585962807 C18.2958748,0.197960408 20.0811618,0 21.8430607,0 C30.7616993,0 38.0600666,5.0004799 39.5932824,12.160048 C40.5080146,16.4320336 39.3074286,20.8953809 36.2150102,24.7292142 C33.1485785,28.530054 28.580115,31.2592681 23.3515891,32.4140372 C21.5909896,32.8033593 19.8057027,33 18.0438038,33 L18.0438038,33 Z M21.8430607,0.971325735 C20.1500266,0.971325735 18.4336044,1.16136773 16.739271,1.53485303 C6.41994871,3.81403719 -0.537992693,12.3817636 1.2278042,20.6340732 C2.66356989,27.3436113 9.57863322,32.029994 18.0438038,32.029994 C19.7368379,32.029994 21.45326,31.839952 23.1462941,31.4664667 C28.165627,30.3578884 32.5430882,27.7474505 35.474389,24.1155369 C38.3784038,20.5166167 39.5088256,16.3436113 38.6577609,12.3672466 C37.2219952,5.65770846 30.3069319,0.971325735 21.8430607,0.971325735 L21.8430607,0.971325735 Z" id="Shape" fill="#161513"></path>
                    <path d="M19.5946802,23.8054562 C15.5781518,23.8054562 12.3121076,20.5314423 12.3121076,16.5067242 C12.3121076,12.4833162 15.5794593,9.20930233 19.5946802,9.20930233 C23.6099011,9.20930233 26.8759453,12.4820061 26.8759453,16.5067242 C26.8759453,20.5314423 23.6099011,23.8054562 19.5946802,23.8054562 L19.5946802,23.8054562 Z M19.5946802,10.1735577 C16.1089821,10.1735577 13.2730934,13.0152288 13.2730934,16.5067242 C13.2730934,19.9995297 16.1089821,22.8412008 19.5946802,22.8412008 C23.0790708,22.8412008 25.9149595,19.9995297 25.9149595,16.5067242 C25.9149595,13.0152288 23.0790708,10.1735577 19.5946802,10.1735577 L19.5946802,10.1735577 Z" id="Shape" fill="#161513"></path>
                    <path d="M123.502873,25.3255814 L121.648663,22.0023163 C120.165037,19.3626425 119.175953,17.872232 118.000931,16.6918373 C117.599357,16.2884277 117.289462,16.0705087 116.610273,16.0393774 L116.610273,25.3242843 L113.117489,25.3242843 L113.117489,3.8372093 L119.639505,3.8372093 C124.43127,3.8372093 126.594084,6.63253961 126.594084,9.98563884 C126.594084,13.0598536 124.615916,15.8850181 121.278079,15.8850181 C122.050237,16.2884277 123.473175,18.3690355 124.584926,20.1707588 L127.738117,25.3255814 L123.502873,25.3255814 L123.502873,25.3255814 Z M118.557452,6.72463634 L116.610273,6.72463634 L116.610273,13.5255258 L118.434785,13.5255258 C120.288995,13.5255258 121.278079,13.2764755 121.927569,12.6253127 C122.51508,12.0351154 122.885664,11.1349023 122.885664,10.0167701 C122.884373,7.84276846 121.709351,6.72463634 118.557452,6.72463634 L118.557452,6.72463634 Z" id="Shape" fill="#161513"></path>
                    <path d="M21.5455413,29.1627907 C15.1812259,29.1627907 10.0035874,23.8269209 10.0035874,17.266775 C10.0035874,10.7079628 15.1812259,5.37209302 21.5455413,5.37209302 C27.9098567,5.37209302 33.0887892,10.7079628 33.0887892,17.266775 C33.0887892,23.8255873 27.9098567,29.1627907 21.5455413,29.1627907 L21.5455413,29.1627907 Z M21.5455413,6.35231404 C15.7053308,6.35231404 10.9547407,11.2480846 10.9547407,17.266775 C10.9547407,23.2854655 15.7053308,28.181236 21.5455413,28.181236 C27.3857518,28.181236 32.137636,23.2854655 32.137636,17.266775 C32.137636,11.2480846 27.3857518,6.35231404 21.5455413,6.35231404 L21.5455413,6.35231404 Z" id="Shape" fill="#161513"></path>
                </g>
            </g>
        </g>
    </g>
</svg>