<svg id="Layer_1" data-name="Layer 1" xmlns="http://www.w3.org/2000/svg" viewBox="0 0 272.9 35.66"><title>Tradeshift</title><path d="M76.73,10.77l0-.15h0L75,5a.7.7,0,0,0-.68-.48H62.35a.69.69,0,0,0-.68.48l-1.74,5.6L53.61,31l-6.44-8.72s-.53-.87-1.25-.87a.48.48,0,0,1,.06-1h.2c4-.68,5.71-2.58,6.07-5.7,0-.44.07-.9.07-1.38A14,14,0,0,0,52,10.77s0-.08,0-.15-.09-.42-.11-.51a6.9,6.9,0,0,0-4.4-4.61A11.43,11.43,0,0,0,45.63,5a20.45,20.45,0,0,0-4.4-.41H27.53a.68.68,0,0,0-.73.64v29a.62.62,0,0,0,.69.6h6.78a.58.58,0,0,0,.64-.6V24H39.8l7.33,10.38a1.11,1.11,0,0,0,.92.4H60.22a.81.81,0,0,0,.76-.64l1.21-4.54H74.31L75.51,34a.94.94,0,0,0,.84.72h7a.59.59,0,0,0,.64-.52.15.15,0,0,0,0-.12ZM44.05,14.89V15c0,1.79-.41,2.76-1.48,3.4a5.85,5.85,0,0,1-3,.62H34.91V10.62h5a8.83,8.83,0,0,1,1.35.15,3.88,3.88,0,0,1,1.31.47c1.07.64,1.48,1.8,1.48,3.59ZM63.68,24l3.54-13.33h2L72.81,24Z"/><path d="M270.53,3.27a1.37,1.37,0,0,0-1.44-1.36h-1.77V6.24h1V4.56h.46l.79,1.68h1.1l-.91-1.82a1.23,1.23,0,0,0,.8-1.15M269,3.83h-.67V2.71H269a.56.56,0,0,1,.6.56.57.57,0,0,1-.6.56"/><path d="M268.8,0a4.08,4.08,0,1,0,4.08,4.08A4.08,4.08,0,0,0,268.8,0m0,7.24a3.07,3.07,0,0,1-3.1-3.16,3.11,3.11,0,1,1,6.21,0,3.07,3.07,0,0,1-3.11,3.16"/><path d="M156.1,16.48c-3.29-.52-5.94-.69-5.94-3.29a2.57,2.57,0,0,1,1-2.23l.3-.19a2.3,2.3,0,0,1,.32-.15,8.11,8.11,0,0,1,3-.44,24.75,24.75,0,0,1,4.39.44c1.19.21,2.41.48,3.75.76a.24.24,0,0,0,.16,0l.14,0a.67.67,0,0,0,.37-.2.9.9,0,0,0,.22-.46l0-.12.84-3.85V6.52c0-.52-.36-.84-.92-1A38.09,38.09,0,0,0,154,4.08c-5.64,0-10.1,1.84-11.52,6.54a.88.88,0,0,0-.05.15,1.39,1.39,0,0,0-.06.19,11.92,11.92,0,0,0-.39,3.11c0,7,5.54,8.31,9.51,9,3.25.56,5.81.72,5.81,3.45,0,2.45-1.92,3.09-4.89,3.09a37.89,37.89,0,0,1-8.3-1.37,2.85,2.85,0,0,0-.53-.08c-.4,0-.64.2-.72.76l-.6,3.53v.21a1,1,0,0,0,.72,1,38.76,38.76,0,0,0,11,1.52c6.21,0,11.71-2.28,11.71-9.18,0-7.71-5-8.79-9.59-9.51"/><path d="M111.84,10.66l0,0c-1.76-3.89-5.37-6.08-12.06-6.08H86.39a.66.66,0,0,0-.67.65v28.9a.66.66,0,0,0,.67.64H99.75c11,0,13.52-6.16,13.52-15.38a21.65,21.65,0,0,0-1.39-8.58s0-.07,0-.11M98.91,29.4H93.82V10.62h5.61a8.2,8.2,0,0,1,1.43.15c3.23.63,4.11,3.17,4.11,9.33,0,7.26-1.2,9.3-6.06,9.3"/><path d="M20.31,4.55H.64a.61.61,0,0,0-.68.6V10a.58.58,0,0,0,.39.54,1.4,1.4,0,0,0,.29.09h12V34.13a.62.62,0,0,0,.69.6h7a.61.61,0,0,0,.68-.6v-29a.61.61,0,0,0-.68-.6"/><path d="M137.89,4.54h-20.3a.68.68,0,0,0-.72.64V34.09a.68.68,0,0,0,.72.64h20.34a.6.6,0,0,0,.64-.6V29.64a.61.61,0,0,0-.64-.61H125V22.54h12.31a.61.61,0,0,0,.68-.6V17.36c0-.4-.27-.56-.68-.56H125V10.62h12.92a.93.93,0,0,0,.29,0,.57.57,0,0,0,.39-.55V5.14a.61.61,0,0,0-.68-.6"/><path d="M195.23,4.54h-6.78a.58.58,0,0,0-.64.6V16.8H177.7V5.14a.61.61,0,0,0-.68-.6h-6.78a.58.58,0,0,0-.64.6v29a.61.61,0,0,0,.68.6h6.78a.58.58,0,0,0,.64-.6V22.54h10.07V34.13a.61.61,0,0,0,.68.6h6.78a.61.61,0,0,0,.68-.6v-29a.61.61,0,0,0-.68-.6"/><path d="M260.54,4.54H240.88a.61.61,0,0,0-.68.6v29a.61.61,0,0,0,.68.6h7a.61.61,0,0,0,.68-.6V10.62h12a.82.82,0,0,0,.28,0,.59.59,0,0,0,.4-.55V5.14a.61.61,0,0,0-.68-.6"/><path d="M235.68,4.54H216.34a.68.68,0,0,0-.72.64V34.09a.68.68,0,0,0,.72.64H223a.68.68,0,0,0,.72-.64V22.5h10.07a.61.61,0,0,0,.68-.6V17.4a.61.61,0,0,0-.68-.6H223.72V10.62h12a.87.87,0,0,0,.28,0,.61.61,0,0,0,.4-.55V5.14a.61.61,0,0,0-.68-.6"/><path d="M209.13,4.54h-6.78a.58.58,0,0,0-.64.6v29a.61.61,0,0,0,.68.6h6.78a.57.57,0,0,0,.64-.6v-29a.61.61,0,0,0-.68-.6"/></svg>