<svg xmlns="http://www.w3.org/2000/svg" viewBox="0 0 98.05 77.7" width="40px">
  <polygon fill="#e9a825" points="49.02 66.21 37.73 54.91 31.98 60.66 49.02 77.7 77.56 49.17 71.81 43.42 49.02 66.21"/>
  <path fill="#29292a" d="M107.73,53.65a49.12,49.12,0,0,0-69.47,0L24,67.94h0L47.29,91.26,53,85.51l0,0-9-9,8.52-8.52L44,59.43a41,41,0,0,1,57.92,0h0l-8.52,8.51,14.29,14.29L122,67.95Z" transform="translate(-23.97 -39.27)"/>
  <polygon fill="#29292a" points="34.73 34.82 49.02 49.11 63.31 34.82 63.09 34.82 34.73 34.82"/>
</svg>
