<svg width="34px" height="36px" viewBox="0 0 34 36" version="1.1" xmlns="http://www.w3.org/2000/svg" xmlns:xlink="http://www.w3.org/1999/xlink">
    <g id="Integrations-Page" stroke="none" stroke-width="1" fill="none" fill-rule="evenodd">
        <g id="Desktop-01-a-rest" transform="translate(-304.000000, -1675.000000)">
            <g id="Group-24" transform="translate(280.000000, 1651.000000)">
                <g id="Page-1" transform="translate(24.000000, 24.000000)">
                    <g id="Group-3" transform="translate(0.000000, 0.069984)" fill="#684C46">
                        <path d="M32.8804108,24.9798858 C32.8531753,25.0689626 30.2799172,34.9598509 20.1693905,34.9568326 C11.4294102,34.9542354 7.28688512,27.3573716 7.28688512,27.3573716 C6.64987055,27.39289 6.03524801,27.2917398 5.46842788,27.0835431 C2.90422488,26.1414635 1.67392688,23.2079675 2.55858745,20.7467397 L1.14929361,19.6697464 C-4.3098686,15.5110766 11.1549499,-3.51905801 16.6235884,0.787020094 C16.651245,0.808780372 17.9290646,1.83726935 17.9290646,1.83726935 C19.8925436,0.644876347 21.8371402,0.000280777772 23.4179191,0.000210583329 C24.5404686,0.000140388886 25.4792491,0.325070465 26.1115606,1.00967687 C27.5309625,2.5465842 27.0207893,5.48127347 25.0825803,8.45253404 C25.4994651,8.8483605 25.8449621,9.38626052 26.0915552,9.92015945 C26.7077922,10.3956566 27.1071284,11.1183786 27.3055681,12.116684 C27.5265402,13.2266687 27.5723772,14.8077283 27.7110814,15.4870701 C28.2337492,15.7229937 28.0110223,15.6138413 28.5682959,15.8921623 C29.1493655,16.1826269 29.8569255,16.5361963 30.6388916,17.2886105 C32.0288118,17.6368451 32.559552,19.1146488 31.7462792,20.1231323 C31.7244487,20.1502274 31.6262467,20.2666098 31.5246051,20.3822902 C31.5488924,20.4463075 31.8154207,20.8782841 32.0078236,21.7576099 C32.5837691,21.8935766 33.0425599,22.2482691 33.2833269,22.7624434 C33.6997905,23.7689615 32.8804108,24.9798858 32.8804108,24.9798858" id="Fill-1"></path>
                    </g>
                    <path d="M28.5960649,29.3978469 C31.33793,27.243439 31.8170071,24.6487716 31.8627037,24.5593439 C32.5373424,23.7502126 32.3539244,22.9529441 31.4626655,22.9528739 C31.17908,22.9528739 30.9648465,23.0277713 30.9648465,23.0277713 C30.9648465,23.0277713 30.9681457,21.8469604 30.4218925,20.927343 C30.0008663,21.4008747 28.8321288,22.3389533 27.2985206,23.06701 C25.860447,23.7497212 23.9415415,24.3477077 21.5634942,24.426887 L21.563424,24.426887 C20.8975595,24.4558071 20.4856585,24.3474269 20.2537361,25.1237072 C20.179681,25.3979569 20.2116896,25.8053655 20.267424,25.9231517 C20.4549836,26.5660626 20.9450812,26.8494376 21.5901681,26.9995133 C22.0793532,27.1135091 22.5988622,27.1241786 22.5988622,27.1241786 C27.4217118,27.2594433 31.2944094,23.4980039 31.3407378,23.4666972 C31.3855218,23.4299855 31.4225845,23.3866053 31.4225845,23.3866053 C31.4225845,23.3866053 31.3800467,23.4863516 31.3749927,23.4975828 C30.678383,25.0641823 26.6451507,27.9049514 22.6305199,27.8235961 L22.6173936,27.8282289 C21.6863345,27.8247192 20.555151,27.5850754 19.967062,26.8558253 C19.0365645,25.7020392 19.519432,23.7835549 21.00243,23.7386305 C21.0042551,23.7384901 21.3451895,23.7306985 21.4970201,23.7267676 C25.1688212,23.6139651 28.4633974,22.2648981 30.822422,19.447925 C31.1467203,19.0449387 30.7844468,18.4913853 30.0813793,18.4746088 C30.0752724,18.4744684 30.0693058,18.4717308 30.0650942,18.4672384 C29.2315352,17.5748564 28.4989158,17.259543 27.84702,16.9282252 C26.4804745,16.2321069 26.6090708,16.8333925 26.2912303,13.4567591 C26.2052421,12.5464073 26.0328446,11.3048782 25.2330491,10.8288897 C25.0233783,10.704084 24.7942636,10.6505256 24.5564449,10.6505256 C24.3213637,10.6505256 24.2068063,10.6985386 24.1606184,10.708787 C23.7226051,10.8058659 23.4734148,11.0541437 23.1614005,11.3418707 C21.6869662,12.7016072 20.5084015,12.3324547 18.7492586,12.3169417 C17.0972324,12.3024816 15.6385919,13.454934 15.3594988,15.2246763 L15.3590776,15.225659 C15.2234619,16.1520853 15.311205,17.0933928 15.4564373,17.5165249 C15.4564373,17.5165249 15.0080352,17.2182687 14.7942931,16.9541972 C15.0529596,18.5709858 16.5279555,19.6276227 16.5279555,19.6276227 C16.295682,19.6810407 15.9614161,19.6589294 15.9614161,19.6589294 C15.9628902,19.6601228 16.8033985,20.3247939 17.5329293,20.5567866 C17.3429129,20.6750642 16.3812491,21.6238825 15.8853955,22.9301309 C15.4213401,24.1526373 15.6103737,25.6201223 15.6103737,25.6201223 L16.0134302,25.0193281 C16.0134302,25.0193281 15.750201,26.3582871 16.2596021,27.654989 C16.4287005,27.2692706 16.7979935,26.5806631 16.7979935,26.5806631 C16.7979935,26.5806631 16.7394513,28.0185962 17.4316387,29.1959676 C17.4494681,28.9242449 17.5533559,28.2324787 17.5533559,28.2324787 C17.5533559,28.2324787 17.9505862,29.4599689 18.868168,30.3183768 C20.5859664,31.8427193 25.1343557,32.1180219 28.5960649,29.3978469 M9.34938036,21.3279427 L9.34938036,21.3279427 C9.56958033,20.7682824 9.68055774,20.3090002 9.68055774,20.3090002 C9.93255579,21.0795948 10.0615732,21.8899896 10.010963,22.7092992 C10.2199318,22.4311888 10.4442733,21.9076084 10.4442733,21.9076084 C10.8330101,24.1960877 9.16294392,26.2908302 6.96269911,26.2908302 C5.00932815,26.2908302 3.42581171,24.6238526 3.42581171,22.567366 C3.42581171,20.5109496 5.00932815,18.8439018 6.96269911,18.8439018 C7.46908182,18.8439018 7.9506157,18.9559321 8.38617221,19.1577411 C8.38617221,19.1576007 9.1378845,19.5367209 9.34938036,21.3279427" id="Fill-4" fill="#F6DCBA"></path>
                    <path d="M3.0881273,19.7691137 C3.0742288,19.7653934 1.75717047,18.7988861 1.5698917,18.4806245 C0.461802221,16.6107147 2.3896224,12.7698854 3.7614324,10.5866978 C7.1517538,5.19106156 12.7947553,0.932996458 15.357765,1.54109092 L17.989846,2.89970436 C16.9678851,3.50084957 15.9794771,4.23922491 15.3873168,4.73030524 L14.8273056,5.19997626 C14.8273056,5.19997626 13.1917048,6.30104629 12.3782916,6.99526933 C9.11747898,9.77763666 5.90685535,14.0851186 4.71621721,18.2429461 C4.71621721,18.2428057 3.73798746,18.7284109 3.0881273,19.7691137" id="Fill-6" fill="#0688BF"></path>
                    <path d="M15.3578773,1.54102774 L15.3578773,1.54102774 C12.7947974,0.932933283 7.15179592,5.19099839 3.76154471,10.5866346 C3.76056199,10.5881789 3.75957927,10.5897232 3.75859654,10.5913377 L3.77228446,10.5928117 L6.4737176,12.719563 C9.43985398,8.01127071 13.1678106,5.58345552 13.2729619,5.51213796 L12.8446354,2.6304455 L13.6470281,2.24627131 L15.2573588,2.76774583 L15.1341676,2.22977562 L15.3578773,1.54102774 Z" id="Fill-8" fill="#46B8E3"></path>
                    <path d="M17.989839,2.89963417 L15.3873098,4.73016485 L15.2052956,4.87265957 L12.8975129,2.98709644 L12.8445161,2.63050867 L13.6468386,2.24633449 C13.6880427,2.25967143 15.1936433,2.74724203 15.2572395,2.767809 L15.2840538,1.76802955 L15.3578281,1.54109092 L16.0626505,1.2709827 C16.0636333,1.27168464 17.9871716,2.89731775 17.989839,2.89963417" id="Fill-10" fill="#FFD14F"></path>
                    <path d="M23.125461,1.10436215 C21.4043634,1.10436215 19.472121,2.00951949 17.9898249,2.89958503 C17.781909,3.02186375 17.5756075,3.14996861 17.3735177,3.28046008 L16.5978691,2.63031915 L16.8796296,3.60932104 C16.7731446,3.68239346 16.6691165,3.75539568 16.5674047,3.82783634 L14.9648656,3.33858108 L16.0252229,4.22618981 C15.7831222,4.40967808 15.5668531,4.58137369 15.3874361,4.73018591 L12.8445723,2.63052973 L12.979135,3.57155643 L14.8273547,5.19992712 C14.8273547,5.19992712 13.1918242,6.30099715 12.3783408,6.99515 C9.11759831,9.77758752 5.90697468,14.0850695 4.71626635,18.242897 L4.78393379,18.2047814 C4.79312926,18.1997274 4.80239493,18.1954455 4.8115904,18.1904617 C4.84472218,18.1725621 4.87778376,18.1556453 4.91091554,18.138939 C4.93218446,18.1282694 4.95331298,18.1173893 4.9745117,18.1072111 C5.0086262,18.0908558 5.0427407,18.0756938 5.0768552,18.0606722 C5.09693081,18.0517575 5.11714681,18.0424216 5.13722242,18.0340685 C5.17421489,18.0185555 5.21106698,18.0045166 5.24798925,17.9905479 C5.2650465,17.98409 5.28210375,17.9770004 5.299161,17.9709637 C5.35292995,17.9516602 5.40648831,17.9338308 5.45990628,17.9178967 C6.26938859,17.676498 7.37066921,17.5211577 8.65986035,18.0686743 C9.30726369,16.435741 10.0807363,14.7743789 11.2996628,13.1780169 C12.2880005,11.8836314 13.2380121,10.7280905 14.3783208,10.09255 C16.5373615,8.06435175 22.356551,5.91359402 24.220775,7.77788823 C24.6616663,7.05671052 25.0441559,6.37413976 25.3593289,5.51839931 C26.1372939,3.46050882 26.1514732,1.10436215 23.125461,1.10436215" id="Fill-12" fill="#121F30"></path>
                    <polygon id="Fill-14" fill="#121F30" points="15.7383873 2.92348624 15.3578632 1.54100668 15.1340833 2.22975456 15.2680143 2.7711643"></polygon>
                    <path d="M19.6604667,2.00655729 C20.6005107,1.5731768 21.6080817,1.23069811 22.5743784,1.13200472 C21.6146098,1.34799302 20.4451002,1.84560143 19.0595321,2.69348011 C19.0257686,2.71299416 15.7808198,4.90306078 13.7983182,6.8695581 C12.7178853,7.94121666 8.37951778,13.1436778 8.38295731,13.1392555 C9.17580354,11.6387089 9.69819059,10.9021587 10.9534076,9.32355583 C11.663284,8.4308229 12.4207523,7.56251764 13.1962605,6.76082691 C13.4568924,6.49135044 13.7196302,6.22945497 13.9832104,5.9765444 C14.0836586,5.88016743 16.3507987,3.558767 19.6604667,2.00655729 M30.9649308,23.0264236 C30.9649308,23.0264236 30.9682299,21.8456127 30.4219768,20.9259953 C30.0009505,21.399527 28.832213,22.3376055 27.2986048,23.0656623 C25.8605313,23.7483735 23.9416258,24.3463599 21.5635784,24.4255393 L21.5635082,24.4255393 C20.8976438,24.4544594 20.4857428,24.3460089 20.2537501,25.1222893 C20.2357102,25.1892548 20.2239175,25.2641523 20.2173192,25.3408046 L20.2169683,25.3486664 C20.2168981,25.3486664 20.2167577,25.3485962 20.2166875,25.3485962 C20.2146518,25.3733046 20.2131778,25.3982236 20.2121248,25.4230725 C20.2098084,25.4940391 20.2105806,25.5565121 20.2133181,25.6110532 C20.2133883,25.6123869 20.2134585,25.6136504 20.2135287,25.6149841 C20.2138095,25.6190554 20.2140201,25.6229863 20.2142307,25.6268469 C20.2163365,25.6609614 20.2192145,25.6937423 20.2227944,25.7244874 C20.223005,25.7259615 20.2232156,25.727576 20.2233559,25.7291203 C20.2235665,25.7307347 20.2237069,25.732279 20.2239175,25.7339637 C20.2396411,25.8572251 20.2640687,25.9145038 20.2670871,25.9211021 C20.2671573,25.9213126 20.2672977,25.9216636 20.2673679,25.9218742 L20.2704564,25.9321928 C20.4603324,26.5678035 20.9485347,26.8490024 21.5901821,26.9982358 C22.079297,27.1122316 22.5989465,27.1229011 22.5989465,27.1229011 C26.5339066,27.2332468 29.8365551,24.7494866 30.9442234,23.8143562 C30.9631057,23.5522502 30.9743368,23.3653224 30.9649308,23.0264236" id="Fill-16" fill="#FFFFFF"></path>
                    <path d="M8.19496255,24.1522372 C8.19594527,24.1515352 8.196928,24.1509035 8.19791072,24.1502015 C8.40673919,23.9257197 8.49434185,23.6120909 8.44471438,23.3120799 C8.36764088,22.8804543 7.878526,22.7932728 7.5551402,22.4580943 C7.54994582,22.4527595 7.54489182,22.4473546 7.53990801,22.4418794 C7.53443284,22.4359831 7.52909807,22.4300165 7.52397387,22.4241202 C7.5236229,22.4237692 7.52327193,22.4232779 7.52292096,22.4229269 C7.37761846,22.2555833 7.32700827,22.0652862 7.33880093,21.8954858 C7.3644219,21.4539628 7.75652806,21.329859 7.96058331,21.411074 C7.96058331,21.411074 8.20261375,21.4683527 8.39003291,21.729827 C8.39003291,21.729827 8.38996271,21.7294058 8.38989252,21.728774 C8.36139358,21.6425051 8.36721972,21.5031691 8.22051333,21.2954637 C7.98016756,20.9548101 7.42794787,20.6084005 6.64513945,20.77427 L6.64535003,20.77427 C6.50060909,20.804945 6.58168367,20.7875368 6.43897837,20.8277582 C6.41665653,20.8340055 6.39630015,20.8401826 6.37875154,20.847553 C6.33389729,20.8685411 6.29241237,20.8830012 6.25261212,20.9041297 C6.23197496,20.9156416 6.11432907,20.9689894 5.97281707,21.0756148 C5.09292973,22.2113608 6.58315775,24.2711466 8.19496255,24.1522372 M27.3833155,24.4724642 C27.3732777,24.4726748 27.3627485,24.474921 27.3461124,24.4787115 C26.9462147,24.571298 22.8231335,26.1685024 20.2166734,25.3498246 C20.2050212,25.4924597 20.2087415,25.7921198 20.2671432,25.9224006 C20.2672134,25.9226112 20.2673538,25.922892 20.267424,25.9231026 C20.6617062,26.0021415 21.1607887,26.0526815 21.739963,26.0526815 C25.1698039,26.0526815 27.6414906,24.4932418 27.3833155,24.4724642 M26.9045894,16.46749 C26.5164843,16.1890286 26.502656,15.7033533 26.2911601,13.4567099 C26.2234927,12.740165 26.1021265,11.8185822 25.6636218,11.2264219 C25.5728604,11.1471724 25.4453873,11.0562004 25.2617586,11.0562004 C24.9847012,11.0439163 24.6715638,11.3309414 24.4941122,11.5270647 C23.9901863,12.2543493 23.5087928,12.7226164 22.6574044,13.1284807 C21.7956272,13.518481 20.9767389,13.659993 20.1265438,13.6331086 C19.5041998,13.6134541 18.9592102,13.5109702 18.4249603,13.5041614 C17.435008,13.4886484 16.5770916,13.8095072 15.9517995,14.5991245 C15.5229816,15.1406044 15.3508648,15.7130401 15.2959728,16.3943474 C15.2980786,16.4764749 15.3017287,16.5538993 15.3064318,16.6268313 C15.3138022,16.7350712 15.3236996,16.8384676 15.3356326,16.9354061 C15.3793638,17.2806926 15.4416263,17.459899 15.4416263,17.459899 C15.4416263,17.4625664 15.4411349,17.4651636 15.440433,17.4676204 C15.4455571,17.4845372 15.4508217,17.5008224 15.4562267,17.5164055 C15.4562267,17.5164055 15.0078246,17.2181493 14.7940825,16.9540076 C15.0097199,18.3018813 16.0705685,19.2604567 16.4176098,19.5420066 C16.4381066,19.5577301 16.4583226,19.5733835 16.4781174,19.5889666 C16.4798021,19.5903003 16.4813463,19.5919148 16.4826098,19.5935293 C16.5116703,19.6159915 16.5277449,19.6275736 16.5277449,19.6275736 C16.2954013,19.6809214 15.9612055,19.6588101 15.9612055,19.6588101 C15.9626094,19.6600034 16.8031177,20.3247448 17.5327187,20.5566672 C18.5005597,19.7387616 19.5979094,19.4247818 20.4986445,19.327352 C21.0446169,18.9885936 21.631653,18.6557315 22.2619991,18.3348025 C22.0711404,17.1462702 23.1251802,15.9493848 24.4515744,15.8344765 C25.4523365,15.7615445 25.9392754,16.2102273 26.2898966,16.6899362 C26.4801938,16.629218 26.6947782,16.562814 26.9345624,16.4922686 C26.9244544,16.4855299 26.9143464,16.477247 26.9045894,16.46749 M19.5631632,24.9392573 C19.7397022,24.2822373 20.2382933,23.7618157 21.0023598,23.7385813 C21.0042551,23.7385111 21.3451895,23.7306494 21.4970201,23.7267887 C25.1688212,23.613916 28.4633974,22.2649192 30.8223518,19.4478758 C31.1467203,19.0449597 30.7843766,18.4914063 30.0813793,18.4745597 C30.0786417,18.4744895 30.0714117,18.4745597 30.0714117,18.4745597 C29.9525023,18.6002779 29.9311632,18.8298839 29.7345485,19.1729944 C29.0170209,20.4196477 28.0246119,20.9896266 26.7011659,21.6510688 C22.6438569,23.6709841 20.5398486,22.7311507 19.6954797,23.9678364 C19.4500799,24.3318648 19.4454471,24.7383608 19.5631632,24.9392573 C19.5631632,24.9393275 19.5631632,24.9392573 19.5631632,24.9392573 M25.4429305,16.8905519 C24.8824981,16.4919878 23.9543871,16.8091965 23.7497001,17.4687435 C24.0739985,17.485169 24.4180916,17.7304284 24.3968929,18.0443379 C24.6258672,17.8227341 24.9513588,17.6976476 25.2681463,17.7034737 C25.115333,17.4584951 25.1925469,17.0362053 25.4429305,16.8905519 M28.5960649,29.3978679 C28.1253409,29.7676522 27.6346116,30.0819829 27.133704,30.3454929 C25.9750746,29.9051631 25.2641452,28.9670144 25.2641452,28.9670144 C25.2641452,28.9670144 26.2573966,28.7321438 27.5851245,28.0569435 C29.2000179,27.2364406 30.7091282,26.0509267 31.8627739,24.5592948 C31.8170071,24.6487225 31.33793,27.2434601 28.5960649,29.3978679" id="Fill-18" fill="#EBBE8D"></path>
                    <path d="M15.3065792,9.52784973 C19.1141363,7.0600237 22.9174116,6.77622757 24.2204311,7.77811285 C24.2205013,7.77797246 24.2205715,7.77790227 24.2206417,7.77776188 C24.2182551,7.7711636 24.1973371,7.71339358 24.1891946,7.69752963 C23.858298,6.99453229 23.0863697,6.50408371 22.3986747,6.30732869 C22.5192688,6.43269596 22.6938423,6.6620914 22.7643878,6.79840901 C22.24537,6.44196163 21.5557798,6.12798189 20.836006,5.9788187 C20.836006,5.9788187 20.9217836,6.04044942 20.9364543,6.05413733 C21.0799317,6.18771736 21.2708606,6.39886224 21.348987,6.58017449 C20.6610815,6.30402955 19.7914425,6.1492508 19.0470305,6.29258786 C19.0366417,6.2945533 18.9540228,6.31406736 18.9540228,6.31406736 C18.9540228,6.31406736 19.0509613,6.33814405 19.0724408,6.34460194 C19.3193849,6.41781474 19.6716206,6.56824143 19.8268205,6.77440251 C18.5911175,6.55701032 17.2318022,6.79756668 16.4986914,7.20750223 C16.5929625,7.20357134 16.59205,7.20322037 16.6717909,7.2053262 C16.9414779,7.21248603 17.4847829,7.24912753 17.7129149,7.39421944 C16.9334758,7.55278869 15.8054511,7.90144449 15.1982691,8.42362095 C15.3054561,8.41112634 15.9139015,8.33363167 16.1628812,8.37357231 C12.8205728,10.2861603 11.299389,13.1777502 11.299389,13.1777502 C12.2848488,11.8936832 13.56323,10.6577697 15.3065792,9.52784973 M23.4067371,17.6916038 C23.2961809,17.8934129 23.4308138,18.1800168 23.7076607,18.3316368 C23.9843672,18.4832568 24.2984171,18.4426844 24.4089734,18.2408052 C24.5195998,18.0389961 24.3848967,17.7523922 24.10812,17.600702 C23.8313433,17.449082 23.5173635,17.4897948 23.4067371,17.6916038 M25.6175813,16.8866842 C25.416404,16.855237 25.2183855,17.0534662 25.1753563,17.3294707 C25.1322569,17.6054051 25.2605022,17.8545251 25.4616794,17.8859021 C25.6629269,17.9173492 25.8609454,17.7191201 25.9039746,17.4431155 C25.947074,17.1671812 25.8188287,16.9180611 25.6175813,16.8866842 M7.87186455,22.1396151 C7.7967565,22.0800902 7.76179966,22.0292694 7.7410923,21.9510026 C7.71034714,21.8085079 7.72635147,21.7257487 7.84820902,21.6401816 C7.9419186,21.5759537 8.01744783,21.544998 8.01765841,21.5046362 C8.02194027,21.4283348 7.70817111,21.3496468 7.48888367,21.5655649 C7.30672909,21.7595824 7.24923984,22.1640428 7.53984484,22.479286 C7.86330083,22.8282928 8.36624401,22.9106309 8.44465121,23.3494865 C8.45496979,23.4116788 8.46255079,23.4809607 8.45721601,23.5492599 C8.45833912,23.6278075 8.4320864,23.7406801 8.4308229,23.7477698 C8.3335334,24.171674 7.93124905,24.5762046 7.26784137,24.473089 C7.14570304,24.4552596 7.06652371,24.440238 7.04286818,24.4740717 C6.99176663,24.5452489 7.27605412,24.8705299 7.79640552,24.858667 C8.30559601,24.8479273 8.81078542,24.4666311 8.9726538,23.893704 C8.97454905,23.8861932 9.02235147,23.7237633 9.02628236,23.5782502 C9.03540764,23.4704315 9.02761605,23.3595243 9.00754044,23.2434929 C8.87487295,22.5077148 8.14372763,22.3565159 7.87186455,22.1396151 M7.98796616,21.0888043 L7.98817674,21.0890149 L7.98838733,21.0891553 C8.08757207,21.1679836 8.16373304,21.252217 8.22045015,21.3326598 C8.40639523,21.5959591 8.34729151,21.7495446 8.42352268,21.8242315 C8.4510389,21.8511861 8.49041798,21.8597499 8.52965668,21.8437455 C8.63508873,21.800225 8.68689223,21.6325304 8.69678964,21.5155163 L8.69685984,21.5147442 C8.72332314,21.2334048 8.57458112,20.9171789 8.37747512,20.693048 L8.37698376,20.6924865 C8.25638971,20.5523784 8.09760988,20.4218167 7.90871663,20.3165952 C7.71954261,20.2112334 7.50011478,20.1313521 7.25871609,20.0940086 C6.8417611,20.0290788 6.43154478,20.112189 6.31698745,20.1463737 L6.3176192,20.1461631 C6.25851547,20.1632906 6.18558345,20.1787333 6.12282962,20.2033014 C5.44271566,20.468496 4.9950857,20.9554348 4.79601426,21.6003112 L4.79594406,21.6005218 L4.79587387,21.6008026 C4.7221697,21.8462725 4.69289862,22.0833192 4.69289862,22.3022556 C4.69289862,22.4909383 4.7146589,22.6663542 4.74856281,22.8227474 L4.74856281,22.8228878 L4.74863301,22.8230984 L4.74856281,22.8228878 C4.80619245,23.0858362 4.92383834,23.3819865 5.107467,23.5764252 L5.10809875,23.5769867 C5.33770477,23.8251943 5.58942204,23.7776726 5.48195435,23.5468031 C5.45633338,23.482856 5.31762916,23.2214519 5.29888724,22.7483413 C5.2868138,22.4387136 5.32928144,22.1164509 5.44292624,21.8223362 C5.50582046,21.6632054 5.59201924,21.5084267 5.70418996,21.3693013 C5.93527006,21.0864879 6.21934698,20.9599273 6.25254895,20.9414662 C6.2923492,20.9203376 6.33383411,20.9058776 6.37868836,20.8848894 C6.39616678,20.877519 6.41652317,20.8713419 6.438845,20.8650244 C6.5816205,20.824803 6.50061611,20.8422112 6.64521666,20.8116064 L6.64507627,20.8116064 C7.18929379,20.6962068 7.65756092,20.8223462 7.98796616,21.0888043 M21.0080526,17.9878946 C20.7865891,17.8187962 20.3788296,17.7053619 19.9553465,17.7772411 C19.8665506,17.7907886 19.7844231,17.8183048 19.7036995,17.8399949 C19.6740774,17.8473653 19.6457189,17.8578243 19.6181324,17.8694064 C19.4431377,17.9431105 19.2915177,18.0225706 19.1444603,18.1635211 C18.9757831,18.326653 18.9278403,18.4780624 18.9766254,18.5152654 C19.0245682,18.5535214 19.1413016,18.4968745 19.3218417,18.4238723 C19.9264264,18.172506 20.3542616,18.1658375 20.7619509,18.1942662 C20.9584953,18.207533 21.0901099,18.2193257 21.1205743,18.1657673 C21.142124,18.1294768 21.1030257,18.0603352 21.0080526,17.9878946 M21.1681661,17.1616358 C21.2424318,17.2701564 21.2622969,17.3522137 21.2323238,17.386258 C21.1725182,17.4561717 20.9587059,17.3617601 20.6431117,17.2388497 C19.8352438,16.9374347 19.2400652,16.8915276 18.186587,17.2903724 C17.9201289,17.3919438 17.7313058,17.4704913 17.6406848,17.4569438 C17.4929255,17.434973 17.6359818,17.1645138 17.9588762,16.9021269 C18.608596,16.3838112 19.5009077,16.2229957 20.26343,16.5067216 C20.5972045,16.6296321 20.9720429,16.8747511 21.1681661,17.1616358" id="Fill-20" fill="#9C7356"></path>
                    <path d="M24.2897341,14.9194919 C24.2846099,14.6571051 24.3260948,14.223514 24.573109,14.1429308 C24.5733898,14.1428606 24.5732494,14.1428606 24.5736706,14.1427904 C24.9958902,13.9962946 25.5548485,15.0775698 25.5806099,16.0376192 C25.2469757,15.8705564 24.8548695,15.7997302 24.4516726,15.8346169 C24.3503119,15.5256209 24.3018075,15.2344544 24.2897341,14.9194919" id="Fill-22" fill="#684C46"></path>
                </g>
            </g>
        </g>
    </g>
</svg>
