<svg width="45px" height="45px" viewBox="0 0 100 100" version="1.1" xmlns="http://www.w3.org/2000/svg" xmlns:xlink="http://www.w3.org/1999/xlink">
  <g id="Page-1" stroke="none" stroke-width="1" fill="none" fill-rule="evenodd">
    <path d="M50,100 C22.3857625,100 0,77.6142375 0,50 C0,22.3857625 22.3857625,0 50,0 C77.6142375,0 100,22.3857625 100,50 C100,77.6142375 77.6142375,100 50,100 Z M50,83.9285714 C68.7382326,83.9285714 83.9285714,68.7382326 83.9285714,50 C83.9285714,31.2617674 68.7382326,16.0714286 50,16.0714286 C31.2617674,16.0714286 16.0714286,31.2617674 16.0714286,50 C16.0714286,68.7382326 31.2617674,83.9285714 50,83.9285714 Z M50,64.2857143 C42.1102179,64.2857143 35.7142857,57.8897821 35.7142857,50 C35.7142857,42.1102179 42.1102179,35.7142857 50,35.7142857 C57.8897821,35.7142857 64.2857143,42.1102179 64.2857143,50 C64.2857143,57.8897821 57.8897821,64.2857143 50,64.2857143 Z M44.6428571,48.2142857 C46.6153027,48.2142857 48.2142857,46.6153027 48.2142857,44.6428571 C48.2142857,42.6704116 46.6153027,41.0714286 44.6428571,41.0714286 C42.6704116,41.0714286 41.0714286,42.6704116 41.0714286,44.6428571 C41.0714286,46.6153027 42.6704116,48.2142857 44.6428571,48.2142857 Z"
      id="logo_sq_color" fill="#49AAE2"></path>
  </g>
</svg>
