<svg width="40px" height="40px" viewBox="0 0 238 238" xmlns="http://www.w3.org/2000/svg">
  <g fill="none" fill-rule="evenodd">
    <g fill="#81C261">
      <path d="M87.482 109.763c-13.766-18.989-9.536-45.536 9.453-59.302 18.982-13.767 45.533-9.533 59.302 9.453 13.763 18.985 9.533 45.536-9.456 59.299-18.985 13.766-45.536 9.533-59.299-9.45zm56.22 31.482C229.486 101.184 189.486 0 189.486 0 16.084 0 41.277 148.218 41.277 148.218s94.301.028 94.307.022c15.712 8.08 33.303 35.61 14.077 60.134-10.07 12.842-29.42 13.703-41.76 3.021-5.008-4.33-15.225-19.478-3.622-35.126 8.982-12.103 25.485-7.069 30.57-1.936 2.108 2.121 2.515 5.37.55 7.613a5.407 5.407 0 0 1-7.626.563c-2.029-1.773-8.88-4.672-14.214 1.017-2.55 2.73-6.519 11.735 1.411 19.69 7.315 7.347 19.92 6.08 26.518-1.91 12.378-14.973 2.493-30.704-2.521-35.053-13.52-11.687-33.309-9.546-45.725 3.302-10.94 11.3-9.171 27.735-8.006 32.599 6.195 25.798 32.88 41.852 58.057 33.494 44.675-14.842 61.418-73.9 44.797-117.274-10.531 13.296-26.502 21.984-44.387 22.87l-.001.001z"/>
      <path d="M108.367 88.416c-4.727 3.427-5.783 10.044-2.35 14.774 3.428 4.726 10.042 5.786 14.772 2.358 4.733-3.433 5.786-10.048 2.355-14.777-3.427-4.727-10.045-5.789-14.777-2.355"/>
    </g>
    <path fill-opacity="0" fill="#FFF" d="M0 0h238v238H0z"/>
  </g>
</svg>
