<svg width="36px" height="36px" viewBox="0 0 36 36" version="1.1" xmlns="http://www.w3.org/2000/svg" xmlns:xlink="http://www.w3.org/1999/xlink">
    <g id="Final" stroke="none" stroke-width="1" fill="none" fill-rule="evenodd">
        <g id="Desktop-01-a-rest" transform="translate(-996.000000, -1879.000000)" fill="#6722E8">
            <g id="statbot-logo" transform="translate(996.000000, 1879.000000)">
                <g id="Group-18" transform="translate(0.000000, 7.659927)">
                    <path d="M6.10269091,0.39 C5.6376,-0.0903636364 4.87105455,-0.103090909 4.39032727,0.362 C4.19687273,0.549272727 4.07141818,0.795818182 4.0336,1.06272727 C4.01869091,1.26745455 4.01869091,1.47254545 4.0336,1.67727273 L4.0336,4.22272727 C4.02887273,4.52890909 3.90523636,4.82127273 3.68814545,5.03727273 L0.971781818,7.80090909 C-0.311127273,9.06927273 -0.325672727,11.1365455 0.939054545,12.4227273 L3.68450909,15.1863636 C3.90923636,15.4001818 4.04014545,15.6943636 4.04814545,16.0045455 L4.04814545,18.7536364 C4.02414545,18.9041818 4.00850909,19.0558182 4.00087273,19.2081818 C4.07505455,19.8830909 4.68232727,20.3696364 5.35687273,20.2954545 C5.63832727,20.2645455 5.90050909,20.1372727 6.09905455,19.9354545 L13.6263273,12.4190909 C14.8736,11.1725455 14.8739636,9.15109091 13.6274182,7.90381818 L13.6263273,7.90272727 L6.10269091,0.39 Z" id="Fill-16"></path>
                </g>
                <path d="M29.5354182,8.04992727 C30.0146909,7.56338182 30.7972364,7.55756364 31.2837818,8.03647273 C31.4717818,8.22156364 31.5957818,8.46192727 31.6372364,8.72265455 C31.6634182,8.92629091 31.6743273,9.13174545 31.6699636,9.3372 L31.6699636,11.8826545 C31.6612364,12.1844727 31.7725091,12.4772 31.9790545,12.6972 L34.6772364,15.4608364 C35.9579636,16.7310182 35.9696,18.7982909 34.7026909,20.0826545 L32.0008727,22.8390182 C31.7910545,23.0590182 31.6772364,23.3532 31.6845091,23.6572 L31.6845091,26.4062909 C31.6932364,26.5601091 31.6932364,26.7142909 31.6845091,26.8681091 C31.6019636,27.5499273 30.9819636,28.0357455 30.3001455,27.9528364 C30.0230545,27.9193818 29.7652364,27.7935636 29.5681455,27.5953818 L22.0190545,20.0790182 C20.7717818,18.8324727 20.7714182,16.8110182 22.0179636,15.5637455 L22.0190545,15.5626545 L29.5354182,8.04992727 Z" id="Fill-19"></path>
                <g id="Group-23" transform="translate(7.636364, 20.750836)">
                    <path d="M0.408145455,8.79 C-0.0714909091,9.25327273 -0.0845818182,10.0176364 0.378690909,10.4969091 C0.568872727,10.694 0.820509091,10.8201818 1.09178182,10.8554545 C1.29650909,10.8703636 1.5016,10.8703636 1.70632727,10.8554545 L4.25178182,10.8554545 C4.56050909,10.8649091 4.85323636,10.9954545 5.06632727,11.2190909 L7.82996364,13.9354545 C9.09723636,15.2194545 11.1645091,15.2354545 12.4517818,13.9718182 L15.2154182,11.2227273 C15.4296,10.9983636 15.7234182,10.8674545 16.0336,10.8590909 L18.7645091,10.8590909 C18.9179636,10.8747273 19.0721455,10.882 19.2263273,10.8809091 C19.9012364,10.8067273 20.3877818,10.1994545 20.3136,9.52490909 C20.2826909,9.24345455 20.1554182,8.98127273 19.9536,8.78272727 L12.4372364,1.26636364 C11.1906909,0.0190909091 9.16923636,0.0187272727 7.92196364,1.26527273 L7.92087273,1.26636364 L0.408145455,8.79 Z" id="Fill-21"></path>
                </g>
                <path d="M8.04450909,6.10810909 C7.5536,5.63356364 7.54050909,4.85065455 8.01505455,4.35974545 C8.2056,4.16265455 8.45650909,4.03429091 8.72814545,3.99538182 C8.93178182,3.96810909 9.13723636,3.95610909 9.34269091,3.95901818 L11.8881455,3.95901818 C12.1899636,3.96810909 12.4830545,3.85683636 12.7026909,3.64992727 L15.4663273,0.951745455 C16.7386909,-0.312981818 18.7917818,-0.317709091 20.0699636,0.940836364 L22.8336,3.6572 C23.0532364,3.86738182 23.3477818,3.9812 23.6517818,3.97356364 L26.4008727,3.97356364 C26.5546909,3.96483636 26.7088727,3.96483636 26.8626909,3.97356364 C27.5445091,4.05610909 28.0303273,4.67610909 27.9474182,5.35792727 C27.9139636,5.63501818 27.7881455,5.89283636 27.5899636,6.08992727 L20.0736,13.6244727 C18.8270545,14.8717455 16.8056,14.8721091 15.5583273,13.6255636 L15.5572364,13.6244727 L8.04450909,6.10810909 Z" id="Fill-24"></path>
            </g>
        </g>
    </g>
</svg>
