<svg xmlns="http://www.w3.org/2000/svg" xmlns:xlink="http://www.w3.org/1999/xlink" viewBox="0 0 596.43 141.46" width="156px">
  <defs>
    <clipPath id="clip-path">
      <rect x="50.24" y="73.44" width="94.09" height="22.42" style="fill: none"/>
    </clipPath>
    <clipPath id="clip-path-2">
      <rect x="50.24" y="95.81" width="94.09" height="22.38" style="fill: none"/>
    </clipPath>
    <clipPath id="clip-path-3">
      <path d="M144.32,49.91a47,47,0,0,0-94.09,0Z" style="fill: none;clip-rule: evenodd"/>
    </clipPath>
    <clipPath id="clip-path-4">
      <path d="M85.81,73.15a11.47,11.47,0,0,0,22.95,0Z" style="fill: none;clip-rule: evenodd"/>
    </clipPath>
    <clipPath id="clip-path-5">
      <path d="M144.32,72.86a11.47,11.47,0,0,0,0-22.95" style="fill: none;clip-rule: evenodd"/>
    </clipPath>
    <clipPath id="clip-path-6">
      <path d="M109.09,105.3a4.59,4.59,0,1,1,0,3.44H84.33a4.59,4.59,0,1,1,0-3.44Z" style="fill: none;clip-rule: evenodd"/>
    </clipPath>
    <clipPath id="clip-path-7">
      <path d="M50.24,49.91a11.47,11.47,0,0,0,0,22.95Z" style="fill: none;clip-rule: evenodd"/>
    </clipPath>
    <clipPath id="clip-path-8">
      <path d="M50.24,118.18c10.3,12.33,27.56,20.41,47.11,20.41s36.56-8.17,46.87-20.41Z" style="fill: none;clip-rule: evenodd"/>
    </clipPath>
    <clipPath id="clip-path-9">
      <rect x="97.28" y="49.91" width="47.04" height="23.52" style="fill: none"/>
    </clipPath>
    <clipPath id="clip-path-10">
      <rect x="50.24" y="49.91" width="47.04" height="23.52" style="fill: none"/>
    </clipPath>
    <clipPath id="clip-path-11">
      <circle cx="72.61" cy="60.81" r="5.16" style="fill: none"/>
    </clipPath>
    <clipPath id="clip-path-12">
      <circle cx="119.66" cy="60.81" r="5.16" style="fill: none"/>
    </clipPath>
    <clipPath id="clip-path-13">
      <path d="M69.64,55.11A16.22,16.22,0,0,0,48.22,75.18L25.34,98.07a7.07,7.07,0,0,0,10,10L58.22,85.18A16.22,16.22,0,0,0,78.4,64l-5,5a6.25,6.25,0,1,1-8.84-8.84Z" style="fill: none;clip-rule: evenodd"/>
    </clipPath>
    <clipPath id="clip-path-14">
      <path d="M27.43,116.82a9.54,9.54,0,1,0-9.54-9.54A9.54,9.54,0,0,0,27.43,116.82Zm0,6.09A15.63,15.63,0,1,0,11.8,107.28,15.63,15.63,0,0,0,27.43,122.92Z" style="fill: none;clip-rule: evenodd"/>
    </clipPath>
    <clipPath id="clip-path-15">
      <rect x="11.41" y="106.14" width="18.93" height="17.21" style="fill: none"/>
    </clipPath>
    <clipPath id="clip-path-16">
      <rect x="2.87" y="106.23" width="27.33" height="27.34" style="fill: none"/>
    </clipPath>
    <clipPath id="clip-path-17">
      <rect x="11.41" y="91.22" width="32.13" height="32.13" style="fill: none"/>
    </clipPath>
  </defs>
  <title>Asset 1</title>
  <g id="Layer_2" data-name="Layer 2">
    <g id="Layer_1-2" data-name="Layer 1">
      <g>
        <g>
          <g style="clip-path: url(#clip-path)">
            <rect x="47.37" y="70.57" width="99.82" height="28.16" style="fill: #414b82"/>
          </g>
          <g style="clip-path: url(#clip-path-2)">
            <rect x="47.37" y="92.94" width="99.82" height="28.11" style="fill: #ebaf0f"/>
          </g>
          <g style="clip-path: url(#clip-path-3)">
            <rect x="47.37" width="99.82" height="52.78" style="fill: #414b82"/>
          </g>
          <g style="clip-path: url(#clip-path-4)">
            <rect x="82.94" y="70.28" width="28.69" height="17.21" style="fill: #c80000"/>
          </g>
          <g style="clip-path: url(#clip-path-5)">
            <rect x="141.46" y="47.04" width="17.21" height="28.69" style="fill: #c80000"/>
          </g>
          <g style="clip-path: url(#clip-path-6)">
            <rect x="72.61" y="99.56" width="48.19" height="14.92"/>
          </g>
          <g style="clip-path: url(#clip-path-7)">
            <rect x="35.89" y="47.04" width="17.21" height="28.69" style="fill: #c80000"/>
          </g>
          <g style="clip-path: url(#clip-path-8)">
            <rect x="47.37" y="115.32" width="99.72" height="26.15" style="fill: gold"/>
          </g>
          <g style="clip-path: url(#clip-path-9)">
            <rect x="94.41" y="47.04" width="52.78" height="29.26" style="fill: gold"/>
          </g>
          <g style="clip-path: url(#clip-path-10)">
            <rect x="47.37" y="47.04" width="52.78" height="29.26" style="fill: #ebaf0f"/>
          </g>
          <g style="clip-path: url(#clip-path-11)">
            <rect x="64.58" y="52.78" width="16.06" height="16.06" style="fill: #414b82"/>
          </g>
          <g style="clip-path: url(#clip-path-12)">
            <rect x="111.62" y="52.78" width="16.06" height="16.06" style="fill: #414b82"/>
          </g>
          <g style="clip-path: url(#clip-path-13)">
            <rect x="12.4" y="64.97" width="74.5" height="37.55" transform="translate(-44.68 59.64) rotate(-45)" style="fill: #008ce1"/>
          </g>
          <g style="clip-path: url(#clip-path-14)">
            <g style="isolation: isolate">
              <g style="clip-path: url(#clip-path-15)">
                <g style="clip-path: url(#clip-path-16)">
                  <g style="clip-path: url(#clip-path-17)">
                    <rect y="103.37" width="33.07" height="33.07" style="fill: #008ce1"/>
                  </g>
                </g>
              </g>
            </g>
          </g>
        </g>
        <g>
          <path d="M210.37,90.75a3.81,3.81,0,0,0-2-3.08q-2-1.36-7.13-2.44-8.15-1.59-12.28-5a11.2,11.2,0,0,1-4.14-9.18A13.11,13.11,0,0,1,190,60.65q5.17-4.29,14-4.29,9.31,0,14.82,4.16a12.22,12.22,0,0,1,5.26,10.75l-.08.26H209.89a5.71,5.71,0,0,0-1.4-4.18q-1.4-1.42-4.5-1.42a5.93,5.93,0,0,0-3.83,1.25,3.93,3.93,0,0,0-1.55,3.19,3.79,3.79,0,0,0,1.79,3.14q1.79,1.29,7.22,2.33,8.53,1.68,12.65,5t4.12,9.46q0,6.29-5.58,10.36T204,104.75q-9.53,0-15.06-4.83t-5.28-10.77l.08-.26H197q.09,3.32,2,4.78a8.8,8.8,0,0,0,5.45,1.47A7.3,7.3,0,0,0,208.86,94a3.85,3.85,0,0,0,1.51-3.25" style="fill: #414b82"/>
          <path d="M255.94,41.54V57.23h7.88V67.31h-7.88V88.68a5.24,5.24,0,0,0,1,3.6,3.55,3.55,0,0,0,2.74,1.1,20.69,20.69,0,0,0,2.18-.09c.53-.06,1.21-.17,2-.34l1,10.77a42.3,42.3,0,0,1-4.35.79,38.3,38.3,0,0,1-4.57.24q-7.2,0-10.9-3.83t-3.71-12.16V67.31h-6.55V57.23h6.55V41.54Zm-14.52,0h14.52" style="fill: #414b82"/>
          <path d="M306.77,103.81a18.19,18.19,0,0,1-1.1-2.5,25.76,25.76,0,0,1-.84-2.84,16,16,0,0,1-5,4.59,13.91,13.91,0,0,1-7.11,1.7,15.3,15.3,0,0,1-10.79-3.83,13.23,13.23,0,0,1-4.16-10.21A12.45,12.45,0,0,1,283,80q5.19-3.77,15.79-3.77h5.3V72.91a6.72,6.72,0,0,0-1.4-4.57,5.46,5.46,0,0,0-4.33-1.6,5.2,5.2,0,0,0-3.73,1.18,4.92,4.92,0,0,0-1.23,3.68l-14.09,0-.09-.26q-.3-6.38,5.3-10.67t14.83-4.29q8.62,0,14,4.31T318.66,73V90.57a36.12,36.12,0,0,0,.63,6.94,35.6,35.6,0,0,0,1.87,6.34Zm-9.61-9.44a9.11,9.11,0,0,0,4-.86,8.25,8.25,0,0,0,2.93-2.24V84h-5.17q-3.45,0-5,1.68a6,6,0,0,0-1.57,4.27,4.11,4.11,0,0,0,1.35,3.21,5,5,0,0,0,3.51,1.23" style="fill: #414b82"/>
          <path d="M348.25,57.23l.52,6.16a15.48,15.48,0,0,1,5.54-5.19A15.66,15.66,0,0,1,362,56.37a14.23,14.23,0,0,1,7.5,1.9A11.64,11.64,0,0,1,374.19,64a15.62,15.62,0,0,1,5.54-5.66,15.2,15.2,0,0,1,7.91-2q6.81,0,10.71,4.67t3.9,14.41v28.4H387.64V75.45q0-4.52-1.4-6.2a5.15,5.15,0,0,0-4.2-1.68,8.73,8.73,0,0,0-3.73.75,7.83,7.83,0,0,0-2.74,2.09c0,.49,0,.91,0,1.27s0,.71,0,1.05v31.11H361.09V75.45q0-4.52-1.38-6.2a5.2,5.2,0,0,0-4.27-1.68,8.4,8.4,0,0,0-3.59.75,7.82,7.82,0,0,0-2.74,2.09v33.44H334.55V57.23Z" style="fill: #414b82"/>
          <path d="M459.62,81.53q0,10.51-4.74,16.87t-13.36,6.36a12.71,12.71,0,0,1-10.51-5v19.71H416.44V57.23h13.62l.52,5.12a14.5,14.5,0,0,1,4.65-4.44,12.17,12.17,0,0,1,6.21-1.55q8.66,0,13.43,6.67t4.76,17.58Zm-14.52-.91a22,22,0,0,0-1.72-9.48,5.75,5.75,0,0,0-5.52-3.57,8.77,8.77,0,0,0-4.16.9A6.67,6.67,0,0,0,431,71.1V90.57a6.24,6.24,0,0,0,2.74,2.25,10.64,10.64,0,0,0,4.2.73,5.73,5.73,0,0,0,5.5-3.17q1.66-3.17,1.66-8.85Z" style="fill: #414b82"/>
          <rect x="471.36" y="41.53" width="14.61" height="62.32" style="fill: #414b82"/>
          <path d="M528.1,103.81a18.09,18.09,0,0,1-1.1-2.5,25.76,25.76,0,0,1-.84-2.84,16,16,0,0,1-5,4.59,13.92,13.92,0,0,1-7.11,1.7,15.31,15.31,0,0,1-10.79-3.83,13.23,13.23,0,0,1-4.16-10.21A12.45,12.45,0,0,1,504.29,80q5.19-3.77,15.79-3.77h5.3V72.91a6.72,6.72,0,0,0-1.4-4.57,5.46,5.46,0,0,0-4.33-1.6,5.19,5.19,0,0,0-3.73,1.18,4.91,4.91,0,0,0-1.23,3.68l-14.09,0-.09-.26q-.3-6.38,5.3-10.67t14.83-4.29q8.61,0,14,4.31T540,73V90.57a36.05,36.05,0,0,0,.63,6.94,35.46,35.46,0,0,0,1.88,6.34Zm-9.61-9.44a9.11,9.11,0,0,0,4-.86,8.27,8.27,0,0,0,2.93-2.24V84h-5.17q-3.45,0-5,1.68a6,6,0,0,0-1.57,4.27A4.11,4.11,0,0,0,515,93.14a5,5,0,0,0,3.51,1.23" style="fill: #414b82"/>
          <path d="M572.9,83.29l0,.35h.26l7.71-26.41h15.51l-17.84,51.43a25.69,25.69,0,0,1-5.56,8.53q-3.4,3.36-10.82,3.36a16.67,16.67,0,0,1-3.1-.24q-1.21-.24-3.79-.88l1.77-10.35.91.19a3.81,3.81,0,0,0,.78.07,9.64,9.64,0,0,0,5-1,6.06,6.06,0,0,0,2.37-3.06l.39-1-16.08-47H566Z" style="fill: #414b82"/>
        </g>
      </g>
    </g>
  </g>
</svg>
