<svg version="1.1" x="0px" y="0px" viewBox="0 0 450 150" width="122px" heigh="40px" xmlns="http://www.w3.org/2000/svg" xmlns:xlink="http://www.w3.org/1999/xlink">
  <g>
  	<path d="M161.5,52.3h-11.8V33.6l-6.2-9h-6.1v27.7h-11.9v6.5h-11.5v5.1c-5.4-5.6-13-9.1-21.4-9.1c-10.8,0-20.3,5.8-25.6,14.4
  		C64,43,40.5,36,26.9,36l-12.6,0H1.8v78.1h12.6h12.5c11.3,0,29.4-5,37-21.6c3.5,12.6,15.1,21.9,28.8,21.9c8.4,0,16-3.5,21.4-9.1v8.4
  		h12.2V64.5h11.1v49.7h12.2V64.5h11.8V52.3z M14.4,47C14.4,47,14.4,47,14.4,47c0,0,0,56.4,0,56.4V47z M24.4,103.4c0,0-8.3,0-9.9,0
  		c0-14.9,0-41.5,0-56.4c0.7,0,9.9,0,9.9,0c11.7,0,32.3,3.4,32.4,28C56.7,99.6,36,103.4,24.4,103.4z M92.7,103.5
  		c-10.4,0-18.9-8.5-18.9-18.9s8.5-18.9,18.9-18.9s18.9,8.5,18.9,18.9S103.1,103.5,92.7,103.5z"/>
  	<path d="M341.5,75.2C341.5,75.2,341.5,75.2,341.5,75.2L341.5,75.2C341.5,75.2,341.5,75.2,341.5,75.2z"/>
  	<path d="M340,76.2l-8.4,5.6c0.1,0.7,0.1,1.4,0.1,2.1c0,10.5-8.5,19-19,19c-3.3,0-6.4-0.9-9.1-2.3c-1.3-0.7-2.5-1.6-3.7-2.6
  		l38.5-25.8l1.5-1c-4.9-10.5-15.6-17.3-27.2-17.3c-14.4,0-26.5,10.2-29.4,23.8V36.4h-12.6V69h-30V36.4h-12.6v77.8h12.6V81.6h30v32.6
  		h12.6v-24c2.9,13.6,14.9,23.8,29.4,23.8c16.5,0,30-13.5,30-30c0-3-0.4-5.9-1.3-8.7L340,76.2z M293.8,83.9c0-10.5,8.5-19,19-19
  		c4.4,0,8.6,1.5,11.9,4.2c-0.3,0.1-0.6,0.3-0.9,0.5l-29.3,19.6C294,87.6,293.8,85.8,293.8,83.9z"/>
  	<path d="M207.7,63.9c-5.4-5.6-13-9.1-21.4-9.1c-16.5,0-29.9,13.4-29.9,29.9s13.4,29.9,29.9,29.9c8.4,0,16-3.5,21.4-9.1v8.4H220v-55
  		h-12.2V63.9z M186.3,103.5c-10.4,0-18.9-8.5-18.9-18.9s8.5-18.9,18.9-18.9s18.9,8.5,18.9,18.9S196.7,103.5,186.3,103.5z"/>
  	<path d="M418.2,54.2c-12.5,0-23.2,7.7-27.7,18.6c-2.5-14.4-15.9-18-21.8-18c-6,0-10.2,2.3-10.8,2.6v-2.7h-12.6v59.4h12.6V76.8
  		c0.4-5.2,3.9-9.9,10.8-9.9c6.4,0,10,5.3,10,10.8h10.3c-0.5,2.1-0.7,4.2-0.7,6.5c0,16.5,13.5,30,30,30s30-13.5,30-30
  		S434.8,54.2,418.2,54.2z M418.2,103.2c-10.5,0-19-8.5-19-19s8.5-19,19-19s19,8.5,19,19S428.7,103.2,418.2,103.2z"/>
  </g>
</svg>
