<svg width="38px" height="36px" viewBox="0 0 38 36" version="1.1" xmlns="http://www.w3.org/2000/svg" xmlns:xlink="http://www.w3.org/1999/xlink">
    <defs>
        <linearGradient x1="17.8627792%" y1="0%" x2="81.6207712%" y2="100%" id="linearGradient-1">
            <stop stop-color="#8F3F97" offset="0%"></stop>
            <stop stop-color="#C53D95" offset="100%"></stop>
        </linearGradient>
    </defs>
    <g id="Final" stroke="none" stroke-width="1" fill="none" fill-rule="evenodd">
        <g id="Desktop-01-a-rest" transform="translate(-996.000000, -2083.000000)" fill="url(#linearGradient-1)">
            <g id="asknicely-logo" transform="translate(996.000000, 2083.000000)">
                <path d="M9.19654839,9.43867742 C7.99577419,9.73596774 3.879,10.6809677 2.7693871,10.9721613 C0.787354839,11.4924194 -0.397741935,13.5211935 0.122516129,15.5032258 C0.419225806,16.6331613 1.206,17.5032581 2.19512903,17.9462903 C2.63003226,18.1408065 9.21512903,20.4305806 9.21512903,20.4305806 L8.82609677,18.2072903 C8.7363871,17.9082581 8.91058065,17.594129 9.21251613,17.5134194 C10.3964516,17.1969677 10.8873871,17.1095806 11.295,17.0088387 C13.4399032,16.4778387 14.6938065,14.2798065 14.1198387,12.2153226 C13.6355806,10.4733871 11.9906129,9.31616129 10.1999032,9.31616129 C9.86806452,9.31616129 9.53187097,9.35593548 9.19654839,9.43867742 Z M10.2350323,21.4934516 C8.16416129,21.4934516 6.39174194,23.1738387 6.23787097,25.3213548 C6.1496129,26.5552258 5.77596774,30.7625806 5.71006452,31.9079032 C5.59248387,33.9538065 7.15558065,35.7076452 9.20148387,35.8255161 C9.27406452,35.8295806 9.34606452,35.8316129 9.41777419,35.8316129 C10.4995161,35.8316129 11.4837097,35.3627419 12.1653871,34.6090645 C12.4850323,34.2557419 16.6973226,28.7004194 16.6973226,28.7004194 L14.4627097,28.3833871 C14.1506129,28.3764194 13.905871,28.1133871 13.9224194,27.8015806 C13.9871613,26.577871 14.0556774,26.0837419 14.085871,25.6650968 C14.2438065,23.4609677 12.5407742,21.5889677 10.3999355,21.4969355 C10.3450645,21.4946129 10.2899032,21.4934516 10.2350323,21.4934516 Z M26.8745806,24.1400323 L25.8828387,26.1670645 C25.8027097,26.3958387 25.5887419,26.5383871 25.3605484,26.5383871 C25.2946452,26.5383871 25.2275806,26.5264839 25.1622581,26.5012258 C24.0183871,26.0613871 23.5698387,25.8436452 23.1808065,25.6857097 C22.698871,25.4900323 22.2027097,25.398 21.7158387,25.398 C20.133871,25.398 18.6506129,26.3679677 18.0778065,27.9031935 C17.3287742,29.9107742 18.3811935,32.211871 20.4288387,33.0433548 C21.5750323,33.5087419 25.461,35.163871 26.5299677,35.5804839 C26.9724194,35.7529355 27.4282258,35.8348065 27.8764839,35.8348065 C29.3611935,35.8348065 30.762871,34.9374194 31.3345161,33.4707097 C31.7586774,32.382 31.6335484,31.2157742 31.0935484,30.276 C30.8563548,29.862871 26.8745806,24.1400323 26.8745806,24.1400323 Z M33.5897419,10.8551613 C33.3319355,10.8551613 33.0744194,10.8821613 32.8218387,10.9352903 C32.3555806,11.033129 25.6825161,13.0514516 25.6825161,13.0514516 L27.3039677,14.6212258 C27.5521935,14.8108065 27.5957419,15.1673226 27.3989032,15.4097419 C26.6272258,16.3617097 26.2814516,16.721129 26.010871,17.0422258 C24.5877097,18.7324839 24.8652581,21.2478387 26.5430323,22.5807097 C27.2522903,23.1442258 28.1116452,23.4177097 28.9744839,23.4177097 C30.1520323,23.4177097 31.3365484,22.9087742 32.157871,21.933 C32.9548065,20.9868387 35.73,17.8025806 36.4563871,16.9147742 C37.754129,15.3287419 37.5207097,12.9910645 35.9346774,11.6933226 C35.2457419,11.1295161 34.415129,10.8551613 33.5897419,10.8551613 Z M16.6444839,0.588774194 C15.6614516,1.21993548 15.0773226,2.23722581 14.9614839,3.31490323 C14.9106774,3.78870968 14.768129,10.7587742 14.768129,10.7587742 L16.7620645,9.702 C16.8587419,9.63522581 16.9687742,9.603 17.0773548,9.603 C17.2582258,9.603 17.4353226,9.69154839 17.5415806,9.855 C18.2084516,10.8833226 18.4433226,11.3231613 18.665129,11.6796774 C19.4106774,12.8769677 20.6898387,13.5194516 21.9823548,13.5194516 C22.7145484,13.5194516 23.4508065,13.3133226 24.0970645,12.8850968 C25.8828387,11.7014516 26.3842258,9.22093548 25.2162581,7.34487097 C24.5624516,6.29448387 22.3917097,2.67125806 21.7715806,1.70593548 C21.0629032,0.602129032 19.8670645,0 18.6459677,0 C17.9593548,0 17.2649032,0.19016129 16.6444839,0.588774194 Z" id="Combined-Shape"></path>
            </g>
        </g>
    </g>
</svg>
