<svg xmlns="http://www.w3.org/2000/svg" viewBox="0 0 95.49 32.32" width="119px">
  <path d="M10,34.35H7.29V31.62a1.41,1.41,0,1,0-2.81,0v2.72H1.75a1.41,1.41,0,1,0,0,2.81H4.48v2.72a1.41,1.41,0,0,0,2.81,0V37.16H10a1.41,1.41,0,1,0,0-2.81Z" transform="translate(-0.35 -30.22)" style="fill: #235e68"/>
  <path d="M40.5,51.62c.48,0,1-.05,1.13-.07s.41.08.42.36l0,.68a.41.41,0,0,1-.38.46,13,13,0,0,1-1.72.13c-3,0-4.36-1.67-4.36-4.66,0-3.26,2-4.52,4.2-4.52a6.89,6.89,0,0,1,2.1.34.39.39,0,0,1,.29.52l-.16.8c-.05.26-.23.32-.45.23A4.52,4.52,0,0,0,40,45.56c-1.34,0-2.37.84-2.39,3C37.63,51.08,38.91,51.62,40.5,51.62Z" transform="translate(-0.35 -30.22)" style="fill: #0ba8a3"/>
  <path d="M45.58,46.44a6.65,6.65,0,0,1,2.16-.38A2,2,0,0,1,50,48.33v4.28c0,.28-.12.4-.4.4H48.37c-.28,0-.4-.12-.4-.4v-4c0-.92-.45-1.07-1-1.07a4.54,4.54,0,0,0-1.38.27v4.76c0,.28-.12.4-.4.4H44.06c-.28,0-.4-.12-.4-.4V44.17a.37.37,0,0,1,.4-.42l1.11-.07c.28,0,.4.09.4.37Z" transform="translate(-0.35 -30.22)" style="fill: #0ba8a3"/>
  <path d="M54.21,53.16c-2.07,0-2.81-1.64-2.81-3.45s.86-3.63,3.62-3.63a6.25,6.25,0,0,1,2.15.38.53.53,0,0,1,.38.54V51.4c0,.27.2.37.44.37h.15c.23,0,.33,0,.36.28l0,.41a.49.49,0,0,1-.34.54,3.21,3.21,0,0,1-1,.19,1.32,1.32,0,0,1-1.33-.69A2.16,2.16,0,0,1,54.21,53.16Zm1.49-5.5a1.57,1.57,0,0,0-.8-.17c-1.31,0-1.61,1.21-1.61,2.35s.41,1.94,1.42,1.94a1.8,1.8,0,0,0,1-.29Z" transform="translate(-0.35 -30.22)" style="fill: #0ba8a3"/>
  <path d="M61.5,52.62c0,.28-.12.4-.4.4H60c-.28,0-.4-.12-.4-.4v-6c0-.28.12-.4.4-.4h.82a.38.38,0,0,1,.44.4l0,.24a3.05,3.05,0,0,1,2-.76h.29c.23,0,.33.16.28.44l-.11.72c0,.28-.15.4-.37.37h-.36a3.24,3.24,0,0,0-1.57.32Z" transform="translate(-0.35 -30.22)" style="fill: #0ba8a3"/>
  <path d="M65.73,47.5h-.8c-.28,0-.4-.12-.4-.4v-.48c0-.28.12-.4.4-.4h.84V45.07c0-.28.12-.41.4-.42l1.07-.09c.28,0,.4.08.4.36v1.3h1.54c.28,0,.38.12.36.4l0,.49c0,.28-.15.4-.42.4H67.63V51c0,.49.12.72.57.72a4.38,4.38,0,0,0,.58-.05c.25,0,.36.05.41.33l.08.52c0,.28,0,.44-.28.52a4.49,4.49,0,0,1-1.17.16c-2.1,0-2.1-1.22-2.1-2.36Z" transform="translate(-0.35 -30.22)" style="fill: #0ba8a3"/>
  <path d="M75.22,47.71c-.05.28-.24.24-.44.16a4.55,4.55,0,0,0-1.55-.33c-.49,0-.88.15-.88.58s.66.73,1.33,1c.85.32,1.9.68,1.9,1.86,0,1.42-.9,2.23-2.85,2.23a6.43,6.43,0,0,1-2-.3.43.43,0,0,1-.28-.54l.13-.61c.05-.27.2-.33.44-.27a6.67,6.67,0,0,0,1.71.32c.57,0,1-.12,1-.62s-.54-.69-1.17-1c-1-.41-2-.84-2-2,0-1.5,1.27-2.14,2.61-2.14a4.13,4.13,0,0,1,1.86.38.5.5,0,0,1,.31.58Z" transform="translate(-0.35 -30.22)" style="fill: #0ba8a3"/>

  <path d="M16.82,53a.48.48,0,0,1-.52-.37l-.57-1.72H12.81l-.54,1.71a.48.48,0,0,1-.52.38H10.54c-.28,0-.36-.12-.27-.37l2.81-8.12a.51.51,0,0,1,.53-.37H15a.51.51,0,0,1,.53.37l2.71,8.12c.09.25,0,.37-.27.37Zm-2.53-7-1,3.49h2Z" transform="translate(-0.35 -30.22)" style="fill: #235e68"/>
  <path d="M25.32,52.38a.43.43,0,0,1-.36.49,12.41,12.41,0,0,1-2.67.29c-1.68,0-3.25-.68-3.25-3.42,0-1.76.73-3.62,3.16-3.62a3.63,3.63,0,0,1,1.26.19V44.11c0-.28.12-.4.4-.4h1.06c.28,0,.4.12.4.4Zm-1.86-4.79a4.17,4.17,0,0,0-.94-.09c-1.07,0-1.59,1-1.59,2.25s.62,2,1.63,2a3.29,3.29,0,0,0,.9-.13Z" transform="translate(-0.35 -30.22)" style="fill: #235e68"/>
  <path d="M33.08,52.38a.43.43,0,0,1-.36.49,12.41,12.41,0,0,1-2.67.29c-1.68,0-3.25-.68-3.25-3.42,0-1.76.73-3.62,3.16-3.62a3.63,3.63,0,0,1,1.26.19V44.11c0-.28.12-.4.4-.4h1.06c.28,0,.4.12.4.4Zm-1.86-4.79a4.17,4.17,0,0,0-.94-.09c-1.07,0-1.59,1-1.59,2.25s.62,2,1.63,2a3.29,3.29,0,0,0,.9-.13Z" transform="translate(-0.35 -30.22)" style="fill: #235e68"/>

  <path d="M79.4,53.52A1.41,1.41,0,0,1,78,52.11V47.65a1.41,1.41,0,0,1,2.81,0v4.46A1.41,1.41,0,0,1,79.4,53.52Z" transform="translate(-0.35 -30.22)" style="fill: #0ba8a3"/>
  <path d="M84.05,53.52a1.41,1.41,0,0,1-1.41-1.41V45a1.41,1.41,0,0,1,2.81,0v7.12A1.41,1.41,0,0,1,84.05,53.52Z" transform="translate(-0.35 -30.22)" style="fill: #0ba8a3"/>
  <path d="M88.78,53.52a1.41,1.41,0,0,1-1.41-1.41V49.55a1.41,1.41,0,0,1,2.81,0v2.56A1.41,1.41,0,0,1,88.78,53.52Z" transform="translate(-0.35 -30.22)" style="fill: #0ba8a3"/>

  <path d="M89.6,62.53H10.7A6.24,6.24,0,0,1,4.48,56.3V45.77a1.41,1.41,0,0,1,2.81,0V56.3a3.42,3.42,0,0,0,3.42,3.42H89.6A3.42,3.42,0,0,0,93,56.3V40.58a3.42,3.42,0,0,0-3.42-3.42H15.94a1.41,1.41,0,1,1,0-2.81H89.6a6.24,6.24,0,0,1,6.23,6.23V56.3A6.24,6.24,0,0,1,89.6,62.53Z" transform="translate(-0.35 -30.22)" style="fill: #0ba8a3"/>
</svg>
