<svg width="135" height="24" viewBox="0 0 135 24" xmlns="http://www.w3.org/2000/svg">
  <g fill="none">
    <path d="M16.696 17.098c0-1.65-.701-3.176-2.02-4.166-.784-.617-1.773-1.072-2.97-1.278.95-.247 1.774-.7 2.392-1.277 1.03-.907 1.61-2.145 1.61-3.464 0-2.227-1.527-4.04-3.754-4.865C10.8 1.635 9.77 1.47 7.13 1.47H.161v21.687h7.587c2.392 0 3.546-.124 5.031-.618 2.392-.907 3.917-3.052 3.917-5.442zm-5.112-9.566c0 .495-.125.948-.33 1.36-.618 1.114-1.484 1.444-3.67 1.444h-3.63v-5.65h3.382c1.196 0 2.268.166 2.969.578.743.454 1.279 1.236 1.279 2.268zm-3.836 5.937c.99 0 2.145.124 2.888.453.989.413 1.813 1.32 1.813 2.846 0 1.236-.66 2.349-1.649 2.804-.743.329-1.773.494-3.134.494h-3.67v-6.597h3.752zm28.986 6.514h-9.153V1.47h-3.916v21.687h12.451l.618-3.175zm19.213 3.175V19.86H45.93v-6.432h7.627v-3.176h-7.668V4.645h9.195l.534-3.174H42.011v21.687h13.936zm23.957 0V1.47h-3.71l.123 10.143c.04 2.556.329 5.319.37 5.813-.289-.576-1.32-2.804-2.598-5.03L67.782 1.471h-4.37v21.687h3.834l-.165-10.39a110.596 110.596 0 0 0-.248-6.06c.164.41 1.609 3.463 2.887 5.607l6.184 10.843h4zm13.4-21.687h-4.865v21.687h6.308c1.607 0 2.927-.042 3.875-.288 2.68-.577 7.052-3.547 7.052-10.555 0-6.432-3.011-9.112-6.227-10.103-1.773-.741-3.875-.741-6.143-.741zm8.121 11.131c0 4.578-1.73 6.599-4.04 7.176-.577.165-1.36.247-2.061.247h-3.01V4.562h2.557c2.226 0 3.67.455 4.947 1.98 1.154 1.36 1.607 3.215 1.607 6.06z" fill="#241F21"/>
    <path d="M114.192 14.903a9.009 9.009 0 0 1-.636-3.304c0-1.12.215-2.231.636-3.305l1.297.348a8.071 8.071 0 0 0-.566 2.957c0 1.002.189 1.996.566 2.957l-1.297.347z" fill="#7ABE90"/>
    <path d="M114.222 7.177l.052.003c.036.002.07.007.105.013.046.008.057.011.103.022l1.296.348c.046.014.058.016.102.033a1.141 1.141 0 0 1 .507.382 1.13 1.13 0 0 1 .218.65 1.112 1.112 0 0 1-.092.462l-.03.078a7.32 7.32 0 0 0-.343 1.267 6.88 6.88 0 0 0 .39 3.717l.018.05c.014.046.018.057.029.103a1.12 1.12 0 0 1-.697 1.298c-.045.017-.057.02-.103.033l-1.296.347c-.046.01-.057.015-.103.022a1.117 1.117 0 0 1-1.207-.648 10.916 10.916 0 0 1-.125-.327 10.03 10.03 0 0 1-.607-3.49 10.064 10.064 0 0 1 .607-3.372l.084-.226.04-.101a1.122 1.122 0 0 1 .893-.656c.047-.006.06-.005.106-.008h.053z" fill="#7ABE90"/>
    <path d="M118.344 4.596l-.666-.986c1.85-1.455 4.033-2.224 6.314-2.224v1.22c-2.04 0-3.993.689-5.648 1.99z" fill="#6ECBDC"/>
    <path d="M124.041.27c.046.002.057.002.103.008a1.132 1.132 0 0 1 .673.354 1.12 1.12 0 0 1 .288.65c.004.046.003.058.005.104v1.22c-.002.048-.001.06-.005.106a1.118 1.118 0 0 1-1.004 1.006c-.05.006-.1.006-.15.006h-.084l-.126.004a7.614 7.614 0 0 0-1.111.115c-.61.108-1.207.29-1.775.537a8.255 8.255 0 0 0-1.822 1.096l-.042.032c-.04.025-.048.033-.089.056a1.119 1.119 0 0 1-1.422-.258c-.03-.036-.035-.046-.062-.084l-.666-.986c-.025-.04-.033-.05-.055-.09a1.113 1.113 0 0 1 .252-1.383c.043-.037.089-.071.134-.106a12.49 12.49 0 0 1 .836-.59 11.53 11.53 0 0 1 1.672-.89 11.09 11.09 0 0 1 4.45-.907z" fill="#6ECBDC"/>
    <path d="M132.39 9.061c-.642-1.946-1.882-3.62-3.59-4.839l.687-.92c1.902 1.36 3.29 3.231 4.01 5.409l-1.106.35z" fill="#EE5047"/>
    <path d="M129.538 2.185l.05.004a1.133 1.133 0 0 1 .51.177c.046.03.091.064.136.097l.193.143a12.065 12.065 0 0 1 2.371 2.38 11.797 11.797 0 0 1 1.721 3.261c.018.053.037.105.052.158a1.156 1.156 0 0 1 .015.551 1.12 1.12 0 0 1-.657.785c-.041.017-.052.02-.095.034l-1.105.351c-.043.013-.053.017-.096.026a1.11 1.11 0 0 1-.727-.084 1.127 1.127 0 0 1-.59-.696l-.027-.081-.043-.12a8.506 8.506 0 0 0-.44-1.001 8.401 8.401 0 0 0-.968-1.467 8.664 8.664 0 0 0-1.616-1.52l-.035-.026-.038-.027-.04-.03c-.035-.03-.045-.036-.077-.067a1.11 1.11 0 0 1-.345-.715 1.13 1.13 0 0 1 .161-.68c.023-.038.03-.047.057-.084l.686-.92c.027-.035.033-.044.063-.077a1.122 1.122 0 0 1 .785-.372h.1z" fill="#EE5047"/>
    <path d="M129.486 19.898l-.685-.922c1.705-1.218 2.947-2.891 3.59-4.84l1.106.351c-.72 2.179-2.108 4.049-4.011 5.41z" fill="#C7C9CC"/>
    <path d="M132.435 13.02c.017 0 .033.002.05.003a1.154 1.154 0 0 1 .196.034l.047.014 1.106.35c.043.016.054.019.095.036a1.107 1.107 0 0 1 .47.372 1.123 1.123 0 0 1 .173.963c-.015.054-.034.106-.052.158a11.687 11.687 0 0 1-.34.882c-.382.88-.87 1.712-1.453 2.473a12.078 12.078 0 0 1-2.672 2.554 1.117 1.117 0 0 1-1.404-.218c-.03-.033-.035-.042-.062-.077l-.685-.921c-.026-.037-.034-.045-.057-.084a1.124 1.124 0 0 1-.154-.73 1.126 1.126 0 0 1 .376-.697 1.47 1.47 0 0 1 .118-.09l.07-.052.105-.078.205-.16a8.595 8.595 0 0 0 1.652-1.757 8.47 8.47 0 0 0 1.111-2.211l.017-.047c.017-.04.02-.051.04-.091a1.108 1.108 0 0 1 .9-.622c.043-.004.054-.004.099-.005l.05.001z" fill="#C7C9CC"/>
    <path d="M123.993 21.812c-2.281 0-4.464-.768-6.315-2.221l.666-.987c1.656 1.301 3.611 1.989 5.649 1.989v1.219z" fill="#E8A822"/>
    <path d="M118.405 17.488a.923.923 0 0 1 .156.02 1.12 1.12 0 0 1 .508.244l.07.053.104.078a8.918 8.918 0 0 0 .9.582 7.853 7.853 0 0 0 3.853 1.01l.053.001c.047.004.059.004.106.011a1.11 1.11 0 0 1 .894.74c.029.084.048.171.056.26.005.047.004.058.005.106v1.219c-.001.046 0 .058-.005.103a1.112 1.112 0 0 1-.526.848 1.123 1.123 0 0 1-.538.165c-.056.003-.112.001-.167 0a11.057 11.057 0 0 1-.943-.05 11.096 11.096 0 0 1-2.794-.637 11.52 11.52 0 0 1-2.957-1.624l-.145-.11a1.152 1.152 0 0 1-.41-.54 1.125 1.125 0 0 1 .072-.912c.022-.04.03-.05.054-.09l.667-.987.03-.043a1.118 1.118 0 0 1 .8-.445c.046-.004.058-.003.105-.004l.052.002z" fill="#E8A822"/>
  </g>
</svg>