<svg width="34px" height="36px" viewBox="0 0 34 36" version="1.1" xmlns="http://www.w3.org/2000/svg" xmlns:xlink="http://www.w3.org/1999/xlink">
    <g id="Integrations-Page" stroke="none" stroke-width="1" fill="none" fill-rule="evenodd">
        <g id="Desktop-01-a-rest" transform="translate(-304.000000, -1879.000000)">
            <g id="Group-26" transform="translate(280.000000, 1855.000000)">
                <g id="charge-desk-logo" transform="translate(24.000000, 24.000000)">
                    <path d="M15.6758182,0.545127273 C7.074,0.545127273 3.678,7.68185455 5.76763636,14.9445818 L5.76763636,14.9445818 C6.16309091,14.8573091 6.52472727,14.8474909 6.84654545,14.9134909 L6.84654545,14.9134909 C7.57145455,15.0634909 8.17363636,15.6149455 8.70109091,16.5776727 L8.70109091,16.5776727 C7.93581818,17.1007636 7.16836364,17.6353091 6.39654545,18.1807636 L6.39654545,18.1807636 C6.12272727,17.7602182 5.84072727,17.5054909 5.54509091,17.4258545 L5.54509091,17.4258545 C5.25,17.3451273 4.91727273,17.4176727 4.55072727,17.6418545 L4.55072727,17.6418545 C4.24418182,17.8289455 4.04454545,18.0482182 3.95236364,18.3024 L3.95236364,18.3024 C3.86127273,18.5516727 3.86454545,18.7976727 3.96381818,19.0251273 L3.96381818,19.0251273 C4.03581818,19.1887636 4.16781818,19.2967636 4.35436364,19.3529455 L4.35436364,19.3529455 C4.54581818,19.4096727 4.89763636,19.3529455 5.42127273,19.1844 L5.42127273,19.1844 C6.06218182,18.9787636 6.62018182,18.8287636 7.09254545,18.7338545 L7.09254545,18.7338545 C7.56709091,18.6384 7.962,18.5985818 8.27890909,18.6051273 L8.27890909,18.6051273 C10.2147273,18.6465818 12.1183636,20.7394909 12.4090909,22.5520364 L12.4090909,22.5520364 C12.5470909,23.4154909 12.234,24.2964 11.7441818,25.0616727 L11.7441818,25.0616727 C12.9785455,26.3369455 13.8076364,26.8229455 13.8076364,26.8229455 L13.8076364,26.8229455 L14.742,25.7778545 C14.742,25.7778545 15.2361818,27.0973091 16.2261818,28.4718545 L16.2261818,28.4718545 C17.2161818,29.8458545 18.1505455,31.0545818 18.1505455,31.0545818 L18.1505455,31.0545818 C18.1505455,31.0545818 16.5561818,31.1107636 14.1927273,31.0545818 L14.1927273,31.0545818 C11.8287273,31.0000364 10.5649091,30.6160364 10.5649091,30.6160364 L10.5649091,30.6160364 L11.4441818,29.3511273 C11.4441818,29.3511273 10.4345455,28.7505818 9.03763636,27.4851273 L9.03763636,27.4851273 C8.75781818,27.6296727 8.48563636,27.7431273 8.22054545,27.8227636 L8.22054545,27.8227636 C7.61509091,28.0022182 7.04181818,27.9989455 6.49909091,27.8145818 L6.49909091,27.8145818 C5.42072727,27.4491273 4.434,26.6969455 3.57654545,25.5629455 L3.57654545,25.5629455 C4.36636364,24.8865818 5.16436364,24.2238545 5.96890909,23.5693091 L5.96890909,23.5693091 C6.35236364,24.0733091 6.72327273,24.4114909 7.07127273,24.5811273 L7.07127273,24.5811273 C7.638,24.8565818 8.17363636,24.8118545 8.66945455,24.4654909 L8.66945455,24.4654909 C9.03818182,24.2085818 9.25036364,23.8971273 9.3,23.5256727 L9.3,23.5256727 C9.34854545,23.1624 9.27709091,22.8280364 9.08836364,22.5285818 L9.08836364,22.5285818 C8.90836364,22.2433091 8.65636364,22.0496727 8.32854545,21.9509455 L8.32854545,21.9509455 C8.004,21.8533091 7.43454545,21.9378545 6.61254545,22.1985818 L6.61254545,22.1985818 C5.93181818,22.4156727 5.31545455,22.5514909 4.76945455,22.6060364 L4.76945455,22.6060364 C4.22181818,22.6600364 3.74618182,22.6305818 3.34309091,22.5209455 L3.34309091,22.5209455 C2.53636364,22.2984 1.92327273,21.7665818 1.55181818,20.9096727 L1.55181818,20.9096727 C1.31345455,20.3587636 1.25072727,19.7484 1.33963636,19.1064 L1.33963636,19.1064 C1.428,18.4704 1.70072727,17.8611273 2.136,17.2769455 L2.136,17.2769455 C2.18672727,17.2087636 2.24127273,17.1405818 2.29909091,17.0724 L2.29909091,17.0724 C1.43945455,14.1727636 1.59818182,11.9964 1.61727273,10.6605818 L1.61727273,10.6605818 C0.589636364,12.9645818 0.00872727273,15.4829455 0,18.0160364 L0,18.0160364 L0,18.1333091 C0.00545454545,19.7216727 0.236727273,21.3154909 0.723818182,22.8634909 L0.723818182,22.8634909 C3.80236364,32.6473091 12.4876364,34.5727636 14.2467273,34.9016727 L14.2467273,34.9016727 C16.0058182,35.2311273 18.5345455,35.5065818 21.228,33.1425818 L21.228,33.1425818 C23.9209091,30.7791273 23.8663636,26.8213091 23.8663636,26.8213091 L23.8663636,26.8213091 C23.8663636,26.8213091 22.5469091,26.9304 18.8089091,24.5124 L18.8089091,24.5124 C15.0709091,22.0944 9.354,15.4971273 9.24381818,8.51585455 L9.24381818,8.51585455 C9.13418182,1.53458182 15.6758182,0.545127273 15.6758182,0.545127273 L15.6758182,0.545127273 Z" id="Fill-24" fill="#1790BC"></path>
                    <path d="M12.8001818,3.02967273 C10.1072727,5.39312727 10.1623636,9.35094545 10.1623636,9.35094545 L10.1623636,9.35094545 C10.1623636,9.35094545 11.4812727,9.24076364 15.2192727,11.6598545 L15.2192727,11.6598545 C18.9572727,14.0784 24.6730909,20.6751273 24.7838182,27.6564 L24.7838182,27.6564 C24.894,34.6376727 18.3523636,35.6271273 18.3523636,35.6271273 L18.3523636,35.6271273 C28.0009091,35.6271273 31.1023636,26.6489455 27.258,18.5854909 L27.258,18.5854909 C23.8707273,11.4836727 20.2210909,9.3504 20.2210909,9.3504 L20.2210909,9.3504 L19.2867273,10.3949455 C19.2867273,10.3949455 18.7925455,9.07603636 17.8030909,7.70149091 L17.8030909,7.70149091 C16.8136364,6.32694545 15.8787273,5.11821818 15.8787273,5.11821818 L15.8787273,5.11821818 C15.8787273,5.11821818 17.4725455,5.06312727 19.8365455,5.11821818 L19.8365455,5.11821818 C22.2010909,5.17330909 23.4649091,5.55785455 23.4649091,5.55785455 L23.4649091,5.55785455 L22.5850909,6.82221818 C22.5850909,6.82221818 26.5794545,9.19767273 29.676,14.4624 L29.676,14.4624 C32.7741818,19.7287636 32.4409091,23.5382182 32.4114545,25.5122182 L32.4114545,25.5122182 C34.1001818,21.7273091 34.5812727,17.3636727 33.3049091,13.3093091 L33.3049091,13.3093091 C30.2258182,3.5244 21.5410909,1.60003636 19.7814545,1.27058182 L19.7814545,1.27058182 C19.1896364,1.15930909 18.5105455,1.05458182 17.7670909,1.05458182 L17.7670909,1.05458182 C16.302,1.05512727 14.5876364,1.46149091 12.8001818,3.02967273" id="Fill-27" fill="#4B4B4D"></path>
                </g>
            </g>
        </g>
    </g>
</svg>
