<svg width="37px" height="36px" viewBox="0 0 37 36" version="1.1" xmlns="http://www.w3.org/2000/svg" xmlns:xlink="http://www.w3.org/1999/xlink">
    <g id="Integrations-Page" stroke="none" stroke-width="1" fill="none" fill-rule="evenodd">
        <g id="Desktop-01-a-rest" transform="translate(-994.000000, -1267.000000)" fill="#FF4A00">
            <g id="Group-14" transform="translate(970.000000, 1243.000000)">
                <g id="zapier-logo" transform="translate(24.000000, 24.000000)">
                    <path d="M23.2850246,18.007968 C23.284459,19.34503 23.0395572,20.6255328 22.5938699,21.8076223 C21.4123459,22.2538753 20.130712,22.4987771 18.7930843,22.4999083 L18.7772477,22.4999083 C17.4401857,22.4987771 16.1591173,22.2544409 14.9775934,21.8087535 C14.5313404,20.626664 14.285873,19.3455956 14.2853074,18.007968 L14.2853074,17.9921314 C14.285873,16.6545037 14.5307748,15.374001 14.9764622,14.1919114 C16.1579861,13.7456585 17.4396201,13.5007567 18.7772477,13.4996255 L18.7930843,13.4996255 C20.130712,13.5007567 21.4123459,13.7456585 22.5938699,14.1919114 C23.0395572,15.374001 23.284459,16.6545037 23.2850246,17.9921314 L23.2850246,18.007968 Z M36.5351739,15.000144 L26.0287167,15.000144 L33.4572163,7.57051316 C32.8735242,6.75040318 32.2225266,5.98119658 31.5127073,5.27081166 L31.5127073,5.27081166 C30.802888,4.56155793 30.0342469,3.91112588 29.214137,3.32743382 L21.7850718,10.7570646 L21.7850718,0.250607422 C20.8122517,0.08715102 19.8134143,0.000615277706 18.7947811,4.96846187e-05 L18.775551,4.96846187e-05 C17.7569178,0.000615277706 16.7580804,0.08715102 15.7852603,0.250607422 L15.7852603,10.7570646 L8.35562951,3.32743382 C7.53551953,3.91169148 6.76687853,4.56212353 6.05819039,5.27194285 L6.05423124,5.27420522 C5.3455431,5.98289336 4.69624223,6.75096877 4.11311576,7.57051316 L11.5427466,15.000144 L1.03572377,15.000144 C1.03572377,15.000144 0.785166036,16.9729326 0.785166036,17.9932626 L0.785166036,18.0062712 C0.785166036,19.0260355 0.871701778,20.0260041 1.03572377,20.9999554 L11.5427466,20.9999554 L4.11311576,28.4295862 C5.28106549,30.068675 6.71597515,31.5041502 8.35562951,32.6721 L15.7852603,25.2424692 L15.7852603,35.7494919 C16.7575148,35.9129483 17.7546554,35.9989185 18.7721574,36.0000497 L18.7976091,36.0000497 C19.8156766,35.9989185 20.8139484,35.9129483 21.7850718,35.7494919 L21.7850718,25.2424692 L29.2147026,32.6721 C30.0348125,32.0889735 30.802888,31.4379758 31.5127073,30.7287221 L31.5144041,30.7270253 C32.2230922,30.017206 32.8740898,29.248565 33.4572163,28.4295862 L26.0275855,20.9999554 L36.5351739,20.9999554 C36.6986303,20.0282665 36.7840348,19.0305603 36.785166,18.0130583 L36.785166,17.987041 C36.7840348,16.9689735 36.6986303,15.9718329 36.5351739,15.000144 L36.5351739,15.000144 Z" id="Fill-14"></path>
                </g>
            </g>
        </g>
    </g>
</svg>
