<svg width="109px" height="36px" viewBox="0 0 109 36" version="1.1" xmlns="http://www.w3.org/2000/svg" xmlns:xlink="http://www.w3.org/1999/xlink">
    <g id="Integrations-Page" stroke="none" stroke-width="1" fill="none" fill-rule="evenodd">
        <g id="Desktop-01-a-rest" transform="translate(-994.000000, -1467.000000)" fill="#737C93">
            <g id="Group-20" transform="translate(970.000000, 1447.000000)">
                <g id="mixpanel-logo" transform="translate(24.000000, 20.000000)">
                    <path d="M4.97568293,26.3467317 C7.58217073,26.3467317 9.69519512,28.4597561 9.69519512,31.0662439 C9.69519512,33.6727317 7.58217073,35.7857561 4.97568293,35.7857561 C2.36919512,35.7857561 0.256170732,33.6727317 0.256170732,31.0662439 C0.256170732,28.4597561 2.36919512,26.3467317 4.97568293,26.3467317" id="Fill-1"></path>
                    <path d="M22.0120024,27.7795537 C23.8556854,27.7795537 25.3501244,29.2742122 25.3501244,31.1176756 C25.3501244,32.961139 23.8556854,34.4557976 22.0120024,34.4557976 C20.168539,34.4557976 18.6738805,32.961139 18.6738805,31.1176756 C18.6738805,29.2742122 20.168539,27.7795537 22.0120024,27.7795537" id="Fill-3"></path>
                    <path d="M36.0553171,29.6021195 C36.8923171,29.6021195 37.5708293,30.2806317 37.5708293,31.1176317 C37.5708293,31.9546317 36.8923171,32.6333634 36.0553171,32.6333634 C35.2183171,32.6333634 34.5398049,31.9546317 34.5398049,31.1176317 C34.5398049,30.2806317 35.2183171,29.6021195 36.0553171,29.6021195" id="Fill-5"></path>
                    <path d="M21.1127268,21.1781195 C20.2829707,21.1781195 19.6683366,20.5329732 19.6683366,19.7337293 L19.6683366,13.5873878 C19.6683366,11.4669 18.6541902,9.83811951 16.3800439,9.83811951 C14.1058976,9.83811951 12.7229707,11.5898268 12.7229707,13.618339 L12.7229707,19.7337293 C12.7229707,20.5329732 12.1698,21.1781195 11.2785805,21.1781195 C10.4180927,21.1781195 9.83419024,20.5329732 9.83419024,19.7337293 L9.83419024,13.5873878 C9.83419024,11.4669 8.72784878,9.83811951 6.45370244,9.83811951 C4.11809268,9.83811951 2.88882439,11.5898268 2.88882439,13.618339 L2.88882439,19.7337293 C2.88882439,20.5329732 2.30492195,21.1781195 1.44443415,21.1781195 C0.614678049,21.1781195 4.39024392e-05,20.5329732 4.39024392e-05,19.7337293 L4.39024392e-05,8.82397317 C4.39024392e-05,7.96348537 0.553214634,7.34885122 1.44443415,7.34885122 C2.42784878,7.34885122 2.88882439,8.02494878 2.88882439,8.82397317 L2.88882439,9.8073878 C3.71858049,8.17860732 5.40882439,7.22592439 7.22199512,7.22592439 C9.43467805,7.22592439 11.0941902,8.33226585 11.9239463,9.96104634 C13.1224829,8.1171439 14.8741902,7.22592439 17.0561415,7.22592439 C20.774678,7.22592439 22.5571171,9.77687561 22.5571171,13.3722659 L22.5571171,19.7335098 C22.5568976,20.5329732 21.9732146,21.1781195 21.1127268,21.1781195" id="Fill-7"></path>
                    <path d="M26.6137244,21.1781195 C25.7530171,21.1781195 25.1693341,20.5329732 25.1693341,19.7337293 L25.1693341,8.79324146 C25.1693341,7.99421707 25.7839683,7.34885122 26.6137244,7.34885122 C27.4434805,7.34885122 28.0578951,7.99421707 28.0578951,8.79324146 L28.0578951,19.7337293 C28.0578951,20.5329732 27.4742122,21.1781195 26.6137244,21.1781195 M26.6137244,1.87860732 C27.5356756,1.87860732 28.3039683,2.6469 28.3039683,3.56885122 C28.3039683,4.49080244 27.5356756,5.25909512 26.6137244,5.25909512 C25.6917732,5.25909512 24.9234805,4.49080244 24.9234805,3.56885122 C24.9234805,2.6469 25.6917732,1.87860732 26.6137244,1.87860732" id="Fill-9"></path>
                    <path d="M36.2015122,12.327322 L39.8585854,7.77902927 C40.104439,7.5024439 40.4117561,7.34878537 40.8112683,7.34878537 C41.6102927,7.34878537 42.1327317,7.87122439 42.1327317,8.60878537 C42.1327317,8.88537073 42.0405366,9.1619561 41.7946829,9.43876098 L37.7688293,14.2329073 L41.8561463,19.0573463 C42.0712683,19.3032 42.1941951,19.5490537 42.1941951,19.9178341 C42.1941951,20.6251024 41.579561,21.1778341 40.9034634,21.1778341 C40.4732195,21.1778341 40.1351707,21.0241756 39.8893171,20.716639 L36.2015122,16.1378341 L32.5137073,20.716639 C32.2678537,21.0237366 31.9298049,21.1778341 31.499561,21.1778341 C30.8234634,21.1778341 30.2088293,20.6246634 30.2088293,19.9178341 C30.2088293,19.5490537 30.3317561,19.3032 30.546878,19.0573463 L34.6341951,14.2329073 L30.6083415,9.43876098 C30.3624878,9.16173659 30.2702927,8.88515122 30.2702927,8.60878537 C30.2702927,7.87122439 30.7927317,7.34878537 31.5917561,7.34878537 C31.9912683,7.34878537 32.2985854,7.5024439 32.544439,7.77902927 L36.2015122,12.327322 Z" id="Fill-11"></path>
                    <path d="M51.3829976,9.62306341 C48.8937293,9.62306341 47.2342171,11.8045756 47.2342171,14.2635512 C47.2342171,16.7223073 48.8937293,18.9038195 51.3829976,18.9038195 C53.8722659,18.9038195 55.5008268,17.0294049 55.5008268,14.2635512 C55.5008268,11.4976976 53.8722659,9.62306341 51.3829976,9.62306341 M51.9669,21.3011122 C49.9078756,21.3011122 48.2176317,20.2259415 47.2342171,18.6584049 L47.2342171,25.4808439 C47.2342171,26.2800878 46.6503146,26.9247951 45.7898268,26.9247951 C44.929339,26.9247951 44.3454366,26.2800878 44.3454366,25.4808439 L44.3454366,8.79330732 C44.3454366,7.99428293 44.8371439,7.34891707 45.7283634,7.34891707 C46.6195829,7.34891707 47.142022,8.02501463 47.142022,8.82381951 L47.142022,9.86913659 C48.0639732,8.2710878 49.9078756,7.22620976 51.9669,7.22620976 C55.5008268,7.22620976 58.3896073,10.1762341 58.3896073,14.2637707 C58.3896073,18.5043073 55.5008268,21.3011122 51.9669,21.3011122" id="Fill-13"></path>
                    <path d="M66.5643951,9.68437317 C64.105639,9.68437317 62.3846634,11.7438366 62.3846634,14.2633976 C62.3846634,16.9063244 63.8290537,18.8426415 66.5643951,18.8426415 C69.1149073,18.8426415 70.7436878,16.6604707 70.7436878,14.2633976 C70.7436878,11.4360805 69.0227122,9.68437317 66.5643951,9.68437317 L66.5643951,9.68437317 Z M73.6324683,19.7336415 C73.6324683,20.5328854 73.0795171,21.1780317 72.188078,21.1780317 C71.3275902,21.1780317 70.775078,20.5328854 70.775078,19.7336415 L70.775078,19.0575439 C69.9145902,20.3482756 68.2858098,21.301178 66.2886878,21.301178 C61.9855902,21.301178 59.496761,18.1667634 59.496761,14.2633976 C59.496761,10.4219341 62.2628341,7.2260561 66.5957854,7.2260561 C71.0211512,7.2260561 73.6333463,10.1148366 73.6333463,14.2633976 L73.6333463,19.7336415 L73.6324683,19.7336415 Z" id="Fill-15"></path>
                    <path d="M82.3298268,7.22623171 C86.0481439,7.22623171 88.7830463,10.0535488 88.7830463,13.6491585 L88.7830463,19.7338171 C88.7830463,20.5332805 88.1379,21.1784268 87.3386561,21.1784268 C86.5400707,21.1784268 85.8942659,20.5332805 85.8942659,19.7338171 L85.8942659,13.3111098 C85.8942659,11.3747927 84.3576805,9.86915854 82.3298268,9.86915854 C80.3015341,9.86915854 78.7952415,11.3745732 78.7952415,13.3111098 L78.7952415,19.7338171 C78.7952415,20.5332805 78.1500951,21.1784268 77.3508512,21.1784268 C76.5522659,21.1784268 75.906461,20.5332805 75.906461,19.7338171 L75.906461,13.6491585 C75.906461,10.0533293 78.6110707,7.22623171 82.3298268,7.22623171" id="Fill-17"></path>
                    <path d="M97.418722,9.53110976 C95.2982341,9.53110976 93.8538439,11.0365244 93.5772585,12.9423293 L101.137259,12.9423293 C100.891405,11.0982073 99.508478,9.53110976 97.418722,9.53110976 M103.810698,14.2940854 C103.810698,14.7857927 103.534112,15.2777195 102.704576,15.2777195 L93.5160146,15.2777195 C93.6694537,17.3982073 95.1138439,18.9960366 97.6643561,18.9960366 C99.2626244,18.9960366 100.215307,18.4426463 101.229234,17.4901829 C101.475307,17.2443293 101.813356,17.0287683 102.181917,17.0287683 C102.827283,17.0287683 103.380673,17.4901829 103.380673,18.2275244 C103.380673,18.534622 103.226795,18.8109878 103.011893,19.0568415 C101.844088,20.4092561 99.7541122,21.3006951 97.5418683,21.3006951 C92.9624049,21.3006951 90.5346,18.104378 90.5346,14.2629146 C90.5346,10.237061 93.4543317,7.22535366 97.4182829,7.22535366 C101.291137,7.22623171 103.810698,10.3604268 103.810698,14.2940854" id="Fill-19"></path>
                    <path d="M107.191295,21.1781195 C106.330368,21.1781195 105.746905,20.5329732 105.746905,19.7337293 L105.746905,1.66392439 C105.746905,0.864460976 106.330807,0.219314634 107.191295,0.219314634 C108.051783,0.219314634 108.635246,0.864460976 108.635246,1.66392439 L108.635246,19.7337293 C108.635685,20.5329732 108.051783,21.1781195 107.191295,21.1781195" id="Fill-21"></path>
                </g>
            </g>
        </g>
    </g>
</svg>
