<svg width="130px" height="110px" xmlns="http://www.w3.org/2000/svg" viewBox="0 0 130.8 110">
<path fill="#5BB7E7" d="M75.4 1.8l-7.2 5c-1.7 1.2-4.2 1.3-6 0l-8-5.3c-1.6-1-3.4-1.6-5.3-1.6L5.4.1C2.4.1 0 2.6 0 5.6v86.6c0 3 2.4 5.4 5.4 5.4h39.4c1.2 0 2.3.4 3.2 1.1L62 109c2 1.4 4.6 1.4 6.5-.1l13.2-10.1c1-.7 2.1-1.1 3.3-1.1h40.3c3 0 5.4-2.4 5.4-5.4V5.6c0-3-2.4-5.5-5.5-5.4H80.3c-1.8 0-3.4.6-4.9 1.6zM54.3 82.7l-.9-.7c-.9-.7-2.1-1.1-3.2-1.1H22c-3 0-5.4-2.4-5.4-5.4V22.1c0-3 2.4-5.4 5.4-5.4l23.2-.1c1.1 0 2.1.3 3 .9l14.3 9.4c1.9 1.2 4.3 1.2 6.1-.1l12.9-9c.9-.6 2-1 3.1-1l24.2-.1c3 0 5.5 2.4 5.5 5.4v53.4c0 3-2.4 5.4-5.4 5.4H79.5c-1.2 0-2.4.4-3.3 1.1l-7.7 5.9c-1.9 1.5-4.6 1.5-6.5.1l-7.7-5.3z"/></svg>
