<svg width="36px" height="34px" viewBox="0 0 36 34" version="1.1" xmlns="http://www.w3.org/2000/svg" xmlns:xlink="http://www.w3.org/1999/xlink">
    <defs>
        <polygon id="path-1" points="33.7724736 14.1171429 0 14.1171429 0 7.16474054 0 0.212338232 33.7724736 0.212338232 33.7724736 14.1171429"></polygon>
    </defs>
    <g id="Final" stroke="none" stroke-width="1" fill="none" fill-rule="evenodd">
        <g id="Desktop-01-a-rest" transform="translate(-305.000000, -1268.000000)">
            <g id="Group-16" transform="translate(280.000000, 1243.000000)">
                <g id="Segment_icon_2C_RGB_rgb" transform="translate(25.000000, 25.000000)">
                    <g id="Group-4" transform="translate(0.000000, 19.285714)">
                        <mask id="mask-2" fill="white">
                            <use xlink:href="#path-1"></use>
                        </mask>
                        <g id="Clip-2"></g>
                        <path d="M22.254,3.64157143 L1.71428571,3.64157143 C0.767571429,3.64157143 0,2.874 0,1.92728571 C0,0.980571429 0.767571429,0.213 1.71428571,0.213 L22.254,0.213 C23.2007143,0.213 23.9682857,0.980571429 23.9682857,1.92728571 C23.9682857,2.874 23.2007143,3.64157143 22.254,3.64157143" id="Fill-1" fill="#93C8A2" mask="url(#mask-2)"></path>
                        <path d="M17.85,14.1428571 C16.1768571,14.1428571 14.5242857,13.8938571 12.9385714,13.4027143 C12.0342857,13.1224286 11.5281429,12.1624286 11.8084286,11.2581429 C12.0887143,10.3534286 13.0508571,9.84771429 13.9534286,10.1275714 C15.21,10.5167143 16.521,10.7142857 17.85,10.7142857 C23.667,10.7142857 28.7177143,6.98142857 30.4187143,1.42585714 C30.6955714,0.520285714 31.653,0.00985714286 32.5594286,0.288428571 C33.465,0.565714286 33.9741429,1.52442857 33.6968571,2.42957143 C31.5522857,9.43585714 25.1837143,14.1428571 17.85,14.1428571" id="Fill-3" fill="#43AF7A" mask="url(#mask-2)"></path>
                    </g>
                    <path d="M33.9861429,14.2178571 L13.4464286,14.2178571 C12.4997143,14.2178571 11.7321429,13.4502857 11.7321429,12.5035714 C11.7321429,11.5568571 12.4997143,10.7892857 13.4464286,10.7892857 L33.9861429,10.7892857 C34.9328571,10.7892857 35.7004286,11.5568571 35.7004286,12.5035714 C35.7004286,13.4502857 34.9328571,14.2178571 33.9861429,14.2178571" id="Fill-5" fill="#93C8A2"></path>
                    <path d="M3.64328571,14.2182857 C3.477,14.2182857 3.30814286,14.1938571 3.141,14.1428571 C2.23542857,13.8651429 1.72628571,12.9068571 2.00357143,12.0017143 C4.14857143,4.995 10.5167143,0.288 17.85,0.288 C19.5244286,0.288 21.177,0.537 22.7618571,1.02857143 C23.6665714,1.30928571 24.1718571,2.26928571 23.8915714,3.17357143 C23.6112857,4.07828571 22.6504286,4.58657143 21.7465714,4.30328571 C20.4908571,3.91414286 19.1798571,3.71657143 17.85,3.71657143 C12.0338571,3.71657143 6.98271429,7.44942857 5.28171429,13.0054286 C5.05585714,13.743 4.377,14.2182857 3.64328571,14.2182857" id="Fill-6" fill="#43AF7A"></path>
                    <path d="M29.7394286,5.97085714 C29.7394286,6.91757143 28.9722857,7.68514286 28.0255714,7.68514286 C27.0788571,7.68514286 26.3112857,6.91757143 26.3112857,5.97085714 C26.3112857,5.02414286 27.0788571,4.257 28.0255714,4.257 C28.9722857,4.257 29.7394286,5.02414286 29.7394286,5.97085714" id="Fill-7" fill="#93C8A2"></path>
                    <path d="M9.38871429,27.7482857 C9.38871429,28.695 8.62114286,29.4621429 7.67442857,29.4621429 C6.72814286,29.4621429 5.96057143,28.695 5.96057143,27.7482857 C5.96057143,26.8015714 6.72814286,26.034 7.67442857,26.034 C8.62114286,26.034 9.38871429,26.8015714 9.38871429,27.7482857" id="Fill-8" fill="#93C8A2"></path>
                </g>
            </g>
        </g>
    </g>
</svg>
