<svg width="40px" height="40px" viewBox="0 0 600 600" version="1.1" xmlns="http://www.w3.org/2000/svg" xmlns:xlink="http://www.w3.org/1999/xlink">
    <g id="Page-1" stroke="none" stroke-width="1" fill="none" fill-rule="evenodd">
        <g id="icon-600">
            <path d="M584.944151,156.850943 C584.572075,149.595472 583.816981,144.069057 583.335472,140.304528 C582.821132,136.518113 582.547547,134.515472 582.547547,134.515472 C582.547547,134.515472 582.208302,136.518113 581.540755,140.249811 C581.256226,142.121132 580.862264,144.430189 580.413585,147.144151 C579.866415,149.81434 579.286415,152.867547 578.717358,156.26 C577.436981,163.044906 575.554717,171.186792 573.136226,180.204151 C570.673962,189.188679 567.434717,198.993962 563.123019,208.810189 C558.778491,218.615472 553.339623,228.442642 546.445283,237.219245 C539.561887,246.039623 531.376226,253.864151 521.866415,260.408302 C512.422264,266.985283 501.796226,272.281887 490.458868,276.713962 C479.132453,281.113208 467.083774,284.713585 454.750566,287.788679 C442.461132,291.082642 429.832453,293.730943 417.280377,296.806038 C404.673585,299.749811 392.121509,303.06566 379.941509,307.09283 C367.717736,311.130943 355.833208,316.033585 344.867925,322.490189 C333.946415,328.924906 323.922264,337.088679 316.185283,346.883019 C308.360755,356.524151 303.293962,367.806792 300.393962,377.896604 C299.409057,381.354717 298.763396,384.637736 298.216226,387.855094 C297.68,384.637736 297.001509,381.354717 296.027547,377.918491 C293.127547,367.839623 288.082642,356.556981 280.236226,346.915849 C272.532075,337.132453 262.507925,328.990566 251.586415,322.533962 C240.610189,316.077358 228.736604,311.196604 216.534717,307.136604 C204.321887,303.087547 191.769811,299.815472 179.184906,296.849811 C166.621887,293.763774 154.004151,291.082642 141.69283,287.788679 C129.370566,284.724528 117.343774,281.113208 106.006415,276.681132 C94.6690566,272.216226 84.0539623,266.941509 74.6098113,260.364528 C65.1328302,253.820377 56.925283,245.973962 50.0418868,237.175472 C43.1366038,228.409811 37.7196226,218.582642 33.3860377,208.788302 C29.0524528,198.972075 25.8132075,189.166792 23.3728302,180.204151 C20.9543396,171.197736 19.0720755,163.066792 17.7698113,156.26 C17.1679245,152.84566 16.5988679,149.770566 16.0516981,147.111321 C15.6249057,144.419245 15.22,142.132075 14.9245283,140.260755 C14.2679245,136.518113 13.9286792,134.526415 13.9286792,134.526415 C13.9286792,134.526415 13.6332075,136.54 13.1079245,140.315472 C12.6154717,144.101887 11.8713208,149.683019 11.5101887,156.883774 C11.105283,164.073585 10.8098113,172.904906 11.3788679,183.104151 C11.9369811,193.325283 13.4033962,204.925283 16.4566038,217.411698 C19.5426415,229.832453 24.3358491,243.172453 31.6022642,255.757358 C38.8686792,268.320377 48.4113208,280.106415 59.5845283,289.59434 C65.1218868,294.398491 71.0422642,298.721132 77.1815094,302.463774 C83.2769811,306.315849 89.6132075,309.664528 96.0479245,312.509811 C108.895472,318.463019 122.169811,322.512075 135.258113,325.992075 C148.390189,329.264151 161.401887,331.912453 174.052453,334.133962 C180.323019,335.250189 186.560755,336.344528 192.689057,337.427925 C198.729811,338.576981 204.683019,339.736981 210.537736,340.842264 C222.104906,343.304528 233.037358,346.007547 242.831698,349.750189 C252.647925,353.470943 261.347925,358.13283 268.406415,364.075094 C282.807925,375.664151 290.10717,393.020377 293.65283,405.933585 C294.539245,409.194717 295.283396,412.138491 295.819623,414.743019 C296.443396,417.314717 296.913962,419.61283 297.198491,421.506038 C297.866038,425.248679 298.22717,427.240377 298.22717,427.240377 C298.22717,427.240377 298.588302,425.237736 299.277736,421.527925 C299.540377,419.64566 300.021887,417.402264 300.634717,414.775849 C301.19283,412.149434 301.947925,409.194717 302.83434,405.944528 C304.650943,399.487925 307.321132,391.936981 311.381132,384.506415 C315.495849,377.130566 320.869057,369.875094 328.058868,364.118868 C335.128302,358.176604 343.850189,353.503774 353.622642,349.793962 C363.449811,346.051321 374.360377,343.337358 385.916604,340.907925 C391.793208,339.780755 397.735472,338.620755 403.765283,337.471698 C409.915472,336.377358 416.142264,335.272075 422.401887,334.155849 C435.052453,331.93434 448.064151,329.286038 461.17434,325.992075 C474.295472,322.512075 487.569811,318.430189 500.395472,312.476981 C506.830189,309.642642 513.155472,306.250189 519.283774,302.42 C525.412075,298.677358 531.332453,294.36566 536.836981,289.550566 C548.010189,280.062642 557.574717,268.276604 564.808302,255.713585 C572.107547,243.139623 576.878868,229.788679 579.964906,217.389811 C583.00717,204.925283 584.473585,193.31434 585.053585,183.104151 C585.622642,172.883019 585.338113,164.073585 584.944151,156.850943" id="Shape" fill="#242A33"></path>
            <path d="M298.22717,344.355094 C298.22717,344.355094 297.997358,343.041887 297.537736,340.590566 C297.373585,339.364906 297.06717,337.86566 296.662264,336.180377 C296.312075,334.473208 295.830566,332.54717 295.250566,330.413208 C292.941509,321.953962 288.192075,310.594717 278.846415,302.989057 C274.250189,299.104151 268.581509,296.04 262.212453,293.621509 C255.832453,291.170189 248.730189,289.397358 241.212075,287.799623 C237.381887,287.077358 233.529811,286.322264 229.601132,285.56717 C225.606792,284.866792 221.557736,284.122642 217.475849,283.400377 C209.257358,281.944906 200.798113,280.237736 192.251321,278.081887 C183.737358,275.794717 175.113962,273.146415 166.742264,269.239623 C162.57283,267.390189 158.458113,265.190566 154.474717,262.651698 C150.502264,260.200377 146.639245,257.387925 143.049811,254.225283 C135.772453,248.020377 129.567547,240.305283 124.850943,232.075849 C120.112453,223.824528 117.004528,215.102642 115.001887,206.982642 C113.010189,198.807925 112.058113,191.213208 111.696981,184.515849 C111.324906,177.829434 111.510943,172.051321 111.773585,167.334717 C112.003396,162.629057 112.495849,158.973962 112.824151,156.500755 C113.17434,154.016604 113.338491,152.703396 113.338491,152.703396 C113.338491,152.703396 113.579245,154.016604 114.006038,156.478868 C114.203019,157.671698 114.443774,159.19283 114.728302,160.954717 C115.100377,162.70566 115.472453,164.708302 115.855472,166.940755 C116.698113,171.394717 117.923774,176.724151 119.488679,182.622642 C121.075472,188.499245 123.198491,194.912075 126,201.346792 C128.823396,207.759623 132.358113,214.19434 136.833962,219.917736 C141.298868,225.684906 146.650189,230.817358 152.822264,235.10717 C158.939623,239.440755 165.866792,242.876981 173.231698,245.809811 C180.607547,248.676981 188.421132,251.051698 196.431698,253.076226 C204.442264,255.243019 212.649811,256.983019 220.824528,258.996604 C228.999245,260.944528 237.163019,263.100377 245.107925,265.737736 C253.041887,268.375094 260.756981,271.603396 267.903019,275.838491 C275.005283,280.051698 281.516604,285.370189 286.528679,291.793962 C291.628302,298.108302 294.911321,305.484151 296.793585,312.083019 C297.439245,314.326415 297.876981,316.482264 298.216226,318.561509 C298.566415,316.482264 298.993208,314.326415 299.638868,312.061132 C301.510189,305.451321 304.804151,298.086415 309.903774,291.761132 C314.915849,285.348302 321.449057,280.029811 328.562264,275.794717 C335.675472,271.570566 343.401509,268.342264 351.368302,265.715849 C359.291321,263.078491 367.455094,260.900755 375.640755,258.98566 C383.793585,256.961132 392.023019,255.243019 400.022642,253.076226 C408.044151,251.051698 415.857736,248.709811 423.233585,245.820755 C430.609434,242.931698 437.536604,239.440755 443.653962,235.14 C449.815094,230.850189 455.177358,225.739623 459.642264,219.961509 C464.14,214.216226 467.641887,207.781509 470.465283,201.357736 C473.288679,194.923019 475.400755,188.521132 476.987547,182.622642 C478.57434,176.735094 479.778113,171.40566 480.620755,166.951698 C481.003774,164.730189 481.364906,162.727547 481.736981,160.987547 C482.010566,159.214717 482.273208,157.693585 482.459245,156.478868 C482.896981,154.016604 483.126792,152.703396 483.126792,152.703396 C483.126792,152.703396 483.290943,154.016604 483.641132,156.500755 C483.980377,158.963019 484.450943,162.585283 484.691698,167.334717 C484.943396,172.062264 485.118491,177.829434 484.746415,184.515849 C484.385283,191.202264 483.433208,198.796981 481.452453,206.960755 C479.427925,215.091698 476.330943,223.813585 471.603396,232.053962 C466.886792,240.283396 460.670943,247.998491 453.426415,254.192453 C449.836981,257.355094 445.973962,260.178491 441.990566,262.618868 C438.018113,265.135849 433.91434,267.368302 429.723019,269.228679 C421.373208,273.113585 412.749811,275.794717 404.246792,278.081887 C395.678113,280.237736 387.218868,281.966792 379.011321,283.422264 C374.929434,284.144528 370.880377,284.888679 366.886038,285.6 C362.957358,286.355094 359.105283,287.099245 355.275094,287.832453 C347.746038,289.430189 340.654717,291.203019 334.28566,293.65434 C327.916604,296.083774 322.226038,299.136981 317.651698,303.021887 C312.967925,306.797358 309.444151,311.557736 306.773962,316.37283 C304.136604,321.242642 302.407547,326.189057 301.214717,330.413208 C300.64566,332.536226 300.164151,334.473208 299.813962,336.202264 C299.38717,337.909434 299.102642,339.386792 298.927547,340.601509 C298.467925,343.041887 298.22717,344.355094 298.22717,344.355094" id="Shape" fill="#77767D"></path>
        </g>
    </g>
</svg>
