<svg width="53px" height="40px" viewBox="0 0 358 293" version="1.1" xmlns="http://www.w3.org/2000/svg" xmlns:xlink="http://www.w3.org/1999/xlink" xmlns:sketch="http://www.bohemiancoding.com/sketch/ns">
    <defs>
        <path id="cloudapp__path-1" d="M252.7203,119.9246 C252.7203,84.9621 224.6,56.5501 189.6862,55.9589 C185.732,24.4101 158.7443,0 126.0402,0 C93.3284,0 66.3358,24.4215 62.3914,55.9811 C27.90602,57.0519 0.27971,85.2706 0.27971,119.9246 C0.27971,155.25706 28.99829,183.89967 64.4244,183.89967 C66.6759,183.89967 65.8684,184.12541 68.06,183.89967 L71.0918,183.89967 L188.5756,183.89967 C224.0017,183.89967 252.7203,155.25706 252.7203,119.9246 L252.7203,119.9246 Z"></path>
    </defs>
    <g stroke="none" stroke-width="1" fill="none" fill-rule="evenodd" sketch:type="MSPage">
        <g sketch:type="MSArtboardGroup">
            <g sketch:type="MSLayerGroup" transform="translate(5.000000, 10.000000)">
                <g transform="translate(44.000000, 46.000000)">
                    <mask id="cloudapp__mask-2" sketch:name="Clip 2" fill="white">
                        <use xlink:href="#cloudapp__path-1"></use>
                    </mask>
                    <path d="M-4.72029,-5 L257.7203,-5 L257.7203,189 L-4.72029,189 L-4.72029,-5 Z" fill="#000000" sketch:type="MSShapeGroup" mask="url(#cloudapp__mask-2)"></path>
                </g>
                <path d="M318.143,166.7217 C318.143,129.1708 289.2261,89.20624 251.1504,82.93431 C242.0861,48.62195 207.8329,23.3867 170.5715,23.3867 C133.3451,23.3867 97.18226,48.67113 88.08472,82.93431 C49.71388,88.95639 22.8671531,130.811 23.0004945,166.7217 C23.1769243,214.2368 60.1047,248.5679 102.71743,250.5166 L236.2669,250.5166 C280.4844,250.3619 318.143,209.9471 318.143,166.7217 L318.143,166.7217 L318.143,166.7217 Z M236.2669,273.5166 L102.71743,273.5166 L101.666727,273.492588 C45.3665343,270.917954 0.217456921,225.195522 0.00065303819,166.807102 C-0.0845351078,143.864742 8.18344244,119.661662 22.5416856,100.038256 C38.1379745,78.7228135 54.4082043,71.6074184 72.7773449,63.7519534 C84.518655,32.2343753 122.829642,0.3867 170.5715,0.3867 C218.123875,0.3867 256.63672,34.2626956 266.16797,63.7519534 C300.547853,70.4833949 341.143,116.991943 341.143,166.7217 C341.143,223.084189 292.798967,273.318957 236.2669,273.5166 Z" fill="#000000" sketch:type="MSShapeGroup"></path>
            </g>
        </g>
    </g>
</svg>
