<svg width="35px" height="36px" viewBox="0 0 35 36" version="1.1" xmlns="http://www.w3.org/2000/svg" xmlns:xlink="http://www.w3.org/1999/xlink">
    <g id="Integrations-Page" stroke="none" stroke-width="1" fill="none" fill-rule="evenodd">
        <g id="Desktop-01-a-rest" transform="translate(-304.000000, -712.000000)">
            <g id="facebook-logo" transform="translate(304.000000, 712.000000)">
                <path d="M33.055088,35 C34.1213427,35 34.9859869,34.1353558 34.9859869,33.0691011 L34.9859869,1.94479401 C34.9859869,0.878146067 34.1213427,0.0137640449 33.055088,0.0137640449 L1.93091199,0.0137640449 C0.864264045,0.0137640449 1.31086143e-05,0.878146067 1.31086143e-05,1.94479401 L1.31086143e-05,33.0691011 C1.31086143e-05,34.1353558 0.864264045,35 1.93091199,35 L33.055088,35 Z" id="Fill-1" fill="#3B5998"></path>
                <path d="M24.1396966,35.1173221 L24.1396966,21.5689139 L28.6874682,21.5689139 L29.3683296,16.288764 L24.1396966,16.288764 L24.1396966,12.9176217 C24.1396966,11.3888951 24.5641536,10.3470225 26.7564382,10.3470225 L29.5525056,10.3458427 L29.5525056,5.62333333 C29.0687978,5.55910112 27.4091161,5.41529963 25.4782172,5.41529963 C21.4469251,5.41529963 18.6871685,7.8759176 18.6871685,12.3948502 L18.6871685,16.288764 L14.1278614,16.288764 L14.1278614,21.5689139 L18.6871685,21.5689139 L18.6871685,35.1173221 L24.1396966,35.1173221 Z" id="Fill-4" fill="#FFFFFF"></path>
            </g>
        </g>
    </g>
</svg>
