<svg width="44px" height="36px" viewBox="0 0 44 36" version="1.1" xmlns="http://www.w3.org/2000/svg" xmlns:xlink="http://www.w3.org/1999/xlink">
    <defs>
        <polygon id="path-1" points="0.000635294118 36 44.064 36 44.064 0.000423529412 0.000635294118 0.000423529412"></polygon>
    </defs>
    <g id="Integrations-Page" stroke="none" stroke-width="1" fill="none" fill-rule="evenodd">
        <g id="Desktop-01-a-rest" transform="translate(-304.000000, -1062.000000)">
            <g id="Group-7" transform="translate(280.000000, 1038.000000)">
                <g id="twitter-symbol" transform="translate(24.000000, 24.000000)">
                    <mask id="mask-2" fill="white">
                        <use xlink:href="#path-1"></use>
                    </mask>
                    <g id="Clip-2"></g>
                    <path d="M38.8721647,5.69265882 C40.7378118,4.56818824 42.1714588,2.78724706 42.8469882,0.665364706 C41.0999294,1.70724706 39.1665176,2.46324706 37.1060471,2.86983529 C35.4564,1.10371765 33.1079294,0.000423529412 30.5074588,0.000423529412 C25.5140471,0.000423529412 21.4672235,4.06842353 21.4672235,9.08724706 C21.4672235,9.80089412 21.5476941,10.4933647 21.7022824,11.1583059 C14.1888706,10.7792471 7.52675294,7.16230588 3.06698824,1.66277647 C2.28981176,3.00536471 1.84298824,4.56607059 1.84298824,6.23265882 C1.84298824,9.38583529 3.43969412,12.1663059 5.86651765,13.7968941 C4.38416471,13.7503059 2.98863529,13.3416 1.77098824,12.6597176 L1.77098824,12.7740706 C1.77098824,17.1787765 4.88604706,20.8507765 9.02181176,21.6872471 C8.26369412,21.8947765 7.46534118,22.0048941 6.63945882,22.0048941 C6.05710588,22.0048941 5.49169412,21.9477176 4.93898824,21.8418353 C6.08887059,25.4524235 9.4284,28.0804235 13.3841647,28.1545412 C10.2902824,30.5919529 6.39169412,32.0446588 2.1564,32.0446588 C1.42792941,32.0446588 0.707929412,32.0001882 0.000635294118,31.9176 C4.00087059,34.4947765 8.75287059,36.0004235 13.8585176,36.0004235 C30.4862824,36.0004235 39.5794588,22.1510118 39.5794588,10.1418353 C39.5794588,9.74795294 39.5709882,9.35618824 39.5540471,8.96654118 C41.3201647,7.68536471 42.8533412,6.08442353 44.0646353,4.26112941 C42.4425176,4.98536471 40.7018118,5.47242353 38.8721647,5.69265882" id="Fill-1" fill="#00AAED" mask="url(#mask-2)"></path>
                </g>
            </g>
        </g>
    </g>
</svg>
