<svg width="40px" height="40px" version="1.1" xmlns="http://www.w3.org/2000/svg" xmlns:xlink="http://www.w3.org/1999/xlink"
  viewBox="0 0 400 400" style="enable-background:new 0 0 400 400;" xml:space="preserve">
  <rect fill="#2349E5" width="400" height="400" />
  <path fill="#FFFFFF" d="M79.6,291v11H49.8v12.1h27.4v11.2H49.8v23.2H35.4V291H79.6z" />
  <path fill="#FFFFFF" d="M89.5,290.9h12.4v9.7H89.5V290.9z M89.5,305.9h12.4v42.6H89.5V305.9z" />
  <path fill="#FFFFFF" d="M110.8,305.9H124c5.2,18.9,6.1,22.8,7.5,31c1.7-9.5,2-10.5,4.5-20.5l2.6-10.4h12.9l-13.8,42.5h-13.1
	L110.8,305.9z" />
  <path fill="#FFFFFF" d="M198.9,337.6c-1.4,2.3-3.2,4.5-5.1,6.4c-4.4,3.9-10.1,6.1-16,6c-12.6,0-21.5-8.1-21.5-22
	c0-10.3,5.1-23.5,21.8-23.5c2.5,0,9.9,0.2,15.3,6.1s5.9,14.2,6,19.1h-30.4c-0.1,5.3,2.9,10.6,9.7,10.6s9.2-4.5,10.8-7.5L198.9,337.6
	z M186.5,321.9c-0.1-2.2-0.9-4.3-2.4-6c-1.7-1.5-3.8-2.4-6.1-2.4c-2.4,0-4.7,1-6.4,2.8c-1.4,1.6-2.2,3.5-2.5,5.6L186.5,321.9z"
  />
  <path fill="#FFFFFF" d="M211.9,293.6h12.5v13.3h8.2v7.7h-8.3v19.1c-0.1,2.6-0.1,4.8,3.3,4.8l4.5-0.2v9.8c-2.2,0.4-4.4,0.6-6.6,0.6
	c-4.3,0-9-0.2-11.7-4.1c-1.7-2.5-1.8-5.5-1.8-9.6v-20.5h-6.2v-7.7h6.2V293.6z" />
  <path fill="#FFFFFF" d="M255.1,310.3c2.8-2.4,5.8-4.2,12.3-4.9v11.1l-4.1,0.6c-6,1.1-7.8,2-7.8,7.3v24h-12.5v-42.6h12.2V310.3z"
  />
  <path fill="#FFFFFF" d="M276.5,318c0.2-2.9,0.6-6.4,4.5-9.5s9-3.8,13.9-3.8c5.2,0,17.8,1.2,17.8,12.2v24.8c0,4.6,0.2,5.2,1.2,6.7h-12.3
	v-3.9c-3.2,2.4-6.8,5-13,5c-9.8,0-13.9-7-13.9-13c0-6.8,5.5-10.8,9-12.2s11.5-2.9,16.8-3.9v-2.3c-0.2-2-0.3-5.2-4.8-5.2
	c-5.5,0-6.3,3.4-6.6,5L276.5,318z M292.3,330.8c-2.1,0.8-5.4,2-5.4,5.3c0.1,2.5,2.2,4.4,4.7,4.3c1.5-0.1,3-0.5,4.3-1.4
	c4.1-2.6,4.3-6.5,4.4-10.9L292.3,330.8z" />
  <path fill="#FFFFFF" d="M338.4,309.8c1.1-1.4,2.6-2.6,4.2-3.3c2.5-1,5.1-1.5,7.7-1.5c2.6-0.1,5.2,0.5,7.6,1.7c4.5,2.4,5.6,6.2,5.6,12.8
	v29.1h-12.5v-24c0-3.8-0.1-5.2-0.6-6.4c-1-2.3-3.2-3.3-5.6-3.3c-6.6,0-6.6,5.3-6.6,10.6v23h-12.5V306h12.6L338.4,309.8z" />
  <path fill="#FFFFFF" d="M223.4,137.2h17.5c1.4,0,2.5-1.1,2.5-2.5c0-0.3-0.1-0.6-0.2-0.9l-30.1-82.1c-0.4-1-1.3-1.7-2.4-1.7h-17.5
	c-1.4,0-2.5,1.1-2.5,2.5c0,0.3,0.1,0.6,0.2,0.9l30.1,82.1C221.4,136.6,222.3,137.2,223.4,137.2z" />
  <path fill="#FFFFFF" d="M220.2,224.4h17.5c1.4,0,2.5-1.1,2.5-2.5c0-0.3-0.1-0.6-0.2-0.9L178,51.7c-0.4-1-1.3-1.7-2.4-1.7h-17.5
	c-1.4,0-2.5,1.1-2.5,2.5c0,0.3,0.1,0.6,0.2,0.9l62.1,169.4C218.2,223.8,219.1,224.4,220.2,224.4z" />
  <path fill="#FFFFFF" d="M185.7,224.4h17.5c1.4,0,2.5-1.1,2.5-2.5c0-0.3-0.1-0.6-0.2-0.9l-30.1-82.1c-0.4-1-1.3-1.7-2.4-1.7h-17.5
	c-1.4,0-2.5,1.1-2.5,2.5c0,0.3,0.1,0.6,0.2,0.9l30.1,82.1C183.7,223.8,184.7,224.4,185.7,224.4z" />
  <path fill="#FFFFFF" d="M225.5,53.4l14.1,38.5c0.4,1,1.3,1.7,2.4,1.7h17.5c1.4,0,2.5-1.1,2.5-2.5c0-0.3-0.1-0.6-0.2-0.9l-14.1-38.5
	c-0.4-1-1.3-1.7-2.4-1.7h-17.5c-1.4,0-2.5,1.1-2.5,2.5C225.3,52.8,225.4,53.1,225.5,53.4z" />
  <path fill="#FFFFFF" d="M153.4,224.4h17.5c1.4,0,2.5-1.1,2.5-2.5c0-0.3-0.1-0.6-0.2-0.9l-14.1-38.5c-0.4-1-1.3-1.7-2.4-1.7h-17.5
	c-1.4,0-2.5,1.1-2.5,2.5c0,0.3,0.1,0.6,0.2,0.9l14.2,38.5C151.4,223.8,152.3,224.4,153.4,224.4z" />
</svg>
