<svg width="40px" height="40px" viewBox="0 0 286 288" version="1.1" xmlns="http://www.w3.org/2000/svg" xmlns:xlink="http://www.w3.org/1999/xlink">
  <g id="Page-1" stroke="none" stroke-width="1" fill="none" fill-rule="evenodd">
    <g id="toky-logo" transform="translate(-107.000000, -56.000000)" fill-rule="nonzero">
      <g id="Group" transform="translate(107.500000, 56.000000)">
        <path d="M139.49,0.4215 L129.8195,0.4215 C127.0895,0.2435 124.254,0.1495 121.299,0.1495 C108.7485,0.1495 106.647,0.1495 66.363,0.1495 C63.4625,0.1495 60.71,0.2435 58.0815,0.4215 L45.5095,0.4215 C20.539,0.4215 0.293,21.4065 0.293,47.293 L0.293,95.754 C0.293,113.304 9.6055,128.592 23.3825,136.623 C25.106,137.961 27.018,139.2275 29.165,140.4005 C72.235,163.993 94.1045,174.5745 100.2915,177.8835 C106.694,181.2995 111.5105,179.338 112.427,177.8905 C114.397,174.7815 111.1265,171.4885 111.1265,171.4885 C109.681,170.2235 107.9225,168.649 105.9395,166.788 L105.9315,166.795 C105.9315,166.795 62.678,131.2735 59.922,79.766 C57.314,30.8585 87.972,20.9785 103.9775,19.124 C107.9395,23.334 114.7195,33.0065 116.29,51.5555 C117.112,61.3945 116.366,69.0545 115.705,76.311 C114.7115,76.6655 113.719,77.0185 112.4955,77.307 C102.6075,79.647 95.0505,79.9045 92.149,79.8505 C88.8335,79.7775 87.986,84.3955 87.986,84.3955 C87.986,84.3955 82.439,99.565 92.3335,119.8385 C97.582,130.5955 102.823,128.6415 102.823,128.6415 C102.823,128.6415 103.654,127.257 109.579,125.695 C114.2185,124.47 117.9745,124.1635 120.8285,124.1945 C123.881,130.7395 124.116,137.4005 123.511,142.6235 L139.489,142.6235 C164.4595,142.6235 184.706,121.6405 184.706,95.754 L184.706,47.293 C184.707,21.4065 164.4605,0.4215 139.49,0.4215 Z" id="Shape" fill="#0789E3"></path>
        <g transform="translate(0.500000, 210.000000)" id="Shape" fill="#343943">
          <path d="M0.157,16.054 L5.734,16.054 L5.734,3.4605 L18.867,3.4605 L18.867,16.054 L28.402,16.054 L28.402,23.9695 L18.867,23.9695 L18.867,49.8755 C18.867,54.9125 20.666,55.812 25.5235,55.812 L28.762,55.812 L28.762,62.8285 C26.783,63.458 23.9945,63.998 20.3065,63.998 C11.2215,63.998 5.7345,61.1195 5.7345,51.315 L5.7345,23.97 L0.1575,23.97 L0.1575,16.054 L0.157,16.054 Z"></path>
          <path d="M30.292,39.8915 C30.292,24.689 41.356,15.3335 55.119,15.3335 C68.8815,15.3335 79.9455,24.689 79.9455,39.8915 C79.9455,55.003 68.8815,63.908 55.119,63.908 C41.356,63.9085 30.292,55.003 30.292,39.8915 Z M66.633,39.981 C66.633,29.2765 61.6855,23.9695 55.119,23.9695 C48.552,23.9695 43.605,29.2765 43.605,39.981 C43.605,50.5955 48.552,55.6325 55.119,55.6325 C61.685,55.633 66.633,50.5955 66.633,39.981 Z"></path>
          <path d="M81.476,55.812 L84.6245,55.812 C85.704,55.812 86.873,54.553 86.873,53.564 L86.873,10.477 C86.873,9.4875 85.7035,8.0485 84.6245,8.0485 L81.2065,8.0485 L81.2065,0.3125 L97.7575,0.3125 C99.197,0.3125 100.006,1.3915 100.006,3.371 L100.006,39.1715 L111.8795,27.568 C113.319,26.0385 112.9595,23.9695 111.1605,23.9695 L109.361,23.9695 L109.361,16.054 L130.68,16.054 L130.68,23.9695 L128.1615,23.9695 C126.902,23.9695 125.283,24.779 124.3835,25.679 L114.309,35.484 L126.632,53.294 C127.8915,55.093 128.881,55.812 130.1405,55.812 L131.04,55.812 L131.04,63.279 L118.177,63.279 L105.314,44.2085 L100.007,49.3365 L100.007,55.812 L104.5945,55.812 L104.5945,63.279 L81.4765,63.279 L81.4765,55.812 L81.476,55.812 Z"></path>
          <path d="M139.5865,77.8505 L139.5865,70.925 C144.6245,69.395 149.1215,66.6965 152.36,62.6495 L136.7985,26.488 C136.1685,24.959 135.269,23.9695 134.01,23.9695 L132.3005,23.9695 L132.3005,16.054 L155.1485,16.054 L155.1485,23.9695 L148.942,23.9695 L159.1065,48.3465 L166.6625,29.907 C168.0115,26.4885 168.4615,23.9695 164.5035,23.9695 L163.064,23.9695 L163.064,16.054 L183.843,16.054 L183.843,23.9695 L181.8645,23.9695 C180.605,23.9695 179.346,25.049 178.626,26.758 L163.154,61.5695 C159.466,69.6645 154.7885,74.972 150.291,77.8505 L139.5865,77.8505 Z"></path>
        </g>
      </g>
    </g>
  </g>
</svg>
