<svg width="56px" height="33px" viewBox="0 0 56 33" version="1.1" xmlns="http://www.w3.org/2000/svg" xmlns:xlink="http://www.w3.org/1999/xlink">
    <g id="Final" stroke="none" stroke-width="1" fill="none" fill-rule="evenodd">
        <g id="Desktop-01-a-rest" transform="translate(-304.000000, -2085.000000)" fill="#E94878">
            <g id="satismeter-logo" transform="translate(304.000000, 2085.000000)">
                <path d="M55.3846154,8.38499279 L42.9764627,8.38137004 C42.8845159,18.811634 42.993786,29.0037053 42.993786,29.0037053 C43.0417582,33.3711223 34.6905911,33.0936162 34.6599422,29.0222057 C34.602642,21.1013895 34.6919237,11.1921101 34.6532794,8.49633684 L24.2876113,8.41440648 C24.2596275,16.3814737 24.2436368,12.663553 24.2236484,16.7521425 C24.2036599,21.0336648 15.9191209,20.840732 15.9191209,16.7812146 C15.9204534,13.0930267 15.9297814,18.3834818 15.9297814,8.32454737 C5.43452169,8.15672227 14.6381955,8.53465911 4.10029381,8.38401296 C-1.36587623,8.30472551 -1.36854135,0.130189474 4.10295894,0.157940081 L55.3846154,0.160528474 L55.3846154,8.38499279 Z" id="Combined-Shape"></path>
            </g>
        </g>
    </g>
</svg>
