<svg width="52px" height="35px" viewBox="0 0 52 35" version="1.1" xmlns="http://www.w3.org/2000/svg" xmlns:xlink="http://www.w3.org/1999/xlink">
    <defs>
        <polygon id="path-1" points="0.000257142857 34.7142857 51.4285714 34.7142857 51.4285714 0.0925714286 0.000257142857 0.0925714286"></polygon>
    </defs>
    <g id="Final" stroke="none" stroke-width="1" fill="none" fill-rule="evenodd">
        <g id="Desktop-01-a-rest" transform="translate(-651.000000, -2287.000000)">
            <g id="nonnom-logo" transform="translate(651.000000, 2286.000000)">
                <path d="M24.7902429,8.1594 C24.4881,8.02568571 24.1512429,7.95754286 23.7809571,7.95754286 C23.4119571,7.95754286 23.0763857,8.02568571 22.7562429,8.1594 C22.4373857,8.2944 22.1673857,8.47954286 21.9501,8.71482857 C21.7315286,8.95011429 21.5463857,9.23554286 21.4281,9.58782857 C21.2943857,9.9414 21.2442429,10.3104 21.2442429,10.7141143 C21.2442429,11.1345429 21.3111,11.5215429 21.4281,11.8738286 C21.5463857,12.2274 21.7315286,12.5295429 21.9501,12.7815429 C22.1673857,13.0335429 22.4373857,13.2354 22.7562429,13.3704 C23.0763857,13.5041143 23.4119571,13.5709714 23.7809571,13.5709714 C24.1512429,13.5709714 24.4881,13.5041143 24.7902429,13.3704 C25.0923857,13.2354 25.3611,13.0335429 25.5963857,12.7815429 C25.8316714,12.5295429 26.0001,12.2274 26.1338143,11.8738286 C26.2688143,11.5215429 26.3189571,11.1345429 26.3189571,10.7141143 C26.3189571,10.3104 26.2521,9.92468571 26.1338143,9.58782857 C26.0001,9.23554286 25.8316714,8.95011429 25.5963857,8.71482857 C25.3611,8.47954286 25.0923857,8.2944 24.7902429,8.1594" id="Fill-1" fill="#000000"></path>
                <g id="Group-5" transform="translate(0.000000, 1.193271)">
                    <mask id="mask-2" fill="white">
                        <use xlink:href="#path-1"></use>
                    </mask>
                    <g id="Clip-4"></g>
                    <path d="M44.2686857,15.8907857 L44.4036857,8.73064286 L44.3021143,8.6805 L41.8824,15.8907857 L38.8236857,15.8907857 L36.4708286,8.66378571 L36.3872571,8.66378571 L36.5878286,15.8907857 L32.6046857,15.8907857 L32.6046857,3.11721429 L38.2014,3.11721429 L40.5375429,10.0086429 L40.6224,10.0086429 L42.6384,3.11721429 L48.4035429,3.11721429 L48.4035429,15.8907857 L44.2686857,15.8907857 Z M48.4035429,31.6896429 L44.2686857,31.6896429 L44.4036857,24.5295 L44.3021143,24.4793571 L41.8824,31.6896429 L38.8236857,31.6896429 L36.4708286,24.4626429 L36.3872571,24.4626429 L36.5878286,31.6896429 L32.6046857,31.6896429 L32.6046857,18.9160714 L38.2014,18.9160714 L40.5375429,25.8062143 L40.6224,25.8062143 L42.6384,18.9160714 L48.4035429,18.9160714 L48.4035429,31.6896429 Z M20.9406857,31.6896429 C20.0676857,31.3695 19.3104,30.8989286 18.6726857,30.2946429 C18.0336857,29.6890714 17.5296857,28.9665 17.1761143,28.1256429 C16.8071143,27.2860714 16.6386857,26.3449286 16.6386857,25.3189286 C16.6386857,24.2942143 16.8238286,23.3697857 17.1761143,22.5302143 C17.5464,21.7060714 18.0336857,21.0002143 18.6726857,20.4113571 C19.3104,19.8237857 20.0676857,19.3866429 20.9406857,19.0677857 C21.8149714,18.7476429 22.7561143,18.5959286 23.7808286,18.5959286 C24.8068286,18.5959286 25.7479714,18.7476429 26.6222571,19.0677857 C27.4965429,19.3866429 28.2512571,19.8237857 28.8915429,20.4113571 C29.5292571,21.0002143 30.0332571,21.7060714 30.4035429,22.5302143 C30.7725429,23.3530714 30.9409714,24.2942143 30.9409714,25.3189286 C30.9409714,26.3449286 30.7558286,27.2860714 30.4035429,28.1256429 C30.0332571,28.9665 29.5292571,29.6890714 28.8915429,30.2946429 C28.2512571,30.8989286 27.4965429,31.3527857 26.6222571,31.6896429 C25.7479714,32.0252143 24.8068286,32.1769286 23.7808286,32.1769286 C22.7561143,32.1769286 21.8149714,32.0085 20.9406857,31.6896429 L20.9406857,31.6896429 Z M10.6215429,31.6896429 L7.05882857,25.6390714 L6.99197143,25.6390714 L7.17582857,31.6896429 L3.02554286,31.6896429 L3.02554286,18.9160714 L7.36097143,18.9160714 L11.0252571,25.4706429 L11.0921143,25.4706429 L10.9236857,18.9160714 L14.9582571,18.9160714 L14.9582571,31.6896429 L10.6215429,31.6896429 Z M3.02554286,3.11721429 L7.36097143,3.11721429 L11.0252571,9.67307143 L11.0921143,9.67307143 L10.9236857,3.11721429 L14.9582571,3.11721429 L14.9582571,15.8907857 L10.6215429,15.8907857 L7.05882857,9.84021429 L6.99197143,9.84021429 L7.17582857,15.8907857 L3.02554286,15.8907857 L3.02554286,3.11721429 Z M26.6055429,3.26892857 C27.4785429,3.58778571 28.2358286,4.02492857 28.8735429,4.61378571 C29.5125429,5.20135714 30.0165429,5.90721429 30.3868286,6.73135714 C30.7558286,7.55421429 30.9242571,8.49664286 30.9242571,9.52135714 C30.9242571,10.5460714 30.7404,11.4872143 30.3868286,12.3280714 C30.0165429,13.1676429 29.5125429,13.8902143 28.8735429,14.4957857 C28.2358286,15.1013571 27.4785429,15.5552143 26.6055429,15.8907857 C25.7312571,16.2263571 24.7901143,16.3780714 23.7654,16.3780714 C22.7394,16.3780714 21.7982571,16.2109286 20.9239714,15.8907857 C20.0509714,15.5706429 19.2936857,15.1013571 18.6559714,14.4957857 C18.0169714,13.8902143 17.5129714,13.1676429 17.1594,12.3280714 C16.7891143,11.4872143 16.6219714,10.5460714 16.6219714,9.52135714 C16.6219714,8.49664286 16.8071143,7.57092857 17.1594,6.73135714 C17.5296857,5.90721429 18.0169714,5.20135714 18.6559714,4.61378571 C19.2936857,4.02492857 20.0509714,3.58778571 20.9239714,3.26892857 C21.7982571,2.95007143 22.7394,2.79835714 23.7654,2.79835714 C24.7901143,2.79835714 25.7312571,2.96678571 26.6055429,3.26892857 L26.6055429,3.26892857 Z M48.4035429,0.0919285714 L3.02554286,0.0919285714 L0.000257142857,0.0919285714 L0.000257142857,15.8907857 L0.000257142857,18.9160714 L0.000257142857,34.7149286 L3.02554286,34.7149286 L48.4035429,34.7149286 L51.4288286,34.7149286 L51.4288286,18.9160714 L51.4288286,15.8907857 L51.4288286,0.0919285714 L48.4035429,0.0919285714 Z" id="Fill-3" fill="#000000" mask="url(#mask-2)"></path>
                </g>
                <polygon id="Fill-6" fill="#FFFFFF" points="42.6389143 4.311 40.6216286 11.2011429 40.5213429 11.2011429 38.2019143 4.311 32.6052 4.311 32.6052 17.0845714 36.5716286 17.0845714 36.3697714 9.85628571 36.4713429 9.85628571 38.8242 17.0845714 41.8829143 17.0845714 44.2859143 9.87428571 44.3862 9.92442857 44.2692 17.0845714 48.4027714 17.0845714 48.4027714 4.311"></polygon>
                <path d="M26.3194714,10.7145 C26.3194714,11.1349286 26.2526143,11.5206429 26.1343286,11.8742143 C25.9993286,12.2265 25.8321857,12.5299286 25.5969,12.7819286 C25.3616143,13.0339286 25.0916143,13.2345 24.7907571,13.3695 C24.4873286,13.5045 24.1504714,13.5713571 23.7814714,13.5713571 C23.4111857,13.5713571 23.0756143,13.5045 22.7567571,13.3695 C22.4366143,13.2345 22.1679,13.0339286 21.9493286,12.7819286 C21.7307571,12.5299286 21.5469,12.2265 21.4286143,11.8742143 C21.3103286,11.5206429 21.2434714,11.1349286 21.2434714,10.7145 C21.2434714,10.3107857 21.3103286,9.92378571 21.4286143,9.58821429 C21.5636143,9.23592857 21.7307571,8.94921429 21.9493286,8.71392857 C22.1679,8.47864286 22.4366143,8.29478571 22.7567571,8.15978571 C23.0756143,8.02478571 23.4111857,7.95792857 23.7814714,7.95792857 C24.1504714,7.95792857 24.4873286,8.02478571 24.7907571,8.15978571 C25.0916143,8.29478571 25.3616143,8.47864286 25.5969,8.71392857 C25.8321857,8.94921429 25.9993286,9.23592857 26.1343286,9.58821429 C26.2526143,9.92378571 26.3194714,10.2940714 26.3194714,10.7145 M20.9413286,4.46207143 C20.0670429,4.78092857 19.3110429,5.21807143 18.6720429,5.80692857 C18.0343286,6.3945 17.5290429,7.10035714 17.1767571,7.9245 C16.8064714,8.74735714 16.6393286,9.68978571 16.6393286,10.7145 C16.6393286,11.7392143 16.8231857,12.6803571 17.1767571,13.5212143 C17.5457571,14.3607857 18.0343286,15.0833571 18.6720429,15.6889286 C19.3110429,16.2945 20.0670429,16.7483571 20.9413286,17.0839286 C21.8156143,17.4195 22.7567571,17.5712143 23.7814714,17.5712143 C24.8061857,17.5712143 25.7486143,17.4040714 26.6216143,17.0839286 C27.4959,16.7650714 28.2519,16.2945 28.8909,15.6889286 C29.5299,15.0833571 30.0339,14.3607857 30.4029,13.5212143 C30.7731857,12.6803571 30.9416143,11.7392143 30.9416143,10.7145 C30.9416143,9.68978571 30.7564714,8.76407143 30.4029,7.9245 C30.0339,7.10035714 29.5299,6.3945 28.8909,5.80692857 C28.2519,5.21807143 27.4959,4.78092857 26.6216143,4.46207143 C25.7486143,4.14321429 24.8061857,3.9915 23.7814714,3.9915 C22.7567571,3.9915 21.8156143,4.15992857 20.9413286,4.46207143" id="Fill-8" fill="#FFFFFF"></path>
                <polygon id="Fill-10" fill="#FFFFFF" points="6.99171429 11.0333571 7.05857143 11.0333571 10.6212857 17.0839286 14.958 17.0839286 14.958 4.31035714 10.9247143 4.31035714 11.1098571 10.8662143 11.0417143 10.8662143 7.362 4.31035714 3.02528571 4.31035714 3.02528571 17.0839286 7.16014286 17.0839286"></polygon>
                <path d="M21.9494571,28.5795 C22.1680286,28.8315 22.4367429,29.0333571 22.7556,29.1683571 C23.0757429,29.3020714 23.4113143,29.3702143 23.7816,29.3702143 C24.1506,29.3702143 24.4874571,29.3020714 24.7896,29.1683571 C25.0917429,29.0333571 25.3617429,28.8315 25.5970286,28.5795 C25.8323143,28.3275 25.9994571,28.0253571 26.1344571,27.6717857 C26.2681714,27.3195 26.3196,26.9325 26.3196,26.5133571 C26.3196,26.1096429 26.2527429,25.7226429 26.1344571,25.3870714 C25.9994571,25.0335 25.8323143,24.7480714 25.5970286,24.5127857 C25.3617429,24.2775 25.0917429,24.0923571 24.7896,23.9573571 C24.4874571,23.8236429 24.1506,23.7567857 23.7816,23.7567857 C23.4113143,23.7567857 23.0757429,23.8236429 22.7556,23.9573571 C22.4367429,24.0923571 22.1680286,24.2775 21.9494571,24.5127857 C21.7308857,24.7480714 21.5470286,25.0335 21.4287429,25.3870714 C21.2937429,25.7393571 21.2436,26.1096429 21.2436,26.5133571 C21.2436,26.9325 21.3104571,27.3195 21.4287429,27.6717857 C21.5470286,28.0253571 21.7308857,28.3275 21.9494571,28.5795" id="Fill-12" fill="#000000"></path>
                <polygon id="Fill-14" fill="#FFFFFF" points="40.6217571 27 40.5201857 27 38.2020429 20.1098571 32.6053286 20.1098571 32.6053286 32.8821429 36.5717571 32.8821429 36.3699 25.6551429 36.4701857 25.6551429 38.8243286 32.8821429 41.8817571 32.8821429 44.2860429 25.6718571 44.3863286 25.722 44.2680429 32.8821429 48.4029 32.8821429 48.4029 20.1098571 42.6390429 20.1098571"></polygon>
                <path d="M21.4120286,25.3695857 C21.5457429,25.0173 21.7141714,24.7305857 21.9327429,24.4953 C22.1513143,24.2600143 22.4200286,24.0761571 22.7388857,23.9411571 C23.0590286,23.8061571 23.3946,23.7393 23.7648857,23.7393 C24.1351714,23.7393 24.4707429,23.8061571 24.7728857,23.9411571 C25.0763143,24.0761571 25.3450286,24.2600143 25.5803143,24.4953 C25.8156,24.7305857 25.9827429,25.0173 26.1177429,25.3695857 C26.2527429,25.7218714 26.3028857,26.0921571 26.3028857,26.4958714 C26.3028857,26.9163 26.2347429,27.3020143 26.1177429,27.6555857 C25.9827429,28.0078714 25.8156,28.3113 25.5803143,28.5633 C25.3450286,28.8153 25.0763143,29.0171571 24.7728857,29.1508714 C24.4707429,29.2858714 24.1351714,29.3527286 23.7648857,29.3527286 C23.3946,29.3527286 23.0590286,29.2858714 22.7388857,29.1508714 C22.4200286,29.0171571 22.1513143,28.8153 21.9327429,28.5633 C21.7141714,28.3113 21.5290286,28.0078714 21.4120286,27.6555857 C21.2937429,27.3020143 21.2268857,26.9163 21.2268857,26.4958714 C21.2268857,26.0921571 21.2937429,25.7218714 21.4120286,25.3695857 M26.6050286,32.8820143 C27.4793143,32.5631571 28.2353143,32.0925857 28.8743143,31.4870143 C29.5120286,30.8827286 30.0160286,30.1601571 30.3863143,29.3193 C30.7566,28.4784429 30.9237429,27.5385857 30.9237429,26.5125857 C30.9237429,25.4878714 30.7398857,24.5634429 30.3863143,23.7225857 C30.0160286,22.8997286 29.5120286,22.1925857 28.8743143,21.6050143 C28.2353143,21.0161571 27.4793143,20.5790143 26.6050286,20.2601571 C25.7307429,19.9413 24.7896,19.7895857 23.7648857,19.7895857 C22.7388857,19.7895857 21.7977429,19.9413 20.9247429,20.2601571 C20.0504571,20.5790143 19.2944571,21.0161571 18.6554571,21.6050143 C18.0164571,22.1925857 17.5124571,22.8997286 17.1588857,23.7225857 C16.8066,24.5454429 16.6394571,25.4878714 16.6394571,26.5125857 C16.6394571,27.5385857 16.8233143,28.4784429 17.1768857,29.3193 C17.5458857,30.1601571 18.0344571,30.8827286 18.6721714,31.4870143 C19.3111714,32.0925857 20.0671714,32.5464429 20.9414571,32.8820143 C21.8144571,33.2175857 22.7556,33.3693 23.7816,33.3693 C24.8063143,33.3693 25.7307429,33.2021571 26.6050286,32.8820143" id="Fill-16" fill="#FFFFFF"></path>
                <polygon id="Fill-18" fill="#FFFFFF" points="10.9242 20.1093429 11.1093429 26.6639143 11.0424857 26.6639143 7.36148571 20.1093429 3.02477143 20.1093429 3.02477143 32.8829143 7.15962857 32.8829143 6.9912 26.8323429 7.05934286 26.8323429 10.6220571 32.8829143 14.9574857 32.8829143 14.9574857 20.1093429"></polygon>
            </g>
        </g>
    </g>
</svg>
