<svg width="80px" height="35px" viewBox="0 0 80 35" version="1.1" xmlns="http://www.w3.org/2000/svg" xmlns:xlink="http://www.w3.org/1999/xlink">
    <defs>
        <polygon id="path-1" points="0.297083488 12.4675325 11.0305603 12.4675325 11.0305603 0.0995265306 0.297083488 0.0995265306 0.297083488 12.4675325"></polygon>
    </defs>
    <g id="Integrations-Page" stroke="none" stroke-width="1" fill="none" fill-rule="evenodd">
        <g id="Desktop-01-a-rest" transform="translate(-650.000000, -1675.000000)">
            <g id="Group-23" transform="translate(625.000000, 1651.000000)">
                <g id="Page-1" transform="translate(25.000000, 24.000000)">
                    <g id="Group-3" transform="translate(53.076067, 0.312401)" fill="#7170B3">
                        <path d="M11.8672742,7.26483117 L9.19708497,7.26483117 C8.54806085,7.26483117 7.89476215,7.78027458 7.74728905,8.41077551 L6.45244675,13.9374545 C8.22354879,14.037551 9.86213878,14.1992727 11.3739161,14.4105083 L12.7795414,8.41077551 C12.9277269,7.78027458 12.5162983,7.26483117 11.8672742,7.26483117 M4.8847436,10.313321 L2.21455436,10.313321 C1.56553024,10.313321 0.91223154,10.8291206 0.765470872,11.4589091 L0.196238961,13.8872282 C0.6115859,13.8565937 1.03975659,13.8337959 1.49678071,13.8291651 C2.80052839,13.8149165 4.04371948,13.8330835 5.23062857,13.8790353 L5.79772319,11.4589091 C5.94448386,10.8291206 5.53412393,10.313321 4.8847436,10.313321 M18.502495,4.63881262 L15.8337306,4.63881262 C15.1832816,4.63881262 14.5306954,5.15461224 14.3835785,5.78475696 L12.3292853,14.5526382 C14.1060868,14.8340482 15.7001499,15.1820705 17.1235859,15.5703451 L19.4158308,5.78475696 C19.5633039,5.15461224 19.152944,4.63881262 18.502495,4.63881262 M25.7671481,0.0439925788 L23.0969588,0.0439925788 C22.4479347,0.0439925788 21.794636,0.559792208 21.6478753,1.18958071 L18.2054115,15.8823896 C20.0420571,16.4423599 21.5659458,17.0646679 22.8166174,17.6798516 L26.6801276,1.18958071 C26.8276007,0.559792208 26.4165284,0.0439925788 25.7671481,0.0439925788" id="Fill-1"></path>
                    </g>
                    <path d="M3.05493729,20.2131473 C3.21345306,19.5256519 3.92054026,18.9635443 4.62549017,18.9635443 L7.27359406,18.9635443 C7.97854397,18.9635443 8.53566456,19.5402568 8.51037328,20.2452067 L8.44625455,22.0768653 C8.42096327,22.7818152 8.38462931,23.9352401 8.36432505,24.64019 C8.36432505,24.64019 8.33475918,25.6774887 8.33475918,26.1191955 C8.26850315,27.4446724 8.20224712,28.526498 8.11390575,29.9616891 C8.42310056,29.2332289 8.79855139,28.3273737 9.21817291,27.356331 C9.54945306,26.5609024 10.0132453,25.4569915 10.2340987,24.9490286 L12.3653343,20.1358486 C12.6510189,19.4910991 13.4614085,18.9635443 14.1663584,18.9635443 L16.7920208,18.9635443 C17.4973269,18.9635443 17.9447332,19.5256519 17.7862174,20.2131473 L14.7626627,33.3061937 C14.6041469,33.9936891 13.8970597,34.5557967 13.1921098,34.5557967 L12.2452898,34.5557967 C11.5399837,34.5557967 11.1050449,33.9961826 11.2785217,33.3129618 L13.5850152,24.2262679 C13.758492,23.5423347 13.664095,23.5095629 13.3759169,24.1532438 L9.23491503,33.3856297 C8.94638071,34.0293106 8.13314137,34.5557967 7.42783525,34.5557967 L6.83402449,34.5557967 C6.12907458,34.5557967 5.55734917,33.9790842 5.56411725,33.2734219 L5.65032134,24.2650954 C5.65708942,23.5601455 5.54488163,23.5476779 5.4013269,24.2387354 L3.51623599,33.3004942 C3.37268126,33.9908393 2.67770538,34.5557967 1.97275547,34.5557967 L1.02593544,34.5557967 C0.320629314,34.5557967 -0.126776994,33.9936891 0.0320949907,33.3061937 L3.05493729,20.2131473 Z" id="Fill-4" fill="#44555F"></path>
                    <g id="Group-8" transform="translate(16.385900, 22.397744)">
                        <mask id="mask-2" fill="white">
                            <use xlink:href="#path-1"></use>
                        </mask>
                        <g id="Clip-7"></g>
                        <path d="M6.90060111,6.61434657 C6.10552876,6.85799777 5.08960297,7.16683636 4.66962523,7.4977603 C4.09576252,7.96190872 3.94080891,9.22041707 3.94080891,9.44162672 C3.94080891,9.83916289 4.11784787,10.1700868 4.71379592,10.1700868 L5.33254174,10.1700868 C5.79419666,9.78181224 6.31462709,8.90481039 6.48988497,8.2212334 L6.90060111,6.61434657 Z M9.26373284,10.810918 C9.2416475,10.9876007 9.19747681,11.1642835 9.19747681,11.3413224 C9.19747681,11.8713707 9.35207421,11.981085 9.52875696,12.1581239 L6.79124304,12.1581239 C6.08629314,12.1581239 5.57868646,11.8795636 5.66346568,11.5397343 C5.74895733,11.199905 5.38169944,11.2985766 4.84808905,11.7598753 C4.84808905,11.7598753 4.02915028,12.467675 2.63812987,12.467675 C2.39519109,12.467675 0.297083488,12.467675 0.297083488,10.3246842 C0.297083488,9.59622412 0.760875696,7.52020186 1.48969202,6.68095881 C2.21815213,5.84135955 3.27860482,5.53252096 7.40856401,4.33991243 C7.51863451,3.87612022 7.67358813,3.12521855 7.67358813,2.94853581 C7.67358813,2.3301462 7.0993692,2.28633173 6.72391837,2.28633173 C5.73007792,2.28633173 5.55339518,2.81566753 5.22211503,4.0089885 L3.14716141,4.0089885 C2.44185529,4.0089885 2.02187755,3.45329276 2.21352134,2.77470278 C2.21352134,2.77470278 2.63812987,1.26969351 3.71995547,0.717916141 C4.53746939,0.298650835 5.66346568,0.0995265306 6.90060111,0.0995265306 C8.93245269,0.0995265306 11.0305603,0.607489425 11.0305603,2.68351169 L11.0305603,3.12521855 C10.9212022,3.61073989 10.7021299,4.5710961 10.5439703,5.25823525 L9.26373284,10.810918 Z" id="Fill-6" fill="#44555F" mask="url(#mask-2)"></path>
                    </g>
                    <path d="M32.9815391,25.0811844 C33.9536505,23.2256594 34.6821106,22.8060378 36.5372794,22.5196408 L35.9865707,24.5714404 C35.8034761,25.2528801 35.4355058,25.8000267 35.1683443,25.7879154 L34.9250494,25.7879154 C32.9815391,25.7879154 32.6281737,26.6271584 32.1202108,28.7915221 L31.0825558,33.3061937 C30.9247525,33.9936891 30.2180215,34.5557967 29.5130716,34.5557967 L28.5879807,34.5557967 C27.8830308,34.5557967 27.4359807,33.9936891 27.5948527,33.3065499 L29.7549417,23.9672994 C29.9141699,23.2798041 30.6212571,22.7176965 31.3265633,22.7176965 L32.251298,22.7176965 C32.9566041,22.7176965 33.4025855,23.2798041 33.2419325,23.966587 L32.9815391,25.0811844 Z" id="Fill-9" fill="#44555F"></path>
                    <path d="M40.4890241,18.9636156 C41.1943302,18.9636156 41.6410241,19.5257232 41.4825083,20.2128623 L40.1605937,25.9301165 C40.0020779,26.6168994 40.2386048,26.7333818 40.6860111,26.1887288 L42.7235622,23.7084022 C43.1716809,23.1637492 44.115295,22.7177677 44.8206011,22.7177677 L46.2094842,22.7177677 C46.9140779,22.7177677 47.1053655,23.1470071 46.6330241,23.6709996 L43.7562301,26.8666063 C43.2838887,27.3909551 43.0644601,28.3719718 43.2685714,29.0477121 L44.5591391,33.3279941 C44.7628942,34.0033781 44.3525343,34.5555117 43.6475844,34.5555117 L42.5899814,34.5555117 C41.8846753,34.5555117 41.1604898,33.9976787 40.9802449,33.3158827 L39.9564824,29.434918 C39.7765937,28.7531221 39.5001707,28.7573967 39.3427236,29.444892 L38.457885,33.3062649 C38.3004378,33.9934041 37.5944193,34.5555117 36.8891132,34.5555117 L35.9422931,34.5555117 C35.236987,34.5555117 34.7899369,33.9934041 34.9484527,33.3062649 L37.971295,20.2132186 C38.1298108,19.5257232 38.836898,18.9636156 39.5418479,18.9636156 L40.4890241,18.9636156 Z" id="Fill-11" fill="#44555F"></path>
                    <path d="M53.0129098,27.3116972 C53.1012512,26.9366026 53.3217484,26.008662 53.3217484,25.6998234 C53.3217484,25.4786137 53.277934,25.2577603 53.1450657,25.1035191 C52.9245685,24.838495 52.5273885,24.7939681 52.3061788,24.7939681 C51.2243532,24.7939681 50.9814145,26.0528327 50.9814145,26.0528327 C50.8471213,26.745315 51.3151881,27.3116972 52.020138,27.3116972 L53.0129098,27.3116972 Z M55.8619191,30.7352816 C55.6407095,31.6183391 55.3977707,32.6563503 54.6693106,33.4514226 C53.9625796,34.2689365 52.7924126,34.8652408 50.7163904,34.8652408 C50.1193737,34.8652408 48.4636853,34.7768994 47.425318,33.9593855 C46.9177113,33.5622056 46.4535629,32.943816 46.4535629,31.6849514 C46.4535629,30.116892 47.5799154,25.7657232 47.9557224,24.8823095 C48.3529024,23.9326397 49.2804868,22.4311926 52.5049469,22.4311926 C53.9180527,22.4311926 56.6787206,22.6962167 56.6787206,25.3240163 C56.6787206,25.8102501 56.5903792,26.318213 56.4803087,26.8261759 C56.303626,27.6875043 56.1269432,28.4825766 55.9057336,29.4760609 L51.5346167,29.4760609 C50.8289544,29.4760609 50.1172364,30.037456 49.9530212,30.7231703 C49.9530212,30.7231703 49.855062,31.1328178 49.855062,31.6404245 C49.855062,31.7512074 49.8764349,31.8833633 49.9209618,31.9941462 C50.0755592,32.2591703 50.4289247,32.4358531 50.8930731,32.4358531 C51.8865573,32.4358531 51.9852289,31.9873781 51.9852289,31.9873781 C52.1376891,31.2988141 52.8390768,30.7352816 53.5443829,30.7352816 L55.8619191,30.7352816 Z" id="Fill-13" fill="#44555F"></path>
                    <path d="M60.2610345,20.1915607 C60.4181254,19.5040653 61.1237878,18.9412453 61.8283814,18.9412453 L62.7317432,18.9412453 C63.4370494,18.9412453 63.8823184,19.5033529 63.7216653,20.1901358 L63.4224445,21.4693046 C63.2617915,22.1564438 63.4830011,22.717839 63.9143777,22.717839 C64.3457544,22.717839 64.5844186,23.1951673 64.444426,23.7779354 C64.3047896,24.3610597 63.8427785,24.8383881 63.4174575,24.8383881 C62.9924928,24.8383881 62.5137395,25.4001395 62.3537989,26.0872787 L61.5003072,29.7509521 C61.3400104,30.4380913 61.1697395,31.2185588 61.120938,31.4860764 L61.120938,31.6852007 C61.120938,32.3028779 61.5626449,32.3028779 62.5561291,32.3028779 L62.3302887,33.3049113 C62.1749788,33.9927629 61.4707414,34.5555829 60.7661477,34.5555829 C60.7661477,34.5555829 57.3439881,34.5555829 57.3439881,32.7891117 C57.3439881,32.4136609 57.4106004,32.1261952 57.5427562,31.6406738 L58.8778508,26.0851414 C59.042066,25.3990709 58.8589714,24.8383881 58.4703406,24.8383881 C58.082066,24.8383881 57.8733239,24.3610597 58.0069046,23.7779354 C58.1404853,23.1951673 58.5725744,22.717839 58.9669046,22.717839 C59.3623035,22.717839 59.8136282,22.1553751 59.9703629,21.4675236 L60.2610345,20.1915607 Z" id="Fill-15" fill="#44555F"></path>
                    <path d="M70.8598263,26.1192312 C70.9043532,25.9646338 70.9264386,25.8103926 70.9264386,25.6550827 C70.9481677,25.08122 70.5064609,24.7723814 69.9767688,24.7723814 C69.0270991,24.7723814 68.828331,25.5891829 68.7175481,26.1192312 L67.9050212,29.5969603 C67.7443681,30.283387 67.573741,31.0442627 67.5252957,31.2872015 L67.5252957,31.529784 C67.5252957,31.9939325 67.7903199,32.4356393 68.4749655,32.4356393 C69.4246353,32.4356393 69.5051399,32.0933165 69.5051399,32.0933165 C69.6672178,31.407246 69.9261863,30.2826746 70.0804275,29.5944668 L70.8598263,26.1192312 Z M74.3496668,25.6550827 C74.3496668,26.8922182 73.399997,30.8230531 73.0687169,31.8396913 C72.6490954,33.0757581 71.9648059,34.8208564 68.431151,34.8208564 C65.7801974,34.8208564 64.0799822,33.9370865 64.0799822,31.6184816 C64.0799822,30.3375317 65.0734664,26.4280698 65.2722345,25.8103926 C65.6480416,24.5511718 66.3989432,22.4088935 69.8000861,22.4088935 C71.5665573,22.4088935 74.3496668,22.6963592 74.3496668,25.6550827 L74.3496668,25.6550827 Z" id="Fill-17" fill="#44555F"></path>
                    <path d="M76.5707755,23.8469699 L76.7332096,23.8469699 C76.9497885,23.8469699 77.1122226,23.7796453 77.1122226,23.6033187 C77.1122226,23.467957 77.0107013,23.3600237 76.7670501,23.3600237 C76.6794212,23.3600237 76.6181521,23.3600237 76.5707755,23.3664356 L76.5707755,23.8469699 Z M76.5707755,24.8215748 L76.2120668,24.8215748 L76.2120668,23.1366768 C76.3406605,23.1160163 76.4892022,23.088944 76.7538701,23.088944 C77.0445417,23.088944 77.2276364,23.1366768 77.3352134,23.2243058 C77.4303228,23.2919866 77.4844675,23.4138122 77.4844675,23.5833707 C77.4844675,23.7796453 77.349462,23.9285432 77.1595993,23.9755636 L77.1595993,23.9890998 C77.3084972,24.0229403 77.4036067,24.158302 77.4303228,24.4023095 C77.4641633,24.6659087 77.4983599,24.7674301 77.518308,24.8215748 L77.1531874,24.8215748 C77.1122226,24.760662 77.0851503,24.611764 77.051666,24.3884171 C77.0242375,24.2060349 76.9159481,24.1315859 76.7264416,24.1315859 L76.5707755,24.1315859 L76.5707755,24.8215748 Z M76.8283191,22.7234672 C76.1917625,22.7234672 75.6773878,23.2649143 75.6773878,23.9417232 C75.6773878,24.6256564 76.1917625,25.1599792 76.8414991,25.1599792 C77.4780557,25.1667473 77.9920742,24.6256564 77.9920742,23.9417232 C77.9920742,23.2649143 77.4780557,22.7234672 76.834731,22.7234672 L76.8283191,22.7234672 Z M76.8414991,22.4189032 C77.6672059,22.4189032 78.3372468,23.1024801 78.3372468,23.9349551 C78.3372468,24.7877343 77.6672059,25.4645432 76.834731,25.4645432 C75.9954879,25.4645432 75.318679,24.7877343 75.318679,23.9349551 C75.318679,23.1024801 75.9954879,22.4189032 76.834731,22.4189032 L76.8414991,22.4189032 Z" id="Fill-19" fill="#44555F"></path>
                </g>
            </g>
        </g>
    </g>
</svg>
