<svg width="40px" height="40px" xmlns="http://www.w3.org/2000/svg" viewBox="0 0 556.87 556.87">
  <g id="Layer_2" data-name="Layer 2">
    <g id="Layer_1-2" data-name="Layer 1">
      <path d="M556.87,219.95V0H0V297.94H382.78v39H0V556.87H556.87V258.94H174.1v-39ZM278.33,499.72a27.39,27.39,0,1,1,27.39-27.38A27.39,27.39,0,0,1,278.33,499.72Zm123.48-84.8h-247l11.85-39h224ZM278.33,57.16a27.38,27.38,0,1,1-27.38,27.38A27.38,27.38,0,0,1,278.33,57.16ZM166.7,180.95l-11.85-39h247l-11.11,39Z" style="fill: #fc0"/>
    </g>
  </g>
</svg>
