<svg width="35px" height="35px" viewBox="0 0 35 35" version="1.1" xmlns="http://www.w3.org/2000/svg" xmlns:xlink="http://www.w3.org/1999/xlink">
    <defs>
        <polygon id="path-1" points="34.4895401 34.6517134 34.4895401 0.16286631 0 0.16286631 0 34.6517134 34.4895401 34.6517134"></polygon>
    </defs>
    <g id="Integrations-Page" stroke="none" stroke-width="1" fill="none" fill-rule="evenodd">
        <g id="Desktop-01-a-rest" transform="translate(-651.000000, -1062.000000)">
            <g id="Group-10" transform="translate(625.000000, 1038.000000)">
                <g id="Page-1" transform="translate(26.000000, 24.000000)">
                    <path d="M2.45131123,17.5331589 C2.45131123,23.3894156 5.85417754,28.448667 10.7886802,30.8466135 L3.73345027,11.5140359 C2.91218824,13.3506135 2.45131123,15.388175 2.45131123,17.5331589" id="Fill-1" fill="#464342"></path>
                    <path d="M27.2319401,16.7863996 C27.2319401,14.9567525 26.5735444,13.6919397 26.0121754,12.7078113 C25.2636834,11.4880466 24.5602396,10.4554049 24.5602396,9.23910545 C24.5602396,7.87726588 25.589416,6.61245305 27.0448171,6.61245305 C27.1071914,6.61245305 27.1695658,6.61938353 27.2354053,6.62284877 C24.6018225,4.21104128 21.0949989,2.73831401 17.2451166,2.73831401 C12.0749775,2.73831401 7.52858182,5.39268834 4.88460321,9.40890225 C5.23112727,9.41929797 5.56032513,9.42622845 5.83754439,9.42622845 C7.38304171,9.42622845 9.77752299,9.23910545 9.77752299,9.23910545 C10.5779936,9.19059209 10.6715551,10.3618434 9.87454973,10.4554049 C9.87454973,10.4554049 9.07407914,10.5489664 8.18004706,10.5974798 L13.5684963,26.6207525 L16.805031,16.9111482 L14.500646,10.5974798 C13.7036406,10.5489664 12.9482182,10.4554049 12.9482182,10.4554049 C12.1512128,10.4103568 12.2447743,9.19059209 13.0417797,9.23910545 C13.0417797,9.23910545 15.4847743,9.42622845 16.9401754,9.42622845 C18.4856727,9.42622845 20.8836193,9.23910545 20.8836193,9.23910545 C21.6806246,9.19059209 21.7741861,10.3618434 20.9771807,10.4554049 C20.9771807,10.4554049 20.1732449,10.5489664 19.2826781,10.5974798 L24.6295444,26.4994691 L26.1057369,21.5684317 C26.7468064,19.5239397 27.2319401,18.0546776 27.2319401,16.7863996" id="Fill-3" fill="#464342"></path>
                    <path d="M17.5046631,18.8274263 L13.0656898,31.725052 C14.392877,32.1166242 15.7928342,32.3280039 17.2447701,32.3280039 C18.9669947,32.3280039 20.6199144,32.0299932 22.1584813,31.4894156 C22.1168984,31.4270413 22.082246,31.3577365 22.0510588,31.2849664 L17.5046631,18.8274263 Z" id="Fill-5" fill="#464342"></path>
                    <path d="M30.225908,10.435653 C30.2882824,10.9069258 30.3264,11.4128509 30.3264,11.9568937 C30.3264,13.4573429 30.0457155,15.1449151 29.2001968,17.2552466 L24.681523,30.3192039 C29.0789134,27.7549258 32.0382289,22.9902199 32.0382289,17.5324659 C32.0382289,14.9612573 31.3798332,12.5425194 30.225908,10.435653" id="Fill-7" fill="#464342"></path>
                    <g id="Group-11" transform="translate(0.000000, 0.126216)">
                        <mask id="mask-2" fill="white">
                            <use xlink:href="#path-1"></use>
                        </mask>
                        <g id="Clip-10"></g>
                        <path d="M17.2451166,33.8616385 C8.17311658,33.8616385 0.792154011,26.4806759 0.792154011,17.4086759 C0.792154011,8.3332107 8.17311658,0.952248128 17.2451166,0.952248128 C26.3171166,0.952248128 33.6980791,8.3332107 33.6980791,17.4086759 C33.6980791,26.4806759 26.3171166,33.8616385 17.2451166,33.8616385 M17.2451166,0.162173262 C7.73649626,0.162173262 -0.00138609626,7.90005561 -0.00138609626,17.4086759 C-0.00138609626,26.9172963 7.73649626,34.6517134 17.2451166,34.6517134 C26.7537369,34.6517134 34.4916193,26.9172963 34.4916193,17.4086759 C34.4916193,7.90005561 26.7537369,0.162173262 17.2451166,0.162173262" id="Fill-9" fill="#464342" mask="url(#mask-2)"></path>
                    </g>
                </g>
            </g>
        </g>
    </g>
</svg>
