<svg width="51px" height="36px" viewBox="0 0 51 36" version="1.1" xmlns="http://www.w3.org/2000/svg" xmlns:xlink="http://www.w3.org/1999/xlink">
    <defs>
        <polygon id="path-1" points="25.0388289 35.1507116 50.0776354 35.1507116 50.0776354 0.0990508871 25.0388289 0.0990508871 2.24605185e-05 0.0990508871 2.24605185e-05 35.1507116 25.0388289 35.1507116"></polygon>
    </defs>
    <g id="Integrations-Page" stroke="none" stroke-width="1" fill="none" fill-rule="evenodd">
        <g id="Desktop-01-a-rest" transform="translate(-996.000000, -712.000000)">
            <g id="Group-2" transform="translate(970.000000, 688.000000)">
                <g id="Page-1" transform="translate(26.000000, 24.000000)">
                    <g id="Group-3" transform="translate(0.000000, 0.013252)">
                        <mask id="mask-2" fill="white">
                            <use xlink:href="#path-1"></use>
                        </mask>
                        <g id="Clip-2"></g>
                        <path d="M44.9298193,16.7197224 C44.9217335,16.7947405 44.8451431,16.7955266 44.8451431,16.7955266 L41.9431318,16.7933929 C41.9608756,17.2341805 42.066777,17.5462694 42.280938,17.7581844 C42.4900455,17.9665058 42.8233596,18.0990228 43.2738053,18.0996966 C43.9627817,18.1011566 44.2571268,17.9627998 44.4654481,17.8855356 C44.4654481,17.8855356 44.5456321,17.8567861 44.5743816,17.9355102 L44.7649591,18.4670384 C44.8024682,18.5567682 44.7723711,18.5876514 44.7399156,18.606069 C44.5580977,18.7069167 44.1165239,18.8937883 43.2782974,18.8960343 C42.8712005,18.8974942 42.5165489,18.8386477 42.2243375,18.7260082 C41.9306663,18.6119088 41.685622,18.4500807 41.4942584,18.2425455 C41.3035686,18.0356841 41.1622919,17.7876077 41.0739098,17.5042683 C40.986426,17.2246348 40.9421788,16.9125459 40.9421788,16.5776596 C40.9421788,16.2487253 40.9848538,15.9374225 41.06953,15.651837 C41.1542061,15.3640055 41.2866109,15.1108754 41.462589,14.8981743 C41.639241,14.6846871 41.8637339,14.513201 42.1309018,14.3880959 C42.3979573,14.2629908 42.7270039,14.2018982 43.0890675,14.2018982 C43.4004826,14.2018982 43.6844958,14.2688306 43.9207805,14.3704644 C44.1018123,14.4484024 44.2850901,14.5890053 44.4720739,14.7907007 C44.5897671,14.9172657 44.770125,15.1947655 44.8430094,15.4700191 C45.0292071,16.1236202 44.9327392,16.6888391 44.9298193,16.7197224 L44.9298193,16.7197224 Z M40.6319991,18.6767074 C40.3074446,18.8040585 39.8569989,18.8931144 39.4175588,18.8931144 C38.674228,18.8931144 38.1046292,18.6789534 37.7248218,18.2557972 C37.3458006,17.8354486 37.154437,17.260684 37.154437,16.5496962 C37.154437,16.2199758 37.2008179,15.9093469 37.2942537,15.6261197 C37.3870156,15.3419942 37.5268324,15.0909979 37.7108963,14.8812166 C37.8956341,14.6714354 38.1274266,14.5029815 38.4018942,14.3814701 C38.676474,14.2592849 38.9973225,14.1975184 39.3572523,14.1975184 C39.5987029,14.1975184 39.8157838,14.2122301 40.0005216,14.2401934 C40.1991849,14.2702905 40.4612991,14.341715 40.5723664,14.3851761 C40.5930301,14.3932618 40.6489568,14.4205514 40.626047,14.4860238 C40.545863,14.7148965 40.4907224,14.862799 40.4149182,15.0717941 C40.3832488,15.1601763 40.3155304,15.130753 40.3155304,15.130753 C40.0328647,15.0423708 39.762777,15.0012681 39.409473,15.0012681 C38.9855307,15.0012681 38.6669283,15.1432186 38.4578209,15.4199322 C38.2473658,15.6988918 38.1303465,16.0639875 38.1288866,16.5490224 C38.1274266,17.082572 38.2606175,17.4770911 38.4969022,17.7214615 C38.7331868,17.9650458 39.063581,18.088691 39.4779776,18.088691 C39.6472176,18.088691 39.8047782,18.0776853 39.9475148,18.0547756 C40.0895775,18.0327643 40.2220946,17.9893032 40.3464136,17.9414623 C40.3464136,17.9414623 40.4281699,17.9097929 40.4561332,17.9930092 L40.6665883,18.5743997 C40.6938778,18.646498 40.6319991,18.6767074 40.6319991,18.6767074 L40.6319991,18.6767074 Z M37.002267,14.4420012 C36.9757635,14.5208376 36.8338131,14.9189503 36.7843999,15.0514673 C36.7653085,15.1015543 36.7344253,15.1361435 36.6777125,15.1301915 C36.6777125,15.1301915 36.5113923,15.0904363 36.35911,15.0904363 C36.2545563,15.0904363 36.1050815,15.1044742 35.9704307,15.1456892 C35.838026,15.1861182 35.7173007,15.2582164 35.611287,15.3613102 C35.5052734,15.464404 35.4199234,15.6079267 35.3573709,15.7881724 C35.2933584,15.9699903 35.2609029,16.2592817 35.2609029,16.5499208 L35.2609029,18.7129811 C35.2609029,18.7616081 35.2219339,18.8005771 35.1734192,18.8005771 L34.4108846,18.8005771 C34.3615838,18.8005771 34.3225025,18.7616081 34.3225025,18.7129811 L34.3225025,14.3831546 C34.3225025,14.3345276 34.357204,14.2955586 34.4057187,14.2955586 L35.1498357,14.2955586 C35.1983504,14.2955586 35.2329396,14.3345276 35.2329396,14.3831546 L35.2337257,14.7371324 C35.3441192,14.5877699 35.5435686,14.456039 35.7239265,14.3750688 C35.9049583,14.2934248 36.1073276,14.2323322 36.4724233,14.2543435 C36.662327,14.2669214 36.9096173,14.3191421 36.9589182,14.3375598 C36.9780096,14.3448594 37.0243906,14.3765288 37.002267,14.4420012 L37.002267,14.4420012 Z M33.4147606,17.4741712 C33.3307583,17.7590829 33.1990273,18.0100792 33.0246214,18.2190743 C32.8494294,18.4288555 32.6279686,18.5966356 32.3659667,18.715901 C32.1031786,18.835054 31.7947957,18.8954728 31.4474438,18.8954728 C31.0993058,18.8954728 30.7901367,18.835054 30.5281348,18.715901 C30.2661328,18.5966356 30.043886,18.4288555 29.8694801,18.2190743 C29.694288,18.009293 29.5632309,17.7582967 29.4793408,17.4741712 C29.3954508,17.1916179 29.3527758,16.8809889 29.3527758,16.5527284 C29.3527758,16.2244679 29.3954508,15.9147374 29.4793408,15.6312856 C29.5632309,15.3472724 29.694288,15.0962761 29.8694801,14.887281 C30.043886,14.6767136 30.2653467,14.5081474 30.5274609,14.3859622 C30.7894629,14.263777 31.0993058,14.2013367 31.4474438,14.2013367 C31.7947957,14.2013367 32.1039647,14.263777 32.3659667,14.3859622 C32.6286425,14.5081474 32.8502155,14.6767136 33.0246214,14.8864948 C33.1990273,15.09549 33.3307583,15.3464863 33.4147606,15.6312856 C33.4986507,15.9147374 33.5413256,16.2244679 33.5413256,16.5527284 C33.5413256,16.8809889 33.4986507,17.1908317 33.4147606,17.4741712 L33.4147606,17.4741712 Z M29.165792,14.9879041 C29.1496204,15.0755001 29.0686503,15.0725802 29.0686503,15.0725802 L28.1126183,15.0725802 L27.4590172,18.7723892 C27.3898388,19.1551164 27.3044888,19.4833769 27.2036411,19.7476249 C27.1021196,20.0147927 26.9954321,20.2105362 26.8268659,20.39752 C26.6700915,20.5696799 26.4934395,20.6977048 26.2902841,20.7713753 C26.088701,20.8442597 25.8450043,20.8817688 25.5778365,20.8817688 C25.4505976,20.8817688 25.3143746,20.8795227 25.1524342,20.8412275 C25.0362011,20.8140503 24.9728624,20.7941727 24.8875124,20.7639633 C24.8506772,20.7507116 24.82204,20.7059029 24.8425914,20.6485163 C24.8632551,20.5903435 25.033955,20.1200203 25.0575385,20.0581415 C25.0877479,19.9831234 25.1627661,20.0117606 25.1627661,20.0117606 C25.214313,20.0332104 25.2503621,20.0485958 25.3195405,20.0618475 C25.3887189,20.0758854 25.4821547,20.0875648 25.5521192,20.0875648 C25.6780104,20.0875648 25.7934574,20.0721794 25.8936314,20.0390501 C26.0150305,19.9985089 26.084995,19.9278705 26.1593393,19.8336487 C26.2358174,19.7358331 26.2983699,19.60107 26.3617086,19.4208243 C26.4265072,19.2383326 26.4845676,18.9975559 26.5354407,18.7054568 L27.1867957,15.0725802 L26.5449864,15.0725802 C26.4677222,15.0725802 26.4426787,15.0365311 26.4507645,14.9791445 L26.5589119,14.3756303 C26.5750835,14.2880343 26.6560537,14.2909542 26.6560537,14.2909542 L27.3148207,14.2909542 L27.3500837,14.0944246 C27.4487977,13.512248 27.6452149,13.0692143 27.9338326,12.7784629 C28.2244717,12.4855777 28.6380821,12.3368891 29.1628721,12.3368891 C29.3130207,12.3368891 29.4455378,12.3472209 29.5573911,12.3677723 C29.6677846,12.3876498 29.7516746,12.4068536 29.8444366,12.4354907 C29.864988,12.4435765 29.9202408,12.4715399 29.8974434,12.5370123 L29.6758704,13.1464785 C29.6567789,13.1920733 29.6442011,13.2200367 29.5499792,13.1906134 C29.5265079,13.1839875 29.4911326,13.173768 29.4014028,13.1545642 C29.3358181,13.1413125 29.2504682,13.1309807 29.1628721,13.1309807 C29.0480989,13.1309807 28.9435452,13.1456923 28.8515694,13.1751156 C28.7617273,13.2046512 28.6792972,13.255412 28.6086588,13.3268364 C28.5357745,13.3997208 28.4504245,13.504836 28.4048296,13.6366793 C28.2981422,13.94349 28.256141,14.2702905 28.2517612,14.2909542 L29.1798298,14.2909542 C29.257094,14.2909542 29.2813514,14.3270033 29.2740517,14.3843899 L29.165792,14.9879041 Z M24.0956668,18.9117567 C23.5915405,18.9117567 23.1087516,18.8329203 22.5979995,18.5621587 C22.5015315,18.5069058 22.4066358,18.457605 22.312414,18.3892127 C22.3020821,18.3751749 22.2594071,18.3583295 22.2910765,18.2757871 L22.4942319,17.713488 C22.5236551,17.6215122 22.610465,17.6554276 22.6288827,17.667107 C22.6833494,17.7024824 22.7260244,17.7311195 22.7981227,17.7739068 C23.3957971,18.1514681 23.9477643,18.154388 24.1214964,18.154388 C24.5682361,18.154388 24.8457359,17.9173172 24.8457359,17.5995009 L24.8457359,17.5817571 C24.8457359,17.2344051 24.4188737,17.103348 23.9242931,16.9517395 L23.8153596,16.9179364 C23.1375011,16.7243268 22.4124756,16.4453671 22.4124756,15.5879368 L22.4124756,15.5710914 C22.4124756,14.7570099 23.0689965,14.1888711 24.009643,14.1888711 L24.1119507,14.188085 C24.6645918,14.188085 25.1974676,14.3485654 25.5839008,14.5833901 C25.6192761,14.6047276 25.6530792,14.6451566 25.6339878,14.6988372 C25.6155701,14.7489242 25.4447579,15.2089156 25.4248803,15.2612486 C25.3888312,15.3576042 25.2887696,15.2935917 25.2887696,15.2935917 C24.9509634,15.1066079 24.4261734,14.9594915 23.9838135,14.9594915 C23.5857008,14.9594915 23.3288647,15.1706204 23.3288647,15.4576658 L23.3288647,15.4746235 C23.3288647,15.810296 23.7681925,15.9530326 24.2774847,16.1186789 L24.3658669,16.1466422 C25.0406932,16.3600172 25.7612266,16.6559345 25.7612266,17.4692299 L25.7612266,17.4860753 C25.7612266,18.3656292 25.1231233,18.9117567 24.0956668,18.9117567 L24.0956668,18.9117567 Z M21.683744,16.7197224 C21.6756583,16.7947405 21.5990679,16.7955266 21.5990679,16.7955266 L18.6970566,16.7933929 C18.7146881,17.2341805 18.8207017,17.5462694 19.0348628,17.7581844 C19.2439702,17.9665058 19.5780704,18.0990228 20.02773,18.0996966 C20.7165941,18.1011566 21.0110515,17.9627998 21.2193728,17.8855356 C21.2193728,17.8855356 21.2995569,17.8567861 21.328194,17.9355102 L21.5188838,18.4670384 C21.5563929,18.5567682 21.5261835,18.5876514 21.4938404,18.606069 C21.3120225,18.7069167 20.8704487,18.8937883 20.0322221,18.8960343 C19.6251252,18.8974942 19.2703613,18.8386477 18.9782623,18.7260082 C18.684591,18.6119088 18.4394344,18.4500807 18.2480708,18.2425455 C18.0574933,18.0356841 17.9162167,17.7876077 17.8278345,17.5042683 C17.7402385,17.2246348 17.6961036,16.9125459 17.6961036,16.5776596 C17.6961036,16.2487253 17.7387786,15.9374225 17.8234547,15.651837 C17.9081309,15.3640055 18.0405356,15.1108754 18.2165138,14.8981743 C18.3930535,14.6846871 18.6175463,14.513201 18.8847142,14.3880959 C19.1518821,14.2629908 19.4809287,14.2018982 19.8437784,14.2018982 C20.154295,14.2018982 20.4377468,14.2688306 20.6747052,14.3704644 C20.8565231,14.4484024 21.0390149,14.5890053 21.2259987,14.7907007 C21.3436918,14.9172657 21.5240498,15.1947655 21.5969341,15.4700191 C21.7831318,16.1236202 21.6866639,16.6888391 21.683744,16.7197224 L21.683744,16.7197224 Z M16.8771931,18.7129811 C16.8771931,18.7616081 16.8426039,18.8013632 16.7939768,18.8013632 L16.0241426,18.8013632 C15.9756278,18.8013632 15.9410386,18.7616081 15.9410386,18.7129811 L15.9410386,12.5181454 C15.9410386,12.4695184 15.9756278,12.4305494 16.0241426,12.4305494 L16.7939768,12.4305494 C16.8426039,12.4305494 16.8771931,12.4695184 16.8771931,12.5181454 L16.8771931,18.7129811 Z M14.9285185,18.6292034 C14.9285185,18.6292034 14.821831,18.6586266 14.7253631,18.6807502 C14.6282213,18.7035477 14.2794095,18.774186 13.9944978,18.822813 C13.7067786,18.8713277 13.4108612,18.8963712 13.1128101,18.8963712 C12.8301445,18.8963712 12.5718485,18.8698678 12.3436497,18.8176471 C12.1133171,18.7654264 11.9138677,18.6792903 11.7527134,18.5614849 C11.589987,18.4437918 11.4627481,18.2907233 11.374366,18.1074455 C11.28531,17.9248415 11.2411751,17.7019208 11.2411751,17.4442987 C11.2411751,17.1925163 11.2933958,16.9673496 11.3964896,16.775986 C11.4994711,16.5846223 11.6408601,16.4234681 11.817512,16.2969031 C11.9925918,16.171798 12.1965333,16.0775761 12.4231599,16.0164835 C12.6491127,15.9553909 12.8897772,15.9245077 13.1385274,15.9245077 C13.3211314,15.9245077 13.4734138,15.9288875 13.5912192,15.9376471 C13.5912192,15.9376471 13.820878,15.9583108 14.0696282,15.9943599 L14.0696282,15.8715009 C14.0696282,15.4843938 13.9893319,15.3017898 13.8310975,15.1796046 C13.6684834,15.0559594 13.4270328,14.991947 13.1135963,14.991947 C13.1135963,14.991947 12.4069883,14.9830751 11.8490691,15.2864044 C11.8233518,15.3017898 11.8012282,15.3106617 11.8012282,15.3106617 C11.8012282,15.3106617 11.7313759,15.3349191 11.7055463,15.2636069 L11.5002572,14.7115274 C11.469374,14.6313433 11.5267606,14.595968 11.5267606,14.595968 C11.7873026,14.3913527 12.4210262,14.2684937 12.4210262,14.2684937 C12.6314812,14.2264925 12.9810792,14.1970692 13.1989462,14.1970692 C13.7788768,14.1970692 14.2278626,14.3318323 14.5325395,14.5982141 C14.8380026,14.8660558 14.9933171,15.29741 14.9933171,15.8802605 L14.994777,18.5343077 C14.994777,18.5343077 15.0006167,18.6107857 14.9285185,18.6292034 L14.9285185,18.6292034 Z M10.723011,17.4860753 C10.723011,18.3656292 10.0849076,18.9117567 9.0574512,18.9117567 C8.55332486,18.9117567 8.07053601,18.8329203 7.55978382,18.5621587 C7.46331589,18.5069058 7.3684202,18.457605 7.27419832,18.3892127 C7.26386648,18.3751749 7.2211915,18.3583295 7.25286083,18.2757871 L7.4552301,17.713488 C7.48757325,17.6171324 7.56124375,17.6486894 7.59066703,17.667107 C7.64659372,17.7010224 7.68780877,17.7311195 7.75990704,17.7739068 C8.35679532,18.1514681 8.90954868,18.154388 9.0832808,18.154388 C9.52923439,18.154388 9.8067341,17.9173172 9.8067341,17.5995009 L9.8067341,17.5817571 C9.8067341,17.2344051 9.38054576,17.103348 8.88596514,16.9517395 L8.77703162,16.9179364 C8.09849936,16.7243268 7.37425993,16.4453671 7.37425993,15.5879368 L7.37425993,15.5710914 C7.37425993,14.7570099 8.03078089,14.1888711 8.97142741,14.1888711 L9.07373508,14.188085 C9.62570232,14.188085 10.1592519,14.3485654 10.5456852,14.5833901 C10.5809482,14.6047276 10.6148636,14.6451566 10.5957721,14.6988372 C10.5773545,14.7489242 10.4065422,15.2089156 10.3866647,15.2612486 C10.3506156,15.3576042 10.2505539,15.2935917 10.2505539,15.2935917 C9.91274775,15.1066079 9.38795773,14.9594915 8.94559782,14.9594915 C8.54748512,14.9594915 8.29053679,15.1706204 8.29053679,15.4576658 L8.29053679,15.4746235 C8.29053679,15.810296 8.72997684,15.9530326 9.2392691,16.1186789 L9.32765124,16.1466422 C10.0024775,16.3600172 10.723011,16.6559345 10.723011,17.4692299 L10.723011,17.4860753 Z M39.2813358,4.84697992 C37.7269556,4.84697992 36.2498396,5.17883408 34.9147864,5.77504855 C33.3787115,3.03868356 30.4951178,1.19568571 27.1890418,1.19568571 C24.7021008,1.19568571 22.4536906,2.23931371 20.8388916,3.92183116 C19.0614785,1.5982905 16.258855,0.0990508871 13.1050613,0.0990508871 C7.73385284,0.0990508871 3.37898288,4.44808111 3.37898288,9.81198986 C3.37898288,11.1853383 3.66445607,12.4909682 4.17891425,13.6751991 C1.68029386,15.1353574 2.24605185e-05,17.8644227 2.24605185e-05,20.9909269 C2.24605185e-05,25.6549659 3.74183256,29.435745 8.35791835,29.435745 C8.94672084,29.435745 9.52148551,29.3738663 10.0756988,29.2568469 C11.3438197,32.6976861 14.6484358,35.1507116 18.5256828,35.1507116 C22.2482892,35.1507116 25.443298,32.8890497 26.8137265,29.6638315 C27.8573545,30.1732361 29.0282213,30.4587093 30.2662451,30.4587093 C33.2248569,30.4587093 35.8023137,28.8285249 37.1543247,26.4167144 C37.842515,26.5550712 38.5535027,26.6286294 39.2813358,26.6286294 C45.243705,26.6286294 50.0776579,21.7526754 50.0776579,15.7374116 C50.0776579,9.72293391 45.243705,4.84697992 39.2813358,4.84697992 L39.2813358,4.84697992 Z" id="Fill-1" fill="#009CDB" mask="url(#mask-2)"></path>
                    </g>
                    <path d="M43.020664,14.983513 C42.6393967,14.983513 42.3685228,15.1336616 42.191197,15.4052093 C42.0733916,15.5841073 41.9975874,15.8136538 41.9563723,16.0896936 L44.0267829,16.0904797 C44.0061192,15.8233118 43.9538985,15.5847811 43.8339594,15.4052093 C43.6529276,15.1336616 43.4019313,14.983513 43.020664,14.983513 M19.7745887,14.983513 C19.3933214,14.983513 19.1232337,15.1336616 18.9443357,15.4052093 C18.8273164,15.5841073 18.7515121,15.8136538 18.7102971,16.0896936 L20.7807077,16.0904797 C20.760044,15.8233118 20.7078233,15.5847811 20.5885579,15.4052093 C20.4075261,15.1336616 20.155856,14.983513 19.7745887,14.983513 M31.4474326,15.002043 C31.0661653,15.002043 30.7946176,15.1337739 30.6157196,15.4046478 C30.4361477,15.6784415 30.3448457,16.0699283 30.3448457,16.5659689 C30.3448457,17.0627956 30.4361477,17.4550685 30.6165057,17.7318944 C30.7946176,18.0056881 31.0661653,18.1395528 31.4474326,18.1395528 C31.8279137,18.1395528 32.1009213,18.0056881 32.2820654,17.7318944 C32.4645571,17.4550685 32.5573191,17.0627956 32.5573191,16.5659689 C32.5573191,16.0699283 32.4645571,15.6784415 32.2820654,15.4046478 C32.1009213,15.1337739 31.8279137,15.002043 31.4474326,15.002043 M13.282825,16.6692873 C13.6986815,16.6744532 14.0710769,16.7362196 14.0710769,16.7362196 L14.0710769,18.0558874 C14.0710769,18.0558874 13.7023875,18.1346115 13.2872048,18.159655 C12.6969424,18.1957041 12.4342666,17.9896289 12.4364004,17.990415 C12.322301,17.8998991 12.3069155,17.8769894 12.2694064,17.8181428 C12.2112337,17.7290868 12.1818104,17.6025218 12.1818104,17.4405815 C12.1818104,17.1859915 12.2663743,17.0019275 12.4408925,16.8790685 C12.4394326,16.8790685 12.6911027,16.6612015 13.282825,16.6692873" id="Fill-4" fill="#009CDB"></path>
                </g>
            </g>
        </g>
    </g>
</svg>
