<svg width="36px" height="36px" viewBox="0 0 36 36" version="1.1" xmlns="http://www.w3.org/2000/svg" xmlns:xlink="http://www.w3.org/1999/xlink">
    <g id="Final" stroke="none" stroke-width="1" fill="none" fill-rule="evenodd">
        <g id="Desktop-01-a-rest" transform="translate(-649.000000, -2083.000000)" fill="#52CC52">
            <g id="aircall-logo" transform="translate(649.000000, 2083.000000)">
                <g id="Homepage">
                    <g id="Navbar">
                        <g id="Icon">
                            <path d="M26.7402995,23.0220962 C26.7148877,23.3788235 26.4484492,23.6208128 26.2314866,23.8768556 C25.9092192,24.3202139 25.5112942,24.7225668 25.1216471,25.1060534 C24.7797433,25.4427594 24.4064599,25.734032 23.9817754,25.9604278 C22.9801284,26.4946524 21.8246632,26.6428877 20.7055829,26.5185241 C19.1063743,26.3406418 17.560877,25.6714652 16.2098182,24.8219038 C15.1679358,24.1669733 14.1786096,23.3832514 13.3167272,22.5040428 C11.8717219,21.1468235 10.6138396,19.4731123 9.8537968,17.634032 C9.17672728,15.9957433 8.84791444,14.0931337 9.60660962,12.4215401 C10.086738,11.3634866 10.9967487,10.561861 11.9109947,9.87709091 C12.1254546,9.70344385 12.3233582,9.49841711 12.594032,9.41563637 C12.801369,9.35210695 13.0169839,9.37520856 13.2158503,9.45606418 C13.6778824,9.64414973 14.0642567,10.0574759 14.3589947,10.4477005 C14.6679786,10.8567914 14.8934118,11.3180535 15.099401,11.7854759 C15.307893,12.2584813 15.5439144,12.7411123 15.5477647,13.2689839 C15.5508449,13.6790375 15.3912514,13.9870589 15.1101818,14.2729411 C14.8216043,14.566139 14.5212834,14.8445134 14.2692834,15.171401 C13.6840428,15.9306738 13.362738,16.8816899 13.3392514,17.8386738 C13.3094118,19.0565134 13.8199572,20.309968 14.6697113,21.1808984 C16.1031658,22.5169411 18.4443209,22.925262 20.2025454,22.0092834 C20.6045134,21.7998289 20.9539252,21.5116363 21.2696471,21.1889839 C21.5010481,20.95277 21.7114652,20.6688128 21.9850267,20.4786096 C22.7672086,19.9351444 23.8479786,20.4942032 24.5866524,20.8478503 C25.092,21.0898396 25.5744385,21.3809198 25.9906524,21.7584385 C26.3348663,22.0706952 26.7778396,22.5134759 26.7402995,23.0220962 C26.7352942,23.0919786 26.7416471,23.0049625 26.7402995,23.0220962" id="Fill-1"></path>
                            <path d="M17.956877,35.8363637 C8.10519786,35.8363637 0.0899037433,27.8210695 0.0899037433,17.9693904 C0.0899037433,8.11751872 8.10519786,0.102224599 17.956877,0.102224599 C27.8087486,0.102224599 35.8240428,8.11751872 35.8240428,17.9693904 C35.8240428,27.8210695 27.8087486,35.8363637 17.956877,35.8363637 L17.956877,35.8363637 L17.956877,35.8363637 Z M17.956877,2.12072728 C9.21811765,2.12072728 2.1082139,9.23063101 2.1082139,17.9693904 C2.1082139,26.7079572 9.21811765,33.817861 17.956877,33.817861 C26.6956363,33.817861 33.8055401,26.7079572 33.8055401,17.9693904 C33.8055401,9.23063101 26.6956363,2.12072728 17.956877,2.12072728 L17.956877,2.12072728 L17.956877,2.12072728 Z" id="Fill-2"></path>
                        </g>
                    </g>
                </g>
            </g>
        </g>
    </g>
</svg>
