<svg width="36px" height="36px" viewBox="0 0 36 36" version="1.1" xmlns="http://www.w3.org/2000/svg" xmlns:xlink="http://www.w3.org/1999/xlink">
    <g id="Integrations-Page" stroke="none" stroke-width="1" fill="none" fill-rule="evenodd">
        <g id="Desktop-01-a-rest" transform="translate(-648.000000, -1266.000000)" fill="#181616">
            <g id="Group-4" transform="translate(625.000000, 1242.000000)">
                <g id="github-logo" transform="translate(23.000000, 24.000000)">
                    <path d="M17.7692727,0 C7.95654545,0 0.000545454545,8.204625 0.000545454545,18.32625 C0.000545454545,26.422875 5.09181818,33.291 12.1532727,35.715375 C13.0423636,35.883 13.3663636,35.317125 13.3663636,34.831125 C13.3663636,34.396875 13.3510909,33.24375 13.3423636,31.714875 C8.39945455,32.821875 7.35654545,29.257875 7.35654545,29.257875 C6.54818182,27.14175 5.38309091,26.577 5.38309091,26.577 C3.76963636,25.44075 5.50527273,25.46325 5.50527273,25.46325 C7.28890909,25.592625 8.22709091,27.352125 8.22709091,27.352125 C9.81218182,30.15225 12.3867273,29.343375 13.3990909,28.875375 C13.5605455,27.69075 14.0187273,26.883 14.5270909,26.425125 C10.5812727,25.96275 6.43254545,24.39 6.43254545,17.36775 C6.43254545,15.3675 7.12527273,13.73175 8.262,12.450375 C8.07872727,11.986875 7.46890909,10.123875 8.43545455,7.6005 C8.43545455,7.6005 9.92781818,7.10775 13.3227273,9.47925 C14.7398182,9.072 16.2605455,8.8695 17.7714545,8.86275 C19.2801818,8.8695 20.8009091,9.072 22.2201818,9.47925 C25.6129091,7.10775 27.102,7.6005 27.102,7.6005 C28.0718182,10.123875 27.462,11.986875 27.2787273,12.450375 C28.4176364,13.73175 29.106,15.3675 29.106,17.36775 C29.106,24.408 24.9507273,25.957125 20.9918182,26.4105 C21.63,26.976375 22.1983636,28.094625 22.1983636,29.804625 C22.1983636,32.25375 22.1765455,34.230375 22.1765455,34.831125 C22.1765455,35.321625 22.4961818,35.892 23.3983636,35.713125 C30.4543636,33.28425 35.5412727,26.420625 35.5412727,18.32625 C35.5412727,8.204625 27.5841818,0 17.7692727,0" id="Fill-1"></path>
                </g>
            </g>
        </g>
    </g>
</svg>
