<svg width="36px" height="36px" viewBox="0 0 36 36" version="1.1" xmlns="http://www.w3.org/2000/svg" xmlns:xlink="http://www.w3.org/1999/xlink">
    <g id="Integrations-Page" stroke="none" stroke-width="1" fill="none" fill-rule="evenodd">
        <g id="Desktop-01-a-rest" transform="translate(-650.000000, -712.000000)">
            <g id="Group-5" transform="translate(625.000000, 688.000000)">
                <g id="slack-logo" transform="translate(25.000000, 24.000000)">
                    <path d="M23.2435102,2.27311347 C22.6986612,0.596248163 20.8974857,-0.321531429 19.2203265,0.223317551 C17.5434612,0.768166531 16.6256816,2.56934204 17.1705306,4.24620735 L25.4264327,29.6466318 C25.9930286,31.2135869 27.6854694,32.0937502 29.3100245,31.626191 C31.0045224,31.1383543 32.0377959,29.3386482 31.4967673,27.6744196 C31.4761959,27.6112359 23.2435102,2.27311347 23.2435102,2.27311347" id="Fill-1" fill="#E9A823"></path>
                    <path d="M10.4513143,6.42954122 C9.90646531,4.75267592 8.1052898,3.83489633 6.42813061,4.37974531 C4.75126531,4.92459429 3.83348571,6.7257698 4.37833469,8.4026351 L12.6342367,33.8030596 C13.2008327,35.3700147 14.8932735,36.250178 16.5178286,35.7826188 C18.2123265,35.294782 19.2456,33.4950759 18.7045714,31.8308473 C18.684,31.7676637 10.4513143,6.42954122 10.4513143,6.42954122" id="Fill-3" fill="#3FB991"></path>
                    <path d="M33.6349029,23.3097208 C35.3117682,22.7648718 36.2295478,20.9636963 35.6846988,19.2865371 C35.1398498,17.6096718 33.3386743,16.6918922 31.661809,17.2367412 L6.26138449,25.4926433 C4.69442939,26.0592392 3.81426612,27.75168 4.28182531,29.3762351 C4.76966204,31.0707331 6.56936816,32.1040065 8.23359673,31.562978 C8.29678041,31.5424065 33.6349029,23.3097208 33.6349029,23.3097208" id="Fill-5" fill="#E11765"></path>
                    <path d="M11.5552947,30.4838302 C13.2086498,29.946622 15.3395559,29.2542465 17.6262171,28.5113241 C17.089009,26.857969 16.3963396,24.726769 15.6534171,22.4398139 L9.58220082,24.4132016 L11.5552947,30.4838302 Z" id="Fill-7" fill="#472A49"></path>
                    <path d="M24.3474906,26.3274024 C26.6426743,25.5815412 28.7759314,24.888578 30.4184131,24.3548963 C29.880911,22.7012473 29.1885355,20.5697535 28.4453192,18.2822106 L22.3741029,20.2555984 L24.3474906,26.3274024 Z" id="Fill-9" fill="#CD1F27"></path>
                    <path d="M29.4784751,10.5175543 C31.1553404,9.97270531 32.07312,8.1715298 31.528271,6.49437061 C30.983422,4.81750531 29.1822465,3.89972571 27.5053812,4.44457469 L2.10495673,12.7004767 C0.538001633,13.2670727 -0.342161633,14.9595135 0.125397551,16.5840686 C0.613234286,18.2785665 2.41294041,19.31184 4.07716898,18.7708114 C4.14035265,18.75024 29.4784751,10.5175543 29.4784751,10.5175543" id="Fill-11" fill="#71CBDC"></path>
                    <path d="M7.39763265,17.6920457 C9.05098776,17.1548376 11.1824816,16.4621682 13.4697306,15.7192457 C12.7238694,13.4237682 12.0306122,11.290511 11.4969306,9.64773551 L5.42453878,11.6214171 L7.39763265,17.6920457 Z" id="Fill-13" fill="#1D947E"></path>
                    <path d="M20.1897992,13.535618 C22.4855706,12.7897567 24.6191216,12.0964996 26.2618971,11.562818 C25.5160359,9.26675265 24.8224849,7.13290776 24.2888033,5.49013224 L18.2164114,7.46381388 L20.1897992,13.535618 Z" id="Fill-15" fill="#66873A"></path>
                </g>
            </g>
        </g>
    </g>
</svg>
