<?xml version="1.0" encoding="UTF-8"?>
<svg width="100px" height="19px" viewBox="0 0 100 19" version="1.1" xmlns="http://www.w3.org/2000/svg" xmlns:xlink="http://www.w3.org/1999/xlink">
  <g id="Respond" stroke="none" stroke-width="1" fill="none" fill-rule="evenodd">
    <g id="Respond-features-LP_05" transform="translate(-309.000000, -3588.000000)" fill-rule="nonzero" fill="#000000">
      <g id="Group-16" transform="translate(288.000000, 3556.000000)">
        <g id="zendesk-wordmark-r" transform="translate(21.000000, 32.000000)">
          <path d="M65.9571429,16.3541322 C67.2705177,16.3808589 68.5412635,15.8925851 69.4920635,14.9958678 L71.2380952,16.8660331 C70.0793651,18.0421488 68.4761905,18.9183471 65.9809524,18.9183471 C61.7031746,18.9183471 58.9412698,16.1138843 58.9412698,12.312314 C58.9412698,8.54371901 61.852381,5.70628099 65.5936508,5.70628099 C69.8412698,5.70628099 72.2460317,8.90330579 72.0396825,13.337686 L62.0079365,13.337686 C62.3634921,15.1780165 63.6714286,16.3541322 65.9571429,16.3541322 L65.9571429,16.3541322 Z M69.015873,11.2257025 C68.7492063,9.50628099 67.7095238,8.2422314 65.6301587,8.2422314 C63.7,8.2422314 62.3634921,9.32727273 62.0063492,11.2257025 L69.015873,11.2257025 Z" id="Shape"></path>
          <polygon id="Shape" points="0.0428571429 16.2159504 7.76825397 8.45107438 0.223809524 8.45107438 0.223809524 6.01561983 11.3492063 6.01561983 11.3492063 8.50132231 3.62222222 16.2661983 11.452381 16.2661983 11.452381 18.7016529 0.0428571429 18.7016529"></polygon>
          <path d="M20.1269841,16.3541322 C21.4403589,16.3808589 22.7111048,15.8925851 23.6619048,14.9958678 L25.4079365,16.8660331 C24.2492063,18.0421488 22.6460317,18.9183471 20.1507937,18.9183471 C15.8730159,18.9183471 13.1111111,16.1138843 13.1111111,12.312314 C13.1111111,8.54371901 16.0222222,5.70628099 19.7634921,5.70628099 C24.0111111,5.70628099 26.415873,8.90330579 26.2095238,13.337686 L16.1777778,13.337686 C16.5333333,15.1780165 17.8412698,16.3541322 20.1269841,16.3541322 L20.1269841,16.3541322 Z M23.1857143,11.2272727 C22.9190476,9.50785124 21.8793651,8.24380165 19.8,8.24380165 C17.8698413,8.24380165 16.5333333,9.32884298 16.1761905,11.2272727 L23.1857143,11.2272727 L23.1857143,11.2272727 Z" id="Shape"></path>
          <path d="M42.8984127,12.3201653 C42.8984127,8.25950413 45.9634921,5.72512397 49.3365079,5.72512397 C51.0365079,5.72512397 52.6603175,6.46157025 53.6126984,7.62983471 L53.6126984,0.139752066 L56.3492063,0.139752066 L56.3492063,18.6686777 L53.6126984,18.6686777 L53.6126984,16.9131405 C52.6349206,18.1567769 51.0111111,18.9183471 49.3111111,18.9183471 C46.0412698,18.9183471 42.8984127,16.3557025 42.8984127,12.3233058 M53.768254,12.2981818 C53.768254,10.0401653 52.0428571,8.18727273 49.6984127,8.18727273 C47.4063492,8.18727273 45.6285714,9.98834711 45.6285714,12.2981818 C45.6285714,14.6080165 47.4047619,16.4342149 49.6984127,16.4342149 C52.0428571,16.4342149 53.768254,14.5813223 53.768254,12.2981818" id="Shape"></path>
          <path d="M73.8222222,15.9741322 L76.2936508,14.7053719 C76.9603704,15.8796805 78.2294717,16.5923405 79.5904762,16.5566942 C81.1365079,16.5566942 81.9349206,15.7715702 81.9349206,14.8828099 C81.9349206,13.8684298 80.4412698,13.6391736 78.8190476,13.312562 C76.6285714,12.8556198 74.3634921,12.1442975 74.3634921,9.53140496 C74.3634921,7.52619835 76.2952381,5.67330579 79.3349206,5.7 C81.7301587,5.7 83.5079365,6.64214876 84.5126984,8.16057851 L82.2222222,9.40107438 C81.6301587,8.51231405 80.6253968,7.95487603 79.3380952,7.95487603 C77.8698413,7.95487603 77.115873,8.66619835 77.115873,9.47801653 C77.115873,10.3919008 78.3,10.6447107 80.1555556,11.0482645 C82.2666667,11.5052066 84.6619048,12.1898347 84.6619048,14.8294215 C84.6619048,16.5802479 83.1174603,18.9403306 79.4587302,18.9120661 C76.7809524,18.9120661 74.9,17.8458678 73.8190476,15.9678512" id="Shape"></path>
          <polygon id="Shape" points="92.0809524 13.0299174 89.915873 15.364876 89.915873 18.6639669 87.1873016 18.6639669 87.1873016 0.139752066 89.915873 0.139752066 89.915873 12.2683471 95.7111111 5.97479339 99.0349206 5.97479339 94.0111111 11.406281 99.1634921 18.6639669 96.0730159 18.6639669"></polygon>
          <path d="M34.647619,5.71884298 C31.4015873,5.71884298 28.684127,7.79942149 28.684127,11.2508264 L28.684127,18.6623967 L31.4666667,18.6623967 L31.4666667,11.596281 C31.4666667,9.51570248 32.6761905,8.27049587 34.7365079,8.27049587 C36.7968254,8.27049587 37.8285714,9.51570248 37.8285714,11.596281 L37.8285714,18.6623967 L40.6111111,18.6623967 L40.6111111,11.2508264 C40.6111111,7.79628099 37.8936508,5.71884298 34.647619,5.71884298" id="Shape"></path>
          <path d="M98.2634921,4.33231405 C98.6511752,3.94976438 99.2788591,3.95028763 99.66589,4.33348311 C100.052921,4.71667859 100.052921,5.33761893 99.66589,5.72081441 C99.2788591,6.10400989 98.6511752,6.10453314 98.2634921,5.72198347 C98.0769014,5.53786353 97.9720361,5.28786343 97.9720361,5.02714876 C97.9720361,4.7664341 98.0769014,4.51643399 98.2634921,4.33231405 L98.2634921,4.33231405 Z M99.4952381,5.55082645 C99.7803181,5.25717014 99.7725704,4.79100472 99.477886,4.50677816 C99.1832016,4.22255161 98.7119283,4.2266957 98.4223979,4.51605948 C98.1328675,4.80542326 98.1334978,5.27165127 98.4238095,5.56024793 C98.5668839,5.70006322 98.7604012,5.77768156 98.961504,5.77591319 C99.1626067,5.77414481 99.3546987,5.69313566 99.4952381,5.55082645 L99.4952381,5.55082645 Z M99.047619,4.39669421 L99.347619,4.69347107 C99.5349206,4.87876033 99.531746,5.10173554 99.4063492,5.22578512 C99.312081,5.33025741 99.1592809,5.36036099 99.031746,5.29958678 L98.9412698,5.67801653 L98.7428571,5.48173554 L98.8888889,4.95884298 L98.9698413,5.03892562 C98.9973599,5.07609246 99.0399895,5.09942915 99.0864386,5.10275449 C99.1328877,5.10607982 99.1784697,5.08905827 99.2111111,5.05619835 C99.2396525,5.02253791 99.2526337,4.9785882 99.2469024,4.93502122 C99.2411712,4.89145423 99.2172518,4.85225506 99.1809524,4.82694215 L99.0777778,4.7107438 L98.5238095,5.25876033 L98.347619,5.08446281 L99.047619,4.39669421 Z" id="Shape"></path>
        </g>
      </g>
    </g>
  </g>
</svg>
