<svg width="53px" height="40px" viewBox="10 0 53 59" version="1.1" xmlns="http://www.w3.org/2000/svg" xmlns:xlink="http://www.w3.org/1999/xlink">
  <g id="Page-1" stroke="none" stroke-width="1" fill="none" fill-rule="evenodd">
    <g id="Smartlook-icon" fill-rule="nonzero" fill="#43BBEA">
      <path d="M50.7,17.4 C45.7,3.5 29.8,-3.5 16.1,2.7 C4.4,7.8 -1.8,21.1 1.9,33.4 C4,40.7 9,46.2 15.2,49.2 C14.2,50.8 12.4,53.8 10.6,57.6 C10.3,58.2 10.9,58.8 11.5,58.7 C16.6,57.3 31.8,51.6 35.3,50.3 C48.7,45.5 55.6,30.8 50.7,17.4 Z M36.9,35.2 C36.9,35.8 36.7,36.6 36.4,37.2 C36.1,37.7 35.7,38 35.2,38.2 C34,38.7 32.6,38.8 31.3,38.4 C30.3,38.1 29.2,37.7 28.3,37.2 C26.5,36.3 24.9,35.2 23.4,33.9 C21.8,32.6 20.4,31.1 19.1,29.5 C17.2,27.2 16.2,24.2 15.6,21.3 C15.3,19.7 15,18.3 15.5,16.7 C15.7,16.2 15.9,15.6 16.2,15.1 C16.9,14 18.1,13.4 19.4,13.4 C20.5,13.4 22.7,13.9 22.9,15.3 C23,16.8 23.6,18.3 23.3,19.8 C23.2,20.6 22.8,21.1 22.2,21.6 C21.4,22.3 21.1,22.8 21.1,23.9 C21.1,24.9 21.6,25.8 22.1,26.5 C23.3,28.3 25,30.7 27.1,31.4 C27.8,31.6 28.4,31.4 29,31.1 C29.5,30.9 29.9,30.8 30.4,30.6 C30.7,30.5 31.1,30.4 31.4,30.5 C31.7,30.5 32.1,30.6 32.4,30.7 C33.5,31 34.5,31.3 35.5,31.8 C35.9,32 36.2,32.5 36.3,32.9 C36.8,33.6 37,34.4 36.9,35.2 Z" id="Shape"></path>
    </g>
  </g>
</svg>
