<svg version="1.1" id="Capa_1" xmlns="http://www.w3.org/2000/svg" xmlns:xlink="http://www.w3.org/1999/xlink" x="0px" y="0px"
	 width="36px" viewBox="0 0 32 32" style="enable-background:new 0 0 32 32;" xml:space="preserve">
<g>
	<g>
		<circle cx="17.337" cy="17.921" r="0.942"/>
		<circle cx="24.059" cy="18.021" r="0.943"/>
		<path d="M22.398,22.803c0.095-0.052,0.127-0.169,0.074-0.262c-0.051-0.094-0.168-0.126-0.262-0.075
			c-0.006,0.003-0.635,0.347-1.445,0.347c-0.813,0-1.588-0.35-1.596-0.354c-0.097-0.044-0.21-0.001-0.255,0.095
			c-0.044,0.097-0.002,0.212,0.095,0.255c0.034,0.019,0.854,0.391,1.756,0.391C21.678,23.194,22.371,22.817,22.398,22.803z"/>
		<path d="M31.848,16.932c0.515-2.952,0.192-12.83-10.069-14.017C11.515,1.728,9.687,9.683,9.687,9.683S2.565,6.411,0,11.542
			c2.951-0.706,4.587,0.096,4.587,0.096s-4.298,4.234-2.406,9.333c1.059-6.734,6.832-9.687,6.832-9.687s0.589,5.228,0.353,5.966
			c-0.236,0.737,0.225,1.54-0.128,1.797c-0.354,0.257-5.004,7.854,3.688,10.007c-3.495-3.527-1.956-6.316-1.956-6.316
			s0.866,5.578,5.517,5.578c-2.35-2.488-2.689-6.478-2.615-9.108h4.901v-2.231h2.234c0,0,0.006,1.541-0.016,2.136
			c-0.016,0.37-0.311,0.638-0.482,0.761c-0.145,0.104-0.295,0.171-0.434,0.216c-0.048-0.181-0.229-0.317-0.455-0.317
			c-0.266,0-0.479,0.182-0.479,0.403c0,0.203,0.181,0.364,0.41,0.394v0.003c0.008,0.003,0.021,0.003,0.028,0.005
			c0.015,0,0.022,0.007,0.038,0.007c0.001,0,0.001-0.001,0.003-0.001c0.056,0.01,0.104,0.021,0.166,0.021
			c0.297,0,0.664-0.13,0.981-0.354c0.422-0.3,0.662-0.695,0.678-1.116c0.021-0.598,0.012-1.531,0.005-2.009c0.005,0,0.007,0,0.011,0
			v-0.597c-0.572-0.008-1.414-0.018-2.708-0.019v0.001h-4.534l6.489-2.048l7.64-2.081c0,0,0.545,2.589,0.447,6.095
			c-0.096,3.504-3.455,7.996-8.914,8.209c1.059,1.699,5.482-0.576,5.482-0.576s0.225,1.636-2.404,1.987
			c1.637,0.771,4.01-0.673,4.01-0.673s-0.348,1.63-1.494,1.703C34.536,30.216,31.346,19.827,31.848,16.932z M16.077,16.767h2.437
			v2.176h-2.437V16.767z M13.407,17.958c-0.271,0-0.489-0.223-0.489-0.489c0-0.271,0.219-0.489,0.489-0.489s0.489,0.221,0.489,0.489
			C13.896,17.735,13.677,17.958,13.407,17.958z"/>
	</g>
</g>
</svg>
