<svg
   xmlns:dc="http://purl.org/dc/elements/1.1/"
   xmlns:cc="http://creativecommons.org/ns#"
   xmlns:rdf="http://www.w3.org/1999/02/22-rdf-syntax-ns#"
   xmlns:svg="http://www.w3.org/2000/svg"
   xmlns="http://www.w3.org/2000/svg"
   viewBox="0 0 571.25 191.25"
   width="107"
   xml:space="preserve"
   version="1.1"
   id="svg2"><metadata
     id="metadata8"><rdf:RDF><cc:Work
         rdf:about=""><dc:format>image/svg+xml</dc:format><dc:type
           rdf:resource="http://purl.org/dc/dcmitype/StillImage" /></cc:Work></rdf:RDF></metadata><defs
     id="defs6"><clipPath
       id="clipPath18"
       clipPathUnits="userSpaceOnUse"><path
         style="clip-rule:evenodd"
         id="path20"
         d="m 90.872,146.365 c 0.291,0.433 0.438,0.963 0.382,1.521 -0.13,1.287 -1.299,2.23 -2.612,2.102 -0.462,-0.044 -0.881,-0.215 -1.222,-0.473 L 56.13,127.569 c -0.336,-0.244 -0.74,-0.405 -1.186,-0.449 -1.052,-0.101 -2.014,0.484 -2.42,1.384 l -2.738,6.668 c -1.866,4.831 -6.854,8.033 -12.343,7.503 -3.83,-0.372 -7.058,-2.48 -8.956,-5.449 L 1.313,94.458 C 1.077,94.05 0.961,93.569 1.012,93.066 c 0.129,-1.289 1.299,-2.231 2.612,-2.104 0.45,0.044 0.859,0.207 1.195,0.455 l 30.291,21.266 c 0.346,0.266 0.77,0.442 1.24,0.488 1.069,0.103 2.043,-0.501 2.438,-1.425 l 3.034,-7.445 c 1.968,-4.634 6.847,-7.672 12.203,-7.152 3.839,0.371 7.075,2.488 8.97,5.471 l 27.877,43.745 z" /></clipPath><clipPath
       id="clipPath24"
       clipPathUnits="userSpaceOnUse"><path
         style="clip-rule:evenodd"
         id="path26"
         d="M 0,153 457,153 457,0 0,0 0,153 Z" /></clipPath><clipPath
       id="clipPath30"
       clipPathUnits="userSpaceOnUse"><path
         id="path32"
         d="m 0,0 456.96,0 0,153 L 0,153 0,0 Z" /></clipPath><clipPath
       id="clipPath40"
       clipPathUnits="userSpaceOnUse"><path
         style="clip-rule:evenodd"
         id="path42"
         d="M 0,153 457,153 457,0 0,0 0,153 Z" /></clipPath><clipPath
       id="clipPath46"
       clipPathUnits="userSpaceOnUse"><path
         id="path48"
         d="m 0,0 456.96,0 0,153 L 0,153 0,0 Z" /></clipPath></defs><g
     transform="matrix(1.25,0,0,-1.25,0,191.25)"
     id="g10"><g
       id="g12" /><g
       id="g14"><g
         clip-path="url(#clipPath18)"
         id="g16"><g
           clip-path="url(#clipPath24)"
           id="g22"><g
             clip-path="url(#clipPath30)"
             id="g28"><path
               id="path34"
               style="fill:#eb554a;fill-opacity:1;fill-rule:nonzero;stroke:none"
               d="m 0.96,90.96 90.36,0 0,59.04 -90.36,0 0,-59.04 z" /></g></g></g></g><g
       id="g36"><g
         clip-path="url(#clipPath40)"
         id="g38"><g
           clip-path="url(#clipPath46)"
           id="g44"><g
             id="text50"
             style="font-variant:normal;font-weight:normal;font-size:138.15480042px;font-family:Norwester;-inkscape-font-specification:Norwester-Regular;writing-mode:lr-tb;fill:#757a85;fill-opacity:1;fill-rule:nonzero;stroke:none"
             transform="matrix(1,0,0,-1,84.8182,3.411)"><path
               id="path55"
               style=""
               d="m 49.321264,-110.52384 c -1.519703,0 -2.210477,0.82893 -2.210477,2.21048 l 0,58.301322 -0.828929,0 -20.99953,-58.715792 c -0.414464,-1.24339 -1.243393,-1.79601 -2.486786,-1.79601 l -13.6773252,0 c -1.381548,0 -2.2104768,0.82893 -2.2104768,2.21048 l 0,106.1028832 C 6.90774,-0.8289288 7.7366688,0 9.1182168,0 L 23.486316,0 c 1.519703,0 2.210477,-0.8289288 2.210477,-2.2104768 l 0,-58.5776352 0.690774,0 21.137684,58.9920996 C 47.939716,-0.5526192 48.768645,0 50.012038,0 l 13.677325,0 c 1.381548,0 2.210477,-0.8289288 2.210477,-2.2104768 l 0,-106.1028832 c 0,-1.38155 -0.828929,-2.21048 -2.210477,-2.21048 l -14.368099,0 z" /><path
               id="path57"
               style=""
               d="M 79.715319,-19.894291 C 79.715319,-6.90774 86.623059,0 99.60961,0 l 15.47334,0 c 12.98655,0 19.89429,-6.90774 19.89429,-19.894291 l 0,-70.735258 c 0,-12.986551 -6.90774,-19.894291 -19.89429,-19.894291 l -15.47334,0 c -12.986551,0 -19.894291,6.90774 -19.894291,19.894291 l 0,70.735258 z m 23.900781,2.072322 c -3.59203,0 -5.526192,-1.796013 -5.526192,-5.526192 l 0,-63.827518 c 0,-3.592025 1.934162,-5.526192 5.526192,-5.526192 l 8.01298,0 c 3.59202,0 5.52619,1.934167 5.52619,5.526192 l 0,63.827518 c 0,3.730179 -1.93417,5.526192 -5.52619,5.526192 l -8.01298,0 z" /><path
               id="path59"
               style=""
               d="m 144.09546,-110.52384 c -1.38155,0 -2.21047,0.82893 -2.21047,2.21048 l 0,13.815477 c 0,1.381548 0.82892,2.210476 2.21047,2.210476 l 16.02596,0 0,90.0769302 C 160.12142,-0.690774 160.95035,0 162.3319,0 l 14.36809,0 c 1.51971,0 2.21048,-0.690774 2.21048,-2.2104768 l 0,-90.0769302 16.02596,0 c 1.5197,0 2.21048,-0.828928 2.21048,-2.210476 l 0,-13.815477 c 0,-1.38155 -0.69078,-2.21048 -2.21048,-2.21048 l -50.84097,0 z" /><path
               id="path61"
               style=""
               d="m 210.40977,-110.52384 c -1.51971,0 -2.21048,0.82893 -2.21048,2.21048 l 0,106.1028832 C 208.19929,-0.8289288 208.89006,0 210.40977,0 l 14.3681,0 c 1.38154,0 2.21047,-0.8289288 2.21047,-2.2104768 l 0,-106.1028832 c 0,-1.38155 -0.82893,-2.21048 -2.21047,-2.21048 l -14.3681,0 z" /><path
               id="path63"
               style=""
               d="M 240.80381,-19.894291 C 240.80381,-6.90774 247.71155,0 260.6981,0 l 15.47334,0 c 12.98655,0 19.89429,-6.90774 19.89429,-19.894291 l 0,-70.735258 c 0,-12.986551 -6.90774,-19.894291 -19.89429,-19.894291 l -15.47334,0 c -12.98655,0 -19.89429,6.90774 -19.89429,19.894291 l 0,70.735258 z m 23.90078,2.072322 c -3.59202,0 -5.52619,-1.796013 -5.52619,-5.526192 l 0,-63.827518 c 0,-3.592025 1.93417,-5.526192 5.52619,-5.526192 l 8.01298,0 c 3.59203,0 5.52619,1.934167 5.52619,5.526192 l 0,63.827518 c 0,3.730179 -1.93416,5.526192 -5.52619,5.526192 l -8.01298,0 z" /><path
               id="path65"
               style=""
               d="m 352.29474,-110.52384 c -1.5197,0 -2.21047,0.82893 -2.21047,2.21048 l 0,58.301322 -0.82893,0 -20.99953,-58.715792 c -0.41447,-1.24339 -1.24339,-1.79601 -2.48679,-1.79601 l -13.67732,0 c -1.38155,0 -2.21048,0.82893 -2.21048,2.21048 l 0,106.1028832 C 309.88122,-0.8289288 310.71015,0 312.0917,0 l 14.3681,0 c 1.5197,0 2.21047,-0.8289288 2.21047,-2.2104768 l 0,-58.5776352 0.69078,0 21.13768,58.9920996 C 350.9132,-0.5526192 351.74212,0 352.98552,0 l 13.67732,0 c 1.38155,0 2.21048,-0.8289288 2.21048,-2.2104768 l 0,-106.1028832 c 0,-1.38155 -0.82893,-2.21048 -2.21048,-2.21048 l -14.3681,0 z" /></g></g></g></g></g></svg>
