<svg width="73px" height="40px" viewBox="0 0 73 40" version="1.1" xmlns="http://www.w3.org/2000/svg" xmlns:xlink="http://www.w3.org/1999/xlink">
    <defs>
        <polygon id="path-1" points="31.928302 0.128 8.14420961e-05 0.128 8.14420961e-05 30.3292 31.928302 30.3292"></polygon>
    </defs>
    <g id="Final" stroke="none" stroke-width="1" fill="none" fill-rule="evenodd">
        <g id="Desktop-01-a-rest" transform="translate(-306.000000, -2522.000000)">
            <g id="Page-1" transform="translate(306.000000, 2522.000000)">
                <g id="Group-3" transform="translate(0.000000, 0.538800)">
                    <mask id="mask-2" fill="white">
                        <use xlink:href="#path-1"></use>
                    </mask>
                    <g id="Clip-2"></g>
                    <path d="M3.27766667,16.8692 C2.30833333,13.0025333 8.58633333,8.5152 13.073,7.83186667 C17.255,7.19453333 18.255,9.36986667 16.6756667,11.6772 C15.0956667,13.9852 12.5676667,14.9465333 10.735,15.5872 C10.9243333,12.5105333 11.135,11.0152 8.54366667,11.5278667 C5.74566667,12.0818667 5.06166667,12.8732 5.06166667,12.8732 C6.711,16.5698667 5.27833333,22.9152 5.41233333,27.4245333 C5.489,28.5278667 5.48966667,30.3292 6.98566667,30.3292 C8.69166667,30.3292 12.757,29.0478667 12.757,29.0478667 C10.2296667,26.6545333 10.363,23.8692 10.5663333,17.4672 C12.3356667,19.3265333 16.6543333,17.2112 17.739,16.4098667 C18.7816667,18.6425333 18.4996667,23.2618667 18.255,25.9492 C18.0343333,28.3852 18.5083333,30.7778667 23.7536667,29.4958667 C22.6476667,28.4705333 22.553,24.8818667 22.995,21.6125333 C23.4376667,18.3432 24.7963333,13.8252 28.8723333,13.4085333 C29.5056667,13.3432 30.0416667,13.3505333 30.477,13.1805333 C31.2096667,12.8945333 31.6663333,12.3145333 31.8743333,11.3092 C32.1716667,9.87186667 31.2263333,8.09053333 29.3863333,8.09053333 C26.8503333,8.09053333 24.243,9.8832 22.7263333,18.2792 C22.7923333,17.4638667 22.677,16.5845333 22.695,16.0838667 C22.7356667,14.9632 21.9843333,14.5138667 21.083,14.6098667 C20.0723333,14.7178667 19.5823333,14.8825333 19.5823333,14.8825333 C20.957,13.7925333 22.8823333,11.3378667 23.2836667,7.56586667 C23.7376667,3.2972 21.8416667,-0.4368 16.4103333,0.198533333 C10.9496667,0.8372 6.325,4.2052 3.51433333,6.90253333 C-0.515,10.7692 -1.69366667,16.6772 3.27766667,16.8692" id="Fill-1" fill="#000000" mask="url(#mask-2)"></path>
                </g>
                <path d="M26.3414667,16.4190667 C27.7141333,20.9977333 26.1301333,25.2090667 26.4708,28.5610667 C26.6814667,30.6330667 27.6721333,30.3977333 29.1048,30.3497333 C30.1334667,30.3150667 31.3494667,30.0257333 32.5374667,29.6510667 C29.7781333,25.7624 30.7348,22.9957333 31.4214667,19.3524 C31.6954667,17.8997333 32.0748,15.4637333 30.2208,15.4637333 C28.2608,15.4637333 26.3414667,16.4190667 26.3414667,16.4190667" id="Fill-4" fill="#000000"></path>
                <path d="M38.4244667,14.6251333 C37.4884667,13.9464667 34.6658,14.9084667 33.6124667,16.7671333 C33.1064667,17.7711333 32.7971333,20.6851333 32.8571333,23.6044667 C32.9224667,26.7558 33.9298,30.3351333 36.0558,30.7831333 C37.6778,31.1251333 40.3538,29.7358 42.2018,23.8178 C43.2951333,20.3178 43.6764667,14.9084667 43.5978,14.3958 C45.7218,14.4104667 47.4658,13.9871333 48.5484667,13.2631333 C49.5264667,12.6078 50.2538,11.9384667 50.2538,10.6564667 C50.2538,9.55646667 49.3524667,8.53246667 48.0211333,8.49913333 C46.2511333,9.75913333 44.9878,10.3578 43.4078,10.7418 C42.8391333,6.7038 41.4071333,6.34046667 40.0164667,7.2378 C38.6264667,8.13513333 38.3938,12.0664667 41.0698,13.8191333 C41.5964667,19.0744667 39.8484667,25.0171333 38.3304667,25.2704667 C36.9198,25.5058 36.6038,18.9211333 38.4244667,14.6251333" id="Fill-6" fill="#000000"></path>
                <path d="M51.4336,33.048 C48.8422667,32.6313333 46.6309333,33.112 46.6309333,35.3233333 C46.6309333,37.102 48.4082667,38.464 49.8222667,36.7333333 C51.2362667,35.0026667 51.4282667,33.1753333 51.4336,33.048 M48.9476,23.2833333 C49.1056,24.1446667 49.5782667,24.8973333 50.1069333,24.91 C50.9316,24.9293333 51.5222667,23.782 51.8369333,23.11 C51.8369333,22.148 51.8602667,18.1453333 51.2282667,16.2226667 C51.9862667,15.966 53.8196,15.5333333 54.5142667,15.5333333 C55.3989333,15.5333333 56.7742667,15.5013333 56.6436,17.0093333 C56.4462667,19.308 55.9836,26.2253333 55.5416,31.1086667 C60.2182667,32.5313333 64.3096,35.756 72.5882667,32.888 C73.6789333,35.884 72.3049333,39.0893333 69.0182667,39.3453333 C64.8902667,39.6673333 60.5816,36.2366667 54.8622667,34.0573333 C53.3136,37.6786667 50.2776,39.6186667 47.6262667,39.8466667 C44.5136,40.1146667 42.3809333,38.2073333 42.3809333,35.788 C42.3809333,30.9966667 46.9309333,29.8266667 51.8129333,30.228 C51.8129333,30.228 51.8602667,27.856 51.8129333,26.1253333 C50.9282667,28.3686667 49.7569333,29.896 47.0309333,29.0946667 C44.1242667,28.24 43.3029333,23.2406667 44.5449333,16.468 C44.7156,15.892 45.8089333,15.0146667 49.5169333,15.6133333 C49.3989333,16.1733333 48.4209333,20.3986667 48.9476,23.2833333" id="Fill-8" fill="#000000"></path>
            </g>
        </g>
    </g>
</svg>
