<svg xmlns="http://www.w3.org/2000/svg" viewBox="0 0 688.58 165.23" width="150px">
  <path d="M665,53h-4.45V51.4H671.4V53h-4.47V66H665Z" style="fill: #1b1107"/>
  <path d="M686.36,59.61c-.11-2-.24-4.49-.22-6.31h-.06c-.5,1.71-1.11,3.54-1.84,5.55l-2.58,7.09h-1.43l-2.36-7c-.7-2.06-1.28-3.95-1.7-5.69h0c0,1.82-.15,4.28-.28,6.47L675.45,66h-1.8l1-14.62h2.41l2.5,7.07c.61,1.8,1.11,3.41,1.47,4.93h.07c.37-1.48.89-3.08,1.54-4.93l2.6-7.07h2.41L688.58,66h-1.84Z" style="fill: #1b1107"/>
  <path d="M403,101.14c3.91,2.37,12,5.17,18.3,5.17s9.08-2.24,9.08-5.73-2.09-5.17-10.06-7.82C406.23,88,400.78,80.32,400.92,72.22c0-12.71,10.9-22.35,27.8-22.35,8,0,15.09,1.82,19.28,3.91l-3.77,14.67a33.56,33.56,0,0,0-14.81-3.91c-5.17,0-8.1,2.1-8.1,5.59,0,3.21,2.65,4.89,11,7.82,13,4.47,18.44,11,18.58,21.09,0,12.71-10.06,22.07-29.62,22.07-8.94,0-16.9-2-22.07-4.75Z" style="fill: #1b1107"/>
  <path d="M475.38,51.4l10.2,33.53C486.7,89,488.1,94,488.94,97.65h.42c1-3.63,2.1-8.8,3.08-12.71l8.38-33.53h22.77l-15.93,45c-9.78,27.1-16.35,38-24,44.85a39.13,39.13,0,0,1-20.54,9.36l-4.47-18a26.81,26.81,0,0,0,9.22-3.64,24.38,24.38,0,0,0,8.8-8.52,5.54,5.54,0,0,0,1.12-3.08,7.72,7.72,0,0,0-1-3.49l-25-62.45Z" style="fill: #1b1107"/>
  <path d="M655.37,118c-3.77,1.68-10.9,3.07-19,3.07-22.07,0-36.19-13.41-36.19-34.93,0-20,13.69-36.32,39.12-36.32a49.35,49.35,0,0,1,16.21,2.65l-3.35,15.79a29.06,29.06,0,0,0-11.87-2.09c-11.18,0-18.44,8-18.3,19.14,0,12.57,8.38,19.14,18.72,19.14a32.75,32.75,0,0,0,12.15-2.1Z" style="fill: #1b1107"/>
  <path d="M569.59,49.87a25.26,25.26,0,0,0-19.5,8.77V51.4H529.72v68.32h20.73V80.32a14.56,14.56,0,0,1,.84-5.31c1.4-3.91,4.89-8,10.76-8,7.68,0,10.76,6,10.76,14.81v37.86H594V79.2C594,59.09,583.56,49.87,569.59,49.87Z" style="fill: #1b1107"/>
  <path d="M241.58,74.18c0-8.66-.28-15.65-.56-22.08h11l.56,11.6h.28c5-8.24,13-13.13,24-13.13,16.35,0,28.64,13.83,28.64,34.37,0,24.31-14.81,36.32-30.74,36.32-8.94,0-16.77-3.91-20.82-10.62h-.28v36.74H241.58Zm12.16,18a27.67,27.67,0,0,0,.56,5,19,19,0,0,0,18.44,14.39c13,0,20.54-10.62,20.54-26.13,0-13.55-7.13-25.15-20.12-25.15-8.38,0-16.21,6-18.58,15.23a19.93,19.93,0,0,0-.84,5Z" style="fill: #1b1107"/>
  <path d="M327.77,33.1c.14,4.19-2.93,7.54-7.82,7.54a7.31,7.31,0,0,1-7.4-7.54,7.49,7.49,0,0,1,7.68-7.68C324.84,25.42,327.77,28.77,327.77,33.1Zm-13.69,86.62V52.1h12.29v67.62Z" style="fill: #1b1107"/>
  <path d="M346.63,88.15c.28,16.63,10.9,23.47,23.19,23.47,8.8,0,14.11-1.54,18.72-3.49l2.09,8.8c-4.33,2-11.74,4.19-22.49,4.19-20.82,0-33.25-13.69-33.25-34.09s12-36.46,31.71-36.46c22.07,0,27.94,19.42,27.94,31.85a46.67,46.67,0,0,1-.42,5.73Zm36-8.8c.14-7.82-3.21-20-17-20-12.43,0-17.88,11.46-18.86,20Z" style="fill: #1b1107"/>
  <rect id="center" x="77.41" y="61.34" width="40.85" height="40.85" rx="8.08" ry="8.08" style="fill: #1b1107"/>
  <path id="arrow_right" data-name="arrow right" d="M193.15,59.68,151.88,3.84a8,8,0,0,0-6-3.81V70.27h0v43.83a17.06,17.06,0,0,1-17,17h-51v34.08h51A51.19,51.19,0,0,0,180,114.11V69h8.24C194.47,69,196.69,64.83,193.15,59.68Z" style="fill: #1b1107"/>
  <path id="arrow_left" data-name="arrow left" d="M48.94,87V51.13a17.06,17.06,0,0,1,17-17h65.47V0H66A51.19,51.19,0,0,0,14.85,51.13V96.19H6.62c-6.25,0-8.47,4.22-4.93,9.37L42.95,161.4a8,8,0,0,0,6,3.81V87Z" style="fill: #1b1107"/>
</svg>
