<svg id="Layer_1" data-name="Layer 1" xmlns="http://www.w3.org/2000/svg" xmlns:xlink="http://www.w3.org/1999/xlink" viewBox="0 0 2000 2000"><defs><style>.cls-1{fill:url(#New_Gradient_Swatch_1);}</style><linearGradient id="New_Gradient_Swatch_1" x1="741.12" y1="33.83" x2="1258.88" y2="1966.17" gradientUnits="userSpaceOnUse"><stop offset="0" stop-color="#28eb77"/><stop offset="1" stop-color="#27b5e1"/></linearGradient></defs><title>grow-mark-gradient</title><path class="cls-1" d="M1000,0C447.71,0,0,447.71,0,1000S447.71,2000,1000,2000s1000-447.71,1000-1000S1552.29,0,1000,0ZM309.1,1530c60-19.88,145.09-55.37,252.66-118.54,86.43-50.76,174.2-111.94,260.86-181.86q24.37-19.66,48.65-40.27c77.79,72,153.5,132.82,226.23,181.59q-19.19,10-38.4,20.58c-212.14,117.57-380,178.76-513.21,187C441.14,1585,373.25,1557.86,309.1,1530Zm-27.68,12-2.09-2.76,3.77-1.1Zm913.14-227.57c-78.44-48-161.54-112.29-247.88-191.57q88-80.43,173.26-172.09c40.91-44,83.35-75.11,126.13-92.51,37.84-15.4,75.69-20.41,115.72-15.33,51,6.48,105.16,30,160.83,69.77,48.77,34.88,98.86,82.35,148.88,141.09,60.89,71.51,111.39,147.84,146,204.93a737.19,737.19,0,0,0-119-22.06c-88.65-9.18-182-3.78-277.58,16-71,14.71-143.23,37.46-216.1,67.94Q1199.7,1317.52,1194.56,1314.38Zm242.09,37.14c84.75-18,167.25-23.41,245.21-16.06A641.13,641.13,0,0,1,1789,1354.58c-40.58,24.34-80.8,42.34-121.7,54.49-68.39,20.33-137.32,24-210.75,11.35-42.06-7.27-85.71-20.19-130.63-38.62A1024.63,1024.63,0,0,1,1436.65,1351.52Zm-1318.37-533A894.53,894.53,0,0,1,253.65,496.87,902.92,902.92,0,0,1,649.71,170.69a894.73,894.73,0,0,1,168.8-52.4,909.75,909.75,0,0,1,363,0,894.53,894.53,0,0,1,321.64,135.36,902.91,902.91,0,0,1,326.19,396.06,894.72,894.72,0,0,1,52.4,168.8,909.47,909.47,0,0,1,1.38,356c-35.61-56.29-81.45-122.15-135.46-185.58-125.32-147.19-250.9-229.7-373.24-245.24a326.36,326.36,0,0,0-166,21.9c-56.37,22.94-110.76,62.31-161.66,117-56.45,60.68-114.14,117.83-172.46,170.91-1.86-1.85-3.71-3.68-5.57-5.54-99.92-99.92-209.58-144.93-326-133.77-180.49,17.31-332.23,167.51-421.8,279.74q-1.37-6.22-2.65-12.46a909.75,909.75,0,0,1,0-363Zm37.88,495.17c29.59-42.14,80.86-108.89,146.21-169,86.22-79.27,170.3-123.34,249.91-131a253.23,253.23,0,0,1,117.32,16.57c43.57,17,86.76,46.75,128.38,88.36l.87.87q-19.48,16.4-39,32.17c-82.83,66.83-166.51,125.19-248.71,173.46-67.44,39.6-132.42,71.66-193.16,95.29-44,17.1-75.89,26-96.94,30.58a898,898,0,0,1-50.34-100.77Q163,1332.17,156.17,1313.69ZM1636.4,1636.4a901.59,901.59,0,0,1-286.11,192.92,894.71,894.71,0,0,1-168.8,52.4,909.75,909.75,0,0,1-363,0,894.53,894.53,0,0,1-321.64-135.36,906.55,906.55,0,0,1-102.68-80.78,522.8,522.8,0,0,0,121.12,13.89q17.79,0,36.78-1.16c148.35-9.23,330.05-74.45,555.48-199.38q46-25.47,91.64-46.61c82.67,44.26,163.26,73.35,240.29,86.66a587.41,587.41,0,0,0,100.19,8.79c75.49,0,148.83-15.4,220.92-46.44q-7,11-14.26,21.81A906.91,906.91,0,0,1,1636.4,1636.4Z"/></svg>