<svg version="1.1" xmlns="http://www.w3.org/2000/svg" xmlns:xlink="http://www.w3.org/1999/xlink" x="0px" y="0px" viewBox="0 0 42 42" enable-background="new 0 0 42 42" xml:space="preserve" style="transform: matrix(1, 0, 0, 1, 0, 0); transform-origin: 50% 50% 0px;">
		<g>
			<path fill="#005594" d="M31,23.6l11-8.8c-0.5-1.5-1.1-3-1.9-4.4l-3.8-0.3l-0.3-0.3C35,8.3,33.7,7,32.2,5.9l-0.3-0.3l-0.3-3.7
				c-1.4-0.8-3-1.4-4.6-1.9l-2.9,2.4l-0.4-0.1c-1.5-0.2-3-0.2-4.5-0.1L28.6,14c1.8,1.9,2.7,4.4,2.7,7C31.3,21.8,31.2,22.7,31,23.6z"></path>
			<path fill="#2EC3FF" d="M14.5,12.9c0.2-0.2,0.4-0.3,0.6-0.5l0.2-0.1c0.2-0.1,0.4-0.3,0.7-0.4l0.1-0.1c0.3-0.1,0.5-0.3,0.8-0.4
				l0.1-0.1c0.3-0.1,0.5-0.2,0.8-0.3l0.2-0.1c0.3-0.1,0.6-0.2,0.8-0.2l0.1,0c0.3-0.1,0.6-0.1,0.9-0.1l0.1,0c0.7-0.1,1.3-0.1,2,0
				c0.1,0,0.2,0,0.4,0.1l0.3,0c0.1,0,0.2,0,0.4,0.1c0.2,0,0.4,0.1,0.7,0.2l0.1,0L15,0c-0.3,0.1-0.6,0.2-1,0.3
				c-0.5,0.2-0.9,0.3-1.4,0.5c-0.8,0.3-1.5,0.7-2.2,1.1l-0.3,3.7L9.7,5.9C8.3,7,7,8.3,5.9,9.7l-0.3,0.3l-3.8,0.3
				c-0.2,0.4-0.5,0.9-0.7,1.5c-0.5,1-0.9,2.1-1.2,3.1l2.4,2.9l-0.1,0.4c-0.1,0.9-0.2,1.8-0.2,2.7c0,0.6,0,1.2,0.1,1.9l11.8-9.5
				c0.1-0.1,0.1-0.1,0.2-0.2C14.4,13,14.5,13,14.5,12.9z"></path>
			<polygon fill="#2EC3FF" points="20,11.6 20,11.6 20,11.6 	"></polygon>
			<path fill="#2EC3FF" d="M26.3,29.8L26.3,29.8c-2.5,1.4-5.4,1.8-8.1,1l9,11.2c1.5-0.5,3-1.1,4.4-1.9l0.3-3.7l0.3-0.3
				c1.5-1.1,2.8-2.4,3.8-3.8l0.3-0.3l3.8-0.3c0.8-1.4,1.4-3,1.9-4.6l0-0.2l-2.4-2.8l0.1-0.4c0.1-0.9,0.2-1.7,0.2-2.5l0-0.1l0-0.1
				c0-0.6,0-1.2-0.1-1.9l-11.4,9.1c-0.5,0.5-1.1,1-1.7,1.4L26.3,29.8z"></path>
			<path fill="#005594" d="M1.9,31.5l3.8,0.3l0.3,0.3C7,33.6,8.3,34.9,9.7,36l0.3,0.3l0.3,3.7c1.4,0.8,3,1.4,4.6,1.9l2.9-2.4l0.4,0.1
				c1.5,0.2,3,0.2,4.5,0.1L12.5,26.8l0,0c-1.2-1.7-1.8-3.7-1.8-5.8c0-0.9,0.1-1.8,0.4-2.7L0,27C0.5,28.6,1.1,30.1,1.9,31.5z"></path>
		</g>
	</svg>