<svg width="2487" height="2451" viewBox="0 0 2487 2451" version="1.1" xmlns="http://www.w3.org/2000/svg" xmlns:xlink="http://www.w3.org/1999/xlink">
<title>logo_bg</title>
<desc>Created using Figma</desc>
<g id="Canvas" transform="matrix(3 0 0 3 -2331 -960)">
<clipPath id="clip-0" clip-rule="evenodd">
<path d="M 777 320L 1606 320L 1606 1137L 777 1137L 777 320Z" fill="#FFFFFF"/>
</clipPath>
<g id="logo_bg" clip-path="url(#clip-0)">
<g id="Rectangle 4">
<use xlink:href="#path0_fill" transform="translate(777 320)" fill="#764ABC"/>
</g>
<g id="Vector">
<use xlink:href="#path1_fill" transform="translate(984 416)" fill="#FFFFFF"/>
<use xlink:href="#path2_fill" transform="translate(984 416)" fill="#FFFFFF"/>
<use xlink:href="#path3_fill" transform="translate(984 416)" fill="#FFFFFF"/>
</g>
</g>
</g>
<defs>
<path id="path0_fill" d="M 0 0L 828.657 0L 828.657 816.704L 0 816.704L 0 0Z"/>
<path id="path1_fill" d="M 132.484 70.4118C 151.477 44.0692 171.874 16.8656 200.906 0C 229.535 16.4474 249.731 43.1672 268.454 69.0427C 312.554 133.064 339.516 209.963 334.077 287.25C 348.329 298.7 362.993 309.692 377.032 321.376C 397.186 339.13 406.596 366.824 401.744 392.569C 394.983 425.092 388.485 457.689 381.329 490.123C 377.35 506.81 353.795 514.449 339.946 503.788C 316.959 485.399 294.544 466.333 271.565 447.921C 254.178 463.956 231.081 474.649 206.833 475.938C 178.919 477.824 151.283 466.729 131.046 448.604C 114.559 460.701 99.2718 475.222 83.1633 488.179C 75.3776 494.175 68.9036 502.055 59.6894 506.15C 45.4041 512.024 27.0079 503.257 23.7789 488.54C 16.4228 456.832 8.73782 425.18 1.59923 393.422C -4.20213 366.557 6.07276 337.306 27.6711 319.296C 40.1747 309.23 52.8529 299.367 65.5901 289.576C 69.1386 287.788 67.3556 283.662 67.557 280.632C 63.7601 206.063 90.3368 132.355 132.484 70.4118ZM 155.043 168.633C 138.363 189.214 140.381 221.092 159.726 239.472C 180.208 261.102 219.002 261.89 240.424 241.132C 256.961 226.652 262.553 202.341 254.66 182.364C 247.427 163.105 228.064 148.658 206.768 146.861C 187.102 144.692 166.739 153.363 155.043 168.633Z"/>
<path id="path2_fill" d="M 124.523 515.15C 124.237 505.801 136.378 499.372 144.584 504.32C 179.317 521.459 222.491 521.452 257.223 504.311C 265.194 499.62 277.007 505.254 277.301 514.351C 277.418 534.209 277.442 554.087 277.334 573.95C 277.493 583.644 264.133 589.825 256.28 583.763C 250.303 578.711 244.913 573.03 239.162 567.729C 230.065 584.716 221.49 601.96 212.317 618.906C 207.912 626.981 194.148 627.036 189.658 619.041C 180.434 602.062 171.918 584.716 162.644 567.753C 156.977 573.102 151.57 578.753 145.601 583.797C 137.781 589.888 124.447 583.588 124.556 573.957C 124.389 554.361 124.498 534.756 124.523 515.15Z"/>
<path id="path3_fill" d="M 200.471 228.848C 215.903 228.848 228.414 216.858 228.414 202.067C 228.414 187.277 215.903 175.287 200.471 175.287C 185.039 175.287 172.529 187.277 172.529 202.067C 172.529 216.858 185.039 228.848 200.471 228.848Z"/>
</defs>
</svg>
