<svg width="37px" height="37px" viewBox="0 0 37 37" version="1.1" xmlns="http://www.w3.org/2000/svg" xmlns:xlink="http://www.w3.org/1999/xlink">
    <g id="Layout" stroke="none" stroke-width="1" fill="none" fill-rule="evenodd">
        <g id="operator-lp-080717" transform="translate(-994.000000, -5099.000000)">
            <g id="Page-1" transform="translate(995.000000, 5100.000000)">
                <path d="M12.6133,21.9131 C12.5393,22.4321 12.5003,22.9611 12.5003,23.5001 C12.5003,29.5751 17.4253,34.5001 23.5003,34.5001 C29.5753,34.5001 34.5003,29.5751 34.5003,23.5001 C34.5003,17.4251 29.5753,12.5001 23.5003,12.5001 C22.9503,12.5001 22.4093,12.5401 21.8803,12.6191" id="Stroke-1" stroke="#2D67FF" stroke-width="2"></path>
                <path d="M0,11 C0,17.075 4.925,22 11,22 C17.075,22 22,17.075 22,11 C22,4.925 17.075,0 11,0 C4.925,0 0,4.925 0,11 Z" id="Stroke-3" stroke="#2D67FF" stroke-width="2"></path>
                <path d="M7,12 C7,14.209 8.791,16 11,16 C13.209,16 15,14.209 15,12" id="Stroke-5" stroke="#2D67FF" stroke-width="2"></path>
                <path d="M9.5,7.5 C9.5,6.671 8.828,6 8,6 C7.172,6 6.5,6.671 6.5,7.5 C6.5,8.329 7.172,9 8,9 C8.828,9 9.5,8.329 9.5,7.5" id="Fill-7" fill="#2D67FF"></path>
                <path d="M15.5,7.5 C15.5,6.671 14.828,6 14,6 C13.172,6 12.5,6.671 12.5,7.5 C12.5,8.329 13.172,9 14,9 C14.828,9 15.5,8.329 15.5,7.5" id="Fill-9" fill="#2D67FF"></path>
                <path d="M27.5,28.5 C27.5,26.291 25.709,24.5 23.5,24.5 C21.291,24.5 19.5,26.291 19.5,28.5" id="Stroke-11" stroke="#2D67FF" stroke-width="2"></path>
                <path d="M22,20 C22,19.172 21.328,18.5 20.5,18.5 C19.672,18.5 19,19.172 19,20 C19,20.828 19.672,21.5 20.5,21.5 C21.328,21.5 22,20.828 22,20" id="Fill-13" fill="#2D67FF"></path>
                <path d="M28,20 C28,19.172 27.328,18.5 26.5,18.5 C25.672,18.5 25,19.172 25,20 C25,20.828 25.672,21.5 26.5,21.5 C27.328,21.5 28,20.828 28,20" id="Fill-15" fill="#2D67FF"></path>
            </g>
        </g>
    </g>
</svg>
