<svg width="36px" height="36px" viewBox="0 0 36 36" version="1.1" xmlns="http://www.w3.org/2000/svg" xmlns:xlink="http://www.w3.org/1999/xlink">
    <g id="Layout" stroke="none" stroke-width="1" fill="none" fill-rule="evenodd">
        <g id="operator-lp-080717" transform="translate(-179.000000, -5274.000000)" stroke="#2D67FF" stroke-width="2">
            <g id="Page-1" transform="translate(180.000000, 5275.000000)">
                <path d="M20.3213,17.4893 C20.7763,14.5163 19.2723,11.8193 16.9623,11.4663 C14.6523,11.1123 12.4113,13.2363 11.9563,16.2093 C11.5013,19.1823 13.0053,21.8793 15.3143,22.2323 C17.6243,22.5863 19.8663,20.4623 20.3213,17.4893 Z" id="Stroke-1"></path>
                <path d="M22.8359,26.3271 C22.2319,26.7061 21.5979,27.0201 20.9449,27.2701 C16.6519,28.9181 11.5349,27.7751 8.3849,23.8441 C5.2199,19.8921 5.2199,14.1071 8.3849,10.1561 C12.5589,4.9461 20.1899,4.6351 24.7779,9.2221 C26.9259,11.3701 27.9999,14.1841 27.9999,17.0001 C27.9999,23.2871 21.4999,23.1431 20.5719,18.2211 C20.4439,17.5431 20.4889,16.8451 20.6069,16.1661 L21.4379,11.3751" id="Stroke-3"></path>
                <path d="M34,17 C34,26.389 26.389,34 17,34 C7.611,34 0,26.389 0,17 C0,7.611 7.611,0 17,0 C26.389,0 34,7.611 34,17 Z" id="Stroke-5"></path>
            </g>
        </g>
    </g>
</svg>
