<svg width="36px" height="36px" viewBox="0 0 36 36" version="1.1" xmlns="http://www.w3.org/2000/svg" xmlns:xlink="http://www.w3.org/1999/xlink">
    <g id="Layout" stroke="none" stroke-width="1" fill="none" fill-rule="evenodd">
        <g id="operator-lp-080717" transform="translate(-991.000000, -5274.000000)" stroke="#2D67FF" stroke-width="2">
            <g id="Page-1" transform="translate(992.000000, 5275.000000)">
                <path d="M26,12.9999 C26,20.1799 20.18,25.9999 13,25.9999 C5.82,25.9999 0,20.1799 0,12.9999 C0,5.8199 5.82,-0.0001 13,-0.0001 C20.18,-0.0001 26,5.8199 26,12.9999 Z" id="Stroke-1"></path>
                <path d="M21,12.9999 C21,17.4179 17.418,20.9999 13,20.9999 C8.582,20.9999 5,17.4179 5,12.9999 C5,8.5819 8.582,4.9999 13,4.9999 C17.418,4.9999 21,8.5819 21,12.9999 Z" id="Stroke-3"></path>
                <path d="M34,33.9999 L22.187,22.1869" id="Stroke-5"></path>
            </g>
        </g>
    </g>
</svg>
