<svg width="37px" height="37px" viewBox="0 0 37 37" version="1.1" xmlns="http://www.w3.org/2000/svg" xmlns:xlink="http://www.w3.org/1999/xlink">
    <g id="Layout" stroke="none" stroke-width="1" fill="none" fill-rule="evenodd">
        <g id="operator-lp-080717" transform="translate(-163.000000, -5100.000000)" stroke="#2D67FF" stroke-width="2">
            <g id="Page-1" transform="translate(164.000000, 5101.000000)">
                <path d="M34.5,23.5 C34.5,17.425 29.575,12.5 23.5,12.5 C17.425,12.5 12.5,17.425 12.5,23.5 C12.5,29.575 17.425,34.5 23.5,34.5 C29.575,34.5 34.5,29.575 34.5,23.5 Z" id="Stroke-1"></path>
                <path d="M21.8984,12.501 C21.9654,12.01 22.0004,11.509 22.0004,11 C22.0004,4.925 17.0754,0 11.0004,0 C4.9244,0 0.0004,4.925 0.0004,11 C0.0004,17.075 4.9244,22 11.0004,22 C11.5524,22 12.0944,21.959 12.6254,21.881" id="Stroke-3"></path>
                <path d="M14.875,8 C14.875,5.86 13.14,4.125 11,4.125 C8.86,4.125 7.125,5.86 7.125,8 C7.125,10.14 8.86,11.875 11,11.875 C13.14,11.875 14.875,10.14 14.875,8 Z" id="Stroke-5"></path>
                <path d="M14.875,8 C14.875,5.86 13.14,4.125 11,4.125 C8.86,4.125 7.125,5.86 7.125,8 C7.125,10.14 8.86,11.875 11,11.875 C13.14,11.875 14.875,10.14 14.875,8 Z" id="Stroke-7"></path>
                <path d="M16.9194,14.6777 C15.5164,12.9667 13.3854,11.8747 11.0004,11.8747 C6.9774,11.8747 3.6784,14.9797 3.3714,18.9237" id="Stroke-9"></path>
                <polyline id="Stroke-11" points="18.7334 24.0781 21.7504 27.2501 28.0004 20.0881"></polyline>
            </g>
        </g>
    </g>
</svg>
