<svg width="36px" height="36px" viewBox="0 0 36 36" version="1.1" xmlns="http://www.w3.org/2000/svg" xmlns:xlink="http://www.w3.org/1999/xlink">
    <g id="Layout" stroke="none" stroke-width="1" fill="none" fill-rule="evenodd">
        <g id="operator-lp-080717" transform="translate(-179.000000, -5100.000000)" stroke="#2D67FF" stroke-width="2">
            <g id="Page-1" transform="translate(180.000000, 5101.000000)">
                <path d="M17.3247,0.0029 C7.7977,-0.1761 -0.0003,7.9169 -0.0003,17.4449 C-0.0003,26.5879 7.4117,33.9999 16.5537,33.9999 L33.9997,33.9999 L33.9997,16.9999 C33.9997,7.7189 26.5637,0.1759 17.3247,0.0029 Z" id="Stroke-1"></path>
                <path d="M28,17 C28,10.925 23.075,6 17,6 C10.925,6 6,10.925 6,17 C6,23.075 10.925,28 17,28 C23.075,28 28,23.075 28,17 Z" id="Stroke-3"></path>
                <polyline id="Stroke-5" points="21.25 21.2495 17 16.9995 17 10.2225"></polyline>
            </g>
        </g>
    </g>
</svg>
