<?xml version="1.0" encoding="UTF-8"?>
<svg width="121px" height="25px" viewBox="0 0 121 25" version="1.1" xmlns="http://www.w3.org/2000/svg" xmlns:xlink="http://www.w3.org/1999/xlink">
    <!-- Generator: Sketch 48.2 (47327) - http://www.bohemiancoding.com/sketch -->
    <title>Page 1</title>
    <desc>Created with Sketch.</desc>
    <defs>
        <polygon id="path-1" points="0.0543918414 0.154145753 83.3555556 0.154145753 83.3555556 16.900876 0.0543918414 16.900876"></polygon>
    </defs>
    <g id="UseCase-Copy-5" stroke="none" stroke-width="1" fill="none" fill-rule="evenodd" transform="translate(-373.000000, -739.000000)">
        <g id="Page-1" transform="translate(373.000000, 739.000000)">
            <polygon id="Fill-1" fill="#000000" points="5.37777778 25 29.5777778 25 28.1621358 22.629671 9.66760197 22.629671 13.2206547 16.6689575 11.7963393 14.2857143"></polygon>
            <polygon id="Fill-2" fill="#000000" points="0 25 2.87110959 25 12.306085 9.31270567 15.9239074 15.3447429 18.8222222 15.3447429 12.3158693 4.46428571"></polygon>
            <polygon id="Fill-3" fill="#000000" points="14.8491993 0 13.4444444 2.39682531 22.6291289 18.1106234 15.5565929 18.1106234 14.1380728 20.5357143 26.8888889 20.5357143"></polygon>
            <g id="Group-6" transform="translate(36.748148, 3.571429)">
                <mask id="mask-2" fill="white">
                    <use xlink:href="#path-1"></use>
                </mask>
                <g id="Clip-5"></g>
                <path d="M81.0603041,8.52693774 L81.0603041,8.57232867 C81.0603041,12.1552317 78.4296871,14.857138 74.9409293,14.857138 C71.4268839,14.857138 68.7770669,12.1357457 68.7770669,8.52693774 L68.7770669,8.48223456 C68.7770669,4.89933156 71.4072157,2.19788369 74.8952711,2.19788369 C78.3521852,2.19788369 81.0603041,4.97796332 81.0603041,8.52693774 M74.9409293,0.154145753 C70.1973894,0.154145753 66.481277,3.83195705 66.481277,8.52693774 L66.481277,8.57232867 C66.481277,13.3204947 70.0988144,16.900876 74.8952711,16.900876 C79.6395134,16.900876 83.3556258,13.2228354 83.3556258,8.52716699 L83.3556258,8.48223456 C83.3556258,3.73429778 79.7383225,0.154145753 74.9409293,0.154145753 M62.6534775,0.312097008 C62.0566423,0.312097008 61.5522944,0.815752896 61.5522944,1.41225386 L61.5522944,15.6416216 C61.5522944,16.2383518 62.0566423,16.742237 62.6534775,16.742237 C63.273493,16.742237 63.7778409,16.248668 63.7778409,15.6416216 L63.7778409,1.41225386 C63.7778409,0.805666023 63.273493,0.312097008 62.6534775,0.312097008 M47.1758025,4.30947876 C45.5536472,4.30947876 44.2510996,4.92729971 43.2941497,6.14872828 L43.2941497,5.52380068 C43.2941497,4.91881757 42.8106407,4.44473456 42.1932008,4.44473456 C41.5989412,4.44473456 41.1149639,4.92867519 41.1149639,5.52380068 L41.1149639,15.6645463 C41.1149639,16.2688417 41.5987071,16.7424662 42.216147,16.7424662 C42.830543,16.7424662 43.2941497,16.2786993 43.2941497,15.6645463 L43.2941497,9.74676158 C43.2941497,7.70921332 44.6814578,6.2860473 46.6679424,6.2860473 C48.6068956,6.2860473 49.7642735,7.5290251 49.7642735,9.61081805 L49.7642735,15.6643171 C49.7642735,16.2688417 50.2482508,16.742237 50.8666273,16.742237 C51.4718917,16.742237 51.9458008,16.2688417 51.9458008,15.6643171 L51.9458008,9.18212597 C51.9458008,6.22208736 50.0735788,4.30947876 47.1758025,4.30947876 M33.1739423,6.17234073 C35.4945516,6.17234073 36.5367302,7.98270512 36.7561239,9.75226351 L29.5247953,9.75226351 C29.8247349,7.63310328 31.2998472,6.17234073 33.1739423,6.17234073 M38.9582559,10.4246453 C38.9582559,7.38574566 36.9872249,4.30947876 33.2198347,4.30947876 C29.8989588,4.30947876 27.2976098,7.06411197 27.2976098,10.5819088 L27.2976098,10.6272997 C27.2976098,14.204013 29.942978,16.9006467 33.4502332,16.9006467 C35.3196455,16.9006467 36.7502703,16.3403668 38.082086,15.0898238 C38.3045236,14.8993195 38.4272155,14.6460014 38.4272155,14.3773238 C38.4272155,13.8571622 37.9844476,13.4344305 37.4405292,13.4344305 C37.1450385,13.4344305 36.935713,13.5763345 36.7961627,13.6898118 C35.8099447,14.5790613 34.7614442,14.9933108 33.4958915,14.9933108 C31.4021685,14.9933108 29.8301202,13.5726665 29.5245612,11.4353958 L37.9256773,11.4353958 C38.4953516,11.4351665 38.9582559,10.9814865 38.9582559,10.4246453 M20.0946128,6.17234073 C22.4156903,6.17234073 23.4583372,7.98270512 23.6770285,9.75226351 L16.4456999,9.75226351 C16.7454053,7.63310328 18.2207518,6.17234073 20.0946128,6.17234073 M25.8789264,10.4246453 C25.8789264,7.38574566 23.9076611,4.30947876 20.140271,4.30947876 C16.8191609,4.30947876 14.2171095,7.06411197 14.2171095,10.5819088 L14.2171095,10.6272997 C14.2171095,14.204013 16.8627118,16.9006467 20.3709036,16.9006467 C22.2407842,16.9006467 23.6711749,16.3403668 25.0027564,15.0902823 C25.2254282,14.8993195 25.3483542,14.6460014 25.3483542,14.3773238 C25.3483542,13.8571622 24.9060546,13.4344305 24.3621362,13.4344305 C24.0661772,13.4344305 23.8568517,13.5763345 23.7173014,13.6898118 C22.7310834,14.5790613 21.6823488,14.9933108 20.416796,14.9933108 C18.3221365,14.9933108 16.7500882,13.5728958 16.445934,11.4353958 L24.8470501,11.4353958 C25.4160221,11.4351665 25.8789264,10.9814865 25.8789264,10.4246453 M13.145897,14.8630985 L7.12533123,7.59321429 L12.7167095,2.16235039 C12.9585811,1.92645512 13.0763559,1.67336631 13.0763559,1.38978764 C13.0763559,0.815523649 12.5727104,0.312326255 11.9983532,0.312326255 C11.62138,0.312326255 11.3670988,0.48770029 11.1383393,0.686916023 L2.28040664,9.57826496 L2.28040664,1.41248311 C2.28040664,0.80589527 1.77629284,0.312326255 1.1565115,0.312326255 C0.559208071,0.312326255 0.0543918414,0.815982143 0.0543918414,1.41248311 L0.0543918414,15.6416216 C0.0543918414,16.2385811 0.559208071,16.7424662 1.1565115,16.7424662 C1.77629284,16.7424662 2.28040664,16.2488972 2.28040664,15.6416216 L2.28040664,12.2907167 L5.54602443,9.09386583 L11.4174399,16.2530236 C11.6497116,16.5778668 11.9533974,16.7426955 12.3205365,16.7426955 C12.9302496,16.7426955 13.4453682,16.2385811 13.4453682,15.6418509 C13.4453682,15.2853716 13.3023057,15.0581877 13.145897,14.8630985" id="Fill-4" fill="#000000" mask="url(#mask-2)"></path>
            </g>
        </g>
    </g>
</svg>