<?xml version="1.0" encoding="UTF-8"?>
<svg width="66px" height="20px" viewBox="0 0 66 20" version="1.1" xmlns="http://www.w3.org/2000/svg" xmlns:xlink="http://www.w3.org/1999/xlink">
    <!-- Generator: Sketch 48.2 (47327) - http://www.bohemiancoding.com/sketch -->
    <title>moz</title>
    <desc>Created with Sketch.</desc>
    <defs></defs>
    <g id="UseCase-Copy-5" stroke="none" stroke-width="1" fill="none" fill-rule="evenodd" transform="translate(-371.000000, -864.000000)">
        <g id="moz" transform="translate(371.000000, 864.000000)" fill="#241F20">
            <path d="M56.2805,12.8965 L65.9925,2.6585 L45.996,2.6585 C45.6085,2.673 45.298,2.9805 45.279,3.3665 L45.2775,5.4315 C43.412,2.409 39.7545,0.354 35.545,0.354 C30.0475,0.354 25.4875,3.8625 24.64,8.455 L24.64,2.6585 L21.1575,2.6585 C20.33,2.67 19.5885,3.042 19.0615,3.605 L12.3215,11.1 L5.58,3.605 C5.055,3.042 4.313,2.67 3.483,2.6585 L0,2.6585 L0,17.624 L4.0665,17.624 C4.458,17.6045 4.7685,17.286 4.7845,16.893 L4.7855,16.893 L4.7855,16.857 L4.7855,9.872 L12.3235,18.266 L19.8545,9.872 L19.8585,16.893 C19.872,17.286 20.184,17.6045 20.574,17.624 L24.6395,17.624 L24.6395,11.5445 C25.4865,16.1375 30.0465,19.6455 35.5445,19.6455 C41.6475,19.6455 46.5935,15.327 46.5935,9.9995 C46.5935,9.0925 46.447,8.216 46.179,7.384 L54.9895,7.384 L45.304,17.624 L46.3075,17.624 L65.2445,17.624 C65.2445,17.624 65.2485,17.6255 65.2515,17.6255 C65.2535,17.6255 65.2555,17.624 65.259,17.624 L65.279,17.624 C65.666,17.61 65.9765,17.3 65.9955,16.9135 L66,16.9135 L66,12.8965 L56.2805,12.8965 L56.2805,12.8965 Z M40.924,10.9655 C40.7045,11.901 40.1725,12.7375 39.4275,13.388 C38.434,14.255 37.061,14.7915 35.5445,14.7915 C34.03,14.7915 32.658,14.255 31.665,13.388 C30.92,12.7375 30.3885,11.9015 30.169,10.9655 C30.096,10.6535 30.0575,10.3305 30.0575,10 C30.0575,9.173 30.2975,8.3945 30.72,7.716 C31.6495,6.222 33.462,5.208 35.5445,5.208 C37.63,5.208 39.443,6.222 40.373,7.716 C40.7955,8.395 41.0355,9.173 41.0355,10 C41.0355,10.3305 40.997,10.6535 40.924,10.9655 L40.924,10.9655 Z" id="Shape"></path>
        </g>
    </g>
</svg>