<?xml version="1.0" encoding="UTF-8"?>
<svg width="130px" height="30px" viewBox="0 0 130 30" version="1.1" xmlns="http://www.w3.org/2000/svg" xmlns:xlink="http://www.w3.org/1999/xlink">
    <!-- Generator: Sketch 48.2 (47327) - http://www.bohemiancoding.com/sketch -->
    <title>Page 1</title>
    <desc>Created with Sketch.</desc>
    <defs>
        <polygon id="path-1" points="0 0.0844528888 30.7318281 0.0844528888 30.7318281 29.7857143 0 29.7857143"></polygon>
        <polygon id="path-3" points="0 29.9155714 129.847653 29.9155714 129.847653 0.214285714 0 0.214285714"></polygon>
    </defs>
    <g id="UseCase-Copy-5" stroke="none" stroke-width="1" fill="none" fill-rule="evenodd" transform="translate(-755.000000, -904.000000)">
        <g id="Page-1" transform="translate(755.000000, 904.000000)">
            <g id="Group-3" transform="translate(0.000000, 0.129857)">
                <mask id="mask-2" fill="white">
                    <use xlink:href="#path-1"></use>
                </mask>
                <g id="Clip-2"></g>
                <path d="M4.7318281,6.9588 C2.94019174,8.47444286 1.57787769,10.4315143 0.780257851,12.6352286 L0.780257851,12.6523714 C-1.42415537,18.8169429 1.17348099,25.6665857 6.91711736,28.8330857 C10.1877455,30.7578 14.4036132,29.6739429 16.3334149,26.4123 C18.0904562,23.4431571 17.3635306,19.6344429 14.6354645,17.5168714 C11.1114975,14.9495143 8.43843967,10.4966571 10.5850512,6.97808571 C11.5814314,5.79865714 12.779795,4.80458571 14.1240595,4.04237143 C14.2701752,3.97165714 14.4205884,3.90094286 14.5752992,3.82808571 L14.4979438,3.82808571 C21.1139769,0.1638 30.7318281,0.2688 30.7318281,0.2688 C30.7318281,0.2688 13.7781091,-1.65977143 4.7318281,6.9588" id="Fill-1" fill="#000000" mask="url(#mask-2)"></path>
            </g>
            <path d="M20.7981306,6.13722857 C20.7379653,6.15222857 13.8812711,8.96794286 18.1465603,13.5836571 C21.7242463,17.4558 23.5184612,19.0586571 22.444081,24.1350857 C22.031519,26.2200857 20.7250727,28.0653 18.6278826,29.5800857 C25.4416017,26.6970857 28.6213372,18.8514429 25.730395,12.0564429 C24.7037174,9.6438 22.9885769,7.58537143 20.7981306,6.13722857" id="Fill-4" fill="#000000"></path>
            <path d="M42.7820975,16.5343714 C42.1727091,16.1690143 41.5173372,15.8859429 40.8331719,15.6922286 C40.1384777,15.4938 39.4886926,15.2951571 38.8842463,15.0965143 C38.3500645,14.9330143 37.842957,14.6910857 37.380114,14.3786571 C36.9856017,14.1035143 36.7608413,13.6453714 36.7849074,13.1658 C36.7801802,12.8623714 36.8736512,12.5655857 37.0513537,12.3193714 C37.2196017,12.0860143 37.4404942,11.8950857 37.6959818,11.7622286 C37.9622132,11.6218714 38.2462793,11.5181571 38.5404446,11.4536571 C38.8225769,11.3900143 39.1107256,11.3570143 39.3999488,11.3550857 C39.9182298,11.3647286 40.4311388,11.4618 40.9169736,11.6422286 C41.422362,11.8055143 41.8699488,12.1104429 42.2062298,12.5208 L44.8578,9.64937143 C44.1345273,9.0018 43.2780314,8.51965714 42.3480479,8.23722857 C41.4141967,7.95308571 40.442957,7.80865714 39.4665603,7.80865714 C38.6169405,7.80737143 37.7716182,7.92865714 36.9568083,8.16865714 C36.1798165,8.38915714 35.4511719,8.75258571 34.8080479,9.24008571 C34.1868413,9.71901429 33.6778,10.3275857 33.3168083,11.0229429 C32.9308909,11.7909429 32.7392215,12.6414429 32.7581306,13.5000857 C32.7581306,14.4772286 32.9607587,15.2630143 33.3662298,15.8572286 C33.762676,16.4426571 34.2846099,16.9329429 34.8939983,17.2929429 C35.5190727,17.6583 36.1864777,17.9463 36.8816017,18.1500857 C37.5937008,18.3643714 38.2561636,18.5786571 38.869205,18.7929429 C39.4156347,18.9735857 39.9306926,19.2365143 40.3969736,19.5729429 C40.7951388,19.8637286 41.0229074,20.3325857 41.0050727,20.8245857 C41.0117339,21.1143 40.9292215,21.3990857 40.7687091,21.6408 C40.6079818,21.8754429 40.3954694,22.0704429 40.1477174,22.2108 C39.8793372,22.3640143 39.5898992,22.4767286 39.2882132,22.5450857 C38.3354529,22.7681571 37.3343455,22.6545857 36.4561471,22.2236571 C35.8618,21.9438 35.3454529,21.5229429 34.9520149,20.9979429 L32.1865603,24.0215143 C32.9732215,24.7625143 33.903205,25.3357286 34.9197835,25.7058 C36.7851223,26.3345143 38.7959322,26.3951571 40.6956512,25.8793714 C41.4788744,25.6648714 42.2131058,25.3010143 42.8573041,24.8079429 C43.4817339,24.3251571 43.9873372,23.7067286 44.3356512,22.9993714 C44.7151223,22.2028714 44.9020645,21.3288 44.8814364,20.4472286 C44.8814364,19.4242286 44.6831058,18.6073714 44.2862298,17.9958 C43.9041802,17.3998714 43.3893372,16.8999429 42.7820975,16.5343714" id="Fill-6" fill="#000000"></path>
            <path d="M54.2543719,21.2915571 C54.2629669,21.6369857 54.1815289,21.9789857 54.0180083,22.2837 C53.8622231,22.5590571 53.6445537,22.7945571 53.3819752,22.9715571 C53.1045702,23.1618429 52.7985868,23.3064857 52.4751983,23.4001286 C52.1324711,23.4993429 51.7770661,23.5490571 51.420157,23.5479857 C51.0011488,23.5469143 50.589876,23.4361286 50.227595,23.2265571 C49.861876,23.0339143 49.6394793,22.6488429 49.6560248,22.2365571 C49.6364711,21.8684143 49.7877438,21.5120571 50.066438,21.2699143 C50.3571653,21.0292714 50.6953802,20.8518429 51.0591653,20.7494143 C51.4549669,20.6313429 51.8630165,20.5595571 52.2753636,20.5351286 C52.6922231,20.5107 53.0439752,20.4987 53.330405,20.4987 L54.2543719,20.4987 L54.2543719,21.2915571 Z M56.5535455,15.0494143 C56.1076777,14.5066286 55.5234298,14.0937 54.8624711,13.8537 C53.9967355,13.5549857 53.0835124,13.4163429 52.1679256,13.4444143 C51.1870165,13.4418429 50.2127686,13.6049143 49.286438,13.9265571 C48.3828843,14.2325571 47.5534628,14.7237 46.8518926,15.3687 L48.8394959,17.4001286 C49.2202562,16.9674857 49.6794463,16.6104857 50.1932149,16.3479857 C50.7134298,16.0889143 51.2880083,15.9573429 51.8692479,15.9644143 C52.4799256,15.9526286 53.0744876,16.1594143 53.545281,16.5472714 C54.0190826,16.9327714 54.2820909,17.5192714 54.2543719,18.1287 C53.7414628,18.1299857 53.1827851,18.1385571 52.5783388,18.1544143 C51.9715289,18.1709143 51.3662231,18.2202 50.7647851,18.3022714 C50.1715124,18.3824143 49.5857603,18.5105571 49.0135455,18.6858429 C48.4757107,18.8465571 47.9677438,19.0932 47.5094132,19.4165571 C47.0732149,19.7264143 46.7156612,20.1337714 46.4651157,20.6058429 C46.1930826,21.1516286 46.0611488,21.7559143 46.0804876,22.3651286 C46.0686694,22.9212 46.1877107,23.4725571 46.4285868,23.9744143 C46.6527025,24.4272 46.9748017,24.8244857 47.3718926,25.1379857 C47.7825207,25.4581286 48.2507355,25.6977 48.7513967,25.8429857 C49.2791322,26.0009143 49.8270661,26.0804143 50.3780083,26.0787 C51.1240579,26.0795571 51.8630165,25.9340571 52.5525537,25.6501286 C53.2358595,25.3728429 53.8143058,24.8877 54.2049504,24.2637 L54.2457769,24.2637 L54.2457769,25.7744143 L57.6837934,25.7744143 L57.6837934,19.6565571 C57.6943223,18.7623429 57.6107355,17.8696286 57.4345372,16.9927714 C57.2963719,16.2856286 56.994686,15.6200571 56.5535455,15.0494143 Z" id="Fill-8" fill="#000000"></path>
            <mask id="mask-4" fill="white">
                <use xlink:href="#path-3"></use>
            </mask>
            <g id="Clip-11"></g>
            <polygon id="Fill-10" fill="#000000" mask="url(#mask-4)" points="59.4458843 25.7745 63.1718347 25.7745 63.1718347 7.04807143 59.4458843 7.04807143"></polygon>
            <path d="M73.5051802,18.3943071 L68.5864529,18.3943071 C68.6034281,18.0977357 68.6762711,17.80695 68.8013289,17.5371643 C68.9240231,17.2667357 69.0991471,17.0235214 69.3172463,16.82145 C69.5546843,16.6065214 69.8282215,16.43445 70.1251802,16.3135929 C70.4726347,16.17495 70.8445851,16.1070214 71.2186843,16.1143071 C71.8439736,16.0922357 72.4488496,16.3352357 72.8839736,16.7828786 C73.307924,17.2090929 73.5333289,17.7925929 73.5051802,18.3921643 L73.5051802,18.3943071 Z M75.6904694,15.1480929 C75.2003372,14.58945 74.5888,14.1497357 73.9027008,13.8623786 C73.1585851,13.55745 72.3605355,13.4057357 71.5562545,13.4166643 C70.6628,13.41045 69.7755769,13.5613071 68.9345521,13.8623786 C68.1440231,14.1448071 67.417957,14.58195 66.7988992,15.1480929 C66.1899405,15.7078071 65.7034612,16.3870929 65.3699736,17.1428786 C64.674205,18.8078786 64.674205,20.68095 65.3699736,22.3457357 C65.7028165,23.1021643 66.1892959,23.78145 66.7988992,24.3407357 C67.4177421,24.9073071 68.1440231,25.34445 68.9345521,25.62645 C69.7755769,25.9273071 70.6628,26.0781643 71.5562545,26.0721643 C72.5339405,26.07195 73.500238,25.8608786 74.3881058,25.4528786 C75.2783372,25.0607357 76.0581223,24.4566643 76.6595603,23.6935929 L74.0509653,21.7757357 C73.7507835,22.1912357 73.3762545,22.5480214 72.9462876,22.8278786 C72.4800066,23.1130929 71.9398083,23.2555929 71.3929488,23.2373786 C70.7236099,23.2575214 70.0701719,23.0327357 69.5557587,22.6050214 C69.0482215,22.1661643 68.7063537,21.56745 68.5864529,20.9078786 L77.2180231,20.9078786 L77.2180231,19.7445214 C77.2296264,18.86145 77.0953289,17.98245 76.8207174,17.1428786 C76.5802711,16.4098071 76.1958579,15.7315929 75.6904694,15.1480929 Z" id="Fill-12" fill="#000000" mask="url(#mask-4)"></path>
            <path d="M87.9942066,20.2716214 C87.6955289,19.8276214 87.2956446,19.4603357 86.8274298,19.2001929 C86.3529835,18.9346929 85.8426529,18.7386214 85.3125537,18.6171214 L83.7976777,18.2699786 C83.3971488,18.1864071 83.0062893,18.0619071 82.6309008,17.8994786 C82.353281,17.8009071 82.1687025,17.53755 82.1710661,17.2437643 C82.1480744,16.9206214 82.3251322,16.6163357 82.6177934,16.4766214 C82.9035785,16.3341214 83.2183719,16.2606214 83.5376777,16.2623357 C84.379562,16.2374786 85.1825537,16.6148357 85.6993306,17.2778357 L87.9748678,15.0237643 C87.4138264,14.4304071 86.700438,14.00205 85.9120579,13.7849786 C85.1292645,13.55805 84.3185372,13.4412643 83.5032975,13.4378357 C82.8747851,13.43805 82.2488512,13.5171214 81.6403223,13.67355 C81.0582231,13.8171214 80.5070661,14.0646214 80.0137107,14.4044786 C79.5420579,14.7344786 79.1511983,15.1666929 78.8705702,15.6687643 C78.5701736,16.2316929 78.4219091,16.8634071 78.4408182,17.5006929 C78.4088017,18.1401214 78.5688843,18.7744071 78.9006529,19.3221214 C79.1958926,19.7659071 79.5987851,20.1276214 80.0717273,20.3742643 C80.5504711,20.6243357 81.0597273,20.8118357 81.5866033,20.9316214 L83.1012645,21.27855 C83.5050165,21.3627643 83.8971653,21.49605 84.2682562,21.6751929 C84.5506033,21.7956214 84.7319587,22.0739786 84.7280909,22.3801929 C84.7356116,22.7011929 84.5183719,22.9842643 84.2059421,23.0616214 C83.8305537,23.1899786 83.4358264,23.2529786 83.0391653,23.24805 C82.5262562,23.2596214 82.0182893,23.1449786 81.5608182,22.9137643 C81.1125868,22.6692643 80.7191488,22.33605 80.4047851,21.9344786 L78.1485868,24.4266214 C78.7474463,25.0437643 79.5025207,25.4879786 80.333876,25.7123357 C81.1663058,25.94505 82.0266694,26.0631214 82.8909008,26.06355 C83.5490661,26.06205 84.2059421,25.9996929 84.852719,25.8771214 C85.4810165,25.7661214 86.0854628,25.5486214 86.6404876,25.2342643 C87.163281,24.9359786 87.6095785,24.5206929 87.9447851,24.0216214 C88.305562,23.4447643 88.4830496,22.7723357 88.4540413,22.09305 C88.4860579,21.4538357 88.3259752,20.81955 87.9942066,20.2716214" id="Fill-13" fill="#000000" mask="url(#mask-4)"></path>
            <polygon id="Fill-14" fill="#000000" mask="url(#mask-4)" points="92.7042678 8.23729286 90.6178215 8.23729286 90.6178215 25.7722929 100.753524 25.7722929 100.753524 23.8437214 92.7042678 23.8437214"></polygon>
            <path d="M111.445691,21.67515 C111.081046,22.6968643 110.307493,23.52165 109.310038,23.9530071 C108.219327,24.3993643 106.996683,24.3993643 105.906402,23.9530071 C104.908732,23.5214357 104.135393,22.69665 103.770319,21.67515 C103.575641,21.13065 103.478947,20.5559357 103.484534,19.9780071 L103.486683,19.9780071 C103.480451,19.4000786 103.576501,18.8253643 103.770319,18.2808643 C104.134964,17.2585071 104.908302,16.4328643 105.906402,16.0008643 C106.996683,15.5549357 108.219327,15.5549357 109.310038,16.0008643 C110.307922,16.4328643 111.081476,17.2585071 111.445691,18.2808643 C111.826881,19.3803643 111.826881,20.57565 111.445691,21.67515 M112.045195,15.5808643 C111.483939,15.0344357 110.816104,14.60865 110.083377,14.3294357 C108.481046,13.7345786 106.717774,13.7345786 105.115443,14.3294357 C104.385939,14.6067214 103.720468,15.0297214 103.160071,15.5722929 C102.605691,16.1230071 102.167344,16.7787214 101.870815,17.5008643 C101.547856,18.2864357 101.386914,19.1290071 101.398088,19.9780071 C101.383691,20.8295786 101.542269,21.6749357 101.864369,22.4637214 C102.160898,23.1858643 102.599245,23.8413643 103.153625,24.3922929 C103.714881,24.9387214 104.382716,25.3647214 105.115443,25.6437214 C106.717774,26.23815 108.481046,26.23815 110.083377,25.6437214 C110.816104,25.3645071 111.483939,24.9385071 112.045195,24.3922929 C112.59936,23.84115 113.037707,23.18565 113.334451,22.4637214 C113.963823,20.8717929 113.963823,19.10115 113.334451,17.5094357 C113.037707,16.7872929 112.59936,16.1317929 112.045195,15.5808643" id="Fill-15" fill="#000000" mask="url(#mask-4)"></path>
            <path d="M129.772489,23.8950214 C129.504539,24.02895 129.220902,24.1290214 128.928026,24.1930929 C128.646109,24.2567357 128.357745,24.28995 128.068522,24.2916643 C127.724506,24.3096643 127.381779,24.2357357 127.075795,24.0773786 C126.849101,23.9430214 126.667316,23.7445929 126.553861,23.5071643 C126.430952,23.2427357 126.363266,22.9562357 126.353812,22.6652357 C126.336621,22.3438071 126.328026,21.9930214 126.328026,21.6130929 L126.328026,15.8166643 L129.766043,15.8166643 L129.781084,15.8166643 L129.781084,14.18145 L126.343068,14.18145 L126.343068,10.8878786 L124.409183,10.8878786 L124.409183,14.18145 L121.966043,14.18145 L121.875795,14.18145 L119.133977,14.18145 L119.133977,11.9893071 C119.133977,11.4936643 119.146225,11.0316643 119.170506,10.6030929 C119.184258,10.2235929 119.268704,9.85009286 119.419762,9.50166429 C119.55363,9.20380714 119.774737,8.95373571 120.053861,8.78359286 C120.415498,8.59352143 120.823117,8.50652143 121.231167,8.53309286 C121.677894,8.54187857 122.119679,8.62673571 122.537613,8.78359286 L122.823398,7.03930714 C122.60444,6.93130714 122.369365,6.85909286 122.1272,6.82502143 C121.864836,6.77702143 121.59882,6.75195 121.332159,6.75002143 C120.660241,6.73030714 119.991332,6.85287857 119.37034,7.11002143 C118.861514,7.32837857 118.41715,7.67380714 118.081084,8.11309286 C117.747167,8.56652143 117.514241,9.08595 117.397779,9.63645 C117.259398,10.2750214 117.192357,10.9268786 117.197944,11.5800214 L117.197944,14.18145 L114.664555,14.18145 L114.664555,15.8166643 L117.197944,15.8166643 L117.200093,15.8166643 L117.200093,25.7745214 L119.133977,25.7745214 L119.133977,15.8166643 L121.875795,15.8166643 L121.966043,15.8166643 L124.38125,15.8166643 L124.38125,22.1871643 C124.377812,22.72995 124.414985,23.2723071 124.492985,23.8095214 C124.548853,24.24795 124.706357,24.6675214 124.95282,25.0350214 C125.197993,25.37595 125.533415,25.64145 125.921911,25.8021643 C126.452869,26.00445 127.019283,26.0968071 127.5872,26.0745214 C127.974621,26.0725929 128.361183,26.0395929 128.743233,25.97595 C129.123779,25.9170214 129.495084,25.8090214 129.847911,25.6545214 L129.772489,23.8950214 Z" id="Fill-16" fill="#000000" mask="url(#mask-4)"></path>
        </g>
    </g>
</svg>