<?xml version="1.0" encoding="UTF-8"?>
<svg width="218px" height="34px" viewBox="0 0 218 34" version="1.1" xmlns="http://www.w3.org/2000/svg" xmlns:xlink="http://www.w3.org/1999/xlink">
    <!-- Generator: Sketch 48.2 (47327) - http://www.bohemiancoding.com/sketch -->
    <title>Baremetrics logo</title>
    <desc>Created with Sketch.</desc>
    <defs>
        <polygon id="path-1" points="0.034201505 0.10995079 30.1026553 0.10995079 30.1026553 22.8807471 0.034201505 22.8807471"></polygon>
    </defs>
    <g id="Product_Messages_Desktop" stroke="none" stroke-width="1" fill="none" fill-rule="evenodd" transform="translate(-340.000000, -2133.000000)">
        <g id="#customer_quote" transform="translate(137.000000, 1844.000000)">
            <g id="Baremetrics-logo" transform="translate(203.000000, 289.000000)">
                <path d="M24.0206143,0 C24.5202611,0.189206178 25.0712101,0.295865661 25.5073639,0.587507184 C26.1377214,1.00886494 26.8209049,1.46489583 27.239958,2.08302802 C28.2251984,3.53736351 29.0675374,5.09642241 30.0294124,6.71708333 C27.0901148,9.58316092 24.2004262,12.4008369 21.2618058,15.2662105 C20.2672531,14.6841595 19.3145211,14.1279813 18.3634822,13.5688111 C17.2837644,12.9337823 16.2067556,12.2941774 15.1263606,11.6603807 C13.8834237,10.9313649 13.2561139,11.0151437 12.2915299,12.0919468 C9.31328992,15.4170474 6.34453156,18.7511243 3.3734028,22.0830891 C3.18309344,22.2965841 3.00429745,22.5213434 2.82465489,22.7353664 C2.68260013,22.66162 2.57965698,22.6447234 2.54494753,22.5848815 C1.86091743,21.406523 1.12456919,20.2552694 0.521979306,19.0329095 C-0.239427467,17.488283 -0.153246446,15.8876868 0.685706313,14.4025503 C2.95553491,10.3843391 5.25939569,6.38689655 7.57155288,2.39455819 C8.19141283,1.32426724 9.13398599,0.64435704 10.2812602,0.270872845 C10.5191469,0.193430316 10.7495838,0.0909949713 10.983407,0 L24.0206143,0 Z" id="Fill-1" fill="#000000"></path>
                <g id="Group-5" transform="translate(5.079431, 10.885251)">
                    <mask id="mask-2" fill="white">
                        <use xlink:href="#path-1"></use>
                    </mask>
                    <g id="Clip-4"></g>
                    <path d="M27.5679369,0.10995079 C28.3782755,1.66513757 29.1495025,2.96089188 29.7449812,4.33884088 C30.3624707,5.76765553 30.1413462,7.23431142 29.3814632,8.55699461 C27.0975815,12.5315564 24.7859323,16.4890456 22.4651401,20.4403746 C21.5212124,22.0476591 20.0734051,22.8347568 18.2944189,22.8521814 C14.403913,22.8900226 10.5127299,22.8903746 6.62222408,22.8527094 C4.80683528,22.8349328 3.36529264,21.9987295 2.39799958,20.3726124 C1.61373537,19.0539774 0.855037625,17.7191498 0.034201505,16.3038876 C3.01938336,13.408065 5.97679766,10.5393473 8.97958821,7.62645223 C10.0567663,8.25391272 11.0853512,8.84934016 12.1103804,9.45110381 C13.165717,10.070644 14.2139423,10.7035607 15.2726651,11.3169407 C16.3749018,11.9554896 17.0403073,11.8634386 17.9080435,10.9070233 C20.9446969,7.55957004 23.969837,4.20120438 26.9970088,0.844598779 C27.1490531,0.675809267 27.2780707,0.484667026 27.5679369,0.10995079" id="Fill-3" fill="#000000" mask="url(#mask-2)"></path>
                </g>
                <path d="M123.433773,15.7502791 L123.433773,29.3868524 L118.573435,29.3868524 C118.554472,29.0124881 118.52264,28.670157 118.522133,28.3280018 C118.51773,25.6006167 118.537709,22.8728797 118.508926,20.1458466 C118.499275,19.2415291 118.437475,18.3254192 118.278997,17.4381742 C118.039248,16.0970104 117.262941,15.4809903 115.959729,15.4917267 C115.353075,15.4968308 114.74693,15.5689932 114.026666,15.6184508 L114.026666,29.3900205 L109.202392,29.3900205 L109.202392,12.0041728 C110.59551,11.7561807 111.996587,11.4523948 113.412394,11.2668847 C115.491066,10.9944278 117.573125,10.8622475 119.591014,11.704083 C119.79961,11.7912058 120.086767,11.705491 120.331595,11.6625456 C122.669996,11.2535083 125.009413,10.8300384 127.389973,11.2325636 C128.964428,11.4988603 130.329271,12.2414285 131.491445,13.3650492 C132.442653,14.2848552 132.934173,15.4031958 132.921643,16.7980413 C132.886934,20.6395427 132.909622,24.4815722 132.909622,28.3236017 L132.909622,29.3681958 L127.97597,29.3681958 L127.97597,28.3116333 C127.975632,25.5254623 127.998828,22.7391153 127.96124,19.9534723 C127.949219,19.0523229 127.853556,18.135509 127.661723,17.2574163 C127.389804,16.0146397 126.685625,15.4971828 125.47435,15.4897906 C124.995868,15.4867985 124.5162,15.5207676 124.038734,15.5608969 C123.876023,15.5744494 123.718899,15.6580521 123.433773,15.7502791" id="Fill-6" fill="#000000"></path>
                <path d="M48.0989649,25.5086361 C48.919801,25.5086361 49.6702023,25.5301088 50.4190798,25.50406 C51.7646212,25.4570665 52.7987935,24.8450945 53.4252567,23.5826052 C54.2088436,22.0029537 54.2540506,20.329843 53.9814544,18.6157231 C53.508898,15.641754 50.4732605,14.4153459 48.0989649,16.2690384 L48.0989649,25.5086361 Z M43.184107,4.19363614 C44.774477,3.79023096 46.3272592,3.39650611 48.0261597,2.96582004 L48.0261597,11.785292 C48.8425936,11.5814774 49.5129093,11.3574221 50.199987,11.2518186 C54.6422885,10.5696203 57.8382667,12.8224939 58.836375,17.3564019 C59.2630472,19.2938732 59.3111325,21.2647856 58.8721003,23.2026088 C58.0971484,26.6252166 56.0767199,28.8138481 52.7402107,29.609394 C50.4109528,30.1646922 45.2785259,29.7426304 43.184107,28.8161361 L43.184107,4.19363614 Z" id="Fill-8" fill="#000000"></path>
                <path d="M101.333455,18.5986857 C101.454515,16.6569903 100.212425,15.3029781 98.376718,15.2874896 C96.509519,15.2716491 95.1387498,16.6955356 95.2342431,18.5986857 L101.333455,18.5986857 Z M106.019569,22.2013473 L95.1421361,22.2013473 C95.2703071,23.4075147 95.8207481,24.2190772 96.7355537,24.7793035 C98.2344939,25.6975255 99.8754889,25.6239551 101.507172,25.4087001 C102.504433,25.2773998 103.484425,25.0030068 104.565159,24.7729673 C104.776124,26.0901943 104.986413,27.4035492 105.202119,28.7492892 C104.940529,28.8823495 104.753606,29.0120657 104.547719,29.0770119 C102.00631,29.8804781 99.4183401,30.2263294 96.7855015,29.7206649 C92.7627611,28.9485277 90.3205704,25.9212288 90.0645671,21.4329063 C89.916925,18.8456218 90.3832168,16.4176225 91.9050144,14.2860169 C95.2626879,9.5826153 102.839676,10.062759 105.247665,15.1340126 C106.122851,16.9769688 106.479935,20.0811821 106.019569,22.2013473 Z" id="Fill-10" fill="#000000"></path>
                <path d="M140.807359,18.566371 L147.041345,18.566371 C146.885237,16.4273732 145.799424,15.2900241 143.976924,15.2852719 C142.148498,15.2805198 140.995975,16.4574702 140.807359,18.566371 M151.713237,22.1894494 L140.800079,22.1894494 C140.88118,23.4514106 141.49376,24.2531167 142.433454,24.8165111 C143.911738,25.7025241 145.527167,25.6194494 147.129389,25.4098265 C148.125127,25.2794062 149.103256,25.0034292 150.190423,24.7712777 C150.405283,26.0849846 150.619974,27.3993955 150.835681,28.7196146 C150.699721,28.8160657 150.617773,28.9054767 150.518216,28.9399738 C147.57367,29.9632712 144.571726,30.3705485 141.541676,29.4887597 C138.168256,28.5069996 136.305967,26.0534795 135.822066,22.5073157 C135.466845,19.9041907 135.695589,17.3649558 137.05112,15.0332317 C139.443024,10.9187453 145.098463,9.73035453 148.835739,12.5793596 C150.400373,13.7723265 151.215791,15.4359328 151.586251,17.3668919 C151.88543,18.9254228 151.983632,20.49293 151.713237,22.1894494" id="Fill-12" fill="#000000"></path>
                <path d="M71.0170886,21.9522464 C69.596541,21.7376954 68.2101948,21.5821063 66.8561877,22.1349404 C66.1638612,22.4177816 65.8358992,23.0072249 65.8401321,23.7980187 C65.8440263,24.5583635 66.0470343,25.2043046 66.7708533,25.5109066 C68.1529666,26.0964777 69.5665723,25.8696063 71.0170886,25.7393621 L71.0170886,21.9522464 Z M75.6529164,28.9963484 C74.2801154,29.2156516 72.8465305,29.5720632 71.3997391,29.6436976 C69.4934285,29.7382126 67.5547788,29.7881983 65.6698018,29.535982 C62.5442584,29.1172644 60.8971681,26.9969231 60.9322161,23.8407881 C60.9643859,20.9511257 62.7428641,18.877954 65.7844277,18.51063 C67.4719841,18.3068154 69.2010226,18.4740208 70.8973834,18.4740208 C71.258023,17.1112083 70.5719611,15.816158 69.2404728,15.4884353 C67.4724921,15.0533491 65.7107759,15.3418226 63.9664992,15.7441717 C63.7265807,15.7992615 63.4871702,15.8568154 63.1651342,15.9328499 C62.9741476,14.5948542 62.7939971,13.3314849 62.5962379,11.9442076 C63.2032299,11.7944267 63.7609515,11.6323254 64.3278161,11.5212658 C66.6707885,11.0620668 69.0215493,10.8253391 71.3746806,11.4337909 C73.89374,12.0850122 75.4988403,13.7797716 75.6258261,16.4686114 C75.8163048,20.5042471 75.7477324,24.5530833 75.7851509,28.5966394 C75.7859975,28.677074 75.7336793,28.7582126 75.6529164,28.9963484 Z" id="Fill-14" fill="#000000"></path>
                <path d="M217.182367,11.9273111 C216.889623,13.2966358 216.622614,14.5445165 216.343076,15.8515352 C215.372566,15.6383922 214.48248,15.3599511 213.574955,15.2677241 C212.717886,15.1807773 211.837959,15.2416753 210.976657,15.3298542 C210.434343,15.385296 209.958569,15.7858851 210.016983,16.3691681 C210.059481,16.7928139 210.35358,17.3255833 210.694071,17.5515747 C211.374715,18.0033815 212.174725,18.2561257 212.906333,18.631194 C213.989437,19.1863161 215.090488,19.7169734 216.122629,20.3634425 C218.47322,21.8352026 218.888718,27.2973649 215.317031,28.9856121 C213.240221,29.9673721 211.053864,30.085296 208.852439,29.8466322 C207.467447,29.6961473 206.107683,29.2960862 204.628214,28.9850841 C204.925869,27.4642184 205.186274,26.135199 205.452944,24.7734425 C206.621214,25.063676 207.695175,25.4190316 208.79521,25.5774368 C209.791964,25.7207055 210.818009,25.6863843 211.829155,25.6571674 C212.341161,25.6422069 212.841485,25.4537047 212.968471,24.8074116 C213.093764,24.1706228 212.840977,23.6939993 212.312209,23.4229504 C211.454631,22.9831121 210.559297,22.6230043 209.700534,22.185454 C208.767951,21.7105905 207.802859,21.2712802 206.949853,20.6668764 C204.512403,18.939556 204.310919,13.9223362 207.468293,12.1286616 C208.245108,11.6874152 209.125035,11.3450841 209.99548,11.1975912 C212.395681,10.790842 214.75677,11.0863556 217.182367,11.9273111" id="Fill-16" fill="#000000"></path>
                <path d="M155.43023,15.4226796 C154.818835,15.3795582 154.322744,15.3447091 153.762314,15.3051078 L153.762314,11.2861925 C154.280585,11.2423671 154.797332,11.1988937 155.425489,11.1457399 L155.425489,7.46088362 C157.085278,7.03899784 158.655838,6.64016882 160.356431,6.20807471 L160.356431,11.0679454 L164.503618,11.0679454 C164.207487,12.5432256 163.938954,13.8799892 163.652813,15.3054598 L160.603292,15.3054598 C160.487989,15.4492565 160.420602,15.4941379 160.42094,15.5384914 C160.441427,18.1145115 160.444644,20.6914116 160.513724,23.2660237 C160.526423,23.7371911 160.780225,24.2139907 160.974768,24.6640374 C161.230432,25.2552407 161.698587,25.5680029 162.330976,25.5058728 C163.391053,25.4020295 164.448083,25.265097 165.65648,25.1246444 C165.860503,26.2942026 166.082644,27.5684842 166.299705,28.8130208 C164.483808,29.9739547 160.143434,30.5764224 157.711741,28.5810453 C156.212123,27.3507651 155.643904,25.6714943 155.562633,23.8016092 C155.457151,21.3722019 155.468325,18.9371624 155.430907,16.5044109 C155.425658,16.1624318 155.43023,15.8202766 155.43023,15.4226796" id="Fill-18" fill="#000000"></path>
                <path d="M202.067249,12.0847658 C201.725065,13.4345539 201.398627,14.723796 201.084887,15.9619964 C199.956915,15.7840546 198.93832,15.5281422 197.910581,15.4795647 C195.271986,15.3547766 193.654356,16.9141875 193.521106,19.6771257 C193.479116,20.5464181 193.506714,21.4436954 193.667732,22.2945072 C194.066637,24.4049921 195.255055,25.4798592 197.315272,25.4772191 C198.734804,25.475283 200.153997,25.2221868 201.712366,25.0674777 C201.91148,26.2609727 202.134129,27.5956243 202.389793,29.1289864 C201.259958,29.3780345 200.210717,29.6819964 199.141497,29.8289612 C197.250425,30.0887457 195.373067,29.9820862 193.560895,29.2738391 C191.210473,28.3556171 189.658706,26.6450172 188.946401,24.1497838 C188.341779,22.0320826 188.25255,19.8812924 188.786568,17.7278621 C189.744718,13.8645359 192.737519,11.3281171 196.596532,11.1065259 C198.441382,11.0005704 200.251691,11.1350388 202.067249,12.0847658" id="Fill-20" fill="#000000"></path>
                <path d="M83.7789908,11.0003592 C83.9376384,11.6193714 84.0590368,12.0928269 84.1658742,12.5092565 C85.5738926,12.006408 86.945339,11.5165841 88.4510518,10.9787105 L88.4510518,15.6923204 C86.9111375,16.1279346 85.3698687,16.6017421 84.1394611,17.9282974 L84.1394611,29.3246695 L79.3145092,29.3246695 L79.3145092,12.2070546 C80.7701049,11.8136818 82.2268859,11.4199569 83.7789908,11.0003592" id="Fill-22" fill="#000000"></path>
                <path d="M169.007296,12.2781257 C170.462214,11.888449 171.923397,11.4971882 173.430634,11.093783 C173.57726,11.6518973 173.700521,12.1213046 173.822766,12.5868398 C175.21961,12.0850474 176.582252,11.5959274 178.076959,11.0589339 L178.076959,15.7878563 C176.543818,16.1865093 175.043692,16.6738693 173.804311,17.9969045 L173.804311,29.3397708 L169.007296,29.3397708 L169.007296,12.2781257 Z" id="Fill-24" fill="#000000"></path>
                <path d="M180.661882,12.2874012 C182.238537,11.8936764 183.789457,11.5064637 185.439426,11.0942583 L185.439426,29.3578466 L180.661882,29.3578466 L180.661882,12.2874012 Z" id="Fill-26" fill="#000000"></path>
                <path d="M185.934264,6.31232292 C185.94256,8.06322809 184.764132,9.32923743 183.104682,9.35211818 C181.389019,9.37605496 180.133384,8.11620582 180.122886,6.36002047 C180.111881,4.59503484 181.351093,3.31107292 183.056427,3.32022522 C184.730608,3.32920151 185.925968,4.57197809 185.934264,6.31232292" id="Fill-28" fill="#000000"></path>
            </g>
        </g>
    </g>
</svg>