
<svg viewBox="0 0 30 30" xmlns="http://www.w3.org/2000/svg" xmlns:xlink="http://www.w3.org/1999/xlink"><defs><path id="a" d="M0 .081h13.999v16.998H0z"/></defs><g fill="none" fill-rule="evenodd"><path d="M21.002 25.887c.54 0 1.45 0 4.89-6.54l-1.77-.93a43.172 43.172 0 0 1-3.12 5.19 12.71 12.71 0 0 1-1.07-2.09l-1.86.75c1.46 3.62 2.53 3.62 2.93 3.62" fill="#286EFA"/><g transform="translate(0 -.08)"><mask id="b" fill="#fff"><use xlink:href="#a"/></mask><path d="M13.999 2.08a2 2 0 0 0-2-2h-10a2 2 0 0 0-2 2v14a1 1 0 0 0 1.602.799l3.729-2.8h6.669a2 2 0 0 0 2-2V2.082zm-2 10h-7c-.215 0-.426.07-.6.199l-2.4 1.8V2.082h10v9.999z" fill="#286EFA" mask="url(#b)"/></g><path d="M16 16.627h12v11.302H16c.06-5.55.08-9.752 0-11.302zm3-7a3 3 0 0 1 6 0v5h-6v-5zm11 6a1 1 0 0 0-1-1h-2v-5a5 5 0 1 0-10 0v5h-2a.996.996 0 0 0-.74.29.999.999 0 0 0-.27.94c.06.93 0 8.932 0 13.062a1 1 0 0 0 1 1h13.754c.567 0 1.24-.344 1.24-1 0-1 .016-13.292.016-13.292z" fill="#286EFA"/></g></svg>
