<svg width="32px" height="31px" viewBox="0 0 32 31" version="1.1" xmlns="http://www.w3.org/2000/svg" xmlns:xlink="http://www.w3.org/1999/xlink">
  <g id="Platform" stroke="none" stroke-width="1" fill="none" fill-rule="evenodd" transform="translate(-1096.000000, -513.000000)">
      <g id="in-app-message-chat" transform="translate(1096.000000, 513.000000)" fill="#286EFA" fill-rule="nonzero">
          <circle id="Oval" cx="5" cy="10" r="1"></circle>
          <circle id="Oval" cx="8" cy="10" r="1"></circle>
          <circle id="Oval" cx="11" cy="10" r="1"></circle>
          <path d="M29,0 L17,0 C15.3431458,-1.01453063e-16 14,1.34314575 14,3 L14,6 L4,6 C1.790861,6 2.705415e-16,7.790861 0,10 L0,30 C6.76353751e-17,30.5522847 0.44771525,31 1,31 L25,31 C25.5522847,31 26,30.5522847 26,30 L26,20 L24,20 L24,29 L2,29 L2,14 L14,14 L14,21 C13.9976374,21.4062651 14.2413038,21.77358 14.6165185,21.929371 C14.9917332,22.0851619 15.4239095,21.9984599 15.71,21.71 L19.41,18 L29,18 C30.6568542,18 32,16.6568542 32,15 L32,3 C32,1.34314575 30.6568542,1.01453063e-16 29,0 Z M2,12 L2,10 C2,8.8954305 2.8954305,8 4,8 L14,8 L14,12 L2,12 Z M30,15 C30,15.5522847 29.5522847,16 29,16 L19,16 C18.734197,15.9984632 18.4787188,16.1028135 18.29,16.29 L16,18.59 L16,3 C16,2.44771525 16.4477153,2 17,2 L29,2 C29.5522847,2 30,2.44771525 30,3 L30,15 Z" id="Shape"></path>
      </g>
  </g>
</svg>
