<svg width="32px" height="31px" viewBox="0 0 32 31" version="1.1" xmlns="http://www.w3.org/2000/svg" xmlns:xlink="http://www.w3.org/1999/xlink">
  <g id="Platform" stroke="none" stroke-width="1" fill="none" fill-rule="evenodd" transform="translate(-277.000000, -513.000000)">
      <g id="event-tracking" transform="translate(277.000000, 513.000000)" fill="#286EFA" fill-rule="nonzero">
          <path d="M14,15 C14.2751892,14.9937815 14.5356464,14.8744053 14.72,14.67 L24.58,3.87 C24.43,4.45 24.25,5.07 24.04,5.68 L25.94,6.31 C27.57,1.42 26.94,0.75 26.57,0.43 C26.2,0.11 25.57,-0.57 20.67,1.05 L21.32,2.94 C21.97,2.72 22.64,2.52 23.26,2.36 L14,12.55 L8.71,7.29 L7.29,8.7 L13.29,14.7 C13.4770714,14.8908556 13.7327541,14.9988906 14,15 Z" id="Shape"></path>
          <path d="M30,29 L30,11 C30,10.4477153 29.5522847,10 29,10 L23,10 C22.4477153,10 22,10.4477153 22,11 L22,29 L20,29 L20,20 C20,19.4477153 19.5522847,19 19,19 L13,19 C12.4477153,19 12,19.4477153 12,20 L12,29 L10,29 L10,15 C10,14.4477153 9.55228475,14 9,14 L3,14 C2.44771525,14 2,14.4477153 2,15 L2,27 L4,27 L4,16 L8,16 L8,29 L0,29 L0,31 L32,31 L32,29 L30,29 Z M14,29 L14,21 L18,21 L18,29 L14,29 Z M24,29 L24,12 L28,12 L28,29 L24,29 Z" id="Shape"></path>
      </g>
  </g>
</svg>
