<svg width="32px" height="32px" viewBox="0 0 32 32" version="1.1" xmlns="http://www.w3.org/2000/svg" xmlns:xlink="http://www.w3.org/1999/xlink">
  <g id="Platform" stroke="none" stroke-width="1" fill="none" fill-rule="evenodd" transform="translate(-686.000000, -512.000000)">
      <g id="customer-and-company-profiles" transform="translate(686.000000, 512.000000)" fill="#286EFA" fill-rule="nonzero">
          <path d="M31,7 L20,7 L20,1 C20,0.44771525 19.5522847,3.38176876e-17 19,0 L1,0 C0.44771525,-3.38176876e-17 6.76353751e-17,0.44771525 0,1 L0,25 C6.76353751e-17,25.5522847 0.44771525,26 1,26 L12,26 L12,32 L14,32 L14,9 L30,9 L30,30 L16,30 L16,32 L31,32 C31.5522847,32 32,31.5522847 32,31 L32,8 C32,7.44771525 31.5522847,7 31,7 Z M8,9 C8,7.8954305 8.8954305,7 10,7 C11.1045695,7 12,7.8954305 12,9 C12,10.1045695 11.1045695,11 10,11 C8.8954305,11 8,10.1045695 8,9 Z M10,13 C10.7034308,13.004283 11.3932927,13.1939951 12,13.55 L12,18 L6,18 L6,17 C6,14.790861 7.790861,13 10,13 Z M18,7 L13.44,7 C12.6861831,5.63071391 11.2038386,4.8259574 9.64491133,4.93966757 C8.08598402,5.05337774 6.73610818,6.06472005 6.18896789,7.52889964 C5.64182761,8.99307923 5.99767262,10.6418219 7.1,11.75 C5.18827609,12.8054732 4.0009531,14.8162621 4,17 L4,19 C4,19.5522847 4.44771525,20 5,20 L12,20 L12,21 C12,22.6568542 10.6568542,24 9,24 L2,24 L2,2 L18,2 L18,7 Z" id="Shape"></path>
          <path d="M22,28 C22.2574695,27.9989747 22.5046225,27.8986807 22.69,27.72 C22.91,27.51 28,22.5 28,17 C27.9999999,13.6862916 25.3137084,11.0000001 22,11.0000001 C18.6862916,11.0000001 16.0000001,13.6862916 16,17 C16,22.51 21.09,27.52 21.31,27.73 C21.4969425,27.905032 21.7439123,28.0016723 22,28 Z M18,17 C18,14.790861 19.790861,13 22,13 C24.209139,13 26,14.790861 26,17 C26,20.54 23.31,24 22,25.53 C20.69,24.06 18,20.56 18,17 Z" id="Shape"></path>
          <path d="M24,17.13 C24.0356217,16.599297 23.8583765,16.0762644 23.5074559,15.6765528 C23.1565354,15.2768411 22.6608488,15.0333792 22.13,15 C21.0254305,14.928203 20.071797,15.7654305 20,16.87 C19.928203,17.9745695 20.7654305,18.928203 21.87,19 L22,19 C23.0557307,19.0022324 23.9313797,18.1835006 24,17.13 Z" id="Shape"></path>
      </g>
  </g>
</svg>
