<svg width="60px" height="60px" viewBox="0 0 60 60" version="1.1" xmlns="http://www.w3.org/2000/svg" xmlns:xlink="http://www.w3.org/1999/xlink">
    <g id="Layout" stroke="none" stroke-width="1" fill="none" fill-rule="evenodd">
        <g id="operator-lp-080417" transform="translate(-134.000000, -180.000000)">
            <g id="Page-1-Copy" transform="translate(134.000000, 180.000000)">
                <path d="M60,30 C60,46.569 46.569,60 30,60 C13.431,60 0,46.569 0,30 C0,13.431 13.431,0 30,0 C46.569,0 60,13.431 60,30" id="Fill-1" fill="#A6B0BA"></path>
                <path d="M22.5,28.5 L37.5,28.5 C38.328,28.5 39,27.8265 39,27 C39,26.1735 38.328,25.5 37.5,25.5 L22.5,25.5 C21.672,25.5 21,26.1735 21,27 C21,27.8265 21.672,28.5 22.5,28.5" id="Fill-3" fill="#FFFFFF"></path>
                <path d="M22.5,22.5 L37.5,22.5 C39.981,22.5 42,24.519 42,27 C42,29.481 39.981,31.5 37.5,31.5 L22.5,31.5 C20.019,31.5 18,29.481 18,27 C18,24.519 20.019,22.5 22.5,22.5 L22.5,22.5 Z M45,36 L45,19.5 C45,17.0145 42.9855,15 40.5,15 L19.5,15 C17.0145,15 15,17.0145 15,19.5 L15,36 L45,36 Z" id="Fill-5" fill="#FFFFFF"></path>
                <path d="M15,39 L15,40.5315 L15.003,40.5315 C15.021,43.002 17.0265,45 19.5,45 L40.5,45 C42.9735,45 44.979,43.002 44.997,40.5315 L45,40.5315 L45,39 L15,39 Z" id="Fill-7" fill="#FFFFFF"></path>
            </g>
        </g>
    </g>
</svg>
