<svg width="179" height="37" viewBox="0 0 179 37" xmlns="http://www.w3.org/2000/svg">
    <title>
        Page 1
    </title>
    <g fill="none" fill-rule="evenodd">
        <path d="M165.066 17.467c-.818-.39-2.178-1.154-3.29-1.154-1.51 0-2.45 1.45-2.45 3.685 0 2.238.944 3.71 2.454 3.71 1.111 0 2.472-.764 3.29-1.155l1.41 2.604c-1.09.565-3.168 1.575-5.247 1.575-2.892 0-5.513-2.113-5.513-6.734 0-4.618 2.62-6.706 5.49-6.706 2.102 0 4.18 1.033 5.265 1.575l-1.409 2.604v-.004zm-14.827-3.82h3.562v12.897h-3.562V13.646zm-.096-4.935h3.733v3.068h-3.733V8.712zm-6.243 7.634c.246-.664 1.436-3.068 4.477-2.85v3.319c-4.056 0-4.477 4.123-4.477 4.123v5.599h-3.561v-12.89h3.561v2.7zm-14.522-2.759h1.633v-3.242l3.565-.49v3.732h3.264v2.604h-3.264v6.263c0 1.08.52 1.228.989 1.228.595 0 1.535-.443 1.833-.59l1.238 2.63c-.792.365-2.327 1.029-3.982 1.029-2.424 0-3.636-1.328-3.636-4.349v-6.214h-1.636v-2.6h-.004zm-9.41 5.282h4.674c0-2.04-.766-3.047-2.25-3.047-1.46 0-2.227 1.103-2.424 3.047zm-.026 1.914c.175 2.14.99 3.316 2.499 3.316 1.335 0 2.967-.786 4.428-1.571l1.309 2.209c-.915.564-3.313 1.988-6.083 1.988-3.216 0-5.789-2.113-5.789-6.68 0-4.296 2.276-6.756 6.086-6.756 3.834 0 5.737 2.408 5.737 5.698a7.893 7.893 0 0 1-.197 1.796h-7.99zm-20.645-5.55c.866-.834 2.376-1.94 4.056-1.94 1.933 0 2.896 1.006 3.317 2.209.765-.834 2.472-2.21 4.353-2.21 2.547 0 3.588 1.645 3.588 4.054v9.11h-3.562v-8.303c0-1.176-.223-2.11-1.387-2.11-1.015 0-2.078.908-2.721 1.694v8.719h-3.562v-8.299c0-1.18-.223-2.113-1.387-2.113-.989 0-2.052.885-2.695 1.67v8.745h-3.562V13.562h3.566v1.67h-.004zm-14.808 4.1h7.272c.048-3.363-1.287-4.787-3.44-4.787-2.249 0-3.658 1.889-3.832 4.788zm-.026 1.107c.148 3.047 1.61 5.009 3.613 5.009 1.73 0 3.488-1.129 4.525-1.793l.792 1.055c-1.138.738-3.097 2.018-5.372 2.018-2.796 0-5.168-2.287-5.168-6.731 0-4.371 2.35-6.706 5.491-6.706 3.264 0 4.97 2.357 4.97 5.551 0 .907-.148 1.597-.148 1.597h-8.703zm-6.585-4.02c.149-.391 1.361-3.168 4.573-2.921v1.471c-4.127 0-4.573 4.054-4.573 4.054v7.516H76.32V13.646h1.558v2.774zm-5.736 6.92v-3.17c-.867-.172-2.499-.615-3.811-.615-2.376 0-3.116 1.453-3.116 3.046 0 1.992 1.16 2.774 2.696 2.774 1.78 0 3.093-.904 4.23-2.032v-.004zm0 1.349c-.941.907-2.499 2.04-4.529 2.04-1.877 0-3.982-1.011-3.982-4.08 0-2.998 1.978-4.248 4.109-4.248 1.383 0 3.413.542 4.402.733v-1.619c0-1.94-.57-2.947-2.6-2.947-1.36 0-2.866.539-4.502 1.155l-.59-1.206c1.951-.76 3.71-1.228 5.241-1.228 2.473 0 4.008 1.128 4.008 4.075v9.092h-1.557v-1.767zm106.725-1.818c0 2.408-1.855 3.858-4.948 3.858-2.376 0-4.923-.886-6.284-1.671l1.387-2.482c1.26.663 3.462 1.445 4.748 1.445.94 0 1.483-.416 1.483-.98 0-1.081-1.632-1.376-3.216-1.819-1.925-.538-4.152-1.497-4.152-4.101 0-2.257 1.68-3.829 4.773-3.829 2.127 0 4.376.76 5.663 1.398L176.938 17c-1.116-.49-2.893-1.033-4.057-1.033-.888 0-1.431.399-1.431.985 0 1.08 1.558 1.28 3.116 1.722 2.149.587 4.301 1.642 4.301 4.198zm-125.98-6.075v6.384c.963 1.18 2.45 2.188 4.082 2.188 2.1 0 3.19-2.066 3.19-5.378 0-3.341-1.09-5.407-3.19-5.407-1.658 0-3.12 1.033-4.082 2.213zM51.329 8.52h1.558v6.779c.94-.911 2.35-2.04 4.279-2.04 2.498 0 4.573 1.892 4.573 6.731 0 4.813-2.075 6.702-4.573 6.702-1.93 0-3.343-1.077-4.28-2.014v1.744H51.33V8.52z" fill="#252E35"/>
        <path d="M.002 18.524c.03.668.212 1.258.558 1.856L8.706 34.39c.375.646.91 1.136 1.539 1.501v-12.51L.002 18.524z" fill="#296BAB"/>
        <path d="M10.242 35.892c.64.372 1.223.564 2.104.679h8.347V15.839l-10.451 7.542v12.511z" fill="#0077B8"/>
        <path d="M20.693 15.838V36.57h7.978a4.24 4.24 0 0 0 2.138-.594v-17.57l-10.116-2.568z" fill="#1E8BC7"/>
        <path d="M38.263 12.529l-7.451 5.875v17.571a3.959 3.959 0 0 0 1.476-1.49l8.15-14.012a4.194 4.194 0 0 0 0-4.208l-2.175-3.736" fill="#4C9DD3"/>
        <path d="M9.861 19.668l10.11-7.207 10.078 2.394 6.622-5.168-4.335-7.465a4.247 4.247 0 0 0-3.67-2.106H12.371a4.237 4.237 0 0 0-3.666 2.106L.998 15.504l8.863 4.164z" fill="#BEDBE8"/>
        <path d="M30.81 18.405l7.451-5.875-1.714-3.054-6.558 5.149-10.11-2.416-10.023 7.14-8.696-4.123-.595 1.025a4.167 4.167 0 0 0-.56 2.272l10.238 4.858 10.451-7.543" fill="#FFF"/>
    </g>
</svg>
