<svg xmlns="http://www.w3.org/2000/svg" xmlns:xlink="http://www.w3.org/1999/xlink" viewBox="0 0 1194.08 379.43">
  <defs>
    <linearGradient id="linear-gradient" x1="120.76" y1="313.82" x2="120.76" y2="9.17" gradientUnits="userSpaceOnUse">
      <stop offset="0" stop-color="#8669ae"/>
      <stop offset="1" stop-color="#957ab7"/>
    </linearGradient>
    <linearGradient id="linear-gradient-2" x1="780.35" y1="379.43" x2="780.35" y2="75.32" xlink:href="#linear-gradient"/>
    <linearGradient id="linear-gradient-3" x1="1128.28" y1="313.55" x2="1128.28" y2="75.32" xlink:href="#linear-gradient"/>
    <linearGradient id="linear-gradient-4" x1="326.95" y1="313.82" x2="326.95" y2="75.6" xlink:href="#linear-gradient"/>
    <linearGradient id="linear-gradient-5" x1="981.56" y1="313.82" x2="981.56" y2="0" xlink:href="#linear-gradient"/>
    <linearGradient id="linear-gradient-6" x1="1115.58" y1="78.63" x2="1115.58" y2="78.63" xlink:href="#linear-gradient"/>
    <linearGradient id="linear-gradient-7" x1="519.31" y1="91.05" x2="519.31" y2="91.05" xlink:href="#linear-gradient"/>
    <linearGradient id="linear-gradient-8" x1="521.33" y1="313.89" x2="521.33" y2="75.53" xlink:href="#linear-gradient"/>
  </defs>
  <title>Asset 1</title>
  <g id="Layer_2" data-name="Layer 2">
    <g id="Layer_1-2" data-name="Layer 1">
      <g>
        <path d="M226.37,157.33l-52.86.27a13,13,0,0,0-12.9,13l.11,22.22A40,40,0,0,1,121,233a41.35,41.35,0,0,1-4.15-.19,40.31,40.31,0,0,1-35.6-34,38,38,0,0,1,8-29.59c7.49-9.32,19.12-16.06,32-16.13,46.79-.24,69.66-13.67,88.11-32.32,37.66-38,31.44-64,31.27-98.09A14,14,0,0,0,226.58,9.17l-53.17.27a13.66,13.66,0,0,0-13.55,13.81l0,8.88a39.82,39.82,0,0,1-39.45,40.16h-.3a120.76,120.76,0,0,0,1.23,241.53c1.93,0,3.88-.07,5.82-.17,64.44-3.37,114.66-57.38,114.32-123l-.09-18.47A15,15,0,0,0,226.37,157.33Z" style="fill: url(#linear-gradient)"/>
        <path d="M674.73,231.28h52.86a13,13,0,0,0,13-13V196.09a40,40,0,0,1,40-40,41.35,41.35,0,0,1,4.15.21,40.31,40.31,0,0,1,35.42,34.22,38,38,0,0,1-8.2,29.55c-7.54,9.28-19.2,16-32.09,16-46.79,0-69.73,13.32-88.28,31.87-37.85,37.85-31.77,63.8-31.77,97.93a14,14,0,0,0,14,13.56h53.17a13.66,13.66,0,0,0,13.62-13.74v-8.88a39.82,39.82,0,0,1,39.66-40h.3a120.76,120.76,0,0,0,0-241.53c-1.93,0-3.88,0-5.82.14-64.46,3-114.95,56.79-114.95,122.37V216.3A15,15,0,0,0,674.73,231.28Z" style="fill: url(#linear-gradient-2)"/>
        <path d="M1194.08,112.61v27.76a14.51,14.51,0,0,1-10.63,14l-.17,0c-14.92,4.19-40,6.48-40,35.53a1.28,1.28,0,0,1,0,.25,4.81,4.81,0,0,0-.11,1v109a13.41,13.41,0,0,1-13.41,13.41h-52.5a14.78,14.78,0,0,1-14.78-14.78V216.19c0-.18.08-50.66.11-77.87,0-10,0-16.85,0-16.93l.06,0a22.7,22.7,0,0,1,22.71-22.67c3.61,0,9.75,2.67,9.82,2.7a11.37,11.37,0,0,0,4,.62c4.27,0,4.17-.83,13.7-5.73s44.3-19.24,66.86-20.92a7.17,7.17,0,0,1,1.13,0,13.93,13.93,0,0,1,12.81,13.5C1193.72,97.16,1194.08,105,1194.08,112.61Z" style="fill: url(#linear-gradient-3)"/>
        <path d="M392.76,112.88v27.76a14.51,14.51,0,0,1-10.63,14l-.17,0c-14.92,4.19-40,6.48-40,35.53a1.28,1.28,0,0,1,0,.25,4.81,4.81,0,0,0-.11,1v109a13.41,13.41,0,0,1-13.41,13.41h-52.5A14.78,14.78,0,0,1,261.15,299V216.46c0-.18.08-50.66.11-77.87,0-10,0-16.85,0-16.93l.06,0A22.7,22.7,0,0,1,284.07,99c3.61,0,9.75,2.67,9.82,2.7a11.37,11.37,0,0,0,4,.62c4.27,0,4.17-.83,13.7-5.73s44.3-19.24,66.86-20.92a7.17,7.17,0,0,1,1.13,0,13.93,13.93,0,0,1,12.81,13.5C392.4,97.43,392.76,105.25,392.76,112.88Z" style="fill: url(#linear-gradient-4)"/>
        <path d="M1029.48,233c-18.81-4.65-29-20.37-29-39.71V13.3A13.3,13.3,0,0,0,987.13,0H932.95a13.3,13.3,0,0,0-13.3,13.3V193.68c0,46.78,13.11,69.94,31.86,88.26,20.43,20,41.8,31.88,76.55,31.88,12.25,0,15.43-9.42,15.43-13.12v-54C1043.48,239.36,1041.7,236,1029.48,233Z" style="fill: url(#linear-gradient-5)"/>
        <path d="M1115.58,78.63" style="fill: url(#linear-gradient-6)"/>
        <path d="M519.31,91" style="fill: url(#linear-gradient-7)"/>
        <path d="M640.83,194.39a119.5,119.5,0,1,1-132-118.85,7.16,7.16,0,0,1,4.74,6.74v50.46c0,.93,0,1.82,0,2.69-.13,9.38-1.48,16.12-15.48,30.11-7.68,7.68-13.9,17.25-13.9,29,0,20.37,15.18,36.27,35.43,37,.29,0,.59,0,.88,0h1.6c.29,0,.59,0,.88,0,20.25-.78,35.43-16.68,35.43-37,0-11.71-6.22-21.28-13.9-29-14-14-15.35-20.74-15.48-30.15,0-1,0-2,0-3V82.28a7.16,7.16,0,0,1,4.77-6.75A119.51,119.51,0,0,1,640.83,194.39Z" style="fill: url(#linear-gradient-8)"/>
      </g>
    </g>
  </g>
</svg>
