<svg width="213px" height="38px" viewBox="0 0 213 38" version="1.1" xmlns="http://www.w3.org/2000/svg" xmlns:xlink="http://www.w3.org/1999/xlink">
    <g id="Final" stroke="none" stroke-width="1" fill="none" fill-rule="evenodd">
        <g id="Desktop-01-a-rest" transform="translate(-202.000000, -2558.000000)">
            <g id="new-relic-logo" transform="translate(202.000000, 2558.000000)">
                <path d="M74.2530133,29.9289267 L68.4415467,17.7473933 C67.0541244,14.8691044 65.6291244,11.5994156 65.1431467,10.0621044 L65.0304133,10.1744156 C65.21788,12.3475933 65.2550356,15.0852822 65.2926133,17.3703489 L65.4425022,29.9289267 L61.2080356,29.9289267 L61.2080356,3.98886 L66.0813244,3.98886 L72.3796133,16.6538378 C73.4351689,18.8067489 74.3247911,21.0373489 75.0417244,23.3257933 L75.1540356,23.2139044 C75.0417244,21.9007933 74.7799467,18.1907267 74.7799467,15.8279711 L74.7047911,3.98294889 L78.7923244,3.98294889 L78.7923244,29.9230156 L74.2530133,29.9289267 Z" id="Fill-1" fill="#000000"></path>
                <path d="M90.1448667,13.62262 C87.8218,13.62262 86.5471111,15.4592867 86.5471111,18.5334867 L93.5555778,18.5334867 C93.5555778,15.4647756 92.2086889,13.62262 90.1448667,13.62262 L90.1448667,13.62262 Z M86.5095333,21.5696867 L86.5095333,21.8580644 C86.5095333,24.48302 87.4848667,27.2549089 91.1953556,27.2549089 C92.9568667,27.2549089 94.4941778,26.61862 95.9187556,25.3810867 L97.5308,27.8937311 C95.6405111,29.53702 93.2135778,30.4312867 90.7089556,30.4067978 C85.3492667,30.4067978 81.9757111,26.54642 81.9757111,20.4735978 C81.9757111,17.1371978 82.6867333,14.9239089 84.3388889,13.0500867 C85.8762,11.2885756 87.7500222,10.4998644 90.1507778,10.4998644 C92.0756889,10.4390644 93.9474,11.1391089 95.3605778,12.44842 C97.0097778,13.9481533 97.8360667,16.2707978 97.8360667,20.6948422 L97.8360667,21.5587089 L86.5095333,21.5696867 Z" id="Fill-3" fill="#000000"></path>
                <path d="M119.7722,30.0035333 L115.897889,30.0035333 L113.574822,21.2702889 C112.976111,19.0223778 112.337289,16.0896222 112.337289,16.0896222 L112.262556,16.0896222 C112.262556,16.0896222 111.9746,17.9630222 111.0246,21.4488889 L108.739111,29.9950889 L104.876622,29.9950889 L99.6951111,11.2133778 L103.782644,10.6378889 L105.843511,19.8229111 C106.367489,22.1831333 106.819267,24.8080889 106.819267,24.8080889 L106.931578,24.8080889 C107.207711,23.0917556 107.571244,21.3906222 108.019644,19.7106 L110.457556,10.9402 L114.507511,10.9402 L116.646489,19.4944222 C117.434778,22.5690444 117.846444,24.8916889 117.846444,24.8916889 L117.958756,24.8916889 C117.958756,24.8916889 118.408,22.0134 118.897356,19.7937778 L120.845911,10.9456889 L125.120067,10.9456889 L119.7722,30.0035333 Z" id="Fill-5" fill="#000000"></path>
                <path d="M143.147773,7.47730222 L140.784173,7.47730222 L140.784173,15.6865689 L142.995351,15.6865689 C145.243262,15.6865689 146.449129,15.3986133 147.231929,14.5985022 C147.942951,13.8879022 148.383329,12.7994133 148.383329,11.4495689 C148.398107,8.82419111 146.973107,7.47434667 143.147773,7.47434667 L143.147773,7.47730222 Z M149.146284,29.9289689 L146.898373,25.9165911 C145.10224,22.7330356 143.898907,20.9339467 142.473907,19.4945911 C142.052951,18.9993244 141.434396,18.7160133 140.784173,18.7202356 L140.784173,29.9289689 L136.550129,29.9289689 L136.550129,3.98890222 L144.46004,3.98890222 C150.271507,3.98890222 152.893929,7.36245778 152.893929,11.4119911 C152.893929,15.1220578 150.496129,18.5361467 146.446173,18.5361467 C147.384351,19.0225467 149.108707,21.5356133 150.456018,23.7172356 L154.278396,29.9403689 L149.146284,29.9289689 Z" id="Fill-7" fill="#000000"></path>
                <path d="M163.578558,13.62262 C161.255491,13.62262 159.980802,15.4592867 159.980802,18.5334867 L166.977869,18.5334867 C166.977869,15.4647756 165.639424,13.62262 163.578558,13.62262 L163.578558,13.62262 Z M159.940269,21.5696867 L159.940269,21.8580644 C159.940269,24.48302 160.916024,27.2549089 164.626091,27.2549089 C166.387602,27.2549089 167.924913,26.61862 169.349913,25.3810867 L170.961536,27.8937311 C169.071247,29.53702 166.644736,30.4312867 164.139691,30.4067978 C158.780424,30.4067978 155.406869,26.54642 155.406869,20.4735978 C155.406869,17.1371978 156.117469,14.9239089 157.769624,13.0500867 C159.306936,11.2885756 161.180758,10.4998644 163.581513,10.4998644 C165.506424,10.4390644 167.378558,11.1391089 168.791313,12.44842 C170.440513,13.9481533 171.266802,16.2707978 171.266802,20.6948422 L171.266802,21.5587089 L159.940269,21.5696867 Z" id="Fill-9" fill="#000000"></path>
                <path d="M178.983884,30.3432956 C174.821618,30.3432956 174.821618,26.6015622 174.821618,24.9840289 L174.821618,8.82431778 C174.869329,6.96865111 174.748996,5.11214 174.461884,3.27758444 L178.698462,2.33940667 C178.98684,3.49080667 179.035396,5.07667333 179.035396,7.54920667 L179.035396,23.6312289 C179.035396,26.1814511 179.147707,26.5926956 179.447062,27.04194 C179.783573,27.4270067 180.332884,27.5439622 180.796907,27.3294733 L181.470773,29.8796956 C180.680373,30.1967844 179.835084,30.3542733 178.983884,30.3432956" id="Fill-11" fill="#000000"></path>
                <path d="M184.0815,29.9317978 L184.0815,11.2623978 L188.243344,10.5112644 L188.243344,29.9288422 L184.0815,29.9317978 Z M186.142367,8.15104222 C184.657411,8.13668667 183.465478,6.92195333 183.479411,5.43699778 C183.479411,5.42939778 183.479411,5.42137556 183.479833,5.41377556 C183.491233,3.91277556 184.716944,2.70564222 186.217944,2.71704222 C187.7181,2.72844222 188.925656,3.95457556 188.913833,5.45473111 C188.902433,6.95573111 187.677144,8.16286444 186.176144,8.15146444 C186.165167,8.15146444 186.153344,8.15104222 186.142367,8.15104222 L186.142367,8.15104222 Z" id="Fill-13" fill="#000000"></path>
                <path d="M200.050873,30.4183244 C194.869784,30.4183244 191.991073,26.7829911 191.991073,20.6717467 C191.991073,13.7637689 196.116184,10.4767689 200.338829,10.4767689 C202.399273,10.4767689 203.899007,10.9631689 205.585784,12.5372133 L203.533362,15.2719467 C202.40814,14.2590356 201.434918,13.8097911 200.347273,13.8097911 C199.054851,13.7878356 197.874318,14.5406578 197.348229,15.7207689 C196.771896,16.8725911 196.562051,18.6455022 196.562051,21.0057244 C196.562051,23.59648 196.973718,25.2427244 197.837162,26.1872356 C198.480207,26.8927689 199.395162,27.2892356 200.350229,27.2753022 C201.662496,27.2753022 202.940562,26.6390133 204.172607,25.4010578 L206.121162,27.9137022 C204.397229,29.6296133 202.59814,30.4183244 200.050873,30.4183244" id="Fill-15" fill="#000000"></path>
                <path d="M209.865893,26.5297 C209.751471,26.4976111 209.633671,26.4824111 209.515027,26.4836778 L209.290404,26.4836778 L209.290404,27.3298111 L209.500671,27.3298111 C209.770893,27.3298111 209.889116,27.2977222 209.972716,27.2234111 C210.052516,27.1385444 210.096427,27.0258111 210.093471,26.9092778 C210.110782,26.7463 210.017893,26.5913444 209.865893,26.5297 L209.865893,26.5297 Z M210.185516,29.1056778 C210.06476,28.8958333 210.012827,28.8177222 209.89756,28.5876111 C209.58976,28.0264778 209.49476,27.8681444 209.382449,27.8246556 C209.352049,27.8094556 209.318693,27.8014333 209.284493,27.8018556 L209.284493,29.1056778 L208.671427,29.1056778 L208.671427,25.9825 L209.822827,25.9825 C210.298671,25.9499889 210.71076,26.3093 210.743271,26.7847222 C210.745804,26.8214556 210.746227,26.8581889 210.744116,26.8949222 C210.781271,27.3234778 210.473471,27.7043222 210.047449,27.7583667 C210.09516,27.7980556 210.138227,27.8432333 210.173693,27.8934778 C210.352293,28.1185222 210.922293,29.1056778 210.922293,29.1056778 L210.185516,29.1056778 Z M209.638738,25.3318556 C208.402893,25.2778111 207.357893,26.2358333 207.303849,27.4712556 C207.249804,28.7071 208.207404,29.7525222 209.442827,29.8065667 C210.678671,29.8606111 211.724093,28.9025889 211.778138,27.6671667 C211.779404,27.6321222 211.780249,27.5975 211.780249,27.5628778 C211.813604,26.3629222 210.868249,25.3631 209.668293,25.3297444 C209.658582,25.3293222 209.648449,25.3293222 209.638738,25.3293222 L209.638738,25.3318556 Z M209.638738,30.3461667 C208.101427,30.3541889 206.848693,29.1145444 206.841093,27.5772333 C206.832649,26.0403444 208.072716,24.7876111 209.610027,24.7791667 C211.146916,24.7715667 212.399649,26.0112111 212.407671,27.5485222 C212.408093,27.5531667 212.408093,27.5582333 212.408093,27.5628778 C212.414004,29.0934333 211.17816,30.3398333 209.647182,30.3461667 L209.638738,30.3461667 Z" id="Fill-17" fill="#000000"></path>
                <path d="M23.4636489,28.3257911 C18.31296,28.3257911 14.1376044,24.1500133 14.1376044,18.9997467 C14.1376044,13.8490578 18.31296,9.67370222 23.4636489,9.67370222 C28.6143378,9.67370222 32.7896933,13.8490578 32.7896933,18.9997467 C32.7896933,24.1500133 28.6143378,28.3257911 23.4636489,28.3257911 M46.5803156,13.9740356 C44.3780044,3.85632444 32.2454489,-2.09320889 19.4770267,0.681213333 C6.70860444,3.45648 -1.85490667,13.91028 0.344448889,24.0250356 C2.54338222,34.1402133 14.6788933,40.0952356 27.44436,37.3178578 C40.2102489,34.5400578 48.7792489,24.1001911 46.5803156,13.9740356" id="Fill-20" fill="#008C99"></path>
                <path d="M23.4607778,27.1453 C18.962,27.1453 15.3148444,23.4981444 15.3148444,18.9997889 C15.3148444,14.5010111 18.962,10.8538556 23.4607778,10.8538556 C27.9595556,10.8538556 31.6067111,14.5010111 31.6067111,18.9997889 C31.6067111,23.4973 27.9612444,27.1440333 23.4637333,27.1453 L23.4607778,27.1453 Z M25.5246,5.94341111 C18.1293778,5.94467778 12.1355111,11.9410778 12.1372,19.3363 C12.1388889,26.7319444 18.1352889,32.7253889 25.5305111,32.7237 C32.9244667,32.7224333 38.9179111,26.7277222 38.9179111,19.3333444 C38.9179111,11.9381222 32.9227778,5.94341111 25.5275556,5.94341111 L25.5246,5.94341111 Z" id="Fill-23" fill="#70CCD3"></path>
            </g>
        </g>
    </g>
</svg>
