<svg width="135" height="40" viewBox="0 0 135 40" xmlns="http://www.w3.org/2000/svg">
    <title>
        Apple Store
    </title>
    <g fill="none" fill-rule="evenodd">
        <path d="M130.443 40.869H4.738C2.126 40.869 0 38.694 0 36.033V4.829C0 2.166 2.126 0 4.738 0h125.705c2.61 0 4.812 2.166 4.812 4.829v31.204c0 2.661-2.201 4.836-4.812 4.836z"/>
        <path d="M134.285 36.034c0 2.162-1.717 3.913-3.841 3.913H4.738c-2.123 0-3.846-1.751-3.846-3.913V4.828C.892 2.667 2.615.909 4.738.909h125.705c2.125 0 3.841 1.758 3.841 3.919l.001 31.206z" fill="#000"/>
        <path d="M30.185 20.214c-.03-3.293 2.644-4.895 2.766-4.97-1.514-2.25-3.86-2.558-4.685-2.583-1.97-.211-3.882 1.203-4.886 1.203-1.024 0-2.57-1.182-4.236-1.148-2.144.034-4.15 1.3-5.25 3.266-2.27 4.008-.577 9.898 1.598 13.138 1.088 1.587 2.36 3.358 4.024 3.296 1.628-.069 2.236-1.059 4.2-1.059 1.947 0 2.518 1.059 4.216 1.02 1.747-.03 2.847-1.595 3.897-3.196 1.257-1.818 1.762-3.61 1.782-3.702-.04-.014-3.393-1.319-3.426-5.265zM26.979 10.53c.876-1.117 1.475-2.636 1.308-4.178-1.267.057-2.852.894-3.765 1.986-.807.963-1.529 2.54-1.342 4.024 1.423.108 2.885-.733 3.799-1.832zM53.746 32.188h-2.275l-1.246-3.994h-4.332l-1.188 3.994H42.49l4.292-13.597h2.651l4.313 13.597zm-3.897-5.67l-1.127-3.55c-.12-.363-.343-1.217-.672-2.561h-.04c-.132.578-.343 1.432-.634 2.561l-1.107 3.55h3.58zM64.784 27.165c0 1.668-.442 2.986-1.325 3.953-.792.862-1.775 1.292-2.948 1.292-1.266 0-2.176-.464-2.73-1.392h-.04v5.165h-2.136V25.611c0-1.048-.027-2.124-.08-3.227h1.88l.118 1.554h.04c.713-1.171 1.794-1.756 3.245-1.756 1.134 0 2.08.457 2.838 1.372.76.915 1.138 2.119 1.138 3.611zm-2.176.08c0-.954-.21-1.741-.633-2.36-.462-.646-1.082-.969-1.86-.969-.527 0-1.006.18-1.433.535-.43.357-.71.824-.84 1.402-.067.27-.1.49-.1.665v1.634c0 .713.214 1.315.643 1.807.429.491.986.736 1.671.736.805 0 1.43-.316 1.879-.948.449-.632.673-1.466.673-2.502zM75.842 27.165c0 1.668-.442 2.986-1.326 3.953-.791.862-1.774 1.292-2.947 1.292-1.266 0-2.176-.464-2.73-1.392h-.04v5.165h-2.135V25.611c0-1.048-.027-2.124-.08-3.227h1.88l.118 1.554h.04c.712-1.171 1.793-1.756 3.245-1.756 1.133 0 2.08.457 2.839 1.372.756.915 1.136 2.119 1.136 3.611zm-2.176.08c0-.954-.211-1.741-.634-2.36-.462-.646-1.08-.969-1.859-.969-.528 0-1.006.18-1.435.535a2.485 2.485 0 0 0-.84 1.402c-.064.27-.098.49-.098.665v1.634c0 .713.214 1.315.64 1.807.43.49.987.736 1.674.736.805 0 1.43-.316 1.879-.948.448-.632.673-1.466.673-2.502zM88.205 28.375c0 1.157-.393 2.098-1.184 2.824-.869.794-2.078 1.19-3.632 1.19-1.434 0-2.585-.282-3.455-.847l.495-1.815a5.77 5.77 0 0 0 3.088.868c.804 0 1.43-.186 1.88-.556.448-.37.671-.866.671-1.485 0-.552-.184-1.017-.554-1.394-.367-.377-.982-.727-1.84-1.051-2.334-.888-3.5-2.189-3.5-3.899 0-1.118.409-2.034 1.228-2.747.815-.715 1.903-1.071 3.264-1.071 1.213 0 2.22.215 3.025.646l-.534 1.775c-.751-.417-1.6-.625-2.551-.625-.752 0-1.339.19-1.76.565a1.629 1.629 0 0 0-.534 1.231c0 .538.204.982.612 1.331.356.323 1.002.673 1.94 1.05 1.147.47 1.99 1.022 2.532 1.653.54.63.81 1.417.81 2.357zM95.268 24.018h-2.355v4.76c0 1.211.415 1.816 1.247 1.816.381 0 .698-.034.948-.101l.06 1.654c-.421.16-.975.241-1.662.241-.843 0-1.503-.262-1.978-.786-.474-.526-.713-1.406-.713-2.644v-4.942h-1.402v-1.634h1.402v-1.795l2.098-.646v2.44h2.355v1.637zM105.89 27.205c0 1.507-.422 2.744-1.266 3.712-.884.996-2.059 1.493-3.522 1.493-1.411 0-2.534-.477-3.372-1.432-.837-.954-1.256-2.159-1.256-3.61 0-1.52.43-2.764 1.295-3.732.863-.968 2.027-1.453 3.49-1.453 1.412 0 2.547.478 3.403 1.433.82.927 1.229 2.123 1.229 3.59zm-2.215.07c0-.904-.19-1.679-.574-2.326-.447-.782-1.088-1.173-1.917-1.173-.859 0-1.511.392-1.959 1.173-.384.648-.573 1.436-.573 2.368 0 .904.19 1.68.573 2.325.462.783 1.107 1.173 1.94 1.173.815 0 1.456-.399 1.917-1.193.394-.66.593-1.443.593-2.346zM112.834 24.3a3.639 3.639 0 0 0-.673-.06c-.752 0-1.333.288-1.742.868-.355.51-.534 1.156-.534 1.936v5.144h-2.135l.02-6.717c0-1.13-.027-2.159-.08-3.086h1.86l.079 1.876h.059c.225-.645.58-1.164 1.068-1.553a2.55 2.55 0 0 1 1.544-.526c.197 0 .375.015.534.04V24.3zM122.387 26.822c0 .39-.025.72-.078.988H115.9c.025.969.334 1.71.93 2.22.54.457 1.238.686 2.095.686.95 0 1.815-.155 2.593-.464l.335 1.512c-.91.405-1.984.606-3.223.606-1.491 0-2.661-.448-3.513-1.342-.85-.894-1.275-2.094-1.275-3.6 0-1.479.395-2.71 1.188-3.692.83-1.048 1.95-1.572 3.361-1.572 1.386 0 2.435.524 3.147 1.572.564.833.848 1.863.848 3.086zm-2.037-.565c.014-.646-.125-1.204-.415-1.675-.37-.605-.938-.908-1.702-.908-.698 0-1.266.295-1.7.888-.356.471-.567 1.036-.632 1.694h4.449v.001zM49.143 10.226c0 1.203-.354 2.108-1.06 2.716-.655.561-1.584.842-2.789.842a12.68 12.68 0 0 1-1.535-.08v-6.57c.558-.092 1.159-.14 1.808-.14 1.147 0 2.012.255 2.595.764.653.575.98 1.398.98 2.468zm-1.107.03c0-.78-.203-1.377-.608-1.794-.404-.416-.995-.624-1.774-.624-.33 0-.612.022-.846.069v4.995c.13.02.366.03.71.03.803 0 1.424-.228 1.86-.684.437-.455.658-1.12.658-1.992zM55.013 11.277c0 .74-.208 1.347-.622 1.823-.435.49-1.011.734-1.73.734-.694 0-1.246-.234-1.658-.704-.41-.469-.616-1.06-.616-1.774 0-.746.211-1.358.636-1.833.425-.475.996-.713 1.715-.713.694 0 1.25.234 1.673.703.4.456.602 1.044.602 1.764zm-1.09.034c0-.444-.093-.825-.28-1.143-.221-.384-.535-.576-.943-.576-.421 0-.742.192-.962.576-.189.318-.282.705-.282 1.163 0 .444.094.825.282 1.143.227.384.544.576.952.576.401 0 .716-.195.942-.586.195-.324.292-.708.292-1.153zM62.884 8.908l-1.478 4.817h-.962l-.612-2.092a15.909 15.909 0 0 1-.38-1.556h-.019c-.091.53-.217 1.047-.38 1.556l-.65 2.092h-.973l-1.39-4.817h1.08l.534 2.29c.129.541.235 1.057.32 1.546h.02c.078-.403.207-.916.39-1.536l.67-2.299h.855l.642 2.25c.155.549.282 1.077.379 1.586h.029c.071-.496.178-1.024.32-1.586l.574-2.25h1.03zM68.327 13.725h-1.05v-2.759c0-.85-.317-1.275-.952-1.275a.94.94 0 0 0-.758.35c-.194.234-.292.51-.292.826v2.857h-1.05v-3.44c0-.422-.013-.881-.038-1.378h.923l.049.753h.029c.122-.234.305-.427.544-.581.284-.18.603-.27.952-.27.44 0 .807.144 1.099.435.363.357.544.89.544 1.596v2.886zM71.222 13.725h-1.049V6.698h1.05zM77.404 11.277c0 .74-.207 1.347-.622 1.823-.435.49-1.012.734-1.73.734-.695 0-1.247-.234-1.658-.704-.41-.469-.616-1.06-.616-1.774 0-.746.212-1.358.636-1.833.425-.475.996-.713 1.715-.713.694 0 1.25.234 1.673.703.4.456.602 1.044.602 1.764zm-1.09.034c0-.444-.094-.825-.282-1.143-.219-.384-.534-.576-.94-.576-.423 0-.744.192-.963.576-.189.318-.282.705-.282 1.163 0 .444.094.825.282 1.143.227.384.544.576.953.576.4 0 .714-.195.94-.586.196-.324.292-.708.292-1.153zM82.486 13.725h-.943l-.078-.555h-.03c-.322.442-.782.664-1.379.664-.446 0-.807-.146-1.078-.436a1.383 1.383 0 0 1-.37-.981c0-.589.24-1.037.725-1.348.483-.31 1.162-.463 2.036-.455v-.09c0-.635-.326-.952-.98-.952-.466 0-.877.12-1.232.357l-.213-.703c.439-.277.98-.416 1.62-.416 1.234 0 1.853.664 1.853 1.993v1.773c0 .481.023.865.069 1.149zm-1.09-1.655v-.743c-1.159-.02-1.738.303-1.738.97 0 .252.066.44.202.565a.726.726 0 0 0 .513.188c.23 0 .445-.074.642-.222a.914.914 0 0 0 .38-.758zM88.452 13.725h-.932l-.05-.774h-.028c-.298.589-.805.883-1.517.883-.569 0-1.043-.228-1.419-.684-.375-.455-.563-1.047-.563-1.773 0-.78.204-1.411.612-1.893.396-.45.881-.675 1.458-.675.634 0 1.078.218 1.33.654h.02V6.698h1.052v5.73c0 .468.012.9.037 1.297zm-1.088-2.031v-.804c0-.139-.01-.25-.03-.337a1.224 1.224 0 0 0-.379-.649 1.02 1.02 0 0 0-.702-.262c-.392 0-.699.158-.924.476-.224.318-.337.723-.337 1.219 0 .476.107.862.323 1.16.227.316.534.475.918.475.344 0 .62-.132.83-.397.202-.244.3-.538.3-.881zM97.432 11.277c0 .74-.208 1.347-.622 1.823-.435.49-1.01.734-1.73.734-.693 0-1.245-.234-1.658-.704-.41-.469-.616-1.06-.616-1.774 0-.746.211-1.358.636-1.833.425-.475.996-.713 1.716-.713.693 0 1.25.234 1.672.703.4.456.602 1.044.602 1.764zm-1.088.034c0-.444-.094-.825-.282-1.143-.221-.384-.534-.576-.943-.576-.42 0-.741.192-.962.576-.189.318-.282.705-.282 1.163 0 .444.094.825.282 1.143.227.384.544.576.952.576.401 0 .717-.195.943-.586.193-.324.292-.708.292-1.153zM103.077 13.725h-1.049v-2.759c0-.85-.316-1.275-.952-1.275a.937.937 0 0 0-.758.35c-.194.234-.291.51-.291.826v2.857h-1.051v-3.44c0-.422-.012-.881-.037-1.378h.921l.05.753h.028a1.55 1.55 0 0 1 .544-.581c.286-.18.604-.27.953-.27.44 0 .807.144 1.098.435.364.357.544.89.544 1.596v2.886zM110.144 9.71h-1.156v2.34c0 .595.205.892.612.892.188 0 .344-.016.468-.05l.027.812c-.208.08-.48.12-.816.12-.415 0-.737-.129-.97-.386-.235-.258-.351-.691-.351-1.299V9.71h-.69v-.802h.69v-.882l1.029-.317v1.198h1.156v.803zM115.702 13.725h-1.05v-2.739c0-.863-.317-1.295-.952-1.295-.487 0-.82.25-1.001.75a1.37 1.37 0 0 0-.05.386v2.897H111.6V6.698h1.05v2.903h.02c.33-.528.804-.792 1.418-.792.435 0 .795.145 1.08.436.356.363.534.903.534 1.616v2.864zM121.436 11.089c0 .192-.014.353-.04.485h-3.148c.014.476.164.839.456 1.09.266.225.61.337 1.03.337.467 0 .891-.075 1.274-.228l.165.744c-.448.198-.975.298-1.585.298-.732 0-1.308-.22-1.725-.66-.419-.439-.626-1.028-.626-1.768 0-.726.193-1.331.583-1.814.407-.514.957-.772 1.651-.772.68 0 1.196.258 1.544.772.282.41.421.915.421 1.516zm-1.002-.277a1.464 1.464 0 0 0-.203-.823c-.183-.297-.46-.446-.836-.446-.342 0-.622.145-.835.436a1.64 1.64 0 0 0-.312.833h2.186z" fill="#FFF"/>
    </g>
</svg>
