<svg width="76" height="24" viewBox="0 0 76 24" xmlns="http://www.w3.org/2000/svg" xmlns:xlink="http://www.w3.org/1999/xlink">
    <title>
        droplr-logo
    </title>
    <defs>
        <path id="a" d="M0 .047v19.24h15.254V.048H0z"/>
    </defs>
    <g fill="none" fill-rule="evenodd">
        <g transform="translate(0 .532)">
            <mask id="b" fill="#fff">
                <use xlink:href="#a"/>
            </mask>
            <path d="M14.297 9.404l-3.338.017a.82.82 0 0 0-.815.823l.007 1.404a2.527 2.527 0 0 1-2.773 2.524 2.546 2.546 0 0 1-2.248-2.15 2.4 2.4 0 0 1 .508-1.868c.473-.589 1.208-1.015 2.021-1.019 2.956-.015 4.4-.863 5.566-2.04 2.378-2.403 1.985-4.04 1.974-6.196a.882.882 0 0 0-.889-.852l-3.358.017a.863.863 0 0 0-.856.872l.003.561a2.515 2.515 0 0 1-2.491 2.537h-.02a7.597 7.597 0 0 0-5.2 2.087A7.658 7.658 0 0 0 0 11.7c.021 4.205 3.46 7.61 7.666 7.588.122 0 .245-.004.367-.01 4.07-.214 7.242-3.625 7.22-7.766l-.005-1.167a.947.947 0 0 0-.95-.94" fill="#8CA1B4" mask="url(#b)"/>
        </g>
        <path d="M42.615 14.607h3.338a.82.82 0 0 0 .82-.82v-1.403a2.527 2.527 0 0 1 2.785-2.51 2.546 2.546 0 0 1 2.237 2.161 2.4 2.4 0 0 1-.517 1.866c-.476.587-1.213 1.009-2.027 1.009-2.955 0-4.404.84-5.575 2.012-2.39 2.39-2.007 4.03-2.007 6.185.016.48.405.857.885.857h3.358c.475 0 .86-.386.86-.868v-.56a2.515 2.515 0 0 1 2.505-2.524h.02a7.596 7.596 0 0 0 5.21-2.061 7.657 7.657 0 0 0 2.416-5.567c0-4.205-3.421-7.627-7.627-7.627-.122 0-.245.003-.367.009-4.071.192-7.26 3.587-7.26 7.729v1.166c0 .522.424.946.946.946M75.416 7.112v1.753a.917.917 0 0 1-.671.882l-.011.003c-.943.265-2.525.41-2.525 2.244l-.002.016a.305.305 0 0 0-.007.06v6.886c0 .468-.38.847-.847.847h-3.316a.934.934 0 0 1-.933-.934v-5.215c.002-.011.005-3.2.007-4.918 0-.632.001-1.064.002-1.07l.004-.002a1.434 1.434 0 0 1 1.434-1.432c.228 0 .616.169.62.17.105.044.242.04.254.04.27 0 .263-.053.865-.362.602-.31 2.798-1.215 4.223-1.321a.455.455 0 0 1 .07 0 .88.88 0 0 1 .81.852c0 .525.023 1.02.023 1.501M24.806 7.13v1.752a.917.917 0 0 1-.672.883l-.01.003c-.943.264-2.525.41-2.525 2.244l-.002.015a.305.305 0 0 0-.007.061v6.885c0 .468-.38.847-.847.847h-3.316a.934.934 0 0 1-.933-.933V13.67c.002-.011.005-3.2.006-4.918l.003-1.07.004-.002A1.434 1.434 0 0 1 17.94 6.25c.228 0 .616.168.62.17.105.043.242.04.254.04.27 0 .263-.053.865-.363.602-.309 2.797-1.214 4.223-1.32a.455.455 0 0 1 .07-.001.88.88 0 0 1 .81.853c0 .525.023 1.019.023 1.5M65.02 14.714c-1.188-.294-1.835-1.287-1.835-2.508V.84a.84.84 0 0 0-.84-.84h-3.422a.84.84 0 0 0-.84.84v11.393c0 2.954.828 4.417 2.012 5.574 1.29 1.261 2.64 2.013 4.835 2.013.773 0 .974-.594.974-.828v-3.41c0-.465-.112-.677-.884-.868M40.474 12.277a7.547 7.547 0 1 1-8.339-7.506c.173.062.3.228.3.426v3.187l-.001.17c-.008.592-.094 1.018-.978 1.901-.485.485-.878 1.09-.878 1.83 0 1.286.959 2.29 2.238 2.34a1.706 1.706 0 0 0 .112.003l.044-.002c.019 0 .038 0 .056-.002 1.279-.049 2.238-1.053 2.238-2.34 0-.74-.393-1.344-.878-1.829-.886-.885-.97-1.31-.978-1.904V5.197c0-.199.127-.365.3-.427a7.548 7.548 0 0 1 6.764 7.507" fill="#8CA1B4"/>
    </g>
</svg>
