<svg width="124" height="24" viewBox="0 0 124 24" xmlns="http://www.w3.org/2000/svg">
    <title>
        frame-logo
    </title>
    <g fill="#8DA2B5" fill-rule="evenodd">
        <path d="M57.593 16.8c-2.216 0-3.943-1.727-3.943-3.771 0-2.216 1.727-3.943 3.943-3.943 2.045 0 3.772 1.727 3.772 3.943 0 2.044-1.727 3.771-3.772 3.771m6-10.286h-1.885a.343.343 0 0 0-.343.343v.857a7.015 7.015 0 0 0-3.943-1.2c-3.465 0-6.343 2.878-6.343 6.515 0 3.464 2.878 6.342 6.343 6.342a7.015 7.015 0 0 0 3.943-1.2V19.03c0 .19.153.342.343.342h1.885c.19 0 .343-.153.343-.342V6.857a.343.343 0 0 0-.343-.343M50.393 6.514c-.03.008-3.103 0-4.8 1.029v-.686c-.01-.19-.163-.343-.343-.343h-1.885a.342.342 0 0 0-.343.343V19.03c0 .189.152.342.343.342h1.885c.18 0 .333-.153.343-.342v-7.543c-.01-2.4 3.065-2.382 3.086-2.4.166.008.403-.128.514-.343l1.372-1.886c.055-.215-.012-.34-.172-.343M40.108 10.457h-8.4c-.2 0-.354-.154-.343-.343V6.857c-.01-.189.142-.343.343-.343h6.342c.339 0 .836-.24 1.029-.514l1.2-1.543c.273-.274.157-.514-.171-.514H29.136a.342.342 0 0 0-.343.343v14.743c0 .189.153.342.343.342h1.886c.18 0 .332-.153.343-.342v-4.8c-.01-.29-.01-1.2 1.371-1.2h5.486c.338 0 .824-.247 1.028-.515l1.029-1.543c.284-.267.157-.514-.171-.514M78.679 6.514c-1.565 0-2.649.568-3.429 1.372-.642-.789-1.724-1.372-3.428-1.372-.892 0-1.626.185-2.229.515v-.172a.344.344 0 0 0-.343-.343h-1.885a.343.343 0 0 0-.343.343V19.03c0 .19.153.342.343.342h1.885a.345.345 0 0 0 .343-.342v-7.372c-.001 0-.001-2.571 2.229-2.571 1.882 0 2.049 1.842 2.057 2.4a1.327 1.327 0 0 0 0 .171v7.372c0 .188.153.342.343.342h1.886c.19 0 .342-.152.342-.342v-7.372c-.005 0 0-.057 0-.171.046-.553.334-2.4 2.229-2.4 2.22 0 2.049 2.571 2.057 2.571v7.372c0 .188.153.342.343.342h1.886c.19 0 .343-.152.343-.342v-7.372c-.01 0 .434-5.143-4.629-5.143M106.279 3.943c-.796 0-1.371.576-1.371 1.371 0 .625.575 1.2 1.371 1.2.624 0 1.2-.575 1.2-1.2 0-.795-.576-1.371-1.2-1.371M107.136 8.057h-1.886a.342.342 0 0 0-.342.343V19.03c0 .19.153.342.342.342h1.886c.19 0 .343-.153.343-.342V8.4a.342.342 0 0 0-.343-.343M92.222 9.086c2.044 0 3.771 1.151 3.771 2.571H88.28c0-1.42 1.727-2.571 3.943-2.571m-.172-2.572s-6.342 0-6.342 6.515c0 .16.004.32 0 .514.004.003 0 .044 0 0 0 .157.012.226 0 .343.325 3.146 2.395 5.485 6.514 5.485h4.457c.19 0 .246-.12.171-.342l-1.714-1.886c-.075-.223-.314-.343-.514-.343h-2.4c-2.887 0-3.707-1.467-3.943-2.571h8.229c2.057 0 2.057-1.2 2.057-1.2 0-6.515-6.515-6.515-6.515-6.515M100.965 16.8c-.796 0-1.372.576-1.372 1.371 0 .625.576 1.2 1.372 1.2.624 0 1.2-.575 1.2-1.2 0-.795-.576-1.37-1.2-1.37M3.541 1.315c-.255-.442-.664-.438-.913.007L.123 5.805c-.167.297-.164.777.007 1.072L9.8 23.638c.17.295.442.292.608-.004l2.656-4.753c.166-.297.163-.777-.007-1.072L3.541 1.315zM7.735 4.955c.174.293.591.53.934.53h5.277c.342 0 .76-.237.934-.53L17.507.53c.174-.293.04-.531-.303-.531H5.411c-.341 0-.477.238-.302.531l2.626 4.424zM19.262 7.029H9.525c-.341 0-.48.239-.312.535l2.818 4.93c.168.295.582.535.921.535h2.883c.34 0 .752-.24.921-.535l2.817-4.93c.17-.296.03-.535-.311-.535M116.908 16.971c-2.311 0-4.115-1.803-4.115-3.942 0-2.311 1.804-4.115 4.115-4.115 2.139 0 3.942 1.804 3.942 4.115 0 2.139-1.803 3.942-3.942 3.942m0-10.457a6.466 6.466 0 0 0-6.515 6.515c0 3.464 2.878 6.342 6.515 6.342 3.464 0 6.342-2.878 6.342-6.342 0-3.637-2.878-6.515-6.342-6.515"/>
    </g>
</svg>
