<?xml version="1.0" encoding="UTF-8"?>
<svg width="224px" height="139px" viewBox="0 0 224 139" version="1.1" xmlns="http://www.w3.org/2000/svg" xmlns:xlink="http://www.w3.org/1999/xlink">
    <defs></defs>
    <g id="Early-Stage-LP" stroke="none" stroke-width="1" fill="none" fill-rule="evenodd">
        <g id="Homepage---Desktop" transform="translate(-96.000000, -552.000000)">
            <g id="header-illustration-van" transform="translate(96.000000, 552.000000)">
                <path d="M55.0486757,68.212165 C55.0679225,69.0690591 53.7370267,69.0657885 53.7177799,68.212165 C53.5961565,62.8062915 53.4749426,57.4008268 53.3533192,51.9949532 C53.3340724,51.1384679 54.6653777,51.1413297 54.684215,51.9949532 C54.8058384,57.4008268 54.9270523,62.8062915 55.0486757,68.212165 M59.419747,68.3515738 C59.4275276,69.2080591 58.0966318,69.206015 58.0888512,68.3515738 C58.046672,63.7465856 58.0049024,59.1415974 57.9623137,54.5366091 C57.9545331,53.6801238 59.2854289,53.6821679 59.2932095,54.5366091 C59.3357982,59.1415974 59.3775678,63.7465856 59.419747,68.3515738 M63.3170194,66.7632944 C63.3432278,67.6201885 62.012332,67.6165091 61.9861236,66.7632944 C61.8919371,63.6795385 61.9586867,60.6039591 62.1880102,57.5271532 C62.2514837,56.6780268 63.582789,56.6739385 63.518906,57.5271532 C63.2895824,60.6039591 63.2228329,63.6795385 63.3170194,66.7632944 M49.2914252,59.5847621 C49.2197616,57.4286268 49.2525221,55.2745356 49.3585843,53.1200356 C49.4003539,52.2676385 50.7316592,52.2655944 50.6894801,53.1200356 C50.4781748,57.4139091 51.3676227,62.0965738 50.3315715,66.2874238 C50.1259993,67.1185621 48.8430157,66.7645209 49.0481784,65.9342003 C49.5698896,63.8234444 49.3630888,61.7302679 49.2914252,59.5847621 M45.0542625,62.9150385 C45.0956227,60.025065 45.1365733,57.1350915 45.1775239,54.2451179 C45.1898091,53.3894503 46.5207049,53.3898591 46.5084197,54.2451179 C46.4674691,57.1350915 46.4265185,60.025065 46.3851583,62.9150385 C46.3732826,63.7707062 45.0423868,63.7702974 45.0542625,62.9150385 M44.9727707,69.1205709 C44.4137945,68.4770826 45.3515642,67.5339268 45.9138165,68.1810944 C47.8217068,70.3764768 50.3684271,71.7967297 53.1628987,72.5591856 C55.5605587,73.2133032 61.1998713,74.147465 62.9828622,71.7215062 C63.4845075,71.0383621 64.638906,71.7018826 64.1319371,72.3919768 C62.1761346,75.0534179 57.4811437,74.7214532 54.6031327,74.2345444 C50.9519737,73.6168121 47.421619,71.9381826 44.9727707,69.1205709 M67.740098,51.7570179 C67.0308329,50.816315 65.9878201,50.3011974 64.8792863,50.0199268 C60.9513009,49.023215 56.9901455,48.1352503 53.0527415,47.1724709 C51.1157762,46.6990532 49.178811,46.2215474 47.2361126,45.7714326 C45.4482077,45.3577032 43.356449,44.8446297 41.7380797,46.0273562 C40.4489536,46.9692856 40.0668841,48.5117768 39.9493558,50.0215621 C39.7106135,53.0955062 39.8101236,56.2340444 39.7458311,59.316165 C39.6639298,63.2367826 39.5615532,67.1541297 39.3785038,71.0714768 C39.1815313,72.833915 39.103725,74.4189238 40.3731949,75.8424474 C41.244215,76.8191268 42.4796958,76.9724356 43.6885587,77.2659709 C46.8061309,78.0231121 49.9167415,78.8072356 53.0326757,79.5709179 C55.0769316,80.0713179 57.1248731,80.5610885 59.1936995,80.9511062 C61.0888951,81.3084179 63.4795934,81.9915621 65.3956739,81.521415 C69.1700943,80.5954297 68.2925221,74.9107385 68.4747525,72.0542885 C68.8097287,66.7923209 69.4465112,61.5140003 68.7523978,56.2524415 C68.5718055,54.8849268 68.6135751,52.9156238 67.740098,51.7570179" id="Fill-1" fill="#286EFA"></path>
                <path d="M26.0100037,90.1045832 C23.4767971,88.0698685 23.0746618,91.2509244 23.2208556,92.8077244 C23.3461645,94.1400803 23.6795027,97.6804921 25.7929653,97.2528626 C26.0689726,97.1972626 26.3077148,97.2475479 26.5046874,97.3571126 C26.5059159,97.1944009 26.5472761,97.022695 26.6537477,96.8469009 C27.824117,94.9192979 27.9686728,91.6777362 26.0100037,90.1045832" id="Fill-3" fill="#286EFA"></path>
                <path d="M36.1288012,90.9422472 C36.1026489,90.8567964 36.0742225,90.7724849 36.0480702,90.6870341 C36.0520499,90.7673579 36.0548925,90.8448333 36.0577352,90.9211694 C36.0810448,90.9280054 36.104923,90.9354112 36.1288012,90.9422472" id="Fill-5" fill="#286EFA"></path>
                <path d="M28.4218735,97.8787715 C28.0909923,98.4237332 27.5062172,98.4605274 27.0680453,98.2283156 C27.1155481,98.6673921 26.9026048,99.1097391 26.3374859,99.2238009 C23.3788022,99.8227274 21.9201404,97.2827068 21.4594457,94.7385979 C21.0536249,92.4974274 20.7362574,89.4279803 22.8325207,87.9275979 C22.94923,87.8441979 23.0692154,87.7628421 23.2010764,87.6896626 C25.03157,86.6729185 26.8579686,87.8110832 28.0279283,89.3265921 C28.3960746,89.8036891 28.7007473,90.3171715 28.9181952,90.8138921 C29.9284475,93.1241538 29.7232848,95.7353097 28.4218735,97.8787715 M36.4146194,93.0939009 C36.3990581,93.0894038 36.3839064,93.0844979 36.3683452,93.0800009 C36.3466413,93.0979891 36.3179759,93.1106626 36.293815,93.1266068 C36.294634,93.1560421 36.2975005,93.186295 36.2979101,93.2157303 C36.3024146,93.4360862 36.295453,93.6535803 36.2917675,93.8718921 C36.2086377,98.9592921 33.9493909,103.565098 29.6282793,106.551145 C29.5705389,106.59121 29.5168936,106.634545 29.4579247,106.674201 C29.031219,106.961195 28.617208,106.865939 28.3326011,106.601839 C27.8858296,106.18811 27.7605207,105.355336 28.42474,104.908901 C32.7732885,101.985404 34.6021441,97.2144332 34.1959137,92.122945 C34.1934567,92.0931009 34.1975517,92.0681626 34.1975517,92.0399538 C34.1520965,91.8122391 34.1205645,91.5714421 34.0955846,91.3298274 C34.0828899,91.2030921 34.0718333,91.0763568 34.0611861,90.9512568 C34.025559,90.5138156 34.0001697,90.0972244 33.9416102,89.7799774 C33.414166,86.9100362 31.8256907,83.9060009 29.8080527,81.7981068 C27.7859101,79.6853068 24.8464731,78.3361891 21.9094932,79.0479509 C21.8194018,79.0700274 21.7289009,79.0871979 21.6388095,79.1133626 C20.3808059,79.4731274 19.4504073,80.2135068 18.7431898,81.1521656 C17.671921,82.573645 17.1174494,84.4538244 16.7493031,86.1909156 C16.7423415,86.2244391 16.7296468,86.2514215 16.7206377,86.2820832 C16.6268607,86.5940156 16.4274311,86.7833009 16.1862318,86.8679274 C16.1538808,86.8793744 16.1219393,86.8912303 16.0879503,86.8989979 C15.9151386,86.9586862 15.7148899,86.9697244 15.4904804,86.9047215 C15.368038,86.8691538 15.2451861,86.8352215 15.1223342,86.7996538 C14.4953799,91.1168303 14.7533689,95.4577185 16.5420929,99.5704832 C18.9635042,105.13866 24.8841477,109.668424 31.1688424,108.317263 C34.312623,107.641069 37.4056249,107.854066 39.7856761,105.370871 C42.4052885,102.637477 43.1198771,98.8256068 43.5904,95.208745 C41.7906194,94.6821803 39.9920673,94.1527538 38.1943342,93.6208744 C37.6009594,93.4454891 37.0075846,93.269695 36.4146194,93.0939009" id="Fill-7" fill="#286EFA"></path>
                <path d="M136.4203,119.121814 C136.030859,119.110776 135.663532,118.890829 135.550508,118.392882 C135.496044,117.426832 134.812578,117.338526 133.4997,118.127147 C133.269967,118.383479 133.081185,118.66107 132.931715,118.958285 C132.787978,119.243644 132.680278,119.547809 132.611071,119.870779 C132.403452,120.664714 132.365367,121.524879 132.409185,122.338847 C132.506647,124.145029 133.091422,126.873517 135.356402,126.888235 C138.654567,126.909494 137.926874,123.088629 136.834311,120.157364 C136.699174,119.795556 136.559532,119.447647 136.4203,119.121814" id="Fill-9" fill="#286EFA"></path>
                <path d="M134.992924,106.942294 C135.481875,106.992994 135.96755,107.096105 136.444215,107.248777 C136.008091,106.951408 135.547396,106.80899 134.992924,106.942294" id="Fill-11" fill="#286EFA"></path>
                <path d="M146.805258,121.285717 C146.903045,121.319241 146.996852,121.358079 147.07872,121.40632 C146.983207,121.185964 146.883146,120.966835 146.790476,120.745661 C146.805258,120.94762 146.811512,121.13527 146.805258,121.285717" id="Fill-13" fill="#286EFA"></path>
                <path d="M153.005309,124.811452 C153.010633,124.765664 153.007356,124.725191 153.007766,124.682673 C152.989338,124.748494 152.971729,124.814723 152.958216,124.885449 C152.95494,124.929602 152.948388,124.972938 152.940197,125.016682 C152.924636,125.118479 152.904161,125.214961 152.898018,125.32657 C152.825126,126.577161 153.205967,127.494561 153.876329,128.16217 C153.035612,127.181811 152.855839,126.062861 153.005309,124.811452" id="Fill-15" fill="#286EFA"></path>
                <path d="M139.010796,127.035084 C137.393246,129.458181 133.875177,129.588187 131.995952,127.407523 C130.118365,125.228902 129.764961,121.113684 130.963586,118.353717 C131.115513,118.004173 131.288325,117.673026 131.490211,117.373767 C132.656076,115.645261 134.747425,114.97152 136.168822,115.809608 C136.572595,115.679193 137.036566,115.775267 137.305202,116.255634 C138.013239,117.52217 138.840851,119.194258 139.35642,120.932167 C139.992383,123.078899 140.151272,125.326611 139.010796,127.035084 M152.422131,129.391134 C152.31484,129.277481 152.213283,129.157287 152.114592,129.033414 C151.703857,128.517887 151.370928,127.915281 151.140785,127.209652 C151.082226,127.02977 151.035542,126.846617 150.995001,126.662237 C150.910643,126.277126 150.866416,125.88629 150.865188,125.497908 C150.864369,125.306579 150.873787,125.116884 150.894263,124.928417 C150.776325,124.892849 150.659206,124.856055 150.541268,124.820896 C150.493765,124.811902 150.418826,124.796776 150.299659,124.771429 C149.243952,124.546984 148.200529,124.231781 147.162431,123.917805 C147.16284,123.935384 147.163659,123.952555 147.163659,123.969726 C147.175944,129.14952 144.738153,133.980996 140.347835,136.578252 C139.699177,136.962137 139.005473,137.294102 138.272866,137.574146 C137.967374,137.69107 137.657378,137.801452 137.337963,137.898752 C136.574643,138.130964 136.080369,137.505055 136.081597,136.88814 C136.082007,136.534917 136.24499,136.187008 136.615184,136.001811 C136.670877,135.974011 136.728617,135.947437 136.793729,135.927814 C142.678336,134.136349 145.514577,128.515026 145.061253,122.685202 C145.057568,122.639414 145.054701,122.593626 145.050606,122.548246 C144.95601,122.256346 144.89827,121.92152 144.858138,121.578926 C144.785246,120.956696 144.768047,120.311164 144.685736,119.863093 C144.158292,116.993152 142.569816,113.989117 140.551769,111.881223 C138.527579,109.766379 135.583228,108.416034 132.642562,109.133929 C132.556156,109.155187 132.469341,109.17154 132.382935,109.196479 C129.219089,110.102023 128.104412,113.39019 127.493429,116.27444 C127.383681,116.792011 126.999155,117.009096 126.5962,117.005008 C126.595381,117.007052 126.594562,117.009096 126.594153,117.01114 C126.530679,117.190614 126.425027,117.35169 126.282518,117.473111 C126.276785,117.507861 126.271462,117.542611 126.265729,117.57777 C125.882431,117.725355 125.641231,118.073673 125.599871,118.522561 C124.853751,126.622173 128.161334,135.241808 136.317473,138.058602 C138.08695,138.669793 139.529231,138.869299 141.357268,138.51812 C143.16401,138.171437 145.026036,138.016084 146.815579,137.624431 C150.249699,136.872196 152.415988,133.563996 153.743199,130.439767 C153.446306,130.261929 153.165795,130.062423 152.902891,129.84084 C152.735403,129.699796 152.573648,129.551393 152.422131,129.391134" id="Fill-17" fill="#286EFA"></path>
                <path d="M207.400658,115.372167 C206.950201,115.547143 206.499335,115.72212 206.048878,115.896687 C201.076651,117.826743 196.104834,119.75639 191.133016,121.686037 C190.671093,121.865102 190.20917,122.044576 189.746837,122.224049 C189.303751,122.395755 188.860665,122.56787 188.41758,122.739984 C190.363144,123.644711 192.506091,124.55189 194.687122,124.317226 C196.628592,124.107908 198.582347,123.657384 200.519313,123.378158 C204.826501,122.757564 207.288453,118.652158 208.669718,114.879534 C208.246698,115.043881 207.823678,115.20782 207.400658,115.372167" id="Fill-19" fill="#286EFA"></path>
                <path d="M151.909224,115.583447 C150.405517,110.025082 147.295316,104.584459 142.054862,101.794238 C137.076902,99.143835 130.443308,99.7063762 126.574292,103.985941 C125.688939,104.965073 124.245429,103.514567 125.126277,102.540341 C129.343784,97.8756644 136.447901,97.0375762 142.060186,99.5318085 C148.331776,102.319167 152.154518,108.648573 153.883864,115.04012 C154.228259,116.313606 152.25239,116.852026 151.909224,115.583447 M123.865816,81.9364526 C123.188493,74.3748526 123.603323,66.6112938 123.52265,59.0251644 C123.516507,58.4385026 123.919052,58.1155321 124.36869,58.0517556 C124.573034,57.9282909 124.827747,57.8755526 125.124639,57.9491409 C127.19797,58.4650762 128.295857,58.5922203 129.012083,60.5329056 C129.795879,62.6559262 130.445356,64.8337291 131.127593,66.9902732 C133.094453,73.2117497 134.990877,79.4573468 137.054789,85.6477526 C137.303769,86.3950821 136.517926,87.1092968 135.795557,86.904885 C132.447023,85.9572321 128.989561,85.1931409 125.697129,84.0578379 C124.505875,83.6469703 123.982116,83.2373291 123.865816,81.9364526 M158.121846,121.032656 C158.525619,121.067406 158.916288,121.07967 159.298358,121.074764 C159.333575,114.942411 159.467074,108.753232 159.019484,102.640094 C159.01457,102.575091 159.018665,102.515811 159.023988,102.45735 C157.954767,102.149914 157.250826,101.444694 156.371206,100.710856 C155.125078,99.6716262 153.834723,98.6884056 152.536997,97.7149968 C150.295769,96.0339144 148.047169,94.3667321 145.909955,92.5544174 C144.905027,92.798485 144.409933,91.5021056 145.008222,90.8488056 C140.476215,79.2378085 136.820551,67.2719526 132.960544,55.4271085 C132.857758,55.4279262 132.750877,55.4177056 132.634986,55.3817291 C128.021487,53.9520732 123.394475,52.5620732 118.755996,51.2137732 C118.502921,72.0408791 118.573765,92.8753438 119.015623,113.699179 C121.195425,114.322635 123.374818,114.945682 125.55544,115.565867 C126.139805,112.879897 127.136135,110.094991 129.43797,108.404506 C131.034226,107.232409 133.035074,106.781476 134.992924,106.928244 C135.547396,106.83217 136.007681,106.934785 136.444215,107.148191 C136.708347,107.209106 136.970431,107.277788 137.227601,107.359961 C139.857451,108.202547 141.950848,110.082317 143.523352,112.299776 C143.799359,112.688567 144.053253,113.092076 144.29691,113.501717 C144.442284,113.725344 144.574555,113.960009 144.697407,114.201623 C145.092171,114.930964 145.445575,115.682791 145.758029,116.448517 C146.13846,117.380226 146.465246,118.330741 146.660171,119.319685 C146.676961,119.405129 146.758862,120.132017 146.790394,120.745661 C146.857144,120.966835 146.929217,121.185964 146.998014,121.40632 C147.087286,121.479091 147.160178,121.567806 147.206862,121.672873 C147.227337,121.718661 147.247813,121.76445 147.268288,121.810238 C148.17125,122.07352 149.07503,122.335985 149.982497,122.583732 C150.134014,122.625023 151.147133,122.878494 150.586928,122.765659 C150.912895,122.831479 151.229444,122.9112 151.545173,122.998688 C151.807667,122.580053 152.147147,122.201891 152.570577,121.885461 C154.190175,120.675753 156.222965,120.869126 158.121846,121.032656" id="Fill-21" fill="#FFFFFF"></path>
                <path d="M190.630306,43.7890474 C190.821955,44.0686826 190.875191,44.436215 190.648325,44.8176474 C190.617202,44.8699768 190.596317,44.9313003 190.575433,44.9930326 L192.653268,52.0677238 C193.096354,53.4013062 193.540668,54.7344797 193.980069,56.0692885 C195.292537,60.0565444 196.548902,64.0626062 197.823286,68.0621268 C197.999374,68.6148562 197.716405,69.0273591 197.310175,69.2109209 C197.243835,69.2481238 197.170943,69.2808297 197.08986,69.3057679 C181.952866,74.0268621 166.78352,78.6453415 151.645297,83.3627562 C151.265685,83.8668356 150.354533,84.051215 149.863944,83.3660268 C149.845517,83.3406797 149.831184,83.3108356 149.813166,83.2850797 C149.789414,83.2527826 149.769348,83.2184415 149.749283,83.1836915 C148.445005,81.2393268 147.916332,78.4237591 147.17144,76.2328738 C146.320486,73.7316915 145.494511,71.2223326 144.648061,68.7199238 C143.842153,66.3385268 142.961305,63.9828856 142.155805,61.6018974 C141.834343,60.6501562 141.145963,59.2086444 141.467016,58.1906738 C141.569802,57.8640238 141.780288,57.6616562 142.028039,57.5598591 C142.133283,57.4560179 142.265144,57.3689385 142.431813,57.3117032 C157.907879,51.9712415 173.871667,48.2243738 189.421444,43.1169415 C190.047579,42.9113032 190.493941,43.2984591 190.630306,43.7890474 M134.930475,54.8693915 C138.767959,66.6455532 142.403557,78.5415003 146.898709,90.0895385 C149.481875,89.2432738 152.063813,88.3929209 154.647389,87.547065 C163.903871,84.5148209 173.168544,81.5066974 182.461473,78.5860621 C189.450518,76.3894532 196.483791,73.9745326 203.641144,72.3367856 C198.993656,61.1276621 196.719257,48.9925532 192.047608,37.7956944 C188.848544,38.5254444 185.688383,39.4473415 182.535593,40.3459356 C166.589005,44.8896003 150.701385,49.7439709 134.930475,54.8693915" id="Fill-23" fill="#FFFFFF"></path>
                <path d="M148.205976,91.8118303 C149.953749,93.2431215 151.762539,94.5938744 153.57051,95.9499421 C154.519336,96.6617038 155.465705,97.3775538 156.396513,98.1126185 C157.412499,98.9151391 158.594334,100.319039 159.901479,100.571283 C159.939972,100.578642 159.971504,100.592542 160.006722,100.602763 C178.991848,94.0947009 197.700148,86.6790509 217.135731,81.5724362 C215.409661,80.7139068 213.796206,79.4645421 212.249501,78.4134568 C210.054546,76.9220685 207.889895,75.3865274 205.704769,73.8808303 C205.602802,73.9531921 205.479541,74.0104274 205.328842,74.0431332 C205.276426,74.0545803 205.224009,74.0672538 205.171182,74.0787009 C205.130232,74.0905568 205.089691,74.1007774 205.048331,74.1069097 C201.601106,74.8689568 198.208345,75.9130921 194.828689,76.9208421 C179.194144,81.5826568 163.709479,86.736695 148.205976,91.8118303" id="Fill-25" fill="#FFFFFF"></path>
                <path d="M116.740978,100.507834 C116.726236,99.457975 116.709856,98.4077074 116.697161,97.3578485 C114.469856,97.0209779 112.311757,96.3088074 110.10288,95.8730015 C109.992313,96.0729162 109.817044,96.2446221 109.557417,96.3464191 C108.500891,96.7597397 107.577044,97.4118132 106.640913,98.0454897 C110.013198,98.8426956 113.345351,99.8116074 116.740978,100.507834" id="Fill-27" fill="#FFFFFF"></path>
                <path d="M103.100484,103.357211 C103.098027,103.335952 103.092294,103.317146 103.091065,103.29507 C103.009983,101.722326 102.928901,100.149582 102.848228,98.5768376 C102.759365,98.2346524 102.857237,97.8765229 103.233574,97.65862 C103.267972,97.6365435 103.303599,97.6173288 103.340455,97.5993406 C103.34414,97.5981141 103.346597,97.5956612 103.349873,97.5944347 C104.985852,96.8896229 106.349917,95.7412376 107.903585,94.9023318 C107.358532,79.3936112 107.186129,63.8530024 107.181215,48.3356965 C107.180806,48.1991494 107.207424,48.0797729 107.246736,47.9714347 C105.288886,47.43792 103.329398,46.9101288 101.366634,46.3946024 C99.9489229,46.0225729 98.5287547,45.6595376 97.108177,45.2997729 C97.0848351,65.55657 97.4366011,85.8109141 97.5025316,106.067302 C99.225325,105.203458 100.947709,104.339205 102.670502,103.474952 C102.817106,103.401364 102.962071,103.364161 103.100484,103.357211" id="Fill-29" fill="#FFFFFF"></path>
                <path d="M109.228911,48.5118176 C109.235054,63.5933176 109.402132,78.6968941 109.914015,93.7718529 C112.192509,94.1467441 114.403844,94.8863059 116.676195,95.2934941 C116.512801,80.4033235 116.529591,65.5107 116.714688,50.6217559 C114.223251,49.9054971 111.728129,49.2010941 109.228911,48.5118176" id="Fill-31" fill="#FFFFFF"></path>
                <path d="M116.444455,102.531919 C112.579943,101.755972 108.802246,100.608404 104.956162,99.7535544 C105.017179,100.933828 105.077786,102.11451 105.138802,103.294784 C105.143307,103.384725 105.136345,103.466899 105.122831,103.544575 C108.393969,104.36631 111.667153,105.210122 114.883416,106.223187 C116.137735,106.618519 115.598824,108.591093 114.339182,108.194534 C110.873939,107.102566 107.341947,106.206016 103.818554,105.323775 C103.758356,105.308649 103.706349,105.286572 103.654341,105.264904 C101.929501,106.129975 100.20466,106.995454 98.4794091,107.860525 C104.644528,109.590257 110.801047,111.350651 116.956747,113.111454 C116.883446,109.589849 116.823248,106.067425 116.770422,102.545001 C116.667636,102.554813 116.560345,102.555222 116.444455,102.531919" id="Fill-33" fill="#FFFFFF"></path>
                <path d="M68.4746296,72.0543294 C68.2928088,74.9107794 69.1699715,80.5954706 65.395551,81.5214559 C63.4794706,81.9916029 61.0891817,81.3084588 59.1935766,80.9511471 C57.1247503,80.5607206 55.0768088,80.0713588 53.0329623,79.57055 C49.9170282,78.8072765 46.806008,78.0231529 43.6884358,77.2660118 C42.4799824,76.9724765 41.2440921,76.8191676 40.373072,75.8424882 C39.1040117,74.4189647 39.1818179,72.8339559 39.3787905,71.0715176 C39.5618399,67.1541706 39.6642165,63.2368235 39.7457082,59.3162059 C39.8100007,56.2340853 39.7104907,53.0951382 39.9496424,50.0216029 C40.0667612,48.5118176 40.4488307,46.9693265 41.7379569,46.0273971 C43.3563261,44.8446706 45.4484943,45.3577441 47.2359898,45.7714735 C49.1786881,46.2215882 51.1156534,46.6990941 53.0530282,47.1725118 C56.9900227,48.1352912 60.9511781,49.0232559 64.8791634,50.0199676 C65.9876973,50.3012382 67.0311196,50.8163559 67.7403846,51.7570588 C68.6134523,52.9156647 68.5720921,54.8849676 68.7526845,56.2524824 C69.4467978,61.5140412 68.8100154,66.7923618 68.4746296,72.0543294 M25.6177375,70.5057059 C21.2560848,69.4133294 16.6487283,71.2407706 14.2408307,75.0379235 C13.5372987,76.1478794 11.7661835,75.1213235 12.4729916,74.0064618 C15.3792585,69.4231412 20.8879386,67.2138588 26.1619715,68.5347676 C27.441679,68.8552853 26.8962165,70.8262235 25.6177375,70.5057059 M73.2171232,39.3840147 C64.3156826,37.0811118 55.4535547,34.6334853 46.5865126,32.2042559 C38.3218545,29.9397824 30.0494157,27.7010647 21.7282457,25.6512235 C15.4247137,24.0985118 8.77269177,22.9816059 2.67718903,20.6083853 C2.97653821,40.8766294 3.27302084,61.1452824 3.49579232,81.4147529 C7.34187642,82.4584794 11.1785419,83.5365471 15.0082457,84.6407794 C15.6175912,82.2279029 16.6323481,79.8354676 18.6942128,78.3211853 C20.9100519,76.6940676 23.9055912,76.4504088 26.483434,77.2766412 C29.1132841,78.1192265 31.2070903,79.9989971 32.7795949,82.2164559 C33.0895912,82.6538971 33.3717411,83.1097353 33.6416059,83.5733412 C33.7321068,83.7197 33.8181031,83.8701471 33.8995949,84.0242735 C34.3156534,84.78305 34.6878947,85.5659471 35.0142713,86.3651971 C35.3947027,87.2969059 35.7214888,88.2474206 35.9164139,89.2367735 C35.9332037,89.3230353 36.0171525,90.0687294 36.0478654,90.6872794 C36.0667027,90.7481941 36.0871781,90.8091088 36.1064249,90.8700235 C43.2080848,92.9799618 50.3167064,95.06905 57.4539934,97.0559324 C68.4824102,100.126197 79.6435071,102.660494 90.6801141,105.691512 C92.2743225,106.129362 93.8660739,106.577024 95.4590537,107.020597 C95.4013133,86.2748471 95.029891,65.5311412 95.0601945,44.7849824 C87.7832658,42.9685794 80.4789002,41.2625588 73.2171232,39.3840147" id="Fill-35" fill="#FFFFFF"></path>
                <path d="M71.95311,26.5133446 C71.73673,26.456947 71.534021,26.3338978 71.3845821,26.1385003 C71.5590061,26.3663691 71.756058,26.4808732 71.95311,26.5133446" id="Fill-37" fill="#FFFFFF"></path>
                <path d="M72.9765673,25.4907777 C72.9430242,25.2963584 72.8270445,25.0995966 72.6002018,24.9211056 C72.8048719,25.0822628 72.9253998,25.281367 72.9765673,25.4907777" id="Fill-39" fill="#FFFFFF"></path>
                <path d="M125.734804,39.2854065 C133.916332,38.6255653 142.09786,37.9653153 150.279798,37.3054741 C151.595542,37.1995888 151.584076,39.2445241 150.279798,39.3495918 C142.09786,40.0094329 133.916332,40.6696829 125.734804,41.3295241 C124.41906,41.4358182 124.430526,39.3904741 125.734804,39.2854065 M117.504135,37.7179771 C116.21378,37.9526418 115.665451,35.9821124 116.959901,35.74663 C121.764639,34.8729741 126.666431,34.3280124 131.549385,34.7409241 C132.854891,34.8513065 132.862263,36.8958329 131.549385,36.7850418 C126.846614,36.3872565 122.133195,36.8758006 117.504135,37.7179771 M109.936866,24.1642506 C100.620595,24.23048 91.3084197,24.5048006 82.0044344,24.9876212 C80.6854143,25.0558947 80.6936044,23.0113682 82.0044344,22.9435035 C91.3084197,22.4606829 100.620595,22.1863624 109.936866,22.1201329 C111.257114,22.11073 111.253838,24.1548476 109.936866,24.1642506 M42.7769974,20.6565447 C41.4637104,20.7796006 41.4764051,18.7342565 42.7769974,18.6124271 C57.2260212,17.2612653 71.7258238,16.5568624 86.2379115,16.5008535 C87.5577506,16.4955388 87.5552936,18.5396565 86.2379115,18.5449712 C71.7258238,18.60098 57.2260212,19.3053829 42.7769974,20.6565447 M72.8323101,26.1384594 C72.7848073,26.19038 72.7299335,26.2345329 72.671374,26.2729624 C72.6484417,26.3044418 72.6271473,26.3375565 72.6001199,26.3665829 C72.220098,26.7799035 71.5399079,26.7357506 71.1521053,26.3665829 C70.6783064,25.9152418 70.7188475,25.1560565 71.1693046,24.7063506 C71.6164856,24.2607329 72.3875861,24.2120829 72.8323101,24.6928594 C73.2209316,25.1127212 73.2197031,25.7169624 72.8323101,26.1384594 M150.846555,30.8620065 C152.727008,30.7626624 154.607871,30.6637271 156.488325,30.5643829 C157.807345,30.4944741 157.799155,32.5390006 156.488325,32.6085006 C154.607871,32.7078447 152.727008,32.80678 150.846555,32.9061241 C149.527535,32.9756241 149.535725,30.9310976 150.846555,30.8620065 M133.054321,53.3293124 C136.077707,52.34323 139.113378,51.3939418 142.14782,50.4422006 C151.451396,47.5244271 160.769714,44.6528506 170.111374,41.8581329 C176.281407,40.0118859 182.473144,38.0290918 188.742277,36.4780153 C179.102497,33.53653 169.40989,30.7642976 159.655038,28.2283653 C149.588142,25.6114859 139.444259,23.3085829 129.383506,20.6647212 C120.374365,18.2972241 111.40167,15.7964506 102.414233,13.3475976 C88.445151,9.54145059 74.3171803,6.37347706 60.3722589,2.48924471 C56.9737653,3.23739176 53.6211364,4.21775059 50.2766976,5.17071824 C34.9230742,9.54553882 19.6251437,14.2098065 4.4320468,19.1250918 C11.4026647,21.7280712 19.1194033,22.8674624 26.2439956,24.6728271 C43.4829865,29.0411065 60.5450706,34.0708624 77.7836519,38.44323 C91.1462552,41.8323771 104.48306,45.1589741 117.734687,48.8715006 C117.957868,48.8665947 118.179411,48.9262829 118.361641,49.0468859 C123.252785,50.4217594 128.132054,51.8493712 132.996171,53.3546594 C133.016646,53.3468918 133.033027,53.3362624 133.054321,53.3293124" id="Fill-41" fill="#FFFFFF"></path>
                <path d="M164.389095,108.161419 C164.407933,107.837222 164.341183,106.829063 164.49311,106.567007 C164.298595,106.181078 164.396876,105.736687 164.677388,105.384281 C164.703596,105.351166 164.729395,105.31846 164.755604,105.285754 C164.797373,105.233016 164.852247,105.189272 164.911626,105.150025 C164.996803,105.052725 165.112693,104.968099 165.26462,104.903504 C167.287172,104.040478 169.295392,103.070749 171.357256,102.305431 C172.296254,101.956704 173.276613,101.897016 173.944518,102.778031 C174.820042,103.93214 174.519465,106.076419 174.577205,107.396101 C174.634946,108.710469 174.892935,110.201857 173.993659,111.301184 C173.100525,112.39356 171.555048,112.597972 170.261417,112.872701 C168.937483,113.153972 166.757271,114.094675 165.414499,113.426657 C164.504167,112.973272 164.331765,112.001499 164.289176,111.080828 C164.24413,110.116413 164.333403,109.125016 164.389095,108.161419 M178.475706,101.15214 C186.513907,98.9457191 194.398134,96.2519809 202.105454,93.0795103 C203.324554,92.577475 203.85077,94.5561809 202.649688,95.0504485 C194.942368,98.2229191 187.058141,100.916657 179.01994,103.123487 C177.745556,103.473031 177.206646,101.500457 178.475706,101.15214 M203.788935,100.528684 C196.17662,102.66356 188.634331,105.029422 181.166982,107.624634 C179.917578,108.058396 179.386039,106.08296 180.622339,105.653287 C188.090097,103.058484 195.632386,100.692622 203.244701,98.5577456 C204.517446,98.2008426 205.055947,100.173416 203.788935,100.528684 M207.524452,89.8583897 C208.393015,88.2014279 211.456123,87.9724868 213.078997,87.8825456 C213.547063,87.8567897 213.844774,88.0992221 213.979501,88.4238279 C214.37058,88.5509721 214.708423,88.8898868 214.746507,89.3727074 C214.931604,91.7287574 215.116291,94.0852162 215.301388,96.4412662 C215.347662,97.0307897 214.794829,97.4179456 214.277622,97.463325 C212.617483,97.6088662 210.978229,97.8451662 209.344298,98.1693632 C208.634214,98.3104074 208.129702,97.8717397 208.048211,97.1836897 C207.881541,95.7789721 207.714872,94.3742544 207.548203,92.9695368 C207.437227,92.0361926 207.056386,90.7504426 207.524452,89.8583897 M161.06677,102.639849 C161.509856,108.685122 161.384137,114.803984 161.347282,120.86929 C163.33994,120.499304 165.164291,119.682884 167.224108,118.831713 C170.166412,117.615872 173.118543,116.423334 176.079684,115.254507 C188.41934,110.384193 200.921161,105.931287 213.554024,101.879437 C214.966821,101.330796 216.355867,100.578969 217.769483,99.9677779 C217.742046,94.4924044 217.714609,89.0170309 217.687172,83.5416574 C198.411706,88.6057544 179.850829,95.9400485 161.026638,102.409272 C161.047114,102.481225 161.061037,102.558084 161.06677,102.639849" id="Fill-43" fill="#FFFFFF"></path>
                <path d="M220.64086,101.14846 C219.814886,101.03726 218.348443,102.07976 217.558915,102.42399 C216.415573,102.922346 215.261174,103.399034 214.098586,103.850375 C202.475975,107.578028 190.96475,111.644187 179.588663,116.064796 C174.641416,117.987084 169.740443,120.015257 164.829642,122.02626 C162.746074,122.879884 160.958169,123.304243 158.711207,123.13131 C156.831573,122.986587 153.638652,122.400334 153.007602,124.682796 C153.007602,124.725313 153.010878,124.765787 153.005145,124.811575 C152.855675,126.062984 153.035449,127.181525 153.876575,128.162293 C156.415514,130.68964 163.168275,129.585816 165.746118,128.944781 C170.751924,127.700731 175.545196,125.55359 180.341335,123.691807 C190.54173,119.733169 200.741716,115.774122 210.94211,111.815484 C213.586293,110.788928 216.237028,109.777907 218.875478,108.736225 C220.246096,108.195351 221.322688,107.924301 221.579449,106.312719 C221.704758,105.525734 221.692472,104.67579 221.717043,103.880628 C221.743661,103.007381 221.823924,101.307901 220.64086,101.14846" id="Fill-45" fill="#FFFFFF"></path>
                <path d="M153.409082,75.8118674 C162.314208,69.4113262 171.087473,62.8317203 179.728059,56.0795909 C180.505302,55.4720791 179.41192,54.3940115 178.642048,54.9957997 C170.104658,61.6673909 161.432951,68.1640056 152.633887,74.4880968 C151.839035,75.0592232 152.604812,76.3899438 153.409082,75.8118674" id="Fill-47" fill="#FFFFFF"></path>
                <path d="M178.773581,64.7450962 C182.334239,61.9716374 185.964513,59.2917991 189.65949,56.6994491 C190.461713,56.1364991 189.695526,54.8065962 188.884294,55.3756785 C185.082027,58.0432521 181.351833,60.8073079 177.68757,63.6608962 C176.909508,64.2671815 178.00289,65.3452491 178.773581,64.7450962" id="Fill-49" fill="#FFFFFF"></path>
                <path d="M172.104319,67.729835 C172.031017,67.8030144 171.958125,67.875785 171.884823,67.9489644 C171.600626,68.2326879 171.579332,68.7527115 171.884823,69.0331644 C172.191544,69.3140262 172.66739,69.3361026 172.970834,69.0331644 L173.19033,68.814035 C173.474527,68.5299026 173.495822,68.0098791 173.19033,67.729835 C172.88361,67.4489732 172.407763,67.4268968 172.104319,67.729835" id="Fill-51" fill="#FFFFFF"></path>
                <path d="M157.943178,63.2328579 C160.645511,61.1098374 163.347434,58.9864079 166.049767,56.8633874 C166.825781,56.2534226 165.732399,55.175355 164.964165,55.7791874 C162.261833,57.9026168 159.5595,60.0256374 156.857167,62.1486579 C156.081152,62.7586226 157.174535,63.8366903 157.943178,63.2328579" id="Fill-53" fill="#FFFFFF"></path>
                <path d="M55.0486757,68.212165 C54.9270523,62.8062915 54.8058384,57.4008268 54.684215,51.9949532 C54.6653777,51.1413297 53.3340724,51.1384679 53.3533192,51.9949532 C53.4749426,57.4008268 53.5961565,62.8062915 53.7177799,68.212165 C53.7370267,69.0657885 55.0679225,69.0690591 55.0486757,68.212165" id="Fill-55" fill="#FFFFFF"></path>
                <path d="M59.4198698,68.3516147 C59.3776907,63.7466265 59.3355115,59.1416382 59.2933324,54.53665 C59.2855517,53.6822088 57.9546559,53.6801647 57.9624366,54.53665 C58.0046157,59.1416382 58.0467949,63.7466265 58.088974,68.3516147 C58.0967547,69.2060559 59.4276505,69.2081 59.4198698,68.3516147" id="Fill-57" fill="#FFFFFF"></path>
                <path d="M63.3169784,66.7632535 C63.222792,63.6794976 63.2895415,60.6039182 63.5188651,57.5271124 C63.5827481,56.6743065 62.2514428,56.6783947 62.1879693,57.5271124 C61.9586457,60.6039182 61.8918962,63.6794976 61.9860826,66.7632535 C62.012291,67.6164682 63.3431868,67.6201476 63.3169784,66.7632535" id="Fill-59" fill="#FFFFFF"></path>
                <path d="M50.3314486,66.2875874 C51.3679093,62.0963285 50.4780519,57.4136638 50.6893572,53.1201991 C50.7315364,52.2653491 49.4006406,52.2678021 49.3584614,53.1201991 C49.2523993,55.2746991 49.2196388,57.4283815 49.2917119,59.5849256 C49.362966,61.7304315 49.5701762,63.8236079 49.0480556,65.9343638 C48.8428929,66.7646844 50.1258764,67.1187256 50.3314486,66.2875874" id="Fill-61" fill="#FFFFFF"></path>
                <path d="M46.3852402,62.9150794 C46.4261909,60.0251059 46.4671415,57.1351324 46.5085016,54.2451588 C46.5203773,53.3899 45.1894815,53.3894912 45.1776059,54.2451588 C45.1362457,57.1351324 45.0952951,60.0251059 45.0543444,62.9150794 C45.0420592,63.7703382 46.372955,63.7707471 46.3852402,62.9150794" id="Fill-63" fill="#FFFFFF"></path>
                <path d="M62.9826574,71.7213426 C61.2000761,74.1477103 55.5603539,73.2131397 53.162694,72.5590221 C50.3686318,71.796975 47.8219115,70.3763132 45.9140212,68.1809309 C45.3513594,67.5341721 44.4135898,68.4773279 44.9729755,69.1204074 C47.4214143,71.9380191 50.9517689,73.6166485 54.602928,74.2343809 C57.4813484,74.7212897 62.1763393,75.0536632 64.1317324,72.3918132 C64.6391108,71.7017191 63.4847122,71.0381985 62.9826574,71.7213426" id="Fill-65" fill="#FFFFFF"></path>
                <path d="M135.35632,126.888194 C133.09134,126.873476 132.506565,124.145397 132.409103,122.338806 C132.365286,121.524838 132.40337,120.664674 132.610989,119.870738 C132.680196,119.547768 132.787896,119.244012 132.931633,118.958244 C133.081103,118.661029 133.269885,118.383438 133.500028,118.127106 C134.812496,117.338485 135.495962,117.426791 135.550426,118.392841 C135.66345,118.890788 136.030777,119.110735 136.420218,119.121774 C136.55945,119.447606 136.699092,119.795515 136.834229,120.157324 C137.926792,123.088997 138.654485,126.909453 135.35632,126.888194 M139.010755,127.034962 C140.151231,125.326488 139.992752,123.079185 139.356379,120.932453 C138.84081,119.194135 138.013198,117.522047 137.305161,116.255512 C137.036935,115.775553 136.572554,115.679071 136.168781,115.809485 C134.747384,114.971806 132.656035,115.645138 131.49017,117.374053 C131.288284,117.673312 131.115472,118.00405 130.963545,118.353594 C129.76492,121.113562 130.118324,125.228779 131.995911,127.407809 C133.875136,129.588474 137.393205,129.458468 139.010755,127.034962" id="Fill-67" fill="#2E2E7F"></path>
                <path d="M26.6538706,96.8470235 C26.5473989,97.0224088 26.5056293,97.1945235 26.5048102,97.3572353 C26.3078377,97.2472618 26.0686859,97.1969765 25.7930881,97.2529853 C23.6796256,97.6806147 23.3462874,94.1402029 23.2209784,92.8078471 C23.0747846,91.2506382 23.4765104,88.0699912 26.0101265,90.1047059 C27.9683861,91.67745 27.8242399,94.9190118 26.6538706,96.8470235 M28.4217097,97.8788941 C29.723121,95.7354324 29.9286932,93.1238676 28.9180314,90.8136059 C28.7009931,90.3172941 28.3959108,89.8034029 28.0277645,89.3267147 C26.8582143,87.8112059 25.0314062,86.6730412 23.2013221,87.6893765 C23.0690516,87.7629647 22.9490662,87.8443206 22.8323569,87.9277206 C20.7360936,89.4281029 21.0534611,92.49755 21.4592819,94.7387206 C21.9199766,97.2828294 23.3790479,99.82285 26.3373221,99.2239235 C26.902441,99.1094529 27.1153843,98.6675147 27.0678815,98.2280294 C27.5064629,98.46065 28.091238,98.4238559 28.4217097,97.8788941" id="Fill-69" fill="#2E2E7F"></path>
                <path d="M42.7770793,20.6567491 C57.2261031,19.3055874 71.7254962,18.6007756 86.2379934,18.5447668 C87.5553755,18.5398609 87.5578325,16.4957432 86.2379934,16.5006491 C71.7254962,16.5566579 57.2261031,17.2614697 42.7770793,18.6126315 C41.4760775,18.7340521 41.4633828,20.7793962 42.7770793,20.6567491" id="Fill-71" fill="#2E2E7F"></path>
                <path d="M82.0045163,24.9874985 C91.3085016,24.5046779 100.620677,24.2303574 109.936948,24.1641279 C111.25392,24.154725 111.257196,22.1106074 109.936948,22.1200103 C100.620677,22.1862397 91.3085016,22.4605603 82.0045163,22.9433809 C80.6936863,23.0112456 80.6854962,25.0557721 82.0045163,24.9874985" id="Fill-73" fill="#2E2E7F"></path>
                <path d="M72.6001609,24.9211874 C72.7635539,25.0769491 72.8470932,25.248655 72.8712541,25.4183168 C72.8343985,25.2355726 72.7475832,25.0618226 72.6001609,24.9211874 M71.3847459,26.138255 C71.5145594,26.2788903 71.6902377,26.3667874 71.8786106,26.4076697 C71.7074369,26.3839579 71.5362633,26.3021932 71.3847459,26.138255 M71.1693455,24.706555 C70.7188885,25.1558521 70.6783473,25.9154462 71.1521463,26.3667874 C71.5399488,26.735955 72.2201389,26.7801079 72.6001609,26.3667874 C72.6267788,26.3373521 72.6480731,26.3046462 72.671415,26.2727579 C72.7299744,26.2347374 72.7844388,26.1901756 72.832351,26.138255 C73.2197441,25.7171668 73.2209726,25.1129256 72.832351,24.6930638 C72.3876271,24.2122874 71.6165265,24.2605285 71.1693455,24.706555" id="Fill-75" fill="#2E2E7F"></path>
                <path d="M117.504298,37.7178953 C122.133359,36.8761276 126.846777,36.3871747 131.549139,36.78496 C132.862017,36.89616 132.854646,34.8512247 131.549139,34.7408424 C126.666595,34.3279306 121.764803,34.8728924 116.960064,35.7469571 C115.665615,35.9824394 116.213944,37.95256 117.504298,37.7178953" id="Fill-77" fill="#2E2E7F"></path>
                <path d="M150.279716,37.305515 C142.098188,37.9653562 133.91666,38.6256062 125.734722,39.2854474 C124.430444,39.390515 124.418978,41.4358591 125.734722,41.329565 C133.91666,40.6697238 142.098188,40.0094738 150.279716,39.3496326 C151.583994,39.244565 151.59546,37.1992209 150.279716,37.305515" id="Fill-79" fill="#2E2E7F"></path>
                <path d="M150.846596,32.906165 C152.727049,32.8068209 154.607912,32.7074768 156.488366,32.6081326 C157.799196,32.5390415 157.807386,30.494515 156.488366,30.564015 C154.607912,30.6633591 152.727049,30.7627032 150.846596,30.8620474 C149.535766,30.9311385 149.527576,32.975665 150.846596,32.906165" id="Fill-81" fill="#2E2E7F"></path>
                <path d="M26.1620943,68.5347676 C20.8880614,67.2138588 15.3793814,69.4231412 12.4731144,74.0064618 C11.7658969,75.1213235 13.5370121,76.1478794 14.2409536,75.0379235 C16.6488512,71.2411794 21.2562077,69.4133294 25.6178603,70.5057059 C26.8959298,70.8262235 27.4413923,68.8552853 26.1620943,68.5347676" id="Fill-83" fill="#2E2E7F"></path>
                <path d="M151.909224,115.583447 C152.25239,116.852026 154.228259,116.313606 153.883864,115.04012 C152.154518,108.648573 148.331776,102.319167 142.060186,99.5318085 C136.447901,97.0375762 129.343784,97.8756644 125.126277,102.540341 C124.245429,103.514567 125.688939,104.965073 126.574292,103.985941 C130.443308,99.7063762 137.076902,99.143835 142.054862,101.794238 C147.295316,104.584459 150.405517,110.025082 151.909224,115.583447" id="Fill-85" fill="#2E2E7F"></path>
                <g id="Group-89" transform="translate(0.000000, 0.099753)" fill="#2E2E7F">
                    <path d="M203.641226,72.2369509 C196.483873,73.8751068 189.4506,76.2896185 182.461145,78.4862274 C173.168626,81.4068626 163.903953,84.4149862 154.647061,87.4472303 C152.063895,88.293495 149.481957,89.1434391 146.89879,89.9901126 C142.403639,78.4416656 138.768041,66.5457185 134.930147,54.7695568 C150.701467,49.6441362 166.588677,44.7897656 182.535675,40.2461009 C185.688056,39.3479156 188.848626,38.4256097 192.04769,37.6958597 C196.719339,48.8931274 198.993737,61.0278274 203.641226,72.2369509 M160.006681,100.50301 C159.971463,100.492789 159.939931,100.478889 159.901438,100.47153 C158.594293,100.219286 157.412458,98.8153862 156.396472,98.0128656 C155.465664,97.2778009 154.519295,96.5619509 153.570469,95.8501891 C151.762498,94.4941215 149.953708,93.1433685 148.205935,91.7120774 C163.709847,86.6369421 179.194103,81.4829038 194.828648,76.8210891 C198.208304,75.8133391 201.601474,74.7692038 205.04829,74.0071568 C205.08965,74.0010244 205.130191,73.9908038 205.171551,73.9789479 C205.223968,73.9675009 205.276385,73.9548274 205.329211,73.9433803 C205.4795,73.9106744 205.602761,73.8534391 205.704728,73.7810774 C207.889854,75.2867744 210.054505,76.8223156 212.24946,78.3137038 C213.796165,79.3647891 215.40962,80.6141538 217.13569,81.4726832 C197.700107,86.5792979 178.991807,93.9949479 160.006681,100.50301 M213.554147,101.779766 C200.921284,105.831616 188.419463,110.284521 176.079807,115.154836 C173.118666,116.323663 170.166535,117.516201 167.224231,118.732042 C165.164004,119.583213 163.340063,120.399633 161.346995,120.769619 C161.383851,114.704313 161.509569,108.585451 161.066893,102.540177 C161.06075,102.458413 161.046827,102.381554 161.026761,102.309601 C179.850951,95.8403774 198.411419,88.5056744 217.686886,83.4419862 C217.714322,88.9173597 217.742169,94.3927332 217.769606,99.8681068 C216.35599,100.479298 214.966535,101.231124 213.554147,101.779766 M50.2769843,5.07092441 C53.6210135,4.11836559 56.9740519,3.13759794 60.372136,2.38985971 C74.3170574,6.27368324 88.4454377,9.44206559 102.41452,13.2478038 C111.401547,15.6966568 120.374242,18.1974303 129.383383,20.5649274 C139.444136,23.2087891 149.588019,25.5116921 159.654915,28.1285715 C169.409767,30.6645038 179.102374,33.4367362 188.742154,36.3782215 C182.473021,37.9292979 176.281284,39.9120921 170.111251,41.7583391 C160.770001,44.5530568 151.451273,47.4246332 142.147697,50.3424068 C139.113664,51.2941479 136.077993,52.2434362 133.054608,53.2295185 C133.033313,53.2364685 133.016524,53.2470979 132.996458,53.2548656 C128.131931,51.7495774 123.252663,50.3219656 118.361518,48.9470921 C118.179288,48.8268979 117.957745,48.7672097 117.734564,48.7717068 C104.483346,45.0591803 91.1461324,41.7325832 77.7835291,38.3434362 C60.5453572,33.9710685 43.4828636,28.9413126 26.2438728,24.5730332 C19.1192804,22.7676685 11.4025419,21.6282774 4.43192395,19.0252979 C19.6250208,14.1100126 34.9229514,9.44615382 50.2769843,5.07092441 M32.7795949,82.1165803 C31.2070903,79.8991215 29.1132841,78.0197597 26.483434,77.1767656 C23.9055912,76.3509421 20.9100519,76.5946009 18.6942128,78.2217185 C16.6323481,79.7355921 15.6175912,82.1280274 15.0082457,84.5409038 C11.1785419,83.4370803 7.34187642,82.3586038 3.49579232,81.3148774 C3.27302084,61.0454068 2.97653821,40.7767538 2.67718903,20.5085097 C8.77269177,22.8817303 15.4247137,23.9986362 21.7282457,25.5513479 C30.0490062,27.6015979 38.3218545,29.8403156 46.5865126,32.1043803 C55.4535547,34.5340185 64.3156826,36.9812362 73.2171232,39.2841391 C80.4789002,41.1626832 87.7832658,42.8691126 95.0601945,44.6855156 C95.029891,65.4316744 95.4013133,86.1753803 95.4590537,106.920721 C93.8660739,106.477148 92.2743225,106.029486 90.6801141,105.591636 C79.6435071,102.561027 68.4824102,100.026321 57.4539934,96.9564656 C50.3167064,94.9695832 43.2080848,92.880495 36.1060154,90.7705568 C36.0892256,90.7652421 36.0720263,90.7603362 36.0548271,90.7550215 C36.053189,90.7006479 36.050732,90.6450479 36.0478654,90.5874038 C36.0171525,89.9688538 35.9332037,89.2231597 35.9164139,89.1368979 C35.7214888,88.147545 35.3947027,87.1970303 35.0142713,86.2657303 C34.6878947,85.4664803 34.3156534,84.6831744 33.8995949,83.9243979 C33.8164651,83.7727244 33.7288307,83.623095 33.6416059,83.4734656 C33.3717411,83.0102685 33.0895912,82.5540215 32.7795949,82.1165803 M98.4795729,107.760854 C98.1564724,107.670095 97.8325528,107.581789 97.5090428,107.49103 C97.5078143,106.983271 97.5041287,106.475513 97.5024907,105.967754 C97.4369697,85.7113656 97.0847941,65.4570215 97.108136,45.2002244 C98.5291232,45.5595803 99.9488819,45.9226156 101.366593,46.2950538 C103.329357,46.8105803 105.288845,47.3383715 107.247105,47.8718862 C107.907639,48.0517685 108.568582,48.2300156 109.228706,48.4119421 C111.728333,49.1012185 114.223456,49.8056215 116.714893,50.5222891 C116.529386,65.4112332 116.513006,80.3038568 116.676399,95.1936185 C116.68377,95.8816685 116.688684,96.5701274 116.697284,97.2581774 C116.709979,98.3080362 116.726359,99.357895 116.741101,100.408163 C116.75052,101.087219 116.760348,101.766274 116.770586,102.44533 C116.823412,105.967754 116.8832,109.490177 116.956911,113.011783 C110.800801,111.25098 104.644692,109.490586 98.4795729,107.760854 M143.523639,112.19986 C141.951134,109.982401 139.857328,108.10263 137.227478,107.260045 C136.970717,107.177871 136.708633,107.109189 136.444502,107.048274 C135.967836,106.93871 135.481752,106.865121 134.992801,106.828327 C133.034951,106.681969 131.034513,107.132901 129.438257,108.304998 C127.136012,109.995074 126.140092,112.780389 125.555317,115.46636 C123.375105,114.846174 121.195302,114.222719 119.0155,113.599671 C118.573642,92.7758362 118.502798,71.9413715 118.755873,51.1142656 C123.394761,52.4625656 128.021365,53.8525656 132.635273,55.2822215 C132.750754,55.3177891 132.858045,55.3280097 132.960421,55.3271921 C136.820429,67.1720362 140.476502,79.1383009 145.008509,90.7488891 C144.409811,91.4021891 144.904904,92.6985685 145.909833,92.4545009 C148.047046,94.2668156 150.295646,95.9339979 152.537284,97.6154891 C153.83501,98.5888979 155.125365,99.5721185 156.371083,100.611348 C157.250703,101.344777 157.955054,102.049998 159.024275,102.357433 C159.018951,102.415895 159.014447,102.475174 159.019361,102.540177 C159.467361,108.653724 159.333452,114.842495 159.298644,120.974848 C158.916165,120.979754 158.525496,120.967489 158.122132,120.932739 C156.222842,120.76921 154.190461,120.576245 152.570864,121.785954 C152.147434,122.101974 151.807544,122.480136 151.54505,122.89918 C151.229321,122.811692 150.912772,122.731563 150.586805,122.665742 C151.14701,122.778986 150.134301,122.525107 149.982374,122.483816 C149.074907,122.236069 148.171127,121.973604 147.268165,121.71073 C147.24769,121.664942 147.227215,121.618745 147.206739,121.572957 C147.160465,121.467889 147.087163,121.379583 146.998301,121.306813 C146.938922,121.258571 146.871763,121.219733 146.800918,121.185801 C146.805423,121.035763 146.800918,120.848113 146.790681,120.645745 C146.758739,120.03251 146.676838,119.305621 146.660048,119.220177 C146.465533,118.230824 146.138337,117.28031 145.758315,116.34901 C145.445452,115.582874 145.092048,114.831457 144.697694,114.102116 C144.569518,113.865407 144.43479,113.632786 144.297196,113.401801 C144.053131,112.99216 143.799237,112.588651 143.523639,112.19986 M153.87637,128.062621 C153.205599,127.395013 152.825167,126.477613 152.89765,125.227021 C152.904202,125.115413 152.924677,125.018521 152.940238,124.916724 C152.94679,124.873798 152.950067,124.826783 152.958257,124.785492 C152.97177,124.715174 152.989379,124.648536 153.007807,124.583124 C153.638856,122.300663 156.831778,122.886916 158.711003,123.031639 C160.958374,123.204163 162.745869,122.779804 164.829438,121.926589 C169.740648,119.915586 174.64162,117.887413 179.588458,115.965124 C190.964546,111.544107 202.47618,107.478357 214.098381,103.750704 C215.261379,103.298954 216.415368,102.822266 217.55912,102.32391 C218.348238,101.980089 219.814681,100.93718 220.641065,101.048789 C221.823719,101.20823 221.743865,102.90771 221.716838,103.780957 C221.692677,104.576119 221.704962,105.425654 221.579653,106.213048 C221.322893,107.82463 220.246301,108.095271 218.875273,108.636554 C216.237233,109.678236 213.586088,110.689257 210.941906,111.715813 C200.74192,115.674451 190.541525,119.633498 180.34154,123.592136 C175.544992,125.453919 170.752129,127.60106 165.746322,128.84511 C163.16848,129.485736 156.415719,130.589969 153.87637,128.062621 M223.338893,100.886895 C222.673035,99.3807891 221.338864,98.7953538 219.813452,99.1363126 C219.784787,93.4622509 219.756531,87.7885979 219.727865,82.1145362 C219.726637,81.8860038 219.661116,81.6999891 219.55833,81.5507685 C219.795844,81.0352421 219.661525,80.3026303 218.965365,80.0581538 C216.792524,79.2944715 214.737211,77.5422538 212.857167,76.2585479 C210.537723,74.6747656 208.252677,73.0415156 205.932823,71.4573244 C205.765335,71.3428538 205.599895,71.2933862 205.442644,71.2852097 C200.681723,59.8352891 198.417152,47.4050097 193.54116,35.9959715 C193.367939,35.5908274 193.053438,35.4432421 192.731566,35.4661362 C183.160582,32.5025744 173.538001,29.7004979 163.856041,27.1200038 C153.779727,24.4348509 143.606359,22.1401244 133.511207,19.5281509 C115.426995,14.8499832 97.5123188,9.52383029 79.3503005,5.14410382 C73.0930428,3.635545 66.8705931,2.08242441 60.6706662,0.351465588 C60.4319239,0.284827353 60.2193901,0.300362647 60.0392073,0.371497941 C52.5497448,1.99411853 45.1864102,4.38900676 37.8525601,6.58316265 C28.5113097,9.37828912 19.1925821,12.2498656 9.88900622,15.1676391 C7.09207751,16.0449744 4.29514881,16.9227185 1.50681974,17.8266274 C0.53506106,17.4406979 -0.310569653,18.5576038 0.111221938,19.2542391 C0.170600366,19.5641274 0.350373675,19.8433538 0.621876417,19.9839891 C0.922044607,40.3004744 1.21975576,60.6173685 1.44375576,80.9346715 C0.639485192,81.2286156 0.457664351,82.6071685 1.5039532,82.8880303 C1.54940841,82.900295 1.59527313,82.9133774 1.64072834,82.9256421 C1.91673565,83.3087097 2.45646508,83.4235891 2.88603729,83.2682362 C6.97454918,84.3769656 11.0528234,85.5237156 15.122498,86.6999009 C15.2449404,86.7354685 15.3677923,86.7694009 15.4906442,86.8049685 C15.7150537,86.8699715 15.9153024,86.8589332 16.0881141,86.799245 C16.1216936,86.7914774 16.1536351,86.7796215 16.1859861,86.7681744 C16.4271854,86.6835479 16.6270245,86.4942626 16.720392,86.1823303 C16.7298106,86.1516685 16.7425053,86.1246862 16.7494669,86.0911626 C17.1172037,84.3540715 17.6720848,82.4738921 18.7433536,81.0524126 C19.4505711,80.1137538 20.3809697,79.3733744 21.6389733,79.0136097 C21.7290647,78.987445 21.8191561,78.9702744 21.909657,78.9481979 C24.8466369,78.2364362 27.7860739,79.5855538 29.8082165,81.6983538 C31.8258545,83.8062479 33.4143298,86.8102832 33.941774,89.6802244 C34.0003335,89.9974715 34.0257229,90.4144715 34.0613499,90.8515038 C34.0715876,90.9766038 34.0826442,91.1033391 34.0957484,91.2300744 C34.1203188,91.4716891 34.1522603,91.7124862 34.197306,91.9402009 C34.1977155,91.9684097 34.1936205,91.9933479 34.195668,92.0231921 C34.6018984,97.1146803 32.7734523,101.885651 28.4244943,104.809148 C27.7606845,105.255583 27.8859934,106.088357 28.3323554,106.502086 C28.6169623,106.766186 29.0309733,106.861442 29.4580885,106.574448 C29.5166479,106.534792 29.5702932,106.491457 29.6284431,106.451392 C33.9495547,103.465345 36.208392,98.8595391 36.2919313,93.7721391 C36.2952073,93.5538274 36.3025784,93.3363332 36.2980739,93.1159774 C36.2972548,93.0865421 36.2943883,93.0566979 36.2939788,93.0268538 C36.3181397,93.0109097 36.3463956,92.9982362 36.368509,92.9802479 C36.3836607,92.984745 36.3992219,92.9896509 36.4143737,92.9941479 C37.0077484,93.1699421 37.6007137,93.3457362 38.1940885,93.5211215 C39.9922311,94.0530009 41.7907832,94.5824274 43.5905638,95.1089921 C53.7356753,98.0758244 63.9110903,100.93718 74.1692256,103.494371 C84.2004943,105.995145 94.1609185,108.656586 104.107829,111.48033 C111.207032,113.49583 118.300911,115.529727 125.399295,117.548089 C125.762527,117.651521 126.063924,117.559945 126.2826,117.373521 C126.425109,117.252101 126.530761,117.090616 126.594235,116.911142 C126.594644,116.909507 126.595463,116.907463 126.596282,116.905419 C126.999237,116.909507 127.383763,116.692421 127.493511,116.174442 C128.104494,113.290601 129.218761,110.002433 132.383017,109.096889 C132.469423,109.071951 132.556238,109.055189 132.642644,109.034339 C135.58331,108.316036 138.527251,109.66638 140.551851,111.781633 C142.569898,113.889527 144.158374,116.893563 144.685818,119.763504 C144.768129,120.211574 144.784918,120.856698 144.857811,121.478927 C144.898352,121.82193 144.955683,122.156757 145.050688,122.448248 C145.054374,122.494036 145.05765,122.539824 145.060926,122.585613 C145.514249,128.415027 142.678418,134.03676 136.793401,135.827816 C136.72829,135.847848 136.670959,135.874421 136.615266,135.902221 C136.244663,136.087419 136.082088,136.435327 136.081269,136.788142 C136.08045,137.405466 136.574725,138.031374 137.338045,137.799163 C137.65746,137.701863 137.967456,137.591071 138.272948,137.474557 C139.005555,137.194104 139.699259,136.862139 140.347917,136.478254 C144.738235,133.881407 147.176026,129.04993 147.163741,123.870136 C147.163741,123.852966 147.162922,123.835386 147.162513,123.818216 C148.200611,124.132192 149.243624,124.446986 150.299741,124.671839 C150.418907,124.697186 150.493847,124.712313 150.54135,124.720898 C150.659288,124.756466 150.776407,124.792851 150.893935,124.828827 C150.873869,125.017295 150.86445,125.206989 150.865269,125.39791 C150.866498,125.786701 150.910315,126.177536 150.995083,126.562648 C151.035624,126.746619 151.082308,126.929771 151.140867,127.110063 C151.37101,127.815692 151.703939,128.418298 152.114673,128.933824 C152.212955,129.057698 152.314922,129.177483 152.422213,129.291136 C152.57373,129.451395 152.735485,129.599798 152.902973,129.741251 C153.165467,129.962833 153.446388,130.16193 153.74328,130.339769 C156.260107,131.846692 159.886695,131.850371 162.625884,131.504507 C168.718929,130.73551 174.456933,128.058533 180.130235,125.85661 C182.892765,124.784266 185.655295,123.71233 188.417416,122.639986 C188.860502,122.46828 189.303997,122.296166 189.747083,122.124051 C190.209006,121.944986 190.670929,121.765513 191.133262,121.586039 C196.105079,119.656392 201.076897,117.726745 206.048714,115.797098 C206.499171,115.622121 206.950037,115.447554 207.400494,115.272577 C207.823924,115.10823 208.246944,114.943883 208.669964,114.779945 C211.749452,113.584545 214.82894,112.389554 217.908429,111.194154 C220.035405,110.368739 222.737328,109.866704 223.442907,107.385963 C223.966257,105.545848 224.125555,102.665686 223.338893,100.886895" id="Fill-87"></path>
                </g>
                <path d="M106.640995,98.0452853 C107.577126,97.4120176 108.500973,96.7599441 109.557499,96.3462147 C109.817126,96.2448265 109.992395,96.0727118 110.102552,95.8727971 C112.31143,96.3090118 114.469938,97.0207735 116.697243,97.3576441 C116.688644,96.6695941 116.683729,95.9815441 116.676358,95.2934941 C114.404007,94.8863059 112.192263,94.1467441 109.914179,93.7718529 C109.401887,78.6968941 109.234808,63.5933176 109.229075,48.5118176 C108.568951,48.3298912 107.907598,48.1516441 107.247064,47.9713529 C107.207342,48.0801 107.181133,48.1990676 107.181133,48.3356147 C107.186048,63.8529206 107.35845,79.3935294 107.903503,94.90225 C106.349835,95.7411559 104.986179,96.8895412 103.349792,97.5943529 C103.346516,97.5959882 103.344059,97.5980324 103.340373,97.5996676 C103.300651,97.6172471 103.268709,97.6385059 103.233492,97.6585382 C102.857155,97.8764412 102.759283,98.2345706 102.848146,98.5767559 C102.929229,100.1495 103.010311,101.722244 103.090984,103.294988 C103.092212,103.317065 103.098355,103.335871 103.100402,103.357129 C102.961989,103.364079 102.817433,103.401282 102.67042,103.474871 C100.947627,104.339124 99.2252431,105.203376 97.5024497,106.067221 C97.5040878,106.574979 97.5077733,107.083147 97.5090018,107.590906 C97.8325119,107.681256 98.1564314,107.769971 98.479532,107.860729 C100.204373,106.99525 101.929214,106.130179 103.654055,105.2647 C103.706472,105.286776 103.758479,105.308444 103.818267,105.323571 C107.342069,106.206221 110.874062,107.102771 114.339305,108.194329 C115.598947,108.591297 116.137857,106.618315 114.883539,106.223391 C111.667276,105.209918 108.394091,104.366106 105.122545,103.544371 C105.136468,103.467103 105.14343,103.384521 105.138516,103.294988 C105.077909,102.114306 105.016892,100.934032 104.956285,99.75335 C108.802369,100.6082 112.580066,101.755768 116.444578,102.531715 C116.560059,102.555018 116.667759,102.555018 116.770545,102.544797 C116.760307,101.865741 116.750479,101.186685 116.74106,100.507629 C113.345433,99.8114029 110.01328,98.8429 106.640995,98.0452853" id="Fill-90" fill="#D8DEFD"></path>
                <path d="M131.127471,66.9904368 C130.445642,64.8334838 129.796165,62.6556809 129.01237,60.5326603 C128.295734,58.5923838 127.197847,58.4652397 125.124516,57.9493044 C124.828034,57.8753074 124.572911,57.9280456 124.368977,58.0515103 C123.919339,58.1152868 123.516794,58.4386662 123.522937,59.0253279 C123.6032,66.6114574 123.18837,74.3750162 123.865694,81.9366162 C123.982403,83.2370838 124.505752,83.6471338 125.697416,84.0580015 C128.989847,85.1933044 132.44731,85.9569868 135.795434,86.9050485 C136.517803,87.1094603 137.304056,86.3948368 137.054666,85.6475074 C134.990754,79.4571015 133.094739,73.2119132 131.127471,66.9904368" id="Fill-92" fill="#D8DEFD"></path>
                <path d="M189.659408,56.69949 C185.964431,59.29184 182.334157,61.9716782 178.773499,64.7451371 C178.002808,65.34529 176.909426,64.2672224 177.687488,63.6609371 C181.351751,60.80694 185.081945,58.0432929 188.884212,55.3757194 C189.695444,54.8066371 190.46204,56.13654 189.659408,56.69949 M156.857126,62.1486988 C159.559459,60.0256782 162.261792,57.9026576 164.964124,55.7792282 C165.732358,55.1753959 166.82574,56.2534635 166.049726,56.8634282 C163.347393,58.9864488 160.64547,61.1098782 157.943137,63.2328988 C157.174494,63.8367312 156.081112,62.7586635 156.857126,62.1486988 M173.190289,68.8137488 L172.970793,69.0328782 C172.667349,69.3358165 172.191503,69.31374 171.884782,69.0328782 C171.579291,68.7528341 171.600585,68.2328106 171.884782,67.9490871 C171.958084,67.8759076 172.030976,67.8027282 172.104278,67.7299576 C172.407722,67.4270194 172.883569,67.4490959 173.190289,67.7299576 C173.495781,68.0100018 173.474486,68.5300253 173.190289,68.8137488 M153.409082,75.81199 C152.604812,76.3896576 151.839035,75.0593459 152.633887,74.4882194 C161.432951,68.1641282 170.104658,61.6671047 178.642048,54.9959224 C179.41192,54.3941341 180.505302,55.4722018 179.728059,56.0797135 C171.087473,62.8318429 162.314208,69.4114488 153.409082,75.81199 M197.310216,69.2107165 C197.716446,69.0275635 197.999415,68.6146518 197.823327,68.0619224 C196.548534,64.0624018 195.292578,60.0567488 193.98011,56.0690841 C193.540709,54.7342753 193.096395,53.4011018 192.653309,52.0675194 L190.575473,44.9928282 C190.596358,44.9310959 190.617243,44.8697724 190.648366,44.8178518 C190.875232,44.4360106 190.821996,44.0684782 190.630347,43.7892518 C190.493572,43.2982547 190.04762,42.9115076 189.421484,43.1171459 C173.871707,48.2241694 157.90792,51.9714459 142.431444,57.3114988 C142.265185,57.3691429 142.132914,57.4558135 142.02808,57.5596547 C141.780329,57.6618606 141.569433,57.8642282 141.466647,58.1904694 C141.146004,59.2088488 141.833974,60.6499518 142.155846,61.6016929 C142.961346,63.9826812 143.842194,66.3387312 144.647693,68.7201282 C145.494552,71.2225371 146.320527,73.7318959 147.171071,76.2330782 C147.916373,78.4239635 148.444636,81.2395312 149.749324,83.1834871 C149.771437,83.2166018 149.790684,83.2525782 149.813207,83.2848753 C149.830815,83.31104 149.845558,83.3408841 149.863985,83.3662312 C150.354574,84.0514194 151.265726,83.86704 151.645338,83.3629606 C166.783561,78.6455459 181.952497,74.0266576 197.089901,69.3059724 C197.170984,69.2806253 197.243876,69.2483282 197.310216,69.2107165" id="Fill-94" fill="#D8DEFD"></path>
                <path d="M173.944722,102.777867 C173.276818,101.897261 172.296459,101.95695 171.357052,102.305267 C169.295596,103.070585 167.287377,104.040723 165.264825,104.903341 C165.112898,104.968344 164.996598,105.05297 164.91183,105.15027 C164.852452,105.189517 164.797578,105.232853 164.755399,105.286 C164.7296,105.318706 164.703392,105.351411 164.677183,105.384117 C164.397081,105.736932 164.29839,106.181323 164.492905,106.566844 C164.340978,106.8289 164.407728,107.837059 164.3893,108.161256 C164.333198,109.125261 164.244335,110.116659 164.288971,111.080664 C164.331969,112.001744 164.503962,112.973517 165.414704,113.426494 C166.757066,114.09492 168.937688,113.153809 170.261212,112.872947 C171.555253,112.597809 173.10032,112.393806 173.993863,111.301429 C174.89273,110.202103 174.634741,108.710306 174.57741,107.396347 C174.519669,106.076256 174.820247,103.932385 173.944722,102.777867" id="Fill-96" fill="#D8DEFD"></path>
                <path d="M214.746466,89.3726665 C214.708382,88.8898459 214.370539,88.55134 213.97946,88.4237871 C213.844733,88.0991812 213.547022,87.8567488 213.078956,87.8825047 C211.456491,87.9724459 208.392974,88.2017959 207.524411,89.8583488 C207.056345,90.7504018 207.437186,92.0361518 207.548162,92.9694959 C207.714831,94.3742135 207.881501,95.7789312 208.04817,97.1836488 C208.130071,97.8716988 208.634173,98.3103665 209.344257,98.1693224 C210.978188,97.8451253 212.617442,97.6088253 214.277581,97.4632841 C214.795197,97.4179047 215.347621,97.0307488 215.301347,96.4412253 C215.11625,94.0851753 214.931563,91.7287165 214.746466,89.3726665" id="Fill-98" fill="#D8DEFD"></path>
                <path d="M202.105249,93.0794285 C194.398339,96.2518991 186.513702,98.9456374 178.475501,101.152058 C177.206441,101.500784 177.745351,103.473358 179.019735,103.123405 C187.057936,100.916984 194.942573,98.2232462 202.649483,95.0503668 C203.850975,94.5560991 203.32435,92.5773932 202.105249,93.0794285" id="Fill-100" fill="#D8DEFD"></path>
                <path d="M203.244823,98.5577456 C195.632509,100.692622 188.09022,103.058484 180.622461,105.653287 C179.385752,106.08296 179.917701,108.058396 181.166695,107.624634 C188.634454,105.029422 196.176743,102.66356 203.789057,100.528684 C205.055661,100.173825 204.517569,98.2008426 203.244823,98.5577456" id="Fill-102" fill="#D8DEFD"></path>
            </g>
        </g>
    </g>
</svg>
