<svg width="64" height="28" viewBox="0 0 64 28" xmlns="http://www.w3.org/2000/svg">
    <title>
        vend-logo
    </title>
    <g fill="#8CA1B4" fill-rule="evenodd">
        <path d="M21.368 12.642c-.861 0-1.58.232-2.156.726-.576.494-.938 1.264-1.083 1.987h6.19c-.116-.723-.427-1.445-.934-1.943-.538-.529-1.21-.77-2.017-.77M46.836 13.323c-.542-.327-1.158-.49-1.848-.49-1.418 0-2.412.693-2.984 2.08a4.787 4.787 0 0 0-.367 1.845c0 1.312.456 2.357 1.37 3.136.504.43 1.15.644 1.936.644 1.529 0 2.586-.663 3.173-1.99.252-.57.378-1.182.378-1.834 0-1.594-.553-2.724-1.658-3.391"/>
        <path d="M57.655 15.355c-.75 0-1.357-.607-1.357-1.355s.608-1.355 1.357-1.355c.75 0 1.358.607 1.358 1.355s-.608 1.355-1.358 1.355zm-6.788 6.639c0 .1-.081.225-.181.225h-1.759c-.1 0-.232-.125-.232-.225V20.38c-.905 1.449-2.196 2.173-3.756 2.173-1.737 0-3.068-.648-4.044-1.943a6.236 6.236 0 0 1-1.292-3.85c0-1.112.214-2.115.644-3.012.476-.996 1.161-1.747 2.06-2.253a5.118 5.118 0 0 1 2.553-.667c.76 0 1.497.208 2.235.621.738.414 1.238.95 1.6 1.61V5.572c0-.1.132-.154.232-.154h1.759c.1 0 .181.054.181.154v16.42zm-13.034 0c0 .1-.154.225-.254.225h-1.76c-.1 0-.158-.126-.158-.225v-6.486c0-.943-.192-1.628-.523-2.058-.376-.498-1.049-.747-1.963-.747-1.821 0-2.763 1.146-2.763 3.437v5.854c0 .1-.018.225-.119.225h-1.747c-.1 0-.126-.126-.126-.225V11.309c0-.1.026-.109.126-.109h1.747c.1 0 .119.01.119.11v1.393c.905-1.249 2.024-1.874 3.492-1.874 2.574 0 3.93 1.575 3.93 4.725v6.44zM26.417 16.35l-.017.473c-.004.097-.084.158-.181.158h-8.183c0 1.084.304 1.924.911 2.614.646.72 1.483 1.097 2.513 1.097 1.298 0 2.562-.846 3.217-1.95a.182.182 0 0 1 .248-.068l1.353.785a.182.182 0 0 1 .062.254c-1.209 1.894-2.916 2.84-5.122 2.84-1.614 0-2.917-.582-3.908-1.746-.968-1.135-1.452-2.656-1.452-4.564 0-.674.146-1.383.438-2.126.538-1.372 1.44-2.326 2.709-2.862.668-.284 1.406-.426 2.213-.426 2.32 0 3.88.97 4.68 2.916.376.912.55 1.777.519 2.605zM15.46 11.428l-5.198 10.635c-.098.203-.388.212-.488.01l-5.23-10.649c-.059-.12.029-.224.163-.224h2.006c.07 0 .135.014.164.078l3.143 6.769 3.11-6.777c.029-.065.093-.07.164-.07h2.004c.133 0 .221.108.162.228zm47.776 1.33L56.494 1.466A2.715 2.715 0 0 0 54.082 0H2.714A2.712 2.712 0 0 0 0 2.71v22.58A2.712 2.712 0 0 0 2.714 28h51.368a2.715 2.715 0 0 0 2.412-1.467l6.742-11.29a2.706 2.706 0 0 0 0-2.486z"/>
    </g>
</svg>
